<?xml version="1.0" encoding="utf-8"?>
<!-- Generator: Adobe Illustrator 16.0.0, SVG Export Plug-In . SVG Version: 6.00 Build 0)  -->
<!DOCTYPE svg PUBLIC "-//W3C//DTD SVG 1.1//EN" "http://www.w3.org/Graphics/SVG/1.1/DTD/svg11.dtd">
<svg version="1.1" id="Layer_1" xmlns="http://www.w3.org/2000/svg" xmlns:xlink="http://www.w3.org/1999/xlink" x="0px" y="0px"
	 width="612px" height="792px" viewBox="0 0 612 792" enable-background="new 0 0 612 792" xml:space="preserve">
<g>
	<path fill-rule="evenodd" clip-rule="evenodd" fill="none" d="M33.292,157.223c192.639,0,385.278,0,577.917,0
		c0,192.639,0,385.278,0,577.917c-192.64,0-385.278,0-577.917,0C33.292,542.501,33.292,349.862,33.292,157.223z M610.959,447.567
		c-0.895-0.218-1.725-0.222-2.313-0.599c-2.589-1.66-5.058-3.509-7.663-5.142c-5.912-3.702-11.931-7.234-17.806-10.992
		c-5.512-3.524-10.859-7.304-16.341-10.876c-13.381-8.72-26.86-17.291-40.171-26.116c-5.563-3.689-10.805-7.866-16.178-11.841
		c-0.354-0.262-0.639-0.664-0.854-1.057c-0.532-0.971-0.775-2.235-1.547-2.913c-2.124-1.865-4.467-3.479-6.707-5.212
		c-1.182-0.915-3.042-1.28-2.686-3.281c-1.951-0.307-3.768-0.591-5.398-0.847c0-0.817,0.006-1.331-0.001-1.845
		c-0.047-3.4-0.377-6.794,0.513-10.174c0.532-2.022,0.632-4.155,1.006-6.224c0.115-0.636,0.389-1.305,0.775-1.82
		c1.525-2.032,3.109-4.02,4.704-5.999c0.478-0.593,0.963-1.308,1.611-1.614c2.618-1.238,3.209-3.469,3.286-6.053
		c0.064-2.129-0.515-3.883-2.531-4.927c-0.154-0.08-0.352-0.225-0.385-0.371c-0.378-1.701-1.777-2.217-3.171-2.553
		c-1.293-0.311-2.661-0.302-3.989-0.482c-0.55-0.075-1.158-0.156-1.609-0.441c-1.818-1.155-3.587-2.391-5.486-3.672
		c0.426-0.938-0.33-1.382-1.202-1.643c-0.728-0.217-1.5-0.297-2.257-0.405c-1.787-0.254-3.576-0.489-5.717-0.779
		c0-5.183-0.001-10.283,0.005-15.384c0.001-0.282-0.026-0.636,0.123-0.833c1.579-2.077,1.19-4.344,0.385-6.469
		c-1.2-3.171-0.79-6.432-1.084-9.637c0.29-0.136,0.457-0.229,0.635-0.296c1.789-0.671,1.886-0.867,1.246-2.614
		c-0.692-1.896-1.574-3.744-2.054-5.691c-1.396-5.659-0.755-11.394-0.161-17.072c0.51-4.868,3.126-8.928,5.785-12.91
		c0.817-1.223,1.645-2.277,3.305-2.451c0.75-0.079,1.485-0.649,2.151-1.107c2.65-1.82,5.163-3.868,7.932-5.477
		c2.631-1.53,5.219-3.367,8.748-1.827c2.429,1.06,4.038-0.388,4.24-3.085c0.037-0.493,0.048-1.104,0.331-1.441
		c1.513-1.807,1.672-3.958,0.293-5.981c1.667-0.667,0.784-2.054,0.795-3.124c0.142-14.061,0.227-28.121,0.325-42.182
		c0.004-0.565,0-1.13,0-1.763c-0.393,0-0.623-0.007-0.854,0c-5.915,0.189-11.829,0.538-17.744,0.543
		c-46.762,0.045-93.523,0.085-140.285-0.029c-8.609-0.021-17.248,0.814-25.846-0.538c-1.72-0.27-3.537,0.054-5.308,0.15
		c-2.25,0.123-4.498,0.422-6.746,0.423c-52.252,0.024-104.504,0.029-156.756,0.006c-6.74-0.003-13.479-0.168-20.219-0.288
		c-1.368-0.024-2.733-0.184-4.171-0.285c-0.021,0.439-0.048,0.722-0.047,1.003c0.011,11.606,0.009,23.212,0.051,34.818
		c0.011,3.032,0.134,6.064,0.266,9.094c0.035,0.798,0.295,1.587,0.518,2.716c-1.047,1.169-0.974,3.745,0.44,5.301
		c0.3,0.33,0.423,0.902,0.459,1.376c0.217,2.842,1.611,3.987,4.251,3.374c0.648-0.151,1.25-0.493,1.887-0.703
		c0.344-0.114,0.766-0.278,1.071-0.176c3.531,1.184,6.847,2.816,9.76,5.151c2.329,1.868,4.553,3.863,7.617,4.466
		c0.252,0.05,0.537,0.245,0.688,0.458c2.975,4.164,5.957,8.394,6.737,13.569c0.542,3.595,0.396,7.289,0.695,10.928
		c0.286,3.492-0.263,6.791-1.685,9.984c-0.358,0.804-0.732,1.306-1.64,1.581c-1.227,0.372-1.963,1.105-2.057,2.686
		c-0.243,4.094,0.14,8.242-1.369,12.26c-0.509,1.355,0.115,3.154,0.297,4.741c0.072,0.627,0.514,1.233,0.507,1.846
		c-0.047,4.525-0.168,9.049-0.26,13.573c-0.014,0.657-0.002,1.313-0.002,1.943c-4.518,0.489-4.519,1.088-4.403,2.33
		c-1.46,0.9-2.993,1.654-4.289,2.701c-1.203,0.971-2.416,1.271-3.93,1.349c-2.399,0.124-5.03,0.137-6.041,3.111
		c-0.036,0.104-0.225,0.162-0.348,0.23c-1.993,1.1-2.731,2.863-2.538,5.032c0.183,2.044,0.246,4.092,2.395,5.394
		c1.183,0.717,2.119,1.899,3.037,2.981c1.242,1.462,2.257,3.127,3.568,4.518c0.892,0.945,1.344,1.887,1.44,3.163
		c0.114,1.521,0.468,3.022,0.669,4.538c0.328,2.463,0.699,4.924,0.894,7.399c0.141,1.796,0.027,3.612,0.027,5.63
		c-1.834,0.276-3.662,0.551-5.673,0.854c0.579,1.578-0.721,2.004-1.681,2.701c-2.253,1.637-4.51,3.272-6.709,4.98
		c-1.251,0.972-2.462,2.03-2.425,3.864c0.004,0.212-0.294,0.472-0.507,0.642c-3.2,2.55-6.276,5.282-9.642,7.591
		c-8.608,5.906-17.296,11.699-26.047,17.393c-8.065,5.247-16.281,10.262-24.376,15.464c-5.504,3.538-10.875,7.283-16.377,10.826
		c-6.308,4.063-12.666,8.048-19.063,11.968c-1.642,1.007-2.975,2.73-5.42,2.424c1.191,1.623,2.027,3.259,4.263,2.813
		c0.333-0.065,0.74,0.092,1.078,0.229c0.95,0.386,1.852,0.921,2.828,1.199c1.084,0.309,2.291,0.23,3.337,0.614
		c2.839,1.04,5.637,2.197,8.422,3.376c11.821,5.006,23.592,10.134,35.46,15.024c8.93,3.679,17.984,7.058,26.979,10.579
		c8.051,3.152,16.104,6.303,24.134,9.51c0.583,0.232,1.207,0.827,1.437,1.403c4.053,10.175,8.301,20.283,10.892,30.973
		c1.357,5.6,2.726,11.197,4.163,16.776c0.266,1.029,0.681,2.598,1.383,2.827c1.985,0.646,3.41,2.109,5.178,2.928
		c1.634,0.756,3.63,0.723,5.459,1.072c0.533,0.102,1.213,0.168,1.534,0.518c1.363,1.487,2.785,2.964,3.88,4.644
		c6.727,10.322,9.381,21.599,7.681,33.852c-0.369,2.659-0.697,5.324-1.094,8.376c1.008-0.907,1.784-1.605,2.772-2.494
		c-0.919,1.546-1.573,3.009-2.546,4.213c-3.353,4.153-7.148,7.814-12.167,9.941c-2.076,0.88-4.17,1.715-6.26,2.561
		c-0.995,0.402-1.993,0.785-1.292,1.678c-0.491,1.081-1.137,1.845-1.142,2.611c-0.102,16.229-0.136,32.457-0.158,48.686
		c0,0.494,0.246,0.994,0.405,1.483c0.237,0.729,0.711,1.447,0.716,2.174c0.054,7.079,0.065,14.158,0.005,21.237
		c-0.013,1.526,0.602,2.427,2.004,2.701c1.452,0.285,2.941,0.537,4.414,0.538c50.567,0.026,101.133,0.022,151.699,0.022
		c0.518,0,1.035,0,1.614,0c0-1.503,0-2.861,0-4.313c-49.801,0-99.483,0-149.301,0c0-0.659,0.002-1.226-0.001-1.793
		c-0.047-10.69,0.014-21.383-0.186-32.07c-0.108-5.767-0.796-11.521-0.975-17.289c-0.183-5.87-0.064-11.749-0.071-17.624
		c0-0.366,0.058-0.732,0.086-1.059c1.677,0,3.233,0,4.79,0c0.053,0.605,0.095,1.097,0.15,1.725c2.523-1.67,5.215-1.991,7.987-2.058
		c1.197-0.029,2.389-0.239,3.583-0.366c1.656-0.178,3.313-0.509,4.969-0.511c42.62-0.028,85.241-0.021,127.86-0.021
		c0.612,0,1.224,0,1.808,0c0.127-0.896,0.229-1.612,0.33-2.328c0.087,0.011,0.173,0.021,0.26,0.032
		c0.066,0.736,0.132,1.473,0.205,2.296c0.752,0,1.372,0,1.992,0c41.32,0,82.64-0.007,123.96,0.013
		c3.154,0.002,6.301-0.19,9.455,0.539c3.596,0.832,7.544-0.049,10.897,2.488c0.049-0.784,0.08-1.292,0.113-1.829
		c1.636,0,3.197,0,4.87,0c0,0.467,0.001,0.842,0,1.218c-0.005,6.164-0.008,12.328-0.018,18.492c-0.002,1.059,0.016,2.12-0.058,3.175
		c-0.346,4.991-0.949,9.976-1.035,14.97c-0.175,10.063-0.072,20.13-0.085,30.195c0,0.564,0,1.129,0,1.855
		c-49.865,0-99.577,0-149.297,0c0,1.489,0,2.813,0,4.264c0.607,0,1.128,0,1.647,0c7.514,0,15.026,0,22.538,0
		c42.958,0,85.915,0.005,128.873-0.02c1.477-0.001,2.985-0.15,4.42-0.483c1.9-0.44,2.222-1.009,2.222-2.952
		c0.002-6.742-0.003-13.483,0.003-20.227c0.002-1.168-0.255-2.389,0.904-3.289c0.252-0.195,0.256-0.803,0.255-1.22
		c-0.033-15.988-0.087-31.976-0.11-47.964c-0.002-1.294-0.228-2.374-1.623-2.892c1.032-1.233,0.196-1.646-0.725-2.019
		c-2.09-0.847-4.193-1.661-6.27-2.542c-5.011-2.126-8.864-5.722-12.207-9.89c-1.048-1.307-1.754-2.887-2.617-4.342
		c0.112-0.07,0.226-0.141,0.338-0.211c0.758,0.795,1.516,1.589,2.22,2.326c-0.418-4.079-0.876-8.084-1.229-12.099
		c-0.967-11.014,2.229-20.941,8.198-30.038c1.627-2.48,3.354-5.065,6.494-6.088c0.609-0.198,1.173-0.851,1.532-1.433
		c0.534-0.865,1.031-1.019,2.088-0.86c1.62,0.243,3.332,0.157,4.959-0.091c0.604-0.092,1.333-0.946,1.56-1.605
		c0.511-1.483,0.705-3.071,1.097-4.6c0.978-3.815,2.067-7.604,2.981-11.435c2.731-11.451,7.155-22.313,11.445-33.224
		c0.35-0.889,0.918-1.316,1.798-1.649c6.423-2.434,12.821-4.933,19.229-7.407c7.128-2.752,14.319-5.353,21.376-8.278
		c18.027-7.474,35.996-15.092,53.988-22.651c0.178-0.074,0.357-0.183,0.541-0.193c2.145-0.127,4.294-0.203,6.006-1.806
		c0.165-0.154,0.571-0.139,0.839-0.08C609.044,450.694,609.875,449.033,610.959,447.567z M96.902,373.028
		c0.008,0.059,0.017,0.117,0.026,0.175c3.529,0,7.057,0,10.585,0c-0.001-0.059-0.001-0.117-0.002-0.175
		C103.975,373.028,100.438,373.028,96.902,373.028z M538.158,373.024c-0.006,0.063-0.012,0.126-0.019,0.189c3.545,0,7.09,0,10.635,0
		c0-0.063-0.001-0.126-0.001-0.189C545.235,373.024,541.697,373.024,538.158,373.024z"/>
	<path fill-rule="evenodd" clip-rule="evenodd" d="M610.959,447.567c-1.084,1.466-1.915,3.127-4.158,2.64
		c-0.268-0.059-0.674-0.074-0.839,0.08c-1.712,1.603-3.861,1.679-6.006,1.806c-0.184,0.011-0.363,0.119-0.541,0.193
		c-17.992,7.56-35.961,15.178-53.988,22.651c-7.057,2.926-14.248,5.526-21.376,8.278c-6.408,2.475-12.807,4.974-19.229,7.407
		c-0.88,0.333-1.448,0.761-1.798,1.649c-4.29,10.911-8.714,21.772-11.445,33.224c-0.914,3.83-2.004,7.619-2.981,11.435
		c-0.392,1.528-0.586,3.116-1.097,4.6c-0.227,0.659-0.955,1.514-1.56,1.605c-1.627,0.248-3.339,0.334-4.959,0.091
		c-1.057-0.158-1.554-0.005-2.088,0.86c-0.359,0.582-0.923,1.234-1.532,1.433c-3.14,1.022-4.867,3.607-6.494,6.088
		c-5.969,9.097-9.165,19.024-8.198,30.038c0.353,4.015,0.811,8.02,1.229,12.099c-0.704-0.737-1.462-1.531-2.22-2.326
		c-0.112,0.07-0.226,0.141-0.338,0.211c0.863,1.455,1.569,3.035,2.617,4.342c3.343,4.168,7.196,7.764,12.207,9.89
		c2.076,0.881,4.18,1.695,6.27,2.542c0.921,0.373,1.757,0.785,0.725,2.019c1.396,0.518,1.621,1.598,1.623,2.892
		c0.023,15.988,0.077,31.976,0.11,47.964c0.001,0.417-0.003,1.024-0.255,1.22c-1.159,0.9-0.902,2.121-0.904,3.289
		c-0.006,6.743-0.001,13.484-0.003,20.227c0,1.943-0.321,2.512-2.222,2.952c-1.435,0.333-2.943,0.482-4.42,0.483
		c-42.958,0.024-85.915,0.02-128.873,0.02c-7.512,0-15.024,0-22.538,0c-0.52,0-1.04,0-1.647,0c0-1.451,0-2.774,0-4.264
		c49.72,0,99.432,0,149.297,0c0-0.727,0-1.291,0-1.855c0.013-10.065-0.09-20.133,0.085-30.195c0.086-4.994,0.689-9.979,1.035-14.97
		c0.073-1.055,0.056-2.116,0.058-3.175c0.01-6.164,0.013-12.328,0.018-18.492c0.001-0.376,0-0.751,0-1.218c-1.673,0-3.234,0-4.87,0
		c-0.033,0.537-0.064,1.045-0.113,1.829c-3.354-2.537-7.302-1.656-10.897-2.488c-3.154-0.729-6.301-0.537-9.455-0.539
		c-41.32-0.02-82.64-0.013-123.96-0.013c-0.62,0-1.24,0-1.992,0c-0.073-0.823-0.139-1.56-0.205-2.296
		c-0.087-0.011-0.173-0.021-0.26-0.032c-0.102,0.716-0.203,1.432-0.33,2.328c-0.584,0-1.195,0-1.808,0
		c-42.62,0-85.24-0.007-127.86,0.021c-1.656,0.002-3.313,0.333-4.969,0.511c-1.194,0.127-2.387,0.337-3.583,0.366
		c-2.772,0.066-5.464,0.388-7.987,2.058c-0.055-0.628-0.097-1.119-0.15-1.725c-1.557,0-3.113,0-4.79,0
		c-0.028,0.326-0.087,0.692-0.086,1.059c0.007,5.875-0.112,11.754,0.071,17.624c0.179,5.768,0.867,11.522,0.975,17.289
		c0.2,10.688,0.139,21.38,0.186,32.07c0.003,0.567,0.001,1.134,0.001,1.793c49.818,0,99.5,0,149.301,0c0,1.452,0,2.811,0,4.313
		c-0.579,0-1.097,0-1.614,0c-50.566,0-101.132,0.004-151.699-0.022c-1.473-0.001-2.961-0.253-4.414-0.538
		c-1.402-0.274-2.018-1.175-2.004-2.701c0.06-7.079,0.049-14.158-0.005-21.237c-0.005-0.727-0.479-1.445-0.716-2.174
		c-0.159-0.489-0.405-0.989-0.405-1.483c0.022-16.229,0.056-32.457,0.158-48.686c0.005-0.767,0.651-1.53,1.142-2.611
		c-0.702-0.893,0.296-1.275,1.292-1.678c2.09-0.846,4.185-1.681,6.26-2.561c5.02-2.127,8.815-5.788,12.167-9.941
		c0.973-1.204,1.626-2.667,2.546-4.213c-0.988,0.889-1.764,1.587-2.772,2.494c0.397-3.052,0.726-5.717,1.094-8.376
		c1.7-12.253-0.954-23.529-7.681-33.852c-1.095-1.68-2.518-3.156-3.88-4.644c-0.321-0.35-1-0.416-1.534-0.518
		c-1.83-0.35-3.825-0.316-5.459-1.072c-1.768-0.818-3.193-2.281-5.178-2.928c-0.702-0.229-1.117-1.798-1.383-2.827
		c-1.438-5.579-2.806-11.177-4.163-16.776c-2.591-10.689-6.839-20.798-10.892-30.973c-0.229-0.576-0.854-1.171-1.437-1.403
		c-8.03-3.207-16.083-6.357-24.134-9.51c-8.995-3.521-18.049-6.9-26.979-10.579c-11.869-4.891-23.639-10.019-35.46-15.024
		c-2.785-1.179-5.583-2.336-8.422-3.376c-1.046-0.384-2.253-0.306-3.337-0.614c-0.977-0.278-1.878-0.813-2.828-1.199
		c-0.338-0.138-0.745-0.295-1.078-0.229c-2.236,0.445-3.072-1.19-4.263-2.813c2.446,0.307,3.779-1.417,5.42-2.424
		c6.396-3.92,12.755-7.905,19.063-11.968c5.501-3.543,10.873-7.288,16.377-10.826c8.095-5.202,16.311-10.217,24.376-15.464
		c8.75-5.694,17.439-11.487,26.047-17.393c3.366-2.309,6.442-5.041,9.642-7.591c0.212-0.169,0.511-0.429,0.507-0.642
		c-0.037-1.833,1.174-2.892,2.425-3.864c2.199-1.708,4.456-3.343,6.709-4.98c0.959-0.697,2.26-1.123,1.681-2.701
		c2.011-0.303,3.839-0.578,5.673-0.854c0-2.018,0.114-3.834-0.027-5.63c-0.195-2.475-0.566-4.937-0.894-7.399
		c-0.201-1.516-0.555-3.017-0.669-4.538c-0.096-1.276-0.548-2.218-1.44-3.163c-1.312-1.39-2.327-3.055-3.568-4.518
		c-0.918-1.082-1.854-2.264-3.037-2.981c-2.149-1.302-2.212-3.35-2.395-5.394c-0.193-2.169,0.545-3.933,2.538-5.032
		c0.124-0.068,0.313-0.125,0.348-0.23c1.011-2.975,3.642-2.988,6.041-3.111c1.514-0.078,2.727-0.378,3.93-1.349
		c1.296-1.046,2.828-1.8,4.289-2.701c-0.116-1.242-0.115-1.841,4.403-2.33c0-0.63-0.012-1.287,0.002-1.943
		c0.092-4.524,0.213-9.048,0.26-13.573c0.007-0.613-0.435-1.218-0.507-1.846c-0.182-1.587-0.806-3.386-0.297-4.741
		c1.508-4.018,1.125-8.166,1.369-12.26c0.094-1.581,0.83-2.314,2.057-2.686c0.908-0.274,1.282-0.776,1.64-1.581
		c1.422-3.194,1.971-6.492,1.685-9.984c-0.298-3.639-0.152-7.333-0.695-10.928c-0.781-5.176-3.763-9.406-6.737-13.569
		c-0.152-0.212-0.436-0.408-0.688-0.458c-3.064-0.604-5.288-2.599-7.617-4.466c-2.913-2.335-6.229-3.968-9.76-5.151
		c-0.305-0.102-0.728,0.063-1.071,0.176c-0.638,0.21-1.239,0.552-1.887,0.703c-2.64,0.614-4.034-0.531-4.251-3.374
		c-0.036-0.474-0.16-1.046-0.459-1.376c-1.414-1.556-1.487-4.132-0.44-5.301c-0.223-1.129-0.483-1.918-0.518-2.716
		c-0.132-3.03-0.255-6.063-0.266-9.094c-0.042-11.606-0.04-23.212-0.051-34.818c0-0.282,0.026-0.564,0.047-1.003
		c1.438,0.102,2.803,0.261,4.171,0.285c6.739,0.12,13.479,0.285,20.219,0.288c52.252,0.023,104.504,0.019,156.756-0.006
		c2.248-0.001,4.496-0.3,6.746-0.423c1.771-0.097,3.588-0.42,5.308-0.15c8.598,1.353,17.236,0.517,25.846,0.538
		c46.762,0.114,93.523,0.074,140.285,0.029c5.915-0.006,11.829-0.354,17.744-0.543c0.23-0.007,0.461,0,0.854,0
		c0,0.633,0.004,1.198,0,1.763c-0.099,14.061-0.184,28.121-0.325,42.182c-0.011,1.07,0.872,2.458-0.795,3.124
		c1.379,2.023,1.22,4.174-0.293,5.981c-0.283,0.338-0.294,0.949-0.331,1.441c-0.202,2.697-1.812,4.145-4.24,3.085
		c-3.529-1.54-6.117,0.297-8.748,1.827c-2.769,1.609-5.281,3.657-7.932,5.477c-0.666,0.458-1.401,1.028-2.151,1.107
		c-1.66,0.174-2.487,1.228-3.305,2.451c-2.659,3.981-5.275,8.042-5.785,12.91c-0.594,5.678-1.234,11.413,0.161,17.072
		c0.479,1.947,1.361,3.795,2.054,5.691c0.64,1.748,0.543,1.943-1.246,2.614c-0.178,0.067-0.345,0.16-0.635,0.296
		c0.294,3.205-0.116,6.466,1.084,9.637c0.806,2.125,1.194,4.393-0.385,6.469c-0.149,0.197-0.122,0.551-0.123,0.833
		c-0.006,5.101-0.005,10.201-0.005,15.384c2.141,0.29,3.93,0.524,5.717,0.779c0.757,0.107,1.529,0.188,2.257,0.405
		c0.872,0.261,1.628,0.705,1.202,1.643c1.899,1.282,3.668,2.518,5.486,3.672c0.451,0.286,1.06,0.367,1.609,0.441
		c1.328,0.181,2.696,0.171,3.989,0.482c1.394,0.336,2.793,0.852,3.171,2.553c0.033,0.146,0.23,0.291,0.385,0.371
		c2.017,1.044,2.596,2.798,2.531,4.927c-0.077,2.584-0.668,4.815-3.286,6.053c-0.648,0.306-1.134,1.021-1.611,1.614
		c-1.595,1.979-3.179,3.967-4.704,5.999c-0.387,0.515-0.66,1.184-0.775,1.82c-0.374,2.069-0.474,4.202-1.006,6.224
		c-0.89,3.38-0.56,6.774-0.513,10.174c0.007,0.514,0.001,1.028,0.001,1.845c1.631,0.256,3.447,0.541,5.398,0.847
		c-0.356,2.001,1.504,2.367,2.686,3.281c2.24,1.733,4.583,3.347,6.707,5.212c0.771,0.677,1.015,1.942,1.547,2.913
		c0.216,0.393,0.501,0.795,0.854,1.057c5.373,3.975,10.614,8.152,16.178,11.841c13.311,8.825,26.79,17.396,40.171,26.116
		c5.481,3.572,10.829,7.352,16.341,10.876c5.875,3.758,11.894,7.29,17.806,10.992c2.605,1.633,5.074,3.481,7.663,5.142
		C609.234,447.346,610.064,447.35,610.959,447.567z M177.269,315.185c2.358,0.488,4.631,0.841,6.838,1.437
		c9.93,2.68,19.772,5.718,29.776,8.075c10.57,2.489,21.288,4.352,31.941,6.489c13.95,2.799,27.894,5.629,41.853,8.383
		c6.648,1.311,13.314,2.536,19.992,3.688c4.968,0.857,9.828,2.463,14.971,2.17c1.547-0.088,3.156,0.27,4.648-0.025
		c14.474-2.862,28.918-5.875,43.393-8.736c13.017-2.573,26.064-4.989,39.09-7.518c7.835-1.521,15.722-2.85,23.462-4.761
		c9.888-2.441,19.646-5.401,29.477-8.082c0.998-0.272,1.274-0.723,1.283-1.681c0.041-4.188-0.065-8.395,0.293-12.559
		c0.258-2.991-0.373-5.481-1.936-8.012c-4.293-6.957-8.11-14.218-13.249-20.626c-2.859-3.567-5.678-7.205-9.884-9.354
		c-0.448-0.229-0.974-0.466-1.455-0.449c-5.384,0.189-10.767,0.623-16.149,0.617c-20.413-0.021-40.824,0.286-61.24-0.581
		c-12.545-0.532-25.134-0.063-37.702-0.043c-0.604,0.001-1.207,0-1.947,0c0.121-2.36,0.23-4.49,0.336-6.551
		c2.292-0.351,4.344-0.785,6.417-0.949c2.251-0.178,4.525-0.028,6.782-0.154c8.886-0.495,17.763-1.345,26.653-1.503
		c15.741-0.281,31.49-0.152,47.236-0.204c0.666-0.002,1.333-0.102,1.998-0.164c1.809-0.167,3.614-0.456,5.425-0.484
		c3.263-0.051,6.529,0.04,9.793,0.097c0.818,0.015,1.319-0.184,1.52-1.101c0.079-0.361,0.658-0.735,1.085-0.878
		c2.764-0.929,5.31,0.126,7.522,1.459c5.189,3.127,10.249,6.481,15.254,9.901c6.068,4.146,12.421,7.966,17.105,13.834
		c0.042,0.053,0.172,0.035,0.019,0.008c0-3.129,0.025-6.294-0.007-9.458c-0.047-4.681,0.694-9.162,2.748-13.439
		c3.458-7.204,8.503-12.995,15.014-17.57c1.883-1.323,3.938-2.041,6.224-1.907c2.468,0.146,4.866,0.011,7.114-1.126
		c0.279-0.141,0.496-0.403,0.742-0.61c-2.837,0.785-4.86,0.543-6.024-1.05c-0.79-1.08-0.202-2.047,0.765-3.101
		c-0.9-0.152-1.535-0.352-2.169-0.351c-2.938,0.005-5.874,0.102-8.811,0.103c-51.626,0.008-103.251,0.008-154.876-0.004
		c-1.004,0-2.006-0.211-3.013-0.254c-1.65-0.069-3.307-0.142-4.957-0.099c-1.339,0.035-2.674,0.348-4.01,0.349
		c-51.096,0.019-102.191,0.019-153.287,0.011c-3.322,0-6.644-0.099-9.966-0.102c-0.62,0-1.239,0.235-1.969,0.384
		c1.547,1.969,1.333,2.941-0.663,4.047c-1.234,0.684-2.469,0.641-3.742,0.114c-0.276-0.114-0.616-0.076-0.927-0.107
		c2.299,1.34,4.598,2.105,7.19,1.815c2.457-0.274,4.802,0.309,6.801,1.863c4.219,3.281,8.377,6.581,11.365,11.169
		c3.772,5.792,6.695,11.795,6.42,18.933c-0.067,1.751-0.01,3.507-0.01,5.298c0.288-0.054,0.396-0.043,0.464-0.09
		c8.789-5.982,17.528-12.04,26.399-17.898c1.826-1.206,4.087-1.914,6.25-2.389c1.186-0.26,2.939-0.394,3.569,1.491
		c0.073,0.217,0.627,0.37,0.967,0.386c3.548,0.162,7.099,0.397,10.648,0.397c3.5,0.001,6.978,0.131,10.476,0.316
		c8.021,0.425,16.078,0.121,24.118,0.242c11.841,0.178,23.683,0.393,35.521,0.746c5.282,0.157,10.557,0.654,15.829,1.065
		c2.684,0.209,5.355,0.57,8.199,0.88c0,2.256,0,4.351,0,6.556c-0.345,0.024-0.765,0.079-1.184,0.079
		c-16.465,0.015-32.924-0.112-49.394,0.413c-16.983,0.542-33.995,0.251-50.994,0.209c-5.094-0.013-10.187-0.429-15.282-0.614
		c-0.479-0.018-1.003,0.232-1.451,0.465c-4.412,2.292-7.358,6.134-10.325,9.922c-5.6,7.149-9.816,15.177-14.407,22.965
		c-0.292,0.496-0.356,1.19-0.347,1.79c0.081,5.199,0.201,10.397,0.314,15.596C177.2,314.687,177.252,315.012,177.269,315.185z
		 M461.926,322.711c0.188-0.034,0.044-0.023-0.091,0.019c-14.772,4.538-29.871,7.718-45.015,10.672
		c-13.588,2.65-27.227,5.039-40.833,7.598c-4.675,0.88-9.287,2.138-13.983,2.857c-9.739,1.492-19.516,2.73-29.274,4.095
		c-1.565,0.219-3.166,0.394-4.652,0.887c-1.028,0.341-1.799,0.24-2.83,0.021c-1.556-0.331-3.246-0.049-4.877,0.008
		c-0.335,0.012-0.683,0.309-0.99,0.26c-0.845-0.135-1.662-0.442-2.506-0.578c-4.367-0.704-8.73-1.438-13.112-2.042
		c-6.665-0.919-13.365-1.608-20.01-2.651c-4.695-0.737-9.31-1.967-13.984-2.857c-14.827-2.823-29.677-5.529-44.495-8.404
		c-7.782-1.51-15.544-3.156-23.26-4.971c-6.208-1.46-12.335-3.268-18.588-4.946c0.121,1.1-0.285,1.646-1.468,1.745
		c-0.714,0.061-1.425,0.535-2.07,0.931c-0.769,0.472-1.467,1.059-2.39,1.738c0,9.008,0,18.332,0,27.198
		c2.314,1.217,4.418,2.223,6.417,3.405c1.943,1.15,3.793,2.461,5.66,3.736c5.667,3.871,11.814,6.862,18.096,9.532
		c2.328,0.989,2.89,2.616,3.46,4.721c1.43,5.275,2.854,10.573,4.694,15.713c2.522,7.042,5.523,13.911,8.139,20.922
		c2.348,6.29,4.982,12.482,6.535,19.059c1.169,4.949,2.623,9.83,3.893,14.756c0.199,0.771,0.425,1.14,1.294,1.163
		c2.117,0.06,2.802,0.706,3.276,2.855c-1.043,0.046-2.084,0.092-3.388,0.148c0.532,2.028,1.008,3.849,1.485,5.669
		c3.049-0.797,4.623-0.165,5.586,2.843c1.917,5.984,5.279,11.197,8.196,16.655c0.038,0.069,0.158,0.095,0.277,0.162
		c0.446-0.183,0.914-0.374,1.169-0.478c4.559,5.688,9.004,11.247,13.479,16.781c0.294,0.364,0.86,0.812,1.235,0.759
		c2.728-0.385,3.739,1.844,5.267,3.513c-1.052,0-2.104,0-3.413,0c4.481,6.808,8.739,13.377,13.099,19.877
		c6.806,10.146,13.64,20.271,19.28,31.138c0.561,1.079,1.283,1.631,2.691,1.622c12.664-0.077,25.328-0.07,37.992-0.008
		c1.328,0.006,2.031-0.529,2.568-1.565c5.588-10.785,12.355-20.838,19.109-30.903c4.313-6.428,8.506-12.936,12.751-19.408
		c0.123-0.188,0.221-0.391,0.407-0.723c-1.202-0.054-2.251-0.101-3.299-0.147c-0.06-0.124-0.119-0.249-0.179-0.374
		c0.485-0.393,1.013-0.745,1.448-1.188c1.1-1.118,2.192-2.099,3.982-1.848c0.428,0.061,1.069-0.516,1.423-0.953
		c4.447-5.489,8.859-11.008,13.327-16.578c0.322,0.13,0.796,0.319,1.381,0.555c2.773-5.452,6.252-10.453,8.036-16.315
		c0.999-3.281,2.298-4.051,5.852-3.502c0.457-1.796,0.92-3.612,1.416-5.562c-1.331-0.077-2.401-0.14-3.505-0.203
		c0.699-1.84,1.539-3.242,3.743-2.884c0.24,0.039,0.729-0.319,0.808-0.581c0.823-2.76,1.687-5.514,2.346-8.314
		c1.542-6.547,3.184-13.051,5.718-19.312c1.332-3.288,2.119-6.812,3.599-10.023c4.009-8.703,7.212-17.703,10.2-26.782
		c0.987-2.999,1.541-6.139,2.355-9.197c0.114-0.43,0.513-0.941,0.911-1.116c9.279-4.069,18.096-8.951,26.382-14.792
		c0.803-0.566,1.107-1.132,1.104-2.108c-0.028-8.812-0.003-17.624,0.006-26.436c0.002-1.341,0-2.683,0-4.024
		c-0.105,0.061-0.211,0.121-0.316,0.181C463.003,324.103,462.516,323.473,461.926,322.711z M144.14,225.792
		c1.447-0.125,2.875-0.144,4.261-0.398c1.393-0.256,2.729-1.019,4.113-1.082c4.182-0.192,8.375-0.196,12.563-0.197
		c49.894-0.01,99.787-0.012,149.68,0.012c2.009,0.001,4.016,0.317,6.027,0.404c1.462,0.063,2.932,0.035,4.395-0.039
		c1.387-0.069,2.768-0.363,4.152-0.366c14.159-0.028,28.317-0.03,42.477-0.015c40.26,0.043,80.52,0.092,120.779,0.173
		c1.274,0.003,2.73,0.07,3.781,0.669c1.761,1.004,3.497,0.626,5.149,0.688c0-14.067,0-28.039,0-41.987
		c-119.252,0-238.22,0-357.378,0C144.14,197.679,144.14,211.582,144.14,225.792z M185.413,609.662c91.667,0,183.277,0,274.91,0
		c-0.034-0.346-0.06-0.599-0.126-1.271c3.066,2.072,6.893-0.203,9.592,2.541c1.981,0,3.963,0,5.944,0
		c0.008-0.155,0.017-0.311,0.025-0.466c-0.336-0.138-0.668-0.282-1.006-0.413c-3.396-1.314-6.857-2.484-10.177-3.971
		c-5.035-2.255-8.412-6.469-11.796-10.608c-0.502-0.614-0.806-1.428-1.066-2.194c-1.424-4.186-3.024-8.327-4.154-12.592
		c-1.891-7.131-1.785-14.263,1-21.216c1.037-2.589,4.284-3.681,6.764-2.323c0.717,0.393,0.921,0.893,0.582,1.665
		c-0.253,0.577-0.398,1.201-0.592,1.804c0.117,0.044,0.235,0.088,0.354,0.132c1.207-2.512,2.413-5.022,3.715-7.734
		c-0.4,0.166-0.609,0.244-0.812,0.338c-5.975,2.783-12.271,3.839-18.822,3.451c-1.966-0.115-3.926-0.486-5.889-0.487
		c-52.876-0.027-105.751-0.016-158.626-0.025c-17.143-0.004-34.286-0.048-51.43-0.081c-6.727-0.013-13.449-0.572-20.18,0.319
		c-2.741,0.363-5.571,0.061-8.458,0.061c0.648,0.731,1.251,1.143,1.468,1.704c0.776,2.003,1.717,4.008,2.059,6.101
		c0.896,5.483,1.248,11.009-0.501,16.43c-1.314,4.071-2.656,8.133-4.042,12.179c-0.324,0.945-0.724,1.937-1.348,2.694
		c-3.495,4.239-7.02,8.5-12.264,10.713c-3.132,1.321-6.355,2.431-9.535,3.64c-0.332,0.126-0.653,0.282-0.98,0.424
		c0.009,0.161,0.017,0.322,0.025,0.484c1.36,0,2.72,0.007,4.08-0.003c1.069-0.008,2.212,0.272,2.898-1.004
		c0.136-0.254,0.76-0.295,1.169-0.346c2.333-0.289,4.668-0.553,7.003-0.82c0.083-0.01,0.173,0.036,0.291,0.063
		C185.464,609.106,185.44,609.368,185.413,609.662z M177.458,362.084c0,0.835,0,1.395,0,1.956
		c0.002,25.999,0.029,51.998-0.001,77.997c-0.035,30.813-0.122,61.625-0.162,92.438c-0.001,0.573,0.129,1.291,0.48,1.697
		c4.548,5.271,9.869,9.57,16.199,12.54c0.755,0.354,1.64,0.625,2.461,0.617c15.115-0.147,30.229-0.414,45.345-0.508
		c15.021-0.094,30.043-0.023,45.065-0.024c0.506,0,1.013,0,1.654,0c-0.673-1.845-1.119-3.568-1.902-5.121
		c-1.969-3.903-3.993-7.785-6.173-11.573c-3.664-6.365-7.294-12.763-11.272-18.932c-2.492-3.865-5.665-7.285-8.4-11.001
		c-2.159-2.934-4.012-6.093-6.199-9.002c-1.682-2.237-3.019-4.604-3.609-7.309c-0.561-2.566-2.154-3.808-4.561-4.403
		c-0.612-0.151-1.308-0.634-1.633-1.166c-2.173-3.569-4.227-7.21-6.396-10.781c-0.39-0.643-1.059-1.204-1.727-1.57
		c-1.203-0.658-2.031-1.432-1.871-2.927c0.035-0.322-0.047-0.674-0.145-0.99c-1.316-4.268-2.637-8.534-3.982-12.793
		c-0.106-0.333-0.376-0.624-0.604-0.906c-0.345-0.428-0.906-0.778-1.043-1.256c-0.283-0.988-0.148-2.122-0.536-3.05
		c-1.352-3.235-3.049-6.336-4.253-9.62c-2.055-5.604-5.301-10.826-5.645-17.001c-0.093-1.663-1.104-2.648-2.423-3.524
		c-0.689-0.456-1.356-1.199-1.649-1.96c-4.215-10.977-6.96-22.489-12.085-33.136c-0.165-0.343-0.375-0.743-0.333-1.088
		c0.075-0.621,0.185-1.319,0.531-1.807c0.702-0.991,0.129-3.299-1.039-3.622C192.819,371.847,184.884,367.857,177.458,362.084z
		 M357,548.797c0.97,0,1.496,0,2.022,0c27.929,0,55.858-0.001,83.788,0c0.914,0,1.835,0.074,2.742-0.004
		c0.821-0.07,1.706-0.141,2.43-0.487c5.994-2.875,10.986-7.061,15.352-12.021c0.332-0.378,0.514-1.022,0.513-1.543
		c-0.04-33.515-0.133-67.029-0.16-100.543c-0.02-22.295,0.051-44.589,0.081-66.884c0.001-0.553,0-1.106,0-1.74
		c-0.321,0.101-0.467,0.116-0.577,0.186c-5.973,3.773-12.313,6.718-19.159,8.536c-0.663,0.176-1.712,2.735-1.201,3.159
		c1.821,1.515,0.639,2.986,0.043,4.406c-0.928,2.213-2.203,4.294-2.984,6.552c-2.97,8.582-5.787,17.218-8.716,25.814
		c-0.205,0.6-0.761,1.229-1.322,1.531c-1.569,0.842-2.512,2.015-2.718,3.808c-0.166,1.433-0.257,2.91-0.697,4.265
		c-0.799,2.452-1.781,4.851-2.78,7.232c-2.081,4.96-4.233,9.891-6.319,14.851c-0.185,0.438-0.022,1.01-0.14,1.491
		c-0.226,0.921-0.312,2.411-0.854,2.617c-1.606,0.612-1.499,2.024-1.871,3.126c-1.168,3.457-2.165,6.972-3.212,10.47
		c-0.149,0.5-0.324,1.036-0.285,1.54c0.113,1.457-0.721,2.147-1.861,2.776c-0.666,0.367-1.327,0.933-1.718,1.575
		c-2.17,3.57-4.227,7.21-6.402,10.776c-0.325,0.534-1.021,1.026-1.633,1.17c-2.502,0.584-3.965,1.98-4.635,4.535
		c-0.505,1.923-1.316,3.849-2.385,5.521c-2.452,3.836-5.174,7.499-7.732,11.269c-4.044,5.957-8.95,11.239-12.608,17.549
		c-4.316,7.445-8.484,14.957-12.459,22.583c-0.464,0.89-0.545,1.971-0.939,2.906C358.204,546.76,357.638,547.629,357,548.797z
		 M479.317,373.34c0,28.55,0,56.992,0,85.526c0.967-0.063,1.865-0.172,2.765-0.173c10.208-0.012,20.416-0.025,30.625,0.018
		c1.231,0.005,2.46,0.365,3.695,0.514c0.688,0.083,1.418,0.219,2.074,0.077c5.307-1.15,10.547-2.794,15.91-3.465
		c11.64-1.457,23.346-2.385,35.016-3.611c6.073-0.638,12.113-1.456,17.93-3.521c2.835-1.007,5.798-1.679,8.739-2.337
		c0.742-0.167,1.634,0.27,2.442,0.482c0.624,0.163,1.227,0.408,1.84,0.617c0.036-0.127,0.072-0.254,0.109-0.381
		c-2.254-1.467-4.472-2.992-6.768-4.39c-5.259-3.202-10.64-6.209-15.819-9.533c-14.736-9.459-29.463-18.937-44.063-28.604
		c-9.624-6.372-19.085-12.996-28.468-19.719c-1.775-1.272-3.325-3.352-4.112-5.393c-1.116-2.894-3.386-4.782-5.683-5.76
		c-3.406-1.451-7.197-2.009-10.271-4.34c-0.293-0.222-0.731-0.239-1.064-0.421c-0.331-0.182-0.622-0.443-0.916-0.688
		c-1.234-1.032-2.464-2.071-3.695-3.108c-0.325,1.294-0.326,2.294-0.325,3.294c0.002,3.075,0.002,3.074,2.932,4.076
		c0.075,0.026,0.132,0.109,0.351,0.297C481.433,372.984,480.452,373.149,479.317,373.34z M161.821,368.533
		c-1.676,1.009-3.084,1.866-4.503,2.705c-0.736,0.435-1.475,1.155-2.243,1.198c-2.951,0.166-5.619,0.788-7.518,3.291
		c-0.137,0.18-0.446,0.226-0.588,0.403c-0.728,0.91-1.455,1.821-2.129,2.769c-1.35,1.896-2.289,4.325-4.061,5.639
		c-7.841,5.812-15.794,11.491-23.938,16.869c-11.477,7.58-23.224,14.749-34.729,22.288c-9.172,6.012-18.238,12.176-27.788,17.595
		c-3.113,1.767-6.049,3.847-9.066,5.783c0.052,0.133,0.104,0.266,0.156,0.398c0.574-0.172,1.151-0.338,1.723-0.517
		c0.705-0.221,1.426-0.689,2.104-0.632c1.471,0.125,2.96,0.383,4.368,0.823c5.362,1.677,10.635,3.67,16.283,4.255
		c9.131,0.945,18.261,1.903,27.39,2.869c4.926,0.521,9.888,0.839,14.763,1.666c5.108,0.866,10.13,2.241,15.195,3.369
		c0.541,0.12,1.128,0.158,1.677,0.091c1.609-0.197,3.208-0.665,4.815-0.677c8.809-0.069,17.619-0.033,26.428-0.033
		c0.553,0,1.106,0,1.661,0C161.821,428.635,161.821,398.814,161.821,368.533z M583.149,454.136
		c-0.027-0.087-0.054-0.174-0.081-0.262c-0.785,0.134-1.566,0.308-2.356,0.394c-8.933,0.973-17.867,1.926-26.8,2.897
		c-5.688,0.618-11.418,0.991-17.044,1.962c-5.767,0.995-11.472,2.427-17.123,3.967c-3.748,1.022-7.454,0.781-11.326,0.692
		c0.307-0.294,0.49-0.469,0.797-0.762c-10.107,0-19.996,0-29.94,0c0,9.979,0,19.866,0,29.905c1.234,0,2.379-0.023,3.523,0.004
		c3.104,0.073,5.615-1.784,8.455-2.568c0.124-0.034,0.273-0.149,0.321-0.264c0.513-1.228,1.626-1.182,2.675-1.3
		c0.563-0.064,1.155-0.094,1.677-0.291c7.186-2.731,14.35-5.518,21.54-8.231c7.415-2.799,14.914-5.384,22.269-8.329
		c11.463-4.591,22.834-9.413,34.25-14.123C577.029,456.571,580.094,455.365,583.149,454.136z M137.223,463.659
		c-0.026,0.116-0.052,0.232-0.079,0.349c-2.902-0.137-5.887,0.114-8.692-0.48c-9.298-1.972-18.418-4.752-27.991-5.396
		c-5.895-0.396-11.757-1.256-17.638-1.873c-4.731-0.497-9.47-0.911-14.199-1.427c-1.89-0.206-3.761-0.585-5.64-0.886
		c0.17,0.338,0.399,0.49,0.648,0.594c10.072,4.187,20.084,8.529,30.235,12.516c17.573,6.9,35.226,13.598,52.866,20.327
		c1.813,0.691,3.769,1.007,5.65,1.528c0.495,0.138,0.986,0.344,1.427,0.605c0.787,0.467,1.487,1.105,2.311,1.48
		c1.394,0.636,2.851,1.137,4.292,1.662c0.426,0.155,0.892,0.203,1.421,0.318c0-10.036,0-19.909,0-29.865c-8.487,0-16.838,0-25.364,0
		C136.803,463.354,137.013,463.507,137.223,463.659z M479.213,540.839c0.146,0.04,0.291,0.078,0.437,0.118
		c3.059-15.888,9.095-30.804,14.666-45.938c-1.617,0.623-3.215,1.175-4.446,2.178c-1.651,1.344-3.418,1.505-5.274,1.086
		c-1.212-0.273-2.342-0.939-3.484-1.48c-0.565-0.268-1.076-0.648-1.897-1.153C479.213,511.08,479.213,525.96,479.213,540.839z
		 M482.648,361.036c0-0.578-0.013-1.19,0.002-1.802c0.092-3.903,0.419-7.763,1.813-11.47c0.316-0.842,0.29-1.807,0.494-2.698
		c0.091-0.398,0.271-0.857,0.564-1.112c1.474-1.282,2.94-2.584,4.516-3.733c3.847-2.805,3.871-2.772,3.861-7.527
		c0-0.09-0.059-0.18-0.087-0.263c-1.549-0.513-3.123-0.949-4.625-1.561c-0.972-0.396-2.202-0.767-1.79-2.325
		c0.03-0.117-0.15-0.354-0.291-0.444c-2.547-1.633-5.103-3.252-7.732-4.923c0,13.151,0,25.897,0,38.66
		C480.534,361.554,481.506,361.315,482.648,361.036z M151.7,494.814c-0.112,0.12-0.223,0.24-0.335,0.36
		c3.521,9.532,7.042,19.065,10.587,28.661c0-8.515,0-16.999,0-25.585c-0.504,0.066-0.934,0.211-1.339,0.16
		c-1.302-0.164-2.703-0.153-3.867-0.665C154.977,496.969,153.374,495.811,151.7,494.814z M161.845,325.817
		c-0.826,0.542-1.526,0.932-2.141,1.428c-0.498,0.402-1.281,0.951-1.26,1.404c0.063,1.357-0.82,1.805-1.737,2.167
		c-1.591,0.627-3.239,1.11-4.956,1.684c0.075,1.435,0.126,2.87,0.24,4.3c0.027,0.346,0.166,0.794,0.415,0.993
		c2.496,1.997,5.048,3.924,7.527,5.942c0.418,0.341,0.66,0.996,0.808,1.552c0.312,1.168,0.507,2.367,0.75,3.554
		c0.118-0.029,0.236-0.059,0.354-0.088C161.845,341.189,161.845,333.627,161.845,325.817z M188.909,576.28
		c-0.144-0.129-0.288-0.258-0.432-0.386c-1.204,0.706-2.48,1.316-3.586,2.151c-0.834,0.63-1.102,1.673-0.351,2.557
		c0.695,0.819,1.586,1.473,2.538,2.331C187.687,580.722,188.298,578.501,188.909,576.28z M456.702,575.9
		c0.744,2.648,1.364,4.854,1.984,7.06c0.147,0.003,0.295,0.007,0.442,0.01c0.617-1.429,2.951-1.919,2.308-3.938
		C460.813,577.081,458.861,576.662,456.702,575.9z M187.54,555.346c0.896,1.941,1.706,3.693,2.515,5.445
		c0.113-0.041,0.226-0.082,0.339-0.123c-0.225-0.975-0.9-2.179-0.552-2.861c0.37-0.729,1.708-0.965,2.606-1.407
		C190.881,556.063,189.308,555.725,187.54,555.346z M210.816,257.575c2.645,0.376,4.198,0.137,4.775-0.706
		C212.688,255.962,211.322,256.133,210.816,257.575z"/>
	<path fill-rule="evenodd" clip-rule="evenodd" d="M96.902,373.028c3.536,0,7.072,0,10.609,0c0.001,0.059,0.001,0.117,0.002,0.175
		c-3.528,0-7.057,0-10.585,0C96.919,373.145,96.911,373.087,96.902,373.028z"/>
	<path fill-rule="evenodd" clip-rule="evenodd" d="M538.158,373.024c3.539,0,7.077,0,10.615,0c0,0.063,0.001,0.126,0.001,0.189
		c-3.545,0-7.09,0-10.635,0C538.146,373.15,538.152,373.087,538.158,373.024z"/>
	<path fill-rule="evenodd" clip-rule="evenodd" fill="none" d="M177.269,315.185c-0.017-0.173-0.069-0.499-0.076-0.825
		c-0.114-5.198-0.234-10.397-0.314-15.596c-0.009-0.6,0.054-1.294,0.347-1.79c4.59-7.788,8.807-15.816,14.407-22.965
		c2.967-3.788,5.913-7.63,10.325-9.922c0.448-0.233,0.972-0.483,1.451-0.465c5.095,0.185,10.188,0.602,15.282,0.614
		c16.999,0.042,34.011,0.333,50.994-0.209c16.47-0.525,32.929-0.398,49.394-0.413c0.419,0,0.839-0.055,1.184-0.079
		c0-2.206,0-4.3,0-6.556c-2.844-0.31-5.516-0.671-8.199-0.88c-5.272-0.411-10.547-0.908-15.829-1.065
		c-11.837-0.353-23.679-0.567-35.521-0.746c-8.041-0.121-16.097,0.183-24.118-0.242c-3.498-0.185-6.976-0.315-10.476-0.316
		c-3.549,0-7.1-0.235-10.648-0.397c-0.339-0.016-0.894-0.169-0.967-0.386c-0.629-1.884-2.383-1.751-3.569-1.491
		c-2.163,0.475-4.424,1.183-6.25,2.389c-8.871,5.859-17.61,11.916-26.399,17.898c-0.068,0.047-0.176,0.037-0.464,0.09
		c0-1.791-0.057-3.546,0.01-5.298c0.275-7.138-2.647-13.141-6.42-18.933c-2.988-4.588-7.146-7.888-11.365-11.169
		c-1.999-1.554-4.345-2.137-6.801-1.863c-2.592,0.29-4.891-0.476-7.19-1.815c0.311,0.032,0.65-0.007,0.927,0.107
		c1.273,0.527,2.507,0.57,3.742-0.114c1.996-1.106,2.21-2.079,0.663-4.047c0.729-0.149,1.349-0.385,1.969-0.384
		c3.322,0.003,6.644,0.102,9.966,0.102c51.095,0.008,102.191,0.008,153.287-0.011c1.336,0,2.671-0.314,4.01-0.349
		c1.65-0.043,3.307,0.03,4.957,0.099c1.007,0.043,2.009,0.254,3.013,0.254c51.625,0.013,103.25,0.012,154.876,0.004
		c2.937,0,5.873-0.097,8.811-0.103c0.634-0.001,1.269,0.199,2.169,0.351c-0.967,1.053-1.555,2.021-0.765,3.101
		c1.164,1.593,3.188,1.834,6.024,1.05c-0.246,0.207-0.463,0.469-0.742,0.61c-2.248,1.137-4.646,1.271-7.114,1.126
		c-2.286-0.134-4.341,0.583-6.224,1.907c-6.511,4.575-11.556,10.367-15.014,17.57c-2.054,4.277-2.795,8.758-2.748,13.439
		c0.032,3.165,0.007,6.329,0.007,9.458c0.153,0.027,0.023,0.044-0.019-0.008c-4.685-5.869-11.037-9.689-17.105-13.834
		c-5.005-3.419-10.064-6.774-15.254-9.901c-2.213-1.333-4.759-2.388-7.522-1.459c-0.427,0.143-1.006,0.517-1.085,0.878
		c-0.2,0.917-0.701,1.116-1.52,1.101c-3.264-0.057-6.53-0.148-9.793-0.097c-1.811,0.029-3.616,0.317-5.425,0.484
		c-0.665,0.062-1.332,0.162-1.998,0.164c-15.746,0.052-31.495-0.077-47.236,0.204c-8.891,0.159-17.768,1.008-26.653,1.503
		c-2.257,0.126-4.531-0.023-6.782,0.154c-2.073,0.164-4.125,0.598-6.417,0.949c-0.105,2.061-0.215,4.191-0.336,6.551
		c0.74,0,1.344,0,1.947,0c12.568-0.02,25.157-0.489,37.702,0.043c20.416,0.867,40.827,0.561,61.24,0.581
		c5.383,0.006,10.766-0.428,16.149-0.617c0.481-0.017,1.007,0.22,1.455,0.449c4.206,2.149,7.024,5.787,9.884,9.354
		c5.139,6.409,8.956,13.67,13.249,20.626c1.563,2.531,2.193,5.021,1.936,8.012c-0.358,4.165-0.252,8.371-0.293,12.559
		c-0.009,0.958-0.285,1.408-1.283,1.681c-9.83,2.68-19.589,5.64-29.477,8.082c-7.74,1.912-15.627,3.241-23.462,4.761
		c-13.025,2.529-26.073,4.945-39.09,7.518c-14.475,2.861-28.919,5.874-43.393,8.736c-1.492,0.295-3.102-0.063-4.648,0.025
		c-5.143,0.293-10.003-1.313-14.971-2.17c-6.678-1.152-13.344-2.376-19.992-3.688c-13.959-2.753-27.903-5.584-41.853-8.383
		c-10.653-2.137-21.371-4-31.941-6.489c-10.004-2.356-19.847-5.395-29.776-8.075C181.9,316.026,179.627,315.673,177.269,315.185z"/>
	<path fill-rule="evenodd" clip-rule="evenodd" fill="none" d="M461.926,322.711c0.59,0.761,1.077,1.391,1.564,2.02
		c0.105-0.06,0.211-0.12,0.316-0.181c0,1.341,0.002,2.683,0,4.024c-0.009,8.812-0.034,17.624-0.006,26.436
		c0.004,0.976-0.301,1.542-1.104,2.108c-8.286,5.841-17.103,10.723-26.382,14.792c-0.398,0.175-0.797,0.686-0.911,1.116
		c-0.814,3.058-1.368,6.198-2.355,9.197c-2.988,9.08-6.191,18.079-10.2,26.782c-1.479,3.212-2.267,6.735-3.599,10.023
		c-2.534,6.261-4.176,12.765-5.718,19.312c-0.659,2.801-1.522,5.555-2.346,8.314c-0.078,0.262-0.567,0.62-0.808,0.581
		c-2.204-0.358-3.044,1.044-3.743,2.884c1.104,0.063,2.174,0.126,3.505,0.203c-0.496,1.949-0.959,3.766-1.416,5.562
		c-3.554-0.549-4.853,0.221-5.852,3.502c-1.784,5.862-5.263,10.863-8.036,16.315c-0.585-0.235-1.059-0.425-1.381-0.555
		c-4.468,5.57-8.88,11.089-13.327,16.578c-0.354,0.438-0.995,1.014-1.423,0.953c-1.79-0.251-2.883,0.729-3.982,1.848
		c-0.436,0.442-0.963,0.795-1.448,1.188c0.06,0.125,0.119,0.25,0.179,0.374c1.048,0.047,2.097,0.094,3.299,0.147
		c-0.187,0.332-0.284,0.535-0.407,0.723c-4.245,6.473-8.438,12.98-12.751,19.408c-6.754,10.065-13.521,20.118-19.109,30.903
		c-0.537,1.036-1.24,1.571-2.568,1.565c-12.664-0.063-25.328-0.069-37.992,0.008c-1.408,0.009-2.13-0.543-2.691-1.622
		c-5.641-10.866-12.474-20.992-19.28-31.138c-4.36-6.5-8.618-13.069-13.099-19.877c1.308,0,2.36,0,3.413,0
		c-1.528-1.669-2.539-3.897-5.267-3.513c-0.375,0.053-0.94-0.395-1.235-0.759c-4.476-5.534-8.92-11.094-13.479-16.781
		c-0.255,0.104-0.723,0.295-1.169,0.478c-0.119-0.067-0.239-0.093-0.277-0.162c-2.917-5.458-6.279-10.671-8.196-16.655
		c-0.963-3.008-2.537-3.64-5.586-2.843c-0.477-1.82-0.954-3.641-1.485-5.669c1.304-0.057,2.345-0.103,3.388-0.148
		c-0.474-2.149-1.159-2.796-3.276-2.855c-0.869-0.023-1.095-0.392-1.294-1.163c-1.27-4.926-2.724-9.807-3.893-14.756
		c-1.553-6.576-4.188-12.769-6.535-19.059c-2.616-7.011-5.617-13.88-8.139-20.922c-1.84-5.14-3.264-10.438-4.694-15.713
		c-0.57-2.105-1.132-3.732-3.46-4.721c-6.282-2.669-12.429-5.661-18.096-9.532c-1.867-1.275-3.717-2.586-5.66-3.736
		c-1.999-1.182-4.103-2.188-6.417-3.405c0-8.866,0-18.19,0-27.198c0.922-0.68,1.621-1.267,2.39-1.738
		c0.646-0.396,1.356-0.87,2.07-0.931c1.183-0.099,1.588-0.645,1.468-1.745c6.253,1.678,12.38,3.485,18.588,4.946
		c7.716,1.815,15.478,3.461,23.26,4.971c14.817,2.875,29.667,5.581,44.495,8.404c4.674,0.89,9.289,2.121,13.984,2.857
		c6.645,1.043,13.345,1.731,20.01,2.651c4.381,0.605,8.745,1.339,13.112,2.042c0.844,0.136,1.661,0.442,2.506,0.578
		c0.308,0.049,0.655-0.248,0.99-0.26c1.631-0.058,3.321-0.339,4.877-0.008c1.031,0.219,1.802,0.32,2.83-0.021
		c1.486-0.493,3.087-0.668,4.652-0.887c9.759-1.364,19.535-2.603,29.274-4.095c4.696-0.719,9.309-1.977,13.983-2.857
		c13.606-2.56,27.245-4.948,40.833-7.598c15.144-2.954,30.242-6.134,45.015-10.672C461.97,322.688,462.113,322.678,461.926,322.711z
		 M376.56,447.368c1.008-0.998,1.776-1.706,2.485-2.471c11.356-12.258,22.566-24.646,32.787-37.882
		c2.318-3.003,4.452-6.156,6.539-9.326c0.995-1.512,0.306-2.885-1.376-3.291c-2.278-0.551-4.565-1.075-6.83-1.681
		c-4.875-1.303-9.726-2.703-14.609-3.971c-18.109-4.703-36.438-8.401-54.786-12.022c-4.645-0.916-9.245-2.057-13.868-3.085
		c-0.177-0.039-0.42-0.043-0.559,0.048c-1.847,1.224-3.893,0.261-5.823,0.403c-0.943,0.069-1.922-0.135-2.986,0.09
		c-8.982,1.901-18.018,3.559-26.982,5.538c-15.205,3.358-30.381,6.849-45.545,10.389c-5.463,1.275-10.853,2.862-16.281,4.289
		c-1.635,0.429-2.313,1.691-1.412,3.188c1.411,2.347,2.847,4.707,4.546,6.845c9.314,11.725,18.736,23.361,29.122,34.177
		c2.684,2.796,5.241,5.714,8.053,8.792c-1.797,0-3.375,0-5.152,0c3.021,2.794,3.021,2.83,6.763,2.774
		c1.09-0.017,1.881,0.285,2.665,1.062c5.029,4.98,10.157,9.861,15.155,14.872c5.506,5.521,10.924,11.129,16.348,16.73
		c2.977,3.075,5.884,6.217,8.83,9.322c1.78,1.878,3.573,3.746,5.502,5.767c0.672-0.814,1.277-1.548,2.111-2.559
		c0.577,0.841,1.008,1.467,1.718,2.5c0.61-0.967,1.017-1.609,1.56-2.468c0.843,1.022,1.45,1.759,2.092,2.538
		c0.463-0.492,0.789-0.843,1.119-1.191c4.365-4.611,8.714-9.239,13.103-13.83c4.822-5.046,9.612-10.126,14.544-15.064
		c5.238-5.246,10.685-10.285,15.91-15.542c1.541-1.55,3.069-2.554,5.264-2.104c2.483,0.507,3.548-1.461,5.002-2.837
		C380.034,447.368,378.504,447.368,376.56,447.368z M259.447,364.77c0.848,0.157,2.043,0.522,3.25,0.567
		c1.895,0.07,3.805-0.003,5.693-0.174c0.587-0.053,1.359-0.489,0.725-1.425c-1.371-2.027-2.909-3.803-5.605-3.956
		c-0.174-0.01-0.339-0.169-0.511-0.253c-2.753-1.345-5.441-2.848-8.272-4.002c-6.71-2.736-13.486-5.313-20.24-7.944
		c-11.912-4.64-23.833-9.251-35.231-15.101c-1.549-0.794-3.339-1.196-5.065-1.539c-1.044-0.208-2.41-0.184-2.852,1.087
		c-0.426,1.225,0.844,1.664,1.58,2.297c0.109,0.094,0.229,0.18,0.354,0.25c6.917,3.862,13.835,7.724,20.755,11.581
		c0.445,0.248,0.909,0.465,1.446,0.738c-2.144,3.327-3.495,6.766-3.642,10.632c-0.266,7.014,3.38,16.617,12.778,19.786
		c4.357,1.469,8.759,2.015,13.259,2.482c3.929,0.408,7.553-0.855,10.751-2.501c4.093-2.107,7.9-5.026,9.913-9.524
		C258.925,366.894,259.104,365.919,259.447,364.77z M430.3,346.946c0.215-0.152,0.359-0.28,0.524-0.368
		c5.637-3.011,11.296-5.979,16.901-9.046c1.935-1.059,3.782-2.3,5.566-3.6c0.566-0.413,0.8-1.285,1.185-1.946
		c-0.693-0.358-1.354-0.865-2.091-1.03c-0.669-0.149-1.464-0.058-2.128,0.158c-1.595,0.519-3.217,1.034-4.703,1.795
		c-9.602,4.917-19.589,8.93-29.626,12.842c-7.071,2.756-14.089,5.648-21.135,8.469c-2.584,1.034-5.207,1.976-7.76,3.081
		c-1.661,0.72-3.148,2.081-4.856,2.403c-2.867,0.542-4.499,2.255-5.889,4.802c3.351,2.325,6.919,0.462,10.028,0.297
		c0.279,1.036,0.402,1.944,0.761,2.748c1.85,4.145,5.325,6.75,8.962,9.135c1.072,0.704,2.404,1.017,3.626,1.485
		c1.159,0.444,2.302,1.097,3.503,1.245c6.464,0.793,12.662-0.182,18.805-2.451c8.79-3.247,12.284-13.021,11.919-19.634
		C433.682,353.517,432.353,350.13,430.3,346.946z"/>
	<path fill-rule="evenodd" clip-rule="evenodd" fill="none" d="M144.14,225.792c0-14.21,0-28.113,0-42.138
		c119.158,0,238.126,0,357.378,0c0,13.949,0,27.92,0,41.987c-1.652-0.062-3.389,0.316-5.149-0.688
		c-1.051-0.599-2.507-0.666-3.781-0.669c-40.26-0.082-80.52-0.13-120.779-0.173c-14.159-0.016-28.317-0.014-42.477,0.015
		c-1.385,0.003-2.766,0.297-4.152,0.366c-1.463,0.074-2.933,0.102-4.395,0.039c-2.012-0.086-4.019-0.403-6.027-0.404
		c-49.894-0.024-99.787-0.022-149.68-0.012c-4.188,0.001-8.381,0.005-12.563,0.197c-1.383,0.063-2.72,0.826-4.113,1.082
		C147.015,225.648,145.587,225.667,144.14,225.792z"/>
	<path fill-rule="evenodd" clip-rule="evenodd" fill="none" d="M185.413,609.662c0.027-0.294,0.052-0.556,0.076-0.814
		c-0.117-0.026-0.207-0.072-0.291-0.063c-2.335,0.268-4.671,0.531-7.003,0.82c-0.41,0.051-1.033,0.092-1.169,0.346
		c-0.686,1.276-1.829,0.996-2.898,1.004c-1.36,0.01-2.72,0.003-4.08,0.003c-0.008-0.162-0.017-0.323-0.025-0.484
		c0.327-0.142,0.648-0.298,0.98-0.424c3.18-1.209,6.403-2.318,9.535-3.64c5.244-2.213,8.769-6.474,12.264-10.713
		c0.624-0.758,1.024-1.749,1.348-2.694c1.386-4.046,2.728-8.107,4.042-12.179c1.75-5.421,1.397-10.946,0.501-16.43
		c-0.341-2.093-1.283-4.098-2.059-6.101c-0.217-0.562-0.82-0.973-1.468-1.704c2.887,0,5.716,0.303,8.458-0.061
		c6.73-0.892,13.453-0.332,20.18-0.319c17.144,0.033,34.287,0.077,51.43,0.081c52.875,0.01,105.75-0.002,158.626,0.025
		c1.963,0.001,3.923,0.372,5.889,0.487c6.552,0.388,12.848-0.668,18.822-3.451c0.202-0.094,0.411-0.172,0.812-0.338
		c-1.302,2.712-2.508,5.223-3.715,7.734c-0.118-0.044-0.236-0.088-0.354-0.132c0.193-0.603,0.339-1.227,0.592-1.804
		c0.339-0.772,0.135-1.272-0.582-1.665c-2.479-1.357-5.727-0.266-6.764,2.323c-2.785,6.953-2.891,14.085-1,21.216
		c1.13,4.265,2.73,8.406,4.154,12.592c0.261,0.767,0.564,1.58,1.066,2.194c3.384,4.14,6.761,8.354,11.796,10.608
		c3.319,1.486,6.78,2.656,10.177,3.971c0.338,0.131,0.67,0.275,1.006,0.413c-0.009,0.155-0.018,0.311-0.025,0.466
		c-1.981,0-3.963,0-5.944,0c-2.699-2.744-6.525-0.469-9.592-2.541c0.066,0.673,0.092,0.926,0.126,1.271
		C368.689,609.662,277.08,609.662,185.413,609.662z"/>
	<path fill-rule="evenodd" clip-rule="evenodd" fill="none" d="M177.458,362.084c7.426,5.772,15.361,9.763,24.091,12.173
		c1.168,0.323,1.741,2.631,1.039,3.622c-0.346,0.488-0.456,1.187-0.531,1.807c-0.042,0.345,0.169,0.746,0.333,1.088
		c5.125,10.647,7.87,22.16,12.085,33.136c0.292,0.761,0.96,1.504,1.649,1.96c1.319,0.876,2.331,1.861,2.423,3.524
		c0.344,6.175,3.589,11.396,5.645,17.001c1.204,3.284,2.901,6.385,4.253,9.62c0.388,0.928,0.253,2.062,0.536,3.05
		c0.137,0.478,0.698,0.828,1.043,1.256c0.228,0.282,0.499,0.573,0.604,0.906c1.345,4.259,2.666,8.525,3.982,12.793
		c0.098,0.316,0.179,0.668,0.145,0.99c-0.16,1.495,0.668,2.269,1.871,2.927c0.668,0.366,1.336,0.928,1.727,1.57
		c2.168,3.571,4.223,7.212,6.396,10.781c0.325,0.532,1.021,1.015,1.633,1.166c2.407,0.596,4,1.837,4.561,4.403
		c0.591,2.705,1.928,5.071,3.609,7.309c2.187,2.909,4.04,6.068,6.199,9.002c2.736,3.716,5.908,7.136,8.4,11.001
		c3.978,6.169,7.608,12.566,11.272,18.932c2.18,3.788,4.204,7.67,6.173,11.573c0.784,1.553,1.229,3.276,1.902,5.121
		c-0.641,0-1.147,0-1.654,0c-15.022,0.001-30.044-0.069-45.065,0.024c-15.115,0.094-30.229,0.36-45.345,0.508
		c-0.821,0.008-1.706-0.263-2.461-0.617c-6.33-2.97-11.651-7.27-16.199-12.54c-0.351-0.406-0.481-1.124-0.48-1.697
		c0.04-30.813,0.127-61.625,0.162-92.438c0.03-25.999,0.003-51.998,0.001-77.997C177.458,363.479,177.458,362.919,177.458,362.084z"
		/>
	<path fill-rule="evenodd" clip-rule="evenodd" fill="none" d="M357,548.797c0.638-1.168,1.204-2.037,1.601-2.978
		c0.395-0.936,0.476-2.017,0.939-2.906c3.975-7.626,8.143-15.138,12.459-22.583c3.658-6.31,8.564-11.592,12.608-17.549
		c2.559-3.77,5.28-7.433,7.732-11.269c1.068-1.673,1.88-3.599,2.385-5.521c0.67-2.555,2.133-3.951,4.635-4.535
		c0.611-0.144,1.308-0.636,1.633-1.17c2.176-3.566,4.232-7.206,6.402-10.776c0.391-0.643,1.052-1.208,1.718-1.575
		c1.141-0.629,1.975-1.319,1.861-2.776c-0.039-0.504,0.136-1.04,0.285-1.54c1.047-3.498,2.044-7.013,3.212-10.47
		c0.372-1.102,0.265-2.514,1.871-3.126c0.543-0.206,0.629-1.696,0.854-2.617c0.117-0.481-0.045-1.054,0.14-1.491
		c2.086-4.96,4.238-9.891,6.319-14.851c0.999-2.382,1.981-4.78,2.78-7.232c0.44-1.354,0.531-2.832,0.697-4.265
		c0.206-1.793,1.148-2.966,2.718-3.808c0.562-0.302,1.117-0.932,1.322-1.531c2.929-8.597,5.746-17.232,8.716-25.814
		c0.781-2.257,2.057-4.339,2.984-6.552c0.596-1.419,1.778-2.891-0.043-4.406c-0.511-0.424,0.538-2.983,1.201-3.159
		c6.846-1.818,13.187-4.763,19.159-8.536c0.11-0.07,0.256-0.085,0.577-0.186c0,0.633,0.001,1.187,0,1.74
		c-0.03,22.295-0.101,44.589-0.081,66.884c0.027,33.514,0.12,67.028,0.16,100.543c0.001,0.521-0.181,1.165-0.513,1.543
		c-4.365,4.961-9.357,9.146-15.352,12.021c-0.724,0.347-1.608,0.417-2.43,0.487c-0.907,0.078-1.828,0.004-2.742,0.004
		c-27.93-0.001-55.859,0-83.788,0C358.496,548.797,357.97,548.797,357,548.797z"/>
	<path fill-rule="evenodd" clip-rule="evenodd" fill="none" d="M479.317,373.34c1.135-0.191,2.115-0.355,3.243-0.544
		c-0.219-0.188-0.275-0.271-0.351-0.297c-2.93-1.001-2.93-1.001-2.932-4.076c-0.001-1,0-2,0.325-3.294
		c1.231,1.037,2.461,2.076,3.695,3.108c0.294,0.246,0.585,0.506,0.916,0.688c0.333,0.183,0.771,0.2,1.064,0.421
		c3.074,2.331,6.865,2.889,10.271,4.34c2.297,0.979,4.566,2.866,5.683,5.76c0.787,2.042,2.337,4.121,4.112,5.393
		c9.383,6.723,18.844,13.347,28.468,19.719c14.6,9.668,29.326,19.146,44.063,28.604c5.18,3.324,10.561,6.331,15.819,9.533
		c2.296,1.397,4.514,2.923,6.768,4.39c-0.037,0.127-0.073,0.254-0.109,0.381c-0.613-0.209-1.216-0.454-1.84-0.617
		c-0.809-0.213-1.7-0.649-2.442-0.482c-2.941,0.658-5.904,1.33-8.739,2.337c-5.816,2.065-11.856,2.884-17.93,3.521
		c-11.67,1.227-23.376,2.154-35.016,3.611c-5.363,0.671-10.604,2.314-15.91,3.465c-0.656,0.142-1.387,0.006-2.074-0.077
		c-1.235-0.148-2.464-0.509-3.695-0.514c-10.209-0.043-20.417-0.029-30.625-0.018c-0.899,0.001-1.798,0.11-2.765,0.173
		C479.317,430.332,479.317,401.89,479.317,373.34z"/>
	<path fill-rule="evenodd" clip-rule="evenodd" fill="none" d="M161.821,368.533c0,30.281,0,60.102,0,90.152
		c-0.554,0-1.107,0-1.661,0c-8.81,0-17.619-0.036-26.428,0.033c-1.606,0.012-3.206,0.479-4.815,0.677
		c-0.548,0.067-1.136,0.029-1.677-0.091c-5.065-1.128-10.086-2.503-15.195-3.369c-4.875-0.827-9.837-1.146-14.763-1.666
		c-9.129-0.966-18.258-1.924-27.39-2.869c-5.648-0.585-10.921-2.578-16.283-4.255c-1.408-0.44-2.897-0.698-4.368-0.823
		c-0.678-0.058-1.4,0.411-2.104,0.632c-0.572,0.179-1.148,0.345-1.723,0.517c-0.052-0.133-0.104-0.266-0.156-0.398
		c3.017-1.937,5.953-4.017,9.066-5.783c9.549-5.419,18.615-11.583,27.788-17.595c11.504-7.539,23.252-14.708,34.729-22.288
		c8.143-5.378,16.097-11.058,23.938-16.869c1.772-1.313,2.71-3.743,4.061-5.639c0.675-0.948,1.402-1.859,2.129-2.769
		c0.143-0.177,0.452-0.224,0.588-0.403c1.899-2.502,4.567-3.125,7.518-3.291c0.768-0.043,1.507-0.763,2.243-1.198
		C158.737,370.399,160.145,369.542,161.821,368.533z"/>
	<path fill-rule="evenodd" clip-rule="evenodd" fill="none" d="M583.149,454.136c-3.056,1.229-6.12,2.436-9.164,3.691
		c-11.416,4.71-22.787,9.532-34.25,14.123c-7.354,2.945-14.854,5.53-22.269,8.329c-7.19,2.714-14.354,5.5-21.54,8.231
		c-0.521,0.197-1.113,0.227-1.677,0.291c-1.049,0.118-2.162,0.072-2.675,1.3c-0.048,0.114-0.197,0.229-0.321,0.264
		c-2.84,0.784-5.352,2.642-8.455,2.568c-1.145-0.027-2.289-0.004-3.523-0.004c0-10.039,0-19.926,0-29.905c9.944,0,19.833,0,29.94,0
		c-0.307,0.293-0.49,0.468-0.797,0.762c3.872,0.089,7.578,0.33,11.326-0.692c5.651-1.54,11.356-2.972,17.123-3.967
		c5.626-0.971,11.356-1.344,17.044-1.962c8.933-0.972,17.867-1.925,26.8-2.897c0.79-0.086,1.571-0.26,2.356-0.394
		C583.096,453.962,583.122,454.049,583.149,454.136z"/>
	<path fill-rule="evenodd" clip-rule="evenodd" fill="none" d="M137.223,463.659c-0.21-0.152-0.42-0.306-0.752-0.547
		c8.526,0,16.877,0,25.364,0c0,9.956,0,19.829,0,29.865c-0.529-0.115-0.995-0.163-1.421-0.318c-1.442-0.525-2.898-1.026-4.292-1.662
		c-0.824-0.375-1.523-1.014-2.311-1.48c-0.441-0.262-0.933-0.468-1.427-0.605c-1.881-0.521-3.836-0.837-5.65-1.528
		c-17.64-6.729-35.293-13.427-52.866-20.327c-10.151-3.986-20.163-8.329-30.235-12.516c-0.249-0.104-0.478-0.256-0.648-0.594
		c1.879,0.301,3.75,0.68,5.64,0.886c4.729,0.516,9.468,0.93,14.199,1.427c5.88,0.617,11.743,1.477,17.638,1.873
		c9.573,0.644,18.693,3.424,27.991,5.396c2.805,0.595,5.79,0.344,8.692,0.48C137.171,463.892,137.197,463.775,137.223,463.659z"/>
	<path fill-rule="evenodd" clip-rule="evenodd" fill="none" d="M479.213,540.839c0-14.879,0-29.759,0-45.189
		c0.821,0.505,1.332,0.886,1.897,1.153c1.143,0.541,2.272,1.207,3.484,1.48c1.856,0.419,3.623,0.258,5.274-1.086
		c1.231-1.003,2.829-1.555,4.446-2.178c-5.571,15.134-11.607,30.05-14.666,45.938C479.504,540.917,479.358,540.879,479.213,540.839z
		"/>
	<path fill-rule="evenodd" clip-rule="evenodd" fill="none" d="M482.648,361.036c-1.143,0.279-2.114,0.518-3.275,0.802
		c0-12.763,0-25.509,0-38.66c2.63,1.67,5.186,3.29,7.732,4.923c0.141,0.09,0.321,0.327,0.291,0.444
		c-0.412,1.559,0.818,1.93,1.79,2.325c1.502,0.612,3.076,1.048,4.625,1.561c0.028,0.083,0.087,0.173,0.087,0.263
		c0.01,4.755-0.015,4.723-3.861,7.527c-1.575,1.149-3.042,2.452-4.516,3.733c-0.293,0.254-0.474,0.714-0.564,1.112
		c-0.204,0.892-0.178,1.856-0.494,2.698c-1.394,3.707-1.721,7.566-1.813,11.47C482.636,359.846,482.648,360.458,482.648,361.036z"/>
	<path fill-rule="evenodd" clip-rule="evenodd" fill="none" d="M151.7,494.814c1.674,0.996,3.276,2.154,5.046,2.932
		c1.164,0.512,2.564,0.501,3.867,0.665c0.405,0.051,0.834-0.094,1.339-0.16c0,8.586,0,17.07,0,25.585
		c-3.544-9.596-7.066-19.129-10.587-28.661C151.477,495.055,151.588,494.935,151.7,494.814z"/>
	<path fill-rule="evenodd" clip-rule="evenodd" fill="none" d="M161.845,325.817c0,7.811,0,15.373,0,22.935
		c-0.118,0.029-0.236,0.059-0.354,0.088c-0.243-1.187-0.438-2.386-0.75-3.554c-0.148-0.556-0.39-1.21-0.808-1.552
		c-2.479-2.018-5.031-3.945-7.527-5.942c-0.249-0.199-0.387-0.647-0.415-0.993c-0.114-1.43-0.166-2.865-0.24-4.3
		c1.716-0.574,3.364-1.057,4.956-1.684c0.917-0.362,1.8-0.811,1.737-2.167c-0.021-0.453,0.762-1.001,1.26-1.404
		C160.318,326.749,161.019,326.359,161.845,325.817z"/>
	<path fill-rule="evenodd" clip-rule="evenodd" fill="none" d="M188.909,576.28c-0.611,2.221-1.222,4.441-1.831,6.653
		c-0.952-0.858-1.843-1.512-2.538-2.331c-0.751-0.884-0.484-1.927,0.351-2.557c1.106-0.835,2.383-1.445,3.586-2.151
		C188.621,576.022,188.765,576.151,188.909,576.28z"/>
	<path fill-rule="evenodd" clip-rule="evenodd" fill="none" d="M456.702,575.9c2.159,0.762,4.111,1.181,4.734,3.131
		c0.644,2.02-1.69,2.51-2.308,3.938c-0.147-0.003-0.295-0.007-0.442-0.01C458.066,580.754,457.446,578.549,456.702,575.9z"/>
	<path fill-rule="evenodd" clip-rule="evenodd" fill="none" d="M187.54,555.346c1.768,0.379,3.341,0.717,4.908,1.054
		c-0.898,0.442-2.236,0.679-2.606,1.407c-0.348,0.683,0.327,1.887,0.552,2.861c-0.113,0.041-0.226,0.082-0.339,0.123
		C189.246,559.039,188.437,557.287,187.54,555.346z"/>
	<path fill-rule="evenodd" clip-rule="evenodd" fill="none" d="M210.816,257.575c0.506-1.442,1.872-1.612,4.775-0.706
		C215.014,257.711,213.461,257.951,210.816,257.575z"/>
	<path fill-rule="evenodd" clip-rule="evenodd" d="M376.56,447.368c1.944,0,3.475,0,5.006,0c-1.454,1.376-2.519,3.344-5.002,2.837
		c-2.194-0.449-3.723,0.555-5.264,2.104c-5.226,5.257-10.672,10.296-15.91,15.542c-4.932,4.938-9.722,10.019-14.544,15.064
		c-4.389,4.591-8.737,9.219-13.103,13.83c-0.33,0.349-0.656,0.699-1.119,1.191c-0.642-0.779-1.249-1.516-2.092-2.538
		c-0.543,0.858-0.949,1.501-1.56,2.468c-0.71-1.033-1.141-1.659-1.718-2.5c-0.834,1.011-1.439,1.744-2.111,2.559
		c-1.929-2.021-3.722-3.889-5.502-5.767c-2.945-3.105-5.853-6.247-8.83-9.322c-5.424-5.602-10.842-11.21-16.348-16.73
		c-4.998-5.011-10.125-9.892-15.155-14.872c-0.784-0.776-1.575-1.078-2.665-1.062c-3.742,0.056-3.743,0.02-6.763-2.774
		c1.777,0,3.355,0,5.152,0c-2.813-3.078-5.369-5.996-8.053-8.792c-10.386-10.815-19.807-22.452-29.122-34.177
		c-1.699-2.138-3.135-4.498-4.546-6.845c-0.9-1.498-0.223-2.759,1.412-3.188c5.428-1.426,10.818-3.014,16.281-4.289
		c15.164-3.54,30.34-7.031,45.545-10.389c8.964-1.979,18-3.637,26.982-5.538c1.064-0.225,2.043-0.021,2.986-0.09
		c1.931-0.142,3.977,0.821,5.823-0.403c0.139-0.092,0.382-0.087,0.559-0.048c4.623,1.028,9.224,2.169,13.868,3.085
		c18.348,3.621,36.677,7.319,54.786,12.022c4.884,1.268,9.734,2.668,14.609,3.971c2.265,0.605,4.552,1.13,6.83,1.681
		c1.682,0.406,2.371,1.779,1.376,3.291c-2.087,3.17-4.221,6.323-6.539,9.326c-10.221,13.236-21.431,25.624-32.787,37.882
		C378.336,445.662,377.567,446.37,376.56,447.368z M236.105,398.369c1.397,0.814,2.583,1.392,3.642,2.146
		c2.485,1.771,4.916,3.622,7.358,5.454c1.419,1.064,2.724,2.315,4.241,3.209c6.747,3.976,13.514,7.92,20.351,11.738
		c3.856,2.153,7.832,4.103,11.808,6.033c5.663,2.75,11.44,5.271,17.049,8.125c5.868,2.984,11.6,6.235,17.375,9.4
		c0.794,0.436,1.428,0.453,2.263,0.049c0.541-0.263,1.303-0.084,1.965-0.075c1.605,0.021,3.253-0.444,4.794,0.417
		c0.098,0.055,0.343-0.139,0.512-0.229c1.738-0.93,3.466-1.879,5.214-2.79c5.965-3.107,11.903-6.268,17.916-9.281
		c5.282-2.647,10.726-4.979,15.961-7.712c7.752-4.045,15.414-8.245,22.914-12.772c5.688-3.433,10.979-7.32,16.206-11.352
		c0.376-0.29,0.831-0.476,1.236-0.73c0.81-0.511,1.609-1.036,2.413-1.556c-1.876-0.675-3.631-0.884-5.33-1.31
		c-9.975-2.504-19.884-5.288-29.913-7.542c-15.664-3.521-31.249-7.322-46.674-11.772c-0.438-0.126-0.941-0.069-1.409-0.033
		c-1.657,0.127-3.463,0.765-4.932,0.308c-1.99-0.619-3.57,0.068-5.296,0.504c-12.062,3.051-24.006,6.523-36.181,9.177
		C265.191,390.914,250.94,394.723,236.105,398.369z M277.416,442.716c-1.127,1.75-1.131,2.455,0.413,3.578
		c1.62,1.177,3.428,2.095,5.166,3.107c0.909,0.529,2.023,0.836,2.737,1.551c7.653,7.659,15.262,15.362,22.844,23.092
		c3.428,3.494,6.768,7.072,10.165,10.631c1.082-0.954,1.752-1.546,2.426-2.14c0.647,0.523,1.194,0.965,1.73,1.399
		c0.607-0.51,1.116-0.936,1.677-1.405c0.721,0.642,1.391,1.238,2.072,1.845c0.376-0.319,0.691-0.545,0.958-0.818
		c4.396-4.516,8.745-9.079,13.19-13.547c5.974-6.006,11.992-11.968,18.063-17.877c1.107-1.078,2.518-1.863,3.847-2.69
		c1.585-0.986,3.319-1.75,4.832-2.831c1.858-1.328,1.893-1.842,0.955-3.89c1.601-1.754,3.192-3.557,4.846-5.303
		c5.725-6.045,11.53-12.016,17.178-18.132c2.179-2.359,4.018-5.033,6.011-7.563c-2.275,0.616-4.452,1.26-6.462,2.244
		c-3.711,1.818-7.352,3.785-10.971,5.782c-5.478,3.021-10.589,6.601-15.759,10.121c-6.709,4.569-13.722,8.728-20.815,12.684
		c-4.46,2.486-8.984,4.772-12.766,8.28c-0.361,0.334-1.191,0.596-1.561,0.409c-1.114-0.564-2.077-0.473-3.146,0.052
		c-0.331,0.162-0.836-0.02-1.26-0.059c-1.644-0.149-3.287-0.309-4.932-0.45c-0.131-0.012-0.288,0.059-0.406,0.134
		c-1.287,0.821-2.156,0.103-3.191-0.657c-2.862-2.097-5.776-4.137-8.771-6.04c-2.058-1.308-4.376-2.209-6.418-3.537
		c-7.413-4.819-15.132-9.128-22.443-14.145c-6.75-4.632-14.165-8.311-21.369-12.259c-2.17-1.189-4.614-1.88-6.932-2.799
		c-0.131,0.165-0.262,0.329-0.393,0.494c4.309,4.78,8.564,9.61,12.941,14.327C266.979,431.807,272.192,437.21,277.416,442.716z"/>
	<path fill-rule="evenodd" clip-rule="evenodd" d="M259.447,364.77c-0.343,1.149-0.521,2.124-0.915,3.002
		c-2.012,4.498-5.819,7.417-9.913,9.524c-3.199,1.646-6.822,2.909-10.751,2.501c-4.5-0.468-8.902-1.014-13.259-2.482
		c-9.398-3.169-13.043-12.771-12.778-19.786c0.147-3.866,1.498-7.305,3.642-10.632c-0.537-0.273-1-0.49-1.446-0.738
		c-6.92-3.857-13.837-7.719-20.755-11.581c-0.125-0.07-0.245-0.156-0.354-0.25c-0.736-0.634-2.006-1.072-1.58-2.297
		c0.442-1.271,1.808-1.295,2.852-1.087c1.726,0.343,3.516,0.744,5.065,1.539c11.398,5.85,23.319,10.461,35.231,15.101
		c6.754,2.63,13.529,5.208,20.24,7.944c2.831,1.154,5.52,2.657,8.272,4.002c0.172,0.084,0.336,0.244,0.511,0.253
		c2.697,0.152,4.234,1.928,5.605,3.956c0.634,0.937-0.138,1.373-0.725,1.425c-1.889,0.171-3.798,0.245-5.693,0.174
		C261.49,365.292,260.295,364.927,259.447,364.77z M239.475,377.13c-0.742-0.55-1.257-0.888-1.722-1.286
		c-0.795-0.681-0.688-1.38,0.192-1.828c0.526-0.268,1.181-0.362,1.783-0.382c1.345-0.046,2.693,0.037,4.04,0.006
		c3.746-0.085,6.508-2.143,8.953-4.681c1.12-1.162,0.707-2.555-0.767-3.286c-0.293-0.145-0.6-0.265-1.208-0.531
		c0.956-1.564,1.855-3.038,2.846-4.66c-0.541-0.2-1.267-0.548-2.032-0.737c-1.894-0.467-3.869-0.68-5.699-1.319
		c-4.668-1.628-9.266-3.455-13.916-5.137c-0.497-0.179-1.219-0.077-1.72,0.151c-2.792,1.27-4.982,3.356-6.627,5.844
		c-0.885,1.339-1.704,3.335-1.361,4.745c0.705,2.897,1.986,5.75,4.269,7.884C230.058,375.236,234.491,376.453,239.475,377.13z
		 M223.153,349.821c-0.469,1.302-0.875,2.432-1.406,3.905c1.706-0.993,3.04-1.77,4.551-2.65
		C225.21,350.642,224.297,350.277,223.153,349.821z"/>
	<path fill-rule="evenodd" clip-rule="evenodd" d="M430.3,346.946c2.053,3.184,3.382,6.571,3.593,10.387
		c0.365,6.613-3.129,16.387-11.919,19.634c-6.143,2.269-12.341,3.244-18.805,2.451c-1.201-0.148-2.344-0.801-3.503-1.245
		c-1.222-0.468-2.554-0.781-3.626-1.485c-3.637-2.385-7.112-4.99-8.962-9.135c-0.358-0.804-0.481-1.712-0.761-2.748
		c-3.109,0.165-6.678,2.028-10.028-0.297c1.39-2.547,3.021-4.26,5.889-4.802c1.708-0.323,3.195-1.684,4.856-2.403
		c2.553-1.105,5.176-2.047,7.76-3.081c7.046-2.821,14.063-5.713,21.135-8.469c10.037-3.912,20.024-7.924,29.626-12.842
		c1.486-0.761,3.108-1.276,4.703-1.795c0.664-0.216,1.459-0.308,2.128-0.158c0.737,0.165,1.397,0.672,2.091,1.03
		c-0.385,0.662-0.618,1.534-1.185,1.946c-1.784,1.3-3.632,2.541-5.566,3.6c-5.605,3.068-11.265,6.036-16.901,9.046
		C430.659,346.666,430.515,346.793,430.3,346.946z M406.205,377.18c0.977-0.166,1.585-0.269,2.193-0.374
		c6.771-1.17,12.089-4.17,14.632-11.046c0.944-2.554,0.43-4.717-1.004-6.689c-1.673-2.3-3.693-4.339-6.351-5.544
		c-0.577-0.262-1.404-0.387-1.975-0.182c-4.658,1.67-9.282,3.436-13.919,5.166c-0.401,0.15-0.816,0.272-1.235,0.359
		c-1.729,0.361-3.471,0.667-5.188,1.074c-0.501,0.118-0.939,0.499-1.13,0.604c0.967,1.624,1.843,3.094,2.742,4.605
		c-2.683,1.182-3.272,2.426-1.891,3.867c2.479,2.586,5.316,4.617,9.13,4.634c1.3,0.005,2.601-0.063,3.898-0.025
		c0.557,0.016,1.162,0.111,1.65,0.358c0.95,0.481,1.091,1.174,0.192,1.895C407.479,376.259,406.981,376.604,406.205,377.18z
		 M423.633,353.51c0.089-0.066,0.179-0.132,0.268-0.199c-0.441-1.127-0.883-2.254-1.364-3.482c-1.099,0.449-2.02,0.827-3.09,1.265
		C421.003,351.992,422.317,352.751,423.633,353.51z"/>
	<path fill-rule="evenodd" clip-rule="evenodd" fill="none" d="M236.105,398.369c14.834-3.646,29.085-7.455,43.483-10.594
		c12.175-2.654,24.12-6.126,36.181-9.177c1.726-0.436,3.306-1.124,5.296-0.504c1.469,0.457,3.274-0.181,4.932-0.308
		c0.468-0.036,0.972-0.094,1.409,0.033c15.425,4.451,31.01,8.251,46.674,11.772c10.029,2.254,19.938,5.038,29.913,7.542
		c1.699,0.426,3.454,0.635,5.33,1.31c-0.804,0.52-1.604,1.045-2.413,1.556c-0.405,0.255-0.86,0.44-1.236,0.73
		c-5.228,4.031-10.518,7.919-16.206,11.352c-7.5,4.527-15.162,8.728-22.914,12.772c-5.235,2.732-10.679,5.064-15.961,7.712
		c-6.013,3.014-11.951,6.174-17.916,9.281c-1.748,0.911-3.476,1.86-5.214,2.79c-0.169,0.091-0.414,0.284-0.512,0.229
		c-1.541-0.861-3.188-0.396-4.794-0.417c-0.662-0.009-1.424-0.188-1.965,0.075c-0.835,0.404-1.469,0.387-2.263-0.049
		c-5.775-3.165-11.508-6.416-17.375-9.4c-5.609-2.854-11.386-5.375-17.049-8.125c-3.976-1.931-7.952-3.88-11.808-6.033
		c-6.837-3.818-13.604-7.763-20.351-11.738c-1.517-0.894-2.822-2.145-4.241-3.209c-2.442-1.832-4.873-3.683-7.358-5.454
		C238.688,399.761,237.502,399.184,236.105,398.369z"/>
	<path fill-rule="evenodd" clip-rule="evenodd" fill="none" d="M277.416,442.716c-5.224-5.506-10.437-10.909-15.542-16.411
		c-4.377-4.717-8.632-9.547-12.941-14.327c0.131-0.165,0.261-0.329,0.393-0.494c2.318,0.919,4.762,1.609,6.932,2.799
		c7.204,3.948,14.619,7.627,21.369,12.259c7.311,5.017,15.03,9.325,22.443,14.145c2.042,1.328,4.36,2.229,6.418,3.537
		c2.994,1.903,5.908,3.943,8.771,6.04c1.035,0.76,1.904,1.479,3.191,0.657c0.118-0.075,0.275-0.146,0.406-0.134
		c1.645,0.142,3.288,0.301,4.932,0.45c0.424,0.039,0.929,0.221,1.26,0.059c1.068-0.524,2.031-0.616,3.146-0.052
		c0.369,0.187,1.199-0.075,1.561-0.409c3.781-3.508,8.306-5.794,12.766-8.28c7.094-3.956,14.106-8.114,20.815-12.684
		c5.17-3.521,10.281-7.1,15.759-10.121c3.619-1.997,7.26-3.964,10.971-5.782c2.01-0.984,4.187-1.628,6.462-2.244
		c-1.993,2.53-3.832,5.204-6.011,7.563c-5.647,6.116-11.453,12.087-17.178,18.132c-1.653,1.746-3.245,3.549-4.846,5.303
		c0.938,2.048,0.903,2.562-0.955,3.89c-1.513,1.081-3.247,1.845-4.832,2.831c-1.329,0.827-2.739,1.612-3.847,2.69
		c-6.07,5.909-12.089,11.871-18.063,17.877c-4.445,4.468-8.794,9.031-13.19,13.547c-0.267,0.273-0.582,0.499-0.958,0.818
		c-0.682-0.606-1.352-1.203-2.072-1.845c-0.561,0.47-1.069,0.896-1.677,1.405c-0.536-0.435-1.083-0.876-1.73-1.399
		c-0.674,0.594-1.344,1.186-2.426,2.14c-3.397-3.559-6.737-7.137-10.165-10.631c-7.582-7.729-15.191-15.433-22.844-23.092
		c-0.714-0.715-1.828-1.021-2.737-1.551c-1.737-1.013-3.546-1.931-5.166-3.107C276.285,445.171,276.288,444.466,277.416,442.716z"/>
	<path fill-rule="evenodd" clip-rule="evenodd" fill="none" d="M239.475,377.13c-4.984-0.677-9.417-1.895-12.968-5.217
		c-2.282-2.135-3.563-4.987-4.269-7.884c-0.343-1.41,0.476-3.406,1.361-4.745c1.645-2.488,3.836-4.574,6.627-5.844
		c0.501-0.228,1.223-0.33,1.72-0.151c4.649,1.682,9.248,3.509,13.916,5.137c1.83,0.639,3.805,0.852,5.699,1.319
		c0.766,0.189,1.492,0.537,2.032,0.737c-0.991,1.623-1.891,3.096-2.846,4.66c0.608,0.267,0.914,0.386,1.208,0.531
		c1.474,0.731,1.887,2.124,0.767,3.286c-2.445,2.538-5.207,4.596-8.953,4.681c-1.346,0.031-2.695-0.052-4.04-0.006
		c-0.603,0.021-1.257,0.115-1.783,0.382c-0.881,0.448-0.988,1.146-0.192,1.828C238.218,376.242,238.733,376.58,239.475,377.13z"/>
	<path fill-rule="evenodd" clip-rule="evenodd" fill="none" d="M223.153,349.821c1.144,0.456,2.057,0.821,3.145,1.255
		c-1.511,0.88-2.845,1.657-4.551,2.65C222.278,352.253,222.685,351.123,223.153,349.821z"/>
	<path fill-rule="evenodd" clip-rule="evenodd" fill="none" d="M406.205,377.18c0.776-0.576,1.274-0.921,1.746-1.299
		c0.898-0.72,0.758-1.414-0.192-1.895c-0.488-0.247-1.094-0.342-1.65-0.358c-1.298-0.038-2.599,0.031-3.898,0.025
		c-3.813-0.017-6.651-2.048-9.13-4.634c-1.382-1.441-0.792-2.686,1.891-3.867c-0.899-1.511-1.775-2.981-2.742-4.605
		c0.19-0.106,0.629-0.486,1.13-0.604c1.718-0.406,3.46-0.713,5.188-1.074c0.419-0.087,0.834-0.209,1.235-0.359
		c4.637-1.729,9.261-3.495,13.919-5.166c0.57-0.205,1.397-0.08,1.975,0.182c2.657,1.206,4.678,3.244,6.351,5.544
		c1.434,1.972,1.948,4.136,1.004,6.689c-2.543,6.876-7.86,9.876-14.632,11.046C407.79,376.912,407.182,377.014,406.205,377.18z"/>
	<path fill-rule="evenodd" clip-rule="evenodd" fill="none" d="M423.633,353.51c-1.315-0.759-2.63-1.518-4.187-2.417
		c1.07-0.438,1.991-0.815,3.09-1.265c0.481,1.228,0.923,2.355,1.364,3.482C423.812,353.378,423.722,353.444,423.633,353.51z"/>
</g>
</svg>
