<?xml version="1.0" encoding="UTF-8" standalone="no"?>
<!-- Created with Inkscape (http://www.inkscape.org/) -->

<svg
   xmlns:dc="http://purl.org/dc/elements/1.1/"
   xmlns:cc="http://creativecommons.org/ns#"
   xmlns:rdf="http://www.w3.org/1999/02/22-rdf-syntax-ns#"
   xmlns:svg="http://www.w3.org/2000/svg"
   xmlns="http://www.w3.org/2000/svg"
   xmlns:sodipodi="http://sodipodi.sourceforge.net/DTD/sodipodi-0.dtd"
   xmlns:inkscape="http://www.inkscape.org/namespaces/inkscape"
   width="70.875221"
   height="56.035725"
   id="svg3367"
   version="1.1"
   inkscape:version="0.48.3.1 r9886"
   sodipodi:docname="Novo documento 6">
  <defs
     id="defs3369" />
  <sodipodi:namedview
     id="base"
     pagecolor="#ffffff"
     bordercolor="#666666"
     borderopacity="1.0"
     inkscape:pageopacity="0.0"
     inkscape:pageshadow="2"
     inkscape:zoom="4.6934344"
     inkscape:cx="55.756923"
     inkscape:cy="25.582143"
     inkscape:document-units="px"
     inkscape:current-layer="layer3"
     showgrid="false"
     fit-margin-top="0"
     fit-margin-left="0"
     fit-margin-right="0"
     fit-margin-bottom="0"
     inkscape:window-width="1024"
     inkscape:window-height="719"
     inkscape:window-x="0"
     inkscape:window-y="24"
     inkscape:window-maximized="1" />
  <metadata
     id="metadata3372">
    <rdf:RDF>
      <cc:Work
         rdf:about="">
        <dc:format>image/svg+xml</dc:format>
        <dc:type
           rdf:resource="http://purl.org/dc/dcmitype/StillImage" />
        <dc:title></dc:title>
      </cc:Work>
    </rdf:RDF>
  </metadata>
  <g
     inkscape:groupmode="layer"
     id="layer2"
     inkscape:label="mascara"
     style="display:inline">
    <path
       transform="translate(-376.34375,-667.05806)"
       inkscape:connector-curvature="0"
       style="fill:#000000;stroke:none"
       d="m 377.93113,667.17836 -0.003,0.17727 -0.0575,0.12729 -0.11779,0.081 -0.18386,0.0384 -0.13138,0.0287 -0.12927,0.0559 -0.12613,0.0714 -0.12194,0.0752 -0.14078,0.0929 -0.14182,0.10362 -0.1489,0.11329 -0.162,0.12186 0,1.67646 0,1.67645 0,1.67645 0,1.67646 0.41834,0.21691 0.40085,0.2064 0.38628,0.20479 0.37463,0.21205 0.35662,0.21997 0.35183,0.23095 0.34831,0.23672 0.34607,0.2373 1.06911,0.67755 1.10543,0.60908 1.13386,0.55348 1.15444,0.51079 0.35495,0.21176 0.23159,0.26696 0.15029,0.31857 0.11104,0.36659 0.26683,0.9764 0.27719,0.97461 0.29614,0.96837 0.32372,0.95767 0.48482,1.2953 0.5085,1.28585 0.51285,1.28441 0.49787,1.29098 0.44206,1.16107 0.43685,1.16337 0.40013,1.1766 0.3319,1.20077 0.22813,0.91257 0.24427,0.90861 0.24893,0.90755 0.24215,0.90937 0.04,0.12398 0.0561,0.0878 0.0871,0.0532 0.1329,0.0202 0.3303,0.0424 0.22633,0.11885 0.15035,0.21551 0.10235,0.33238 -0.19337,0.009 -0.19872,0.009 -0.21078,0.01 -0.22958,0.0104 0.0953,0.3659 0.0908,0.35091 0.0883,0.3413 0.0878,0.33702 0.49944,-0.0777 0.38336,0.0764 0.28687,0.2524 0.21003,0.45023 0.41384,1.07528 0.5034,1.02752 0.54964,1.00319 0.55258,1.00231 0.0105,0.0109 0.0165,0.009 0.0204,0.008 0.022,0.0106 0.0821,-0.0335 0.0781,-0.0316 0.0693,-0.028 0.0556,-0.0225 0.83942,1.04655 0.83315,1.03715 0.82932,1.03007 0.8279,1.02533 0.0647,0.0686 0.0783,0.0625 0.0819,0.0432 0.0757,0.0108 0.4344,0.037 0.32791,0.20471 0.27241,0.29965 0.26791,0.32187 -0.21004,0 -0.21004,0 -0.21004,0 -0.21004,0 0.81967,1.25013 0.80632,1.23331 0.80072,1.21907 0.80288,1.2074 1.25563,1.87839 1.23,1.89352 1.17611,1.92682 1.094,1.97829 0.11311,0.17525 0.13998,0.12587 0.17916,0.0755 0.23062,0.0242 2.343,-0.0104 2.34337,-0.003 2.34337,0.004 2.343,0.009 0.21832,-0.0246 0.17087,-0.0753 0.13429,-0.12361 0.10857,-0.1695 1.08306,-1.96305 1.16383,-1.91123 1.21777,-1.87794 1.24483,-1.86313 0.79293,-1.19347 0.78576,-1.19953 0.78262,-1.2016 0.78349,-1.19971 0.022,-0.0357 0.0222,-0.0396 0.0252,-0.0462 0.0308,-0.0557 -0.21518,-0.009 -0.20372,-0.007 -0.1966,-0.007 -0.19382,-0.008 -0.0114,-0.023 -0.0117,-0.0231 -0.0117,-0.0232 -0.0113,-0.0231 0.0908,-0.0713 0.0911,-0.0706 0.0888,-0.0729 0.084,-0.0781 0.20643,-0.1962 0.22296,-0.15789 0.25492,-0.0945 0.3023,-0.006 0.0865,-0.0158 0.0938,-0.0575 0.0904,-0.0806 0.0762,-0.085 0.82202,-1.01627 0.82166,-1.01881 0.82263,-1.02256 0.82494,-1.02751 0.0662,0.0259 0.079,0.03 0.0912,0.0348 0.1027,0.0404 0.53619,-0.99265 0.54575,-0.98115 0.50001,-1.00013 0.39897,-1.04954 0.20589,-0.49534 0.27847,-0.29055 0.39663,-0.11343 0.56038,0.036 0.0858,-0.33366 0.0879,-0.33819 0.0897,-0.34527 0.0912,-0.3549 -0.2363,-0.0131 -0.22019,-0.0114 -0.2097,-0.0107 -0.2048,-0.0111 0.14081,-0.31589 0.18246,-0.24584 0.25205,-0.14419 0.34962,-0.0109 0.0537,-0.008 0.0616,-0.033 0.0541,-0.047 0.0311,-0.0503 0.15321,-0.51029 0.15109,-0.51097 0.14347,-0.5129 0.13032,-0.51612 0.29295,-1.20838 0.32056,-1.1998 0.36643,-1.18657 0.43059,-1.1687 0.2258,-0.61733 0.20381,-0.62681 0.2106,-0.6233 0.24619,-0.60677 0.70735,-1.62278 0.64732,-1.64516 0.60011,-1.6626 0.56569,-1.67509 0.16479,-0.56008 0.14025,-0.56752 0.13225,-0.57025 0.1408,-0.56826 0.033,-0.082 0.0525,-0.0803 0.0657,-0.0685 0.0724,-0.0466 1.69461,-0.79047 1.64995,-0.86854 1.60403,-0.95049 1.55683,-1.0363 0.12706,-0.10695 0.0863,-0.1172 0.049,-0.13616 0.0151,-0.16382 -0.003,-1.63018 -1.5e-4,-1.63025 0.002,-1.63026 0.002,-1.63017 2.1e-4,-0.24838 -3e-5,-0.24876 -1.1e-4,-0.24877 -7e-5,-0.24839 -0.0193,0.0115 -0.0192,0.0117 -0.0192,0.0117 -0.0193,0.0113 -0.0904,-0.11613 -0.0927,-0.11831 -0.0975,-0.12441 -0.10472,-0.13445 0.0205,-0.005 -0.002,-0.002 -0.0172,0.001 -0.0241,0.005 -2.74742,0.78163 -2.77177,0.68292 -2.78894,0.60967 -2.79888,0.56186 -2.51486,0.47962 -2.5167,0.46522 -2.51752,0.46106 -2.51736,0.46712 -0.86303,0.17621 -0.86149,0.18937 -0.86252,0.18193 -0.86608,0.15389 -1.80218,0.26571 -1.80324,0.25099 -1.80417,0.24507 -1.80495,0.24795 -0.29075,0.0406 -0.29079,0.0458 -0.28714,0.0585 -0.27979,0.0786 -0.18081,0.0431 -0.16962,0.009 -0.16976,-0.0172 -0.18122,-0.0346 -0.29322,-0.0351 -0.30106,0.003 -0.30452,0.0211 -0.30363,0.019 -0.0627,0.0126 -0.0631,0.0239 -0.0619,0.0211 -0.059,0.004 -0.155,-0.0311 -0.15341,-0.0383 -0.15335,-0.0383 -0.15487,-0.0311 -0.80708,-0.13164 -0.80641,-0.13176 -0.80707,-0.12724 -0.80902,-0.11805 -1.23504,-0.16194 -1.23717,-0.15428 -1.23626,-0.15997 -1.23226,-0.17899 -0.86477,-0.15531 -0.85988,-0.18114 -0.8589,-0.18827 -0.86186,-0.17668 -2.744,-0.51801 -2.745,-0.5139 -2.74449,-0.5163 -2.74248,-0.52521 -1.43817,-0.28566 -1.43525,-0.2989 -1.4322,-0.313 -1.42901,-0.32798 -1.14568,-0.28412 -1.14324,-0.30474 -1.14533,-0.31477 -1.15192,-0.31423 -2e-5,-6e-5 -2e-5,-6e-5 -2e-5,-6e-5 z m 2.34318,2.01176 0.0779,-0.003 0.0785,0.004 0.0774,0.009 0.0745,0.0131 0.32098,0.0672 0.31973,0.08 0.31154,0.10082 0.29643,0.12974 2.13136,1.03069 2.16832,0.94653 2.19208,0.89056 2.20268,0.86282 1.24927,0.48478 1.24829,0.4844 1.24625,0.48926 1.24317,0.49935 0.51825,0.22759 0.51025,0.24805 0.50666,0.25688 0.50742,0.25409 0.0323,0.018 0.033,0.0197 0.0331,0.0162 0.0326,0.008 0.44856,0.0974 0.36385,0.2149 0.30257,0.30157 0.26473,0.35737 0.0586,0.15096 -0.0343,0.10799 -0.0908,0.0672 -0.11077,0.0285 -0.35113,0.0277 -0.3535,0.0179 -0.35382,0.007 -0.35209,-0.006 -0.22144,-0.0209 -0.21258,-0.0381 -0.19597,-0.0433 -0.17163,-0.0365 -0.057,0.20476 -0.0502,0.19038 -0.0525,0.1778 -0.0638,0.16702 -0.44928,0.76108 -0.58003,0.63166 -0.67622,0.52109 -0.73786,0.42935 -0.61079,0.28178 -0.64735,0.21652 -0.68115,0.12153 -0.71221,-0.003 -0.82777,-0.0928 -0.81952,-0.11899 -0.8129,-0.16534 -0.80793,-0.23181 -1.47973,-0.84882 -0.99039,-1.23507 -0.54346,-1.41289 -0.13893,-1.38228 0.0806,-0.69636 0.18171,-0.66382 0.27408,-0.6389 0.35771,-0.62158 -0.0958,-0.0487 -0.0899,-0.0461 -0.0857,-0.0449 -0.0831,-0.0453 -1.27984,-0.7142 -1.27945,-0.71514 -1.2793,-0.71537 -1.27942,-0.71491 -0.0225,-0.0137 -0.0214,-0.015 -0.0207,-0.0161 -0.0203,-0.017 -0.15278,-0.11129 -0.15125,-0.11528 -0.0975,-0.14266 0.008,-0.19343 0.0661,-0.12607 0.0918,-0.0876 0.11115,-0.054 0.12405,-0.0253 0,-10e-6 0,-10e-6 1e-5,-1e-5 z m 63.8672,0.008 0.0333,0.002 0.0333,0.003 0.0327,0.004 0.0317,0.006 0.13214,0.0445 0.12629,0.0648 0.12426,0.0738 0.12603,0.0713 -0.0662,0.13033 -0.0635,0.1354 -0.0719,0.12393 -0.0913,0.0959 -0.33289,0.23704 -0.33914,0.22846 -0.34612,0.21731 -0.35384,0.20361 -1.03806,0.56276 -1.0401,0.55621 -1.04158,0.5536 -1.0425,0.55498 -0.0302,0.0183 -0.0307,0.022 -0.033,0.025 -0.0371,0.0272 0.34484,0.59886 0.26882,0.62237 0.1836,0.65149 0.0891,0.68628 -0.11721,1.33305 -0.50821,1.40242 -0.93161,1.24675 -1.38737,0.86603 -1.13882,0.35755 -1.14769,0.22627 -1.16254,0.0847 -1.18336,-0.0673 -0.22086,-0.0482 -0.21852,-0.0786 -0.21657,-0.0923 -0.21504,-0.0892 -0.22968,-0.0809 -0.23125,-0.0784 -0.22431,-0.0893 -0.20887,-0.11363 -0.65873,-0.45606 -0.60878,-0.50648 -0.52614,-0.58789 -0.41079,-0.70026 -0.0578,-0.1537 -0.046,-0.16397 -0.0423,-0.17471 -0.0467,-0.18591 -0.59388,0.0858 -0.62085,0.10602 -0.63204,-0.009 -0.62745,-0.25966 0.27282,-0.4317 0.31896,-0.34727 0.38727,-0.25453 0.47774,-0.15353 0.30679,-0.10005 0.29492,-0.15602 0.29274,-0.17444 0.30026,-0.15529 0.47591,-0.19833 0.48085,-0.18976 0.48229,-0.18647 0.48021,-0.1885 1.30206,-0.52433 1.30088,-0.52609 1.30203,-0.52309 1.30553,-0.51531 1.85309,-0.73151 1.84067,-0.7595 1.82054,-0.80598 1.79274,-0.87094 0.27995,-0.12984 0.28805,-0.11222 0.29309,-0.10103 0.29508,-0.0963 0.0958,-0.0275 0.10098,-0.0209 0.10278,-0.0122 0.10123,-0.001 0,2e-5 0,2e-5 0,2e-5 z m -30.89304,10.54433 0.0182,-0.002 0.0176,-0.001 0.017,2.4e-4 0.0166,0.002 0.85471,0.19443 0.85449,0.19746 0.85547,0.19228 0.85761,0.17889 3.39233,0.67734 3.38571,0.70635 3.37464,0.75639 3.35917,0.82746 0.90155,0.2397 0.89907,0.2465 0.89865,0.24812 0.9003,0.24456 0.20959,0.0544 0.20983,0.0521 0.21015,0.0509 0.21058,0.0507 0.002,0 0.002,0 0.002,0 0.002,0 0.20968,0.0515 0.21046,0.0526 0.21043,0.0526 0.20959,0.0515 0.20622,0.0798 0.1476,0.12165 0.0824,0.15581 0.0108,0.18228 -0.0133,0.0652 -0.0222,0.0669 -0.0314,0.0683 -0.041,0.0694 -0.38847,0.58461 -0.39563,0.57933 -0.40632,0.5716 -0.42052,0.56143 -1.93303,2.41298 -2.00475,2.35228 -2.05725,2.30704 -2.0905,2.2773 -0.13488,0.14013 -0.14559,0.14278 -0.15951,0.15355 -0.17664,0.17247 0.30831,0 0.30831,0 0.30832,0 0.30831,0 -0.0657,0.0651 -0.0634,0.0674 -0.0625,0.0685 -0.0628,0.0687 -0.0635,0.0678 -0.0642,0.0658 -0.0659,0.0626 -0.0685,0.0582 -0.0725,0.0519 -0.077,0.0444 -0.0813,0.0367 -0.0853,0.0289 -0.0441,0.0115 -0.0453,0.009 -0.0468,0.007 -0.0488,0.003 -0.051,-5e-4 -0.0531,-0.004 -0.055,-0.008 -0.0567,-0.0107 -0.37718,-0.0186 -0.33068,0.0958 -0.30048,0.18822 -0.28658,0.25864 -0.97513,0.96364 -0.98541,0.95279 -0.98596,0.95228 -0.97679,0.9621 -0.90718,0.91934 -0.89893,0.92835 -0.89383,0.9333 -0.89192,0.93419 -0.80989,0.85131 -0.80703,0.85413 -0.80597,0.85506 -0.8067,0.85409 -0.0616,0.065 -0.0648,0.0682 -0.0709,0.0748 -0.0801,0.0848 -0.11826,-0.14315 -0.12136,-0.14653 -0.13066,-0.15776 -0.14614,-0.17688 -0.0955,0.15088 -0.0909,0.14349 -0.094,0.14854 -0.10496,0.16602 -0.1201,-0.17467 -0.10417,-0.15141 -0.098,-0.14253 -0.10165,-0.14802 -0.14416,0.17447 -0.12903,0.15581 -0.12154,0.14675 -0.12169,0.14729 -0.35095,-0.36676 -0.34112,-0.35559 -0.33423,-0.34897 -0.33028,-0.34692 -0.54402,-0.57533 -0.54368,-0.57591 -0.54516,-0.57453 -0.54846,-0.57117 -1.0033,-1.03699 -1.00472,-1.0363 -1.00852,-1.0325 -1.01467,-1.02561 -0.92971,-0.92196 -0.93648,-0.91537 -0.93796,-0.91394 -0.93415,-0.91767 -0.0728,-0.0658 -0.0738,-0.0546 -0.0757,-0.0445 -0.0783,-0.0356 -0.0815,-0.0277 -0.0854,-0.0197 -0.0906,-0.0114 -0.0971,-0.003 -0.16296,0.003 -0.14415,0.002 -0.12741,-2.4e-4 -0.11273,-0.005 -0.0518,-0.004 -0.0493,-0.005 -0.047,-0.006 -0.0447,-0.008 -0.20297,-0.067 -0.19785,-0.12146 -0.2306,-0.191 -0.30123,-0.27566 0.31795,0 0.31794,0 0.31795,0 0.31795,0 -0.25687,-0.2828 -0.25151,-0.27913 -0.24783,-0.27565 -0.24581,-0.27235 -0.24439,-0.27002 -0.24359,-0.2679 -0.24431,-0.26486 -0.2466,-0.2609 -1.88009,-2.03504 -1.81083,-2.09314 -1.7613,-2.13522 -1.73149,-2.16129 -0.0786,-0.10006 -0.0782,-0.10195 -0.0768,-0.10307 -0.0746,-0.10342 -0.21445,-0.31324 -0.20595,-0.31869 -0.20002,-0.32261 -0.19661,-0.32497 -0.0655,-0.13573 -0.0311,-0.12876 0.002,-0.11985 0.0331,-0.10896 0.0141,-0.0265 0.0167,-0.0255 0.0186,-0.0245 0.02,-0.0237 0.0645,-0.0615 0.0781,-0.053 0.0916,-0.0439 0.10495,-0.0343 1.0028,-0.27036 1.00185,-0.27544 1.00348,-0.26847 1.00765,-0.24941 2.80646,-0.65173 2.80877,-0.6446 2.81066,-0.63619 2.81215,-0.62648 1.66057,-0.35316 1.6637,-0.3362 1.66453,-0.33259 1.66307,-0.34235 0.0972,-0.017 0.095,-0.0101 0.0933,-0.004 0.0921,5.6e-4 0.002,3e-5 0.002,-10e-6 0.002,-3e-5 0.002,10e-6 0.0898,0.004 0.0896,0.004 0.0885,0.002 0.0866,-0.003 0.17956,-0.003 0.18104,0.0127 0.18187,0.0192 0.18207,0.0169 0.0461,0.003 0.0466,0.003 0.0465,0.002 0.0458,2.7e-4 0.13329,-0.0105 0.13236,-0.0266 0.13057,-0.0466 0.12791,-0.0705 0.0146,-0.007 0.0172,-0.004 0.0187,-0.003 0.0189,-0.001 -1.6e-4,-1.2e-4 -1.6e-4,-1.2e-4 -1.5e-4,-1.2e-4 z"
       id="path3111-0"
       sodipodi:nodetypes="cccccccccccccccccccccccccccccccccccccccccccccccccccccccccccccccccccccccccccccccccccccccccccccccccccccccccccccccccccccccccccccccccccccccccccccccccccccccccccccccccccccccccccccccccccccccccccccccccccccccccccccccccccccccccccccccccccccccccccccccccccccccccccccccccccccccccccccccccccccccccccccccccccccccccccccccccccccccccccccccccccccccccccccccccccccccccccccccccccccccccccccccccccccccccccccccccccccccccccccccccccccccccccccccccccccccccccccccccccccccccccccccccccccccccccccccccccccccccccccccccccccccccccccccccccccccccccccccccccccccccccccccccccccccccccccccccccccccccccccccccccccccccccccccccccccccccccccccccccccccccccccccccccccccccccccccccccccccccccccccccccccccccccccccccccccccccccccccccccccccccccccccccccccccccccc" />
  </g>
  <g
     inkscape:groupmode="layer"
     id="layer3"
     inkscape:label="bico"
     style="display:inline">
    <path
       transform="translate(-376.34375,-667.05806)"
       inkscape:connector-curvature="0"
       id="path3161-8"
       style="fill:#999999;stroke:none"
       d="m 401.11246,696.78255 -0.15491,0.28104 -0.0412,0.21821 0.0823,0.18922 0.21567,0.19405 0.30738,0.20711 0.31881,0.19132 0.32426,0.18369 0.32375,0.18422 0.17531,0.09 0.18027,0.0841 0.17126,0.0926 0.14824,0.11583 1.41375,1.41879 1.41007,1.42248 1.40678,1.42575 1.4039,1.42865 0.63063,0.64983 0.62584,0.65523 0.62441,0.65823 0.62633,0.65885 0.1827,-0.16114 0.15422,-0.13607 0.13535,-0.11943 0.1261,-0.11119 0.11541,0.0933 0.10821,0.0875 0.10308,0.0834 0.10001,0.0809 0.10833,-0.091 0.10274,-0.0861 0.10061,-0.0842 0.10195,-0.0853 0.13126,0.11685 0.12797,0.11392 0.12613,0.1123 0.1257,0.112 0.0668,-0.0553 0.0614,-0.0499 0.0564,-0.0478 0.0517,-0.0489 0.81158,-0.83704 0.81055,-0.83809 0.81281,-0.83588 0.81838,-0.83037 1.10719,-1.10897 1.11147,-1.10469 1.11595,-1.10021 1.12065,-1.09551 0.21735,-0.18716 0.23655,-0.1678 0.24681,-0.1562 0.24816,-0.15233 0.29867,-0.17421 0.30389,-0.16614 0.30057,-0.17053 0.28868,-0.18739 0.26268,-0.21707 0.11371,-0.19607 -0.0156,-0.22937 -0.12524,-0.31696 0.29599,-0.32633 0.29674,-0.32841 0.2992,-0.32804 0.30334,-0.32522 1.06184,-1.11567 1.06376,-1.1139 1.06021,-1.11717 1.05116,-1.12553 0.38927,-0.44919 0.36924,-0.46771 0.36064,-0.47561 0.36347,-0.47291 -0.41605,0.11645 -0.40539,0.12625 -0.39314,0.14327 -0.37928,0.16751 -0.68344,0.34274 -0.67807,0.35377 -0.67382,0.36205 -0.67068,0.36758 -0.99803,0.58231 -0.97394,0.61971 -0.9597,0.64278 -0.9553,0.65155 -1.25428,0.82705 -1.27722,0.79391 -1.29498,0.76556 -1.30756,0.742 -0.82491,0.45611 -0.81218,0.4705 -0.78083,0.51776 -0.73083,0.5979 -0.0849,0.057 -0.10679,0.0416 -0.10722,0.0175 -0.0861,-0.0153 -0.20009,-0.0749 -0.19206,-0.0194 -0.18998,0.0309 -0.19384,0.0762 -0.0683,0.0159 -0.0785,-0.005 -0.0828,-0.0139 -0.0812,-0.0119 -0.30408,-0.0279 -0.30407,-0.0283 -0.30411,-0.0279 -0.30422,-0.0269 -0.0252,0.001 -0.0261,0.007 -0.0255,0.0112 -0.0234,0.0134 -0.221,0.0865 -0.19584,-0.0213 -0.18419,-0.0944 -0.18603,-0.13288 -0.53196,-0.38498 -0.53743,-0.37785 -0.54358,-0.36889 -0.55041,-0.35806 -0.39066,-0.22635 -0.40232,-0.208 -0.40158,-0.20892 -0.38845,-0.22913 -1.38272,-0.87257 -1.39451,-0.85356 -1.38979,-0.86271 -1.36857,-0.90004 -1.27605,-0.8175 -1.3173,-0.75762 -1.33829,-0.72597 -1.33904,-0.7226 -0.41255,-0.19972 -0.42865,-0.17045 -0.4355,-0.15795 -0.43309,-0.16226 -0.0242,0.0305 -0.0242,0.0304 -0.0242,0.0304 -0.0242,0.0305 0.7953,0.88593 0.79437,0.88678 0.79751,0.88387 0.80473,0.87719 0.94927,1.01415 0.95688,1.00959 0.96229,1.00973 0.9655,1.01456 -10e-6,-2e-5 -1e-5,-2e-5 0,-2e-5 z m -10.1894,-10.93823 0.249,0.14125 0.23142,0.12896 0.21579,0.12617 0.2021,0.13293 0.45745,0.33093 0.45395,0.33605 0.45197,0.33886 0.45149,0.3394 0.25848,0.20338 0.25547,0.20809 0.26001,0.20023 0.27208,0.1798 1.24924,0.73367 1.25223,0.72854 1.25641,0.72123 1.26172,0.71175 0.7184,0.3896 0.72672,0.37505 0.73228,0.36474 0.73505,0.35866 1.05178,0.50029 1.0558,0.49211 1.0533,0.49691 1.04428,0.51472 1.07991,0.56299 1.07147,0.57953 1.06717,0.5879 1.06701,0.5881 0.14087,0.0613 0.13442,0.0225 0.13632,-0.0164 0.14656,-0.0553 0.10906,-0.0306 0.12209,-0.004 0.12767,0.009 0.12585,0.007 0.29831,-0.0117 0.29883,-0.0146 0.29586,0.0242 0.28944,0.10496 0.0241,3e-5 0.0325,-0.0149 0.0358,-0.0216 0.0339,-0.0201 0.32116,-0.1727 0.32093,-0.17313 0.3214,-0.17226 0.32255,-0.17006 1.1026,-0.57648 1.10246,-0.5768 1.10468,-0.57245 1.10926,-0.56344 0.98317,-0.47786 0.98957,-0.46528 0.9874,-0.46925 0.97665,-0.48979 1.42959,-0.75611 1.4196,-0.77442 1.40795,-0.79671 1.39463,-0.82298 1.03514,-0.65487 1.00611,-0.68972 0.9848,-0.71742 0.97117,-0.73797 0.0727,-0.0495 0.077,-0.0439 0.0784,-0.0422 0.0767,-0.0445 0.14939,-0.0951 0.14875,-0.096 0.14847,-0.0964 0.14856,-0.0963 -0.34169,-0.10595 -0.33201,-0.0786 -0.32382,-0.0671 -0.31713,-0.0714 -1.84292,-0.47304 -1.84112,-0.48021 -1.84362,-0.46864 -1.85041,-0.43835 -2.89369,-0.66572 -2.88451,-0.70014 -2.87346,-0.74311 -2.86053,-0.79461 -0.0836,-0.0156 -0.0873,-0.003 -0.0887,0.004 -0.0878,0.007 -0.31154,0.0409 -0.31409,0.0511 -0.30539,0.0241 -0.28546,-0.0401 -0.35131,-0.0601 -0.32624,0.0247 -0.31404,0.0735 -0.31468,0.0862 -2.22721,0.57909 -2.22437,0.58939 -2.2296,0.57103 -2.2429,0.52401 -2.65934,0.60845 -2.66271,0.65117 -2.68297,0.67461 -2.72011,0.67879 0,-4e-5 0,-4e-5 0,-4e-5 z m -3.19462,-11.97442 -0.0846,0.23489 -0.0831,0.23088 -0.086,0.2388 -0.0932,0.25861 0.3005,-0.17494 0.27879,-0.16233 0.26977,-0.15711 0.27345,-0.15925 -0.19474,-0.0777 -0.18794,-0.075 -0.19053,-0.076 z m 4.02584,6.7358 -0.12745,-0.093 -0.11054,-0.0797 -0.0977,-0.0726 -0.089,-0.0719 -0.10585,-0.12577 -0.0254,-0.12121 0.0521,-0.11044 0.12651,-0.0934 0.10257,-0.0419 0.11029,-0.0281 0.11381,-0.0167 0.11311,-0.007 0.24893,-0.003 0.24912,0.003 0.24921,0.004 0.24921,-0.001 0.65003,-0.10123 0.57444,-0.24918 0.51427,-0.36262 0.46953,-0.44154 0.13811,-0.2222 0.007,-0.22291 -0.11274,-0.20299 -0.22178,-0.1624 -0.056,-0.0263 -0.0639,-0.028 -0.0784,-0.0336 -0.0997,-0.0431 0.17479,-0.28607 0.17296,-0.28326 0.17458,-0.28594 0.17964,-0.29412 -0.10807,-0.0426 -0.12181,-0.0493 -0.13216,-0.0488 -0.13915,-0.0411 -0.35325,-0.0773 -0.35551,-0.0695 -0.35255,-0.0774 -0.34436,-0.10113 -0.86076,-0.30904 -0.8571,-0.31949 -0.85627,-0.32198 -0.85826,-0.31653 -0.10063,-0.0207 -0.11112,0.002 -0.11131,0.0205 -0.10118,0.0357 -0.48887,0.27108 -0.4345,0.33698 -0.38146,0.39331 -0.32973,0.44006 -0.15644,0.27329 -0.12499,0.30532 -0.0682,0.30861 0.0139,0.28314 0.1587,0.53128 0.22182,0.51159 0.2948,0.47631 0.37763,0.42542 0.69655,0.52335 0.77041,0.36477 0.83663,0.24241 0.89523,0.15624 10e-6,-1.3e-4 2e-5,-1.2e-4 1e-5,-1.2e-4 z m 45.42276,-5.8259 0.0165,-0.0122 0.0166,-0.0122 0.0165,-0.0123 0.0165,-0.0123 -0.0818,-0.20887 -0.0827,-0.21121 -0.0846,-0.21588 -0.0873,-0.22288 -0.19633,0.0803 -0.18743,0.0767 -0.18609,0.0762 -0.1923,0.0787 0.27759,0.16023 0.26085,0.15058 0.24974,0.14416 0.2443,0.14094 0,1e-5 0,0 0,10e-6 z m -4.29864,5.83823 0.16509,-0.028 0.1395,-0.0237 0.12243,-0.0209 0.11389,-0.0196 1.18026,-0.30895 1.0153,-0.52553 0.81977,-0.78941 0.59367,-1.10061 0.10927,-0.45515 -0.0131,-0.42361 -0.12312,-0.39669 -0.22065,-0.3744 -0.32666,-0.4112 -0.36547,-0.3738 -0.41104,-0.32316 -0.46331,-0.25928 -0.11635,-0.0414 -0.12777,-0.0243 -0.1275,-0.003 -0.11552,0.0234 -0.86028,0.31286 -0.85823,0.31869 -0.85725,0.32147 -0.85737,0.32118 -0.0748,0.0264 -0.0759,0.0237 -0.0767,0.0208 -0.0773,0.0177 -0.3203,0.0648 -0.32062,0.0634 -0.32007,0.0655 -0.31863,0.0712 -0.0891,0.0319 -0.079,0.0438 -0.0646,0.0432 -0.046,0.0301 0.17511,0.29405 0.16934,0.28432 0.16619,0.27909 0.16568,0.27837 -0.39996,0.22204 -0.20915,0.2309 -0.0212,0.24288 0.16388,0.25798 0.47753,0.44709 0.52495,0.36202 0.5867,0.24321 0.66275,0.0907 0.24051,-0.001 0.24049,-0.004 0.24035,-0.003 0.24009,0.003 0.10462,0.007 0.10525,0.0159 0.10206,0.0266 0.0951,0.0389 0.13743,0.0981 0.0573,0.11342 -0.0283,0.12453 -0.11913,0.13138 -0.0892,0.0693 -0.0976,0.0724 -0.11172,0.0816 -0.13166,0.0969 10e-6,-7e-5 1e-5,-6e-5 2e-5,-6e-5 z"
       sodipodi:nodetypes="cccccccccccccccccccccccccccccccccccccccccccccccccccccccccccccccccccccccccccccccccccccccccccccccccccccccccccccccccccccccccccccccccccccccccccccccccccccccccccccccccccccccccccccccccccccccccccccccccccccccccccccccccccccccccccccccccccccccccccccccccccccccccccccccccccccccccccccccccccccccccccccccccccccccccccccccccccccccccccccccccccccccccccccccccccccccccccccccccccccccccccccccccccccccccccccccccccccccccccccccccccccccccccccccccccccccccccccccccc" />
  </g>
</svg>
