  0
SECTION
  2
HEADER
  9
$ACADVER
  1
AC1014
  9
$HANDSEED
  5
FFFF
  9
$MEASUREMENT
 70
     1
  0
ENDSEC
  0
SECTION
  2
TABLES
  0
TABLE
  2
VPORT
  5
8
330
0
100
AcDbSymbolTable
 70
     4
  0
VPORT
  5
2E
330
8
100
AcDbSymbolTableRecord
100
AcDbViewportTableRecord
  2
*ACTIVE
 70
     0
 10
0.0
 20
0.0
 11
1.0
 21
1.0
 12
210.0
 22
148.5
 13
0.0
 23
0.0
 14
10.0
 24
10.0
 15
10.0
 25
10.0
 16
0.0
 26
0.0
 36
1.0
 17
0.0
 27
0.0
 37
0.0
 40
341.0
 41
1.24
 42
50.0
 43
0.0
 44
0.0
 50
0.0
 51
0.0
 71
     0
 72
   100
 73
     1
 74
     3
 75
     0
 76
     0
 77
     0
 78
     0
  0
ENDTAB
  0
TABLE
  2
LTYPE
  5
5
330
0
100
AcDbSymbolTable
 70
     1
  0
LTYPE
  5
14
330
5
100
AcDbSymbolTableRecord
100
AcDbLinetypeTableRecord
  2
BYBLOCK
 70
     0
  3

 72
    65
 73
     0
 40
0.0
  0
LTYPE
  5
15
330
5
100
AcDbSymbolTableRecord
100
AcDbLinetypeTableRecord
  2
BYLAYER
 70
     0
  3

 72
    65
 73
     0
 40
0.0
  0
LTYPE
  5
16
330
5
100
AcDbSymbolTableRecord
100
AcDbLinetypeTableRecord
  2
CONTINUOUS
 70
     0
  3
Solid line
 72
    65
 73
     0
 40
0.0
  0
ENDTAB
  0
TABLE
  2
LAYER
  5
2
100
AcDbSymbolTable
 70
3
  0
LAYER
  5
50
100
AcDbSymbolTableRecord
100
AcDbLayerTableRecord
  2
0
 70
0
  6
CONTINUOUS
  0
LAYER
  5
51
100
AcDbSymbolTableRecord
100
AcDbLayerTableRecord
  2
mascara
 70
0
  6
CONTINUOUS
  0
LAYER
  5
52
100
AcDbSymbolTableRecord
100
AcDbLayerTableRecord
  2
bico
 70
0
  6
CONTINUOUS
  0
ENDTAB
  0
TABLE
  2
STYLE
  5
3
330
0
100
AcDbSymbolTable
 70
     1
  0
STYLE
  5
11
330
3
100
AcDbSymbolTableRecord
100
AcDbTextStyleTableRecord
  2
STANDARD
 70
     0
 40
0.0
 41
1.0
 50
0.0
 71
     0
 42
2.5
  3
txt
  4

  0
ENDTAB
  0
TABLE
  2
VIEW
  5
6
330
0
100
AcDbSymbolTable
 70
     0
  0
ENDTAB
  0
TABLE
  2
UCS
  5
7
330
0
100
AcDbSymbolTable
 70
     0
  0
ENDTAB
  0
TABLE
  2
APPID
  5
9
330
0
100
AcDbSymbolTable
 70
     2
  0
APPID
  5
12
330
9
100
AcDbSymbolTableRecord
100
AcDbRegAppTableRecord
  2
ACAD
 70
     0
  0
ENDTAB
  0
TABLE
  2
DIMSTYLE
  5
A
330
0
100
AcDbSymbolTable
 70
     1
  0
DIMSTYLE
105
27
330
A
100
AcDbSymbolTableRecord
100
AcDbDimStyleTableRecord
  2
ISO-25
 70
     0
  3

  4

  5

  6

  7

 40
1.0
 41
2.5
 42
0.625
 43
3.75
 44
1.25
 45
0.0
 46
0.0
 47
0.0
 48
0.0
140
2.5
141
2.5
142
0.0
143
0.03937007874016
144
1.0
145
0.0
146
1.0
147
0.625
 71
     0
 72
     0
 73
     0
 74
     0
 75
     0
 76
     0
 77
     1
 78
     8
170
     0
171
     3
172
     1
173
     0
174
     0
175
     0
176
     0
177
     0
178
     0
270
     2
271
     2
272
     2
273
     2
274
     3
340
11
275
     0
280
     0
281
     0
282
     0
283
     0
284
     8
285
     0
286
     0
287
     3
288
     0
  0
ENDTAB
  0
TABLE
  2
BLOCK_RECORD
  5
1
330
0
100
AcDbSymbolTable
 70
     1
  0
BLOCK_RECORD
  5
1F
330
1
100
AcDbSymbolTableRecord
100
AcDbBlockTableRecord
  2
*MODEL_SPACE
  0
BLOCK_RECORD
  5
1B
330
1
100
AcDbSymbolTableRecord
100
AcDbBlockTableRecord
  2
*PAPER_SPACE
  0
ENDTAB
  0
ENDSEC
  0
SECTION
  2
BLOCKS
  0
BLOCK
  5
20
330
1F
100
AcDbEntity
  8
0
100
AcDbBlockBegin
  2
*MODEL_SPACE
 70
     0
 10
0.0
 20
0.0
 30
0.0
  3
*MODEL_SPACE
  1

  0
ENDBLK
  5
21
330
1F
100
AcDbEntity
  8
0
100
AcDbBlockEnd
  0
BLOCK
  5
1C
330
1B
100
AcDbEntity
 67
     1
  8
0
100
AcDbBlockBegin
  2
*PAPER_SPACE
  1

  0
ENDBLK
  5
1D
330
1B
100
AcDbEntity
 67
     1
  8
0
100
AcDbBlockEnd
  0
ENDSEC
  0
SECTION
  2
ENTITIES
  0
LWPOLYLINE
  5
100
100
AcDbEntity
  8
mascara
 62
7
100
AcDbPolyline
 90
297
 70
0
 10
0.447994
 20
15.780575
 30
0.0
 10
0.447147
 20
15.730546
 30
0.0
 10
0.430919
 20
15.694622
 30
0.0
 10
0.397677
 20
15.671762
 30
0.0
 10
0.345787
 20
15.660925
 30
0.0
 10
0.308709
 20
15.652825
 30
0.0
 10
0.272226
 20
15.637049
 30
0.0
 10
0.236629
 20
15.616898
 30
0.0
 10
0.202215
 20
15.595675
 30
0.0
 10
0.162484
 20
15.569456
 30
0.0
 10
0.122459
 20
15.540212
 30
0.0
 10
0.080436
 20
15.508240
 30
0.0
 10
0.034716
 20
15.473848
 30
0.0
 10
0.034716
 20
15.000714
 30
0.0
 10
0.034716
 20
14.527582
 30
0.0
 10
0.034716
 20
14.054451
 30
0.0
 10
0.034716
 20
13.581316
 30
0.0
 10
0.152781
 20
13.520100
 30
0.0
 10
0.265910
 20
13.461849
 30
0.0
 10
0.374927
 20
13.404053
 30
0.0
 10
0.480655
 20
13.344207
 30
0.0
 10
0.581302
 20
13.282127
 30
0.0
 10
0.680596
 20
13.216948
 30
0.0
 10
0.778897
 20
13.150140
 30
0.0
 10
0.876565
 20
13.083169
 30
0.0
 10
1.178292
 20
12.891949
 30
0.0
 10
1.490269
 20
12.720053
 30
0.0
 10
1.810269
 20
12.563849
 30
0.0
 10
2.136078
 20
12.419693
 30
0.0
 10
2.236253
 20
12.359929
 30
0.0
 10
2.301613
 20
12.284587
 30
0.0
 10
2.344028
 20
12.194680
 30
0.0
 10
2.375366
 20
12.091220
 30
0.0
 10
2.450671
 20
11.815658
 30
0.0
 10
2.528900
 20
11.540601
 30
0.0
 10
2.612477
 20
11.267306
 30
0.0
 10
2.703838
 20
10.997030
 30
0.0
 10
2.840665
 20
10.631468
 30
0.0
 10
2.984175
 20
10.268572
 30
0.0
 10
3.128913
 20
9.906083
 30
0.0
 10
3.269423
 20
9.541740
 30
0.0
 10
3.394182
 20
9.214060
 30
0.0
 10
3.517471
 20
8.885731
 30
0.0
 10
3.630397
 20
8.553669
 30
0.0
 10
3.724066
 20
8.214785
 30
0.0
 10
3.788450
 20
7.957237
 30
0.0
 10
3.857388
 20
7.700807
 30
0.0
 10
3.927642
 20
7.444676
 30
0.0
 10
3.995982
 20
7.188032
 30
0.0
 10
4.007271
 20
7.153042
 30
0.0
 10
4.023103
 20
7.128263
 30
0.0
 10
4.047685
 20
7.113249
 30
0.0
 10
4.085192
 20
7.107548
 30
0.0
 10
4.178410
 20
7.095582
 30
0.0
 10
4.242285
 20
7.062040
 30
0.0
 10
4.284718
 20
7.001218
 30
0.0
 10
4.313603
 20
6.907413
 30
0.0
 10
4.259030
 20
6.904873
 30
0.0
 10
4.202946
 20
6.902333
 30
0.0
 10
4.143460
 20
6.899511
 30
0.0
 10
4.078667
 20
6.896576
 30
0.0
 10
4.105563
 20
6.793310
 30
0.0
 10
4.131189
 20
6.694276
 30
0.0
 10
4.156109
 20
6.597953
 30
0.0
 10
4.180888
 20
6.502839
 30
0.0
 10
4.321841
 20
6.524768
 30
0.0
 10
4.430034
 20
6.503206
 30
0.0
 10
4.510995
 20
6.431973
 30
0.0
 10
4.570270
 20
6.304908
 30
0.0
 10
4.687065
 20
6.001440
 30
0.0
 10
4.829135
 20
5.711451
 30
0.0
 10
4.984256
 20
5.428329
 30
0.0
 10
5.140206
 20
5.145454
 30
0.0
 10
5.143170
 20
5.142378
 30
0.0
 10
5.147826
 20
5.139838
 30
0.0
 10
5.153584
 20
5.137580
 30
0.0
 10
5.159793
 20
5.134589
 30
0.0
 10
5.182963
 20
5.144043
 30
0.0
 10
5.205005
 20
5.152961
 30
0.0
 10
5.224563
 20
5.160864
 30
0.0
 10
5.240254
 20
5.167214
 30
0.0
 10
5.477157
 20
4.871854
 30
0.0
 10
5.712291
 20
4.579147
 30
0.0
 10
5.946343
 20
4.288439
 30
0.0
 10
6.179995
 20
3.999068
 30
0.0
 10
6.198255
 20
3.979707
 30
0.0
 10
6.220353
 20
3.962068
 30
0.0
 10
6.243467
 20
3.949876
 30
0.0
 10
6.264831
 20
3.946828
 30
0.0
 10
6.387428
 20
3.936386
 30
0.0
 10
6.479972
 20
3.878612
 30
0.0
 10
6.556852
 20
3.794045
 30
0.0
 10
6.632462
 20
3.703206
 30
0.0
 10
6.573184
 20
3.703206
 30
0.0
 10
6.513906
 20
3.703206
 30
0.0
 10
6.454628
 20
3.703206
 30
0.0
 10
6.395350
 20
3.703206
 30
0.0
 10
6.626679
 20
3.350391
 30
0.0
 10
6.854241
 20
3.002324
 30
0.0
 10
7.080222
 20
2.658275
 30
0.0
 10
7.306812
 20
2.317520
 30
0.0
 10
7.661179
 20
1.787397
 30
0.0
 10
8.008312
 20
1.253003
 30
0.0
 10
8.340237
 20
0.709212
 30
0.0
 10
8.648988
 20
0.150894
 30
0.0
 10
8.680910
 20
0.101435
 30
0.0
 10
8.720415
 20
0.065912
 30
0.0
 10
8.770978
 20
0.044604
 30
0.0
 10
8.836065
 20
0.037774
 30
0.0
 10
9.497311
 20
0.040709
 30
0.0
 10
10.158662
 20
0.041556
 30
0.0
 10
10.820013
 20
0.040427
 30
0.0
 10
11.481260
 20
0.037887
 30
0.0
 10
11.542875
 20
0.044830
 30
0.0
 10
11.591098
 20
0.066081
 30
0.0
 10
11.628998
 20
0.100966
 30
0.0
 10
11.659639
 20
0.148803
 30
0.0
 10
11.965302
 20
0.702819
 30
0.0
 10
12.293761
 20
1.242211
 30
0.0
 10
12.637443
 20
1.772207
 30
0.0
 10
12.988761
 20
2.298024
 30
0.0
 10
13.212544
 20
2.634848
 30
0.0
 10
13.434303
 20
2.973382
 30
0.0
 10
13.655175
 20
3.312500
 30
0.0
 10
13.876294
 20
3.651085
 30
0.0
 10
13.882503
 20
3.661160
 30
0.0
 10
13.888768
 20
3.672336
 30
0.0
 10
13.895880
 20
3.685375
 30
0.0
 10
13.904572
 20
3.701095
 30
0.0
 10
13.843844
 20
3.703635
 30
0.0
 10
13.786350
 20
3.705610
 30
0.0
 10
13.730865
 20
3.707586
 30
0.0
 10
13.676164
 20
3.709844
 30
0.0
 10
13.672947
 20
3.716335
 30
0.0
 10
13.669645
 20
3.722854
 30
0.0
 10
13.666343
 20
3.729402
 30
0.0
 10
13.663154
 20
3.735921
 30
0.0
 10
13.688780
 20
3.756043
 30
0.0
 10
13.714490
 20
3.775968
 30
0.0
 10
13.739551
 20
3.796542
 30
0.0
 10
13.763258
 20
3.818584
 30
0.0
 10
13.821517
 20
3.873956
 30
0.0
 10
13.884442
 20
3.918516
 30
0.0
 10
13.956386
 20
3.945186
 30
0.0
 10
14.041701
 20
3.946879
 30
0.0
 10
14.066114
 20
3.951338
 30
0.0
 10
14.092586
 20
3.967566
 30
0.0
 10
14.118099
 20
3.990313
 30
0.0
 10
14.139604
 20
4.014302
 30
0.0
 10
14.371597
 20
4.301116
 30
0.0
 10
14.603487
 20
4.588647
 30
0.0
 10
14.835652
 20
4.877236
 30
0.0
 10
15.068468
 20
5.167222
 30
0.0
 10
15.087151
 20
5.159913
 30
0.0
 10
15.109447
 20
5.151446
 30
0.0
 10
15.135185
 20
5.141625
 30
0.0
 10
15.164170
 20
5.130223
 30
0.0
 10
15.315494
 20
5.410371
 30
0.0
 10
15.469517
 20
5.687273
 30
0.0
 10
15.610631
 20
5.969532
 30
0.0
 10
15.723229
 20
6.265735
 30
0.0
 10
15.781336
 20
6.405531
 30
0.0
 10
15.859927
 20
6.487531
 30
0.0
 10
15.971864
 20
6.519544
 30
0.0
 10
16.130016
 20
6.509384
 30
0.0
 10
16.154231
 20
6.603550
 30
0.0
 10
16.179038
 20
6.698995
 30
0.0
 10
16.204353
 20
6.796437
 30
0.0
 10
16.230092
 20
6.896598
 30
0.0
 10
16.163403
 20
6.900295
 30
0.0
 10
16.101260
 20
6.903513
 30
0.0
 10
16.042078
 20
6.906532
 30
0.0
 10
15.984279
 20
6.909665
 30
0.0
 10
16.024019
 20
6.998816
 30
0.0
 10
16.075513
 20
7.068198
 30
0.0
 10
16.146647
 20
7.108891
 30
0.0
 10
16.245318
 20
7.111968
 30
0.0
 10
16.260473
 20
7.114225
 30
0.0
 10
16.277858
 20
7.123539
 30
0.0
 10
16.293126
 20
7.136803
 30
0.0
 10
16.301903
 20
7.150999
 30
0.0
 10
16.345143
 20
7.295014
 30
0.0
 10
16.387784
 20
7.439221
 30
0.0
 10
16.428274
 20
7.583973
 30
0.0
 10
16.465053
 20
7.729633
 30
0.0
 10
16.547730
 20
8.070665
 30
0.0
 10
16.638199
 20
8.409275
 30
0.0
 10
16.741614
 20
8.744152
 30
0.0
 10
16.863136
 20
9.073985
 30
0.0
 10
16.926862
 20
9.248209
 30
0.0
 10
16.984382
 20
9.425109
 30
0.0
 10
17.043818
 20
9.601018
 30
0.0
 10
17.113298
 20
9.772262
 30
0.0
 10
17.312928
 20
10.230247
 30
0.0
 10
17.495616
 20
10.694547
 30
0.0
 10
17.664980
 20
11.163770
 30
0.0
 10
17.824631
 20
11.636518
 30
0.0
 10
17.871138
 20
11.794585
 30
0.0
 10
17.910720
 20
11.954751
 30
0.0
 10
17.948044
 20
12.115689
 30
0.0
 10
17.987780
 20
12.276064
 30
0.0
 10
17.997094
 20
12.299206
 30
0.0
 10
18.011910
 20
12.321869
 30
0.0
 10
18.030452
 20
12.341201
 30
0.0
 10
18.050885
 20
12.354353
 30
0.0
 10
18.529142
 20
12.577441
 30
0.0
 10
18.994795
 20
12.822562
 30
0.0
 10
19.447487
 20
13.090811
 30
0.0
 10
19.886859
 20
13.383278
 30
0.0
 10
19.922719
 20
13.413462
 30
0.0
 10
19.947074
 20
13.446538
 30
0.0
 10
19.960903
 20
13.484966
 30
0.0
 10
19.965165
 20
13.531199
 30
0.0
 10
19.964318
 20
13.991272
 30
0.0
 10
19.964276
 20
14.451365
 30
0.0
 10
19.964840
 20
14.911461
 30
0.0
 10
19.965405
 20
15.371531
 30
0.0
 10
19.965464
 20
15.441629
 30
0.0
 10
19.965456
 20
15.511835
 30
0.0
 10
19.965424
 20
15.582043
 30
0.0
 10
19.965405
 20
15.652145
 30
0.0
 10
19.959958
 20
15.648899
 30
0.0
 10
19.954539
 20
15.645597
 30
0.0
 10
19.949120
 20
15.642295
 30
0.0
 10
19.943674
 20
15.639106
 30
0.0
 10
19.918161
 20
15.671880
 30
0.0
 10
19.891999
 20
15.705270
 30
0.0
 10
19.864482
 20
15.740381
 30
0.0
 10
19.834928
 20
15.778326
 30
0.0
 10
19.840713
 20
15.779737
 30
0.0
 10
19.840149
 20
15.780302
 30
0.0
 10
19.835295
 20
15.780020
 30
0.0
 10
19.828493
 20
15.778608
 30
0.0
 10
19.053110
 20
15.558015
 30
0.0
 10
18.270855
 20
15.365280
 30
0.0
 10
17.483754
 20
15.193217
 30
0.0
 10
16.693848
 20
15.034648
 30
0.0
 10
15.984099
 20
14.899289
 30
0.0
 10
15.273830
 20
14.767993
 30
0.0
 10
14.563330
 20
14.637872
 30
0.0
 10
13.852875
 20
14.506040
 30
0.0
 10
13.609309
 20
14.456310
 30
0.0
 10
13.366177
 20
14.402865
 30
0.0
 10
13.122755
 20
14.351521
 30
0.0
 10
12.878328
 20
14.308090
 30
0.0
 10
12.369713
 20
14.233100
 30
0.0
 10
11.860798
 20
14.162265
 30
0.0
 10
11.351621
 20
14.093101
 30
0.0
 10
10.842224
 20
14.023124
 30
0.0
 10
10.760168
 20
14.011666
 30
0.0
 10
10.678101
 20
13.998740
 30
0.0
 10
10.597063
 20
13.982230
 30
0.0
 10
10.518100
 20
13.960047
 30
0.0
 10
10.467072
 20
13.947884
 30
0.0
 10
10.419201
 20
13.945344
 30
0.0
 10
10.371291
 20
13.950198
 30
0.0
 10
10.320147
 20
13.959963
 30
0.0
 10
10.237394
 20
13.969869
 30
0.0
 10
10.152428
 20
13.969022
 30
0.0
 10
10.066486
 20
13.963067
 30
0.0
 10
9.980795
 20
13.957705
 30
0.0
 10
9.963099
 20
13.954149
 30
0.0
 10
9.945291
 20
13.947404
 30
0.0
 10
9.927821
 20
13.941449
 30
0.0
 10
9.911170
 20
13.940320
 30
0.0
 10
9.867426
 20
13.949097
 30
0.0
 10
9.824130
 20
13.959906
 30
0.0
 10
9.780851
 20
13.970715
 30
0.0
 10
9.737144
 20
13.979493
 30
0.0
 10
9.509368
 20
14.016644
 30
0.0
 10
9.281781
 20
14.053830
 30
0.0
 10
9.054008
 20
14.089740
 30
0.0
 10
8.825684
 20
14.123056
 30
0.0
 10
8.477129
 20
14.168759
 30
0.0
 10
8.127972
 20
14.212300
 30
0.0
 10
7.779072
 20
14.257448
 30
0.0
 10
7.431301
 20
14.307963
 30
0.0
 10
7.187243
 20
14.351794
 30
0.0
 10
6.944566
 20
14.402916
 30
0.0
 10
6.702165
 20
14.456050
 30
0.0
 10
6.458929
 20
14.505913
 30
0.0
 10
5.684512
 20
14.652107
 30
0.0
 10
4.909812
 20
14.797141
 30
0.0
 10
4.135255
 20
14.942852
 30
0.0
 10
3.361267
 20
15.091078
 30
0.0
 10
2.955383
 20
15.171698
 30
0.0
 10
2.550324
 20
15.256054
 30
0.0
 10
2.146125
 20
15.344390
 30
0.0
 10
1.742827
 20
15.436953
 30
0.0
 10
1.419490
 20
15.517138
 30
0.0
 10
1.096843
 20
15.603142
 30
0.0
 10
0.773605
 20
15.691977
 30
0.0
 10
0.448508
 20
15.780660
 30
0.0
 10
0.448502
 20
15.780677
 30
0.0
 10
0.448496
 20
15.780694
 30
0.0
 10
0.448491
 20
15.780711
 30
0.0
 10
0.447994
 20
15.780575
 30
0.0
  0
LWPOLYLINE
  5
101
100
AcDbEntity
  8
mascara
 62
7
100
AcDbPolyline
 90
89
 70
0
 10
1.109291
 20
15.212812
 30
0.0
 10
1.131276
 20
15.213659
 30
0.0
 10
1.153431
 20
15.212530
 30
0.0
 10
1.175275
 20
15.209990
 30
0.0
 10
1.196300
 20
15.206293
 30
0.0
 10
1.286888
 20
15.187327
 30
0.0
 10
1.377123
 20
15.164750
 30
0.0
 10
1.465047
 20
15.136296
 30
0.0
 10
1.548706
 20
15.099681
 30
0.0
 10
2.150223
 20
14.808797
 30
0.0
 10
2.762171
 20
14.541665
 30
0.0
 10
3.380825
 20
14.290329
 30
0.0
 10
4.002470
 20
14.046822
 30
0.0
 10
4.355042
 20
13.910007
 30
0.0
 10
4.707337
 20
13.773298
 30
0.0
 10
5.059056
 20
13.635218
 30
0.0
 10
5.409906
 20
13.494290
 30
0.0
 10
5.556168
 20
13.430059
 30
0.0
 10
5.700172
 20
13.360054
 30
0.0
 10
5.843163
 20
13.287557
 30
0.0
 10
5.986368
 20
13.215847
 30
0.0
 10
5.995484
 20
13.210767
 30
0.0
 10
6.004797
 20
13.205207
 30
0.0
 10
6.014139
 20
13.200635
 30
0.0
 10
6.023339
 20
13.198378
 30
0.0
 10
6.149933
 20
13.170889
 30
0.0
 10
6.252619
 20
13.110240
 30
0.0
 10
6.338011
 20
13.025130
 30
0.0
 10
6.412724
 20
12.924272
 30
0.0
 10
6.429262
 20
12.881668
 30
0.0
 10
6.419582
 20
12.851191
 30
0.0
 10
6.393956
 20
12.832225
 30
0.0
 10
6.362694
 20
12.824182
 30
0.0
 10
6.263598
 20
12.816364
 30
0.0
 10
6.163832
 20
12.811313
 30
0.0
 10
6.063976
 20
12.809337
 30
0.0
 10
5.964609
 20
12.811030
 30
0.0
 10
5.902113
 20
12.816929
 30
0.0
 10
5.842119
 20
12.827682
 30
0.0
 10
5.786811
 20
12.839902
 30
0.0
 10
5.738374
 20
12.850203
 30
0.0
 10
5.722287
 20
12.792415
 30
0.0
 10
5.708119
 20
12.738686
 30
0.0
 10
5.693303
 20
12.688506
 30
0.0
 10
5.675297
 20
12.641370
 30
0.0
 10
5.548500
 20
12.426576
 30
0.0
 10
5.384803
 20
12.248308
 30
0.0
 10
5.193959
 20
12.101244
 30
0.0
 10
4.985718
 20
11.980072
 30
0.0
 10
4.813340
 20
11.900548
 30
0.0
 10
4.630643
 20
11.839441
 30
0.0
 10
4.438407
 20
11.805142
 30
0.0
 10
4.237406
 20
11.805989
 30
0.0
 10
4.003791
 20
11.832179
 30
0.0
 10
3.772504
 20
11.865761
 30
0.0
 10
3.543086
 20
11.912424
 30
0.0
 10
3.315070
 20
11.977846
 30
0.0
 10
2.897457
 20
12.217401
 30
0.0
 10
2.617947
 20
12.565966
 30
0.0
 10
2.464570
 20
12.964715
 30
0.0
 10
2.425361
 20
13.354825
 30
0.0
 10
2.448108
 20
13.551353
 30
0.0
 10
2.499391
 20
13.738698
 30
0.0
 10
2.576743
 20
13.919010
 30
0.0
 10
2.677696
 20
14.094433
 30
0.0
 10
2.650659
 20
14.108177
 30
0.0
 10
2.625288
 20
14.121188
 30
0.0
 10
2.601101
 20
14.133860
 30
0.0
 10
2.577648
 20
14.146644
 30
0.0
 10
2.216449
 20
14.348207
 30
0.0
 10
1.855360
 20
14.550036
 30
0.0
 10
1.494313
 20
14.751929
 30
0.0
 10
1.133232
 20
14.953693
 30
0.0
 10
1.126882
 20
14.957559
 30
0.0
 10
1.120843
 20
14.961792
 30
0.0
 10
1.115001
 20
14.966336
 30
0.0
 10
1.109272
 20
14.971134
 30
0.0
 10
1.066154
 20
15.002542
 30
0.0
 10
1.023468
 20
15.035077
 30
0.0
 10
0.995951
 20
15.075339
 30
0.0
 10
0.998209
 20
15.129929
 30
0.0
 10
1.016864
 20
15.165509
 30
0.0
 10
1.042772
 20
15.190232
 30
0.0
 10
1.074141
 20
15.205472
 30
0.0
 10
1.109150
 20
15.212612
 30
0.0
 10
1.109150
 20
15.212615
 30
0.0
 10
1.109150
 20
15.212617
 30
0.0
 10
1.109153
 20
15.212620
 30
0.0
 10
1.109291
 20
15.212812
 30
0.0
  0
LWPOLYLINE
  5
102
100
AcDbEntity
  8
mascara
 62
7
100
AcDbPolyline
 90
89
 70
0
 10
19.134034
 20
15.210554
 30
0.0
 10
19.143432
 20
15.209990
 30
0.0
 10
19.152830
 20
15.209143
 30
0.0
 10
19.162059
 20
15.208014
 30
0.0
 10
19.171006
 20
15.206321
 30
0.0
 10
19.208298
 20
15.193762
 30
0.0
 10
19.243940
 20
15.175474
 30
0.0
 10
19.279009
 20
15.154646
 30
0.0
 10
19.314578
 20
15.134524
 30
0.0
 10
19.295895
 20
15.097742
 30
0.0
 10
19.277973
 20
15.059529
 30
0.0
 10
19.257682
 20
15.024553
 30
0.0
 10
19.231915
 20
14.997488
 30
0.0
 10
19.137966
 20
14.930590
 30
0.0
 10
19.042253
 20
14.866113
 30
0.0
 10
18.944570
 20
14.804784
 30
0.0
 10
18.844709
 20
14.747320
 30
0.0
 10
18.551745
 20
14.588497
 30
0.0
 10
18.258206
 20
14.431522
 30
0.0
 10
17.964249
 20
14.275284
 30
0.0
 10
17.670032
 20
14.118656
 30
0.0
 10
17.661509
 20
14.113492
 30
0.0
 10
17.652845
 20
14.107283
 30
0.0
 10
17.643531
 20
14.100227
 30
0.0
 10
17.633061
 20
14.092551
 30
0.0
 10
17.730383
 20
13.923539
 30
0.0
 10
17.806249
 20
13.747893
 30
0.0
 10
17.858065
 20
13.564028
 30
0.0
 10
17.883211
 20
13.370344
 30
0.0
 10
17.850132
 20
12.994128
 30
0.0
 10
17.706704
 20
12.598334
 30
0.0
 10
17.443783
 20
12.246473
 30
0.0
 10
17.052236
 20
12.002060
 30
0.0
 10
16.730836
 20
11.901152
 30
0.0
 10
16.406932
 20
11.837293
 30
0.0
 10
16.078838
 20
11.813389
 30
0.0
 10
15.744867
 20
11.832383
 30
0.0
 10
15.682536
 20
11.845986
 30
0.0
 10
15.620865
 20
11.868168
 30
0.0
 10
15.559744
 20
11.894217
 30
0.0
 10
15.499055
 20
11.919392
 30
0.0
 10
15.434234
 20
11.942223
 30
0.0
 10
15.368970
 20
11.964350
 30
0.0
 10
15.305665
 20
11.989552
 30
0.0
 10
15.246717
 20
12.021621
 30
0.0
 10
15.060809
 20
12.150331
 30
0.0
 10
14.888997
 20
12.293271
 30
0.0
 10
14.740509
 20
12.459187
 30
0.0
 10
14.624575
 20
12.656816
 30
0.0
 10
14.608262
 20
12.700193
 30
0.0
 10
14.595280
 20
12.746469
 30
0.0
 10
14.583342
 20
12.795776
 30
0.0
 10
14.570162
 20
12.848244
 30
0.0
 10
14.402556
 20
12.824030
 30
0.0
 10
14.227339
 20
12.794108
 30
0.0
 10
14.048963
 20
12.796648
 30
0.0
 10
13.871883
 20
12.869930
 30
0.0
 10
13.948878
 20
12.991766
 30
0.0
 10
14.038896
 20
13.089773
 30
0.0
 10
14.148192
 20
13.161607
 30
0.0
 10
14.283021
 20
13.204936
 30
0.0
 10
14.369604
 20
13.233173
 30
0.0
 10
14.452837
 20
13.277205
 30
0.0
 10
14.535455
 20
13.326436
 30
0.0
 10
14.620195
 20
13.370262
 30
0.0
 10
14.754507
 20
13.426235
 30
0.0
 10
14.890214
 20
13.479790
 30
0.0
 10
15.026327
 20
13.532416
 30
0.0
 10
15.161853
 20
13.585615
 30
0.0
 10
15.529323
 20
13.733592
 30
0.0
 10
15.896460
 20
13.882067
 30
0.0
 10
16.263922
 20
14.029694
 30
0.0
 10
16.632372
 20
14.175126
 30
0.0
 10
17.155355
 20
14.381575
 30
0.0
 10
17.674833
 20
14.595922
 30
0.0
 10
18.188630
 20
14.823388
 30
0.0
 10
18.694581
 20
15.069186
 30
0.0
 10
18.773589
 20
15.105830
 30
0.0
 10
18.854883
 20
15.137501
 30
0.0
 10
18.937599
 20
15.166014
 30
0.0
 10
19.020877
 20
15.193192
 30
0.0
 10
19.047914
 20
15.200953
 30
0.0
 10
19.076413
 20
15.206852
 30
0.0
 10
19.105420
 20
15.210295
 30
0.0
 10
19.133989
 20
15.210577
 30
0.0
 10
19.133989
 20
15.210571
 30
0.0
 10
19.133989
 20
15.210566
 30
0.0
 10
19.133989
 20
15.210560
 30
0.0
 10
19.134034
 20
15.210554
 30
0.0
  0
LWPOLYLINE
  5
103
100
AcDbEntity
  8
mascara
 62
7
100
AcDbPolyline
 90
225
 70
0
 10
10.415332
 20
12.234710
 30
0.0
 10
10.420469
 20
12.235275
 30
0.0
 10
10.425436
 20
12.235557
 30
0.0
 10
10.430233
 20
12.235489
 30
0.0
 10
10.434918
 20
12.234925
 30
0.0
 10
10.676136
 20
12.180052
 30
0.0
 10
10.917293
 20
12.124325
 30
0.0
 10
11.158725
 20
12.070059
 30
0.0
 10
11.400762
 20
12.019572
 30
0.0
 10
12.358153
 20
11.828412
 30
0.0
 10
13.313675
 20
11.629064
 30
0.0
 10
14.266074
 20
11.415594
 30
0.0
 10
15.214106
 20
11.182066
 30
0.0
 10
15.468544
 20
11.114418
 30
0.0
 10
15.722281
 20
11.044850
 30
0.0
 10
15.975900
 20
10.974825
 30
0.0
 10
16.229985
 20
10.905805
 30
0.0
 10
16.289136
 20
10.890452
 30
0.0
 10
16.348354
 20
10.875748
 30
0.0
 10
16.407663
 20
10.861383
 30
0.0
 10
16.467094
 20
10.847074
 30
0.0
 10
16.467658
 20
10.847074
 30
0.0
 10
16.468223
 20
10.847074
 30
0.0
 10
16.468787
 20
10.847074
 30
0.0
 10
16.469352
 20
10.847074
 30
0.0
 10
16.528528
 20
10.832540
 30
0.0
 10
16.587924
 20
10.817695
 30
0.0
 10
16.647312
 20
10.802850
 30
0.0
 10
16.706463
 20
10.788316
 30
0.0
 10
16.764663
 20
10.765794
 30
0.0
 10
16.806319
 20
10.731462
 30
0.0
 10
16.829574
 20
10.687489
 30
0.0
 10
16.832622
 20
10.636045
 30
0.0
 10
16.828869
 20
10.617645
 30
0.0
 10
16.822603
 20
10.598764
 30
0.0
 10
16.813742
 20
10.579488
 30
0.0
 10
16.802171
 20
10.559902
 30
0.0
 10
16.692536
 20
10.394912
 30
0.0
 10
16.580880
 20
10.231412
 30
0.0
 10
16.466208
 20
10.070094
 30
0.0
 10
16.347527
 20
9.911646
 30
0.0
 10
15.801983
 20
9.230649
 30
0.0
 10
15.236198
 20
8.566784
 30
0.0
 10
14.655597
 20
7.915686
 30
0.0
 10
14.065611
 20
7.272981
 30
0.0
 10
14.027545
 20
7.233433
 30
0.0
 10
13.986456
 20
7.193137
 30
0.0
 10
13.941439
 20
7.149802
 30
0.0
 10
13.891587
 20
7.101127
 30
0.0
 10
13.978599
 20
7.101127
 30
0.0
 10
14.065611
 20
7.101127
 30
0.0
 10
14.152626
 20
7.101127
 30
0.0
 10
14.239638
 20
7.101127
 30
0.0
 10
14.221096
 20
7.082755
 30
0.0
 10
14.203203
 20
7.063733
 30
0.0
 10
14.185564
 20
7.044401
 30
0.0
 10
14.167841
 20
7.025012
 30
0.0
 10
14.149919
 20
7.005877
 30
0.0
 10
14.131801
 20
6.987307
 30
0.0
 10
14.113202
 20
6.969640
 30
0.0
 10
14.093870
 20
6.953215
 30
0.0
 10
14.073409
 20
6.938567
 30
0.0
 10
14.051678
 20
6.926037
 30
0.0
 10
14.028733
 20
6.915679
 30
0.0
 10
14.004660
 20
6.907523
 30
0.0
 10
13.992214
 20
6.904277
 30
0.0
 10
13.979429
 20
6.901737
 30
0.0
 10
13.966221
 20
6.899762
 30
0.0
 10
13.952449
 20
6.898915
 30
0.0
 10
13.938055
 20
6.899056
 30
0.0
 10
13.923069
 20
6.900185
 30
0.0
 10
13.907547
 20
6.902443
 30
0.0
 10
13.891545
 20
6.905463
 30
0.0
 10
13.785096
 20
6.910712
 30
0.0
 10
13.691771
 20
6.883675
 30
0.0
 10
13.606969
 20
6.830555
 30
0.0
 10
13.526090
 20
6.757561
 30
0.0
 10
13.250886
 20
6.485601
 30
0.0
 10
12.972782
 20
6.216702
 30
0.0
 10
12.694522
 20
5.947948
 30
0.0
 10
12.418850
 20
5.676422
 30
0.0
 10
12.162824
 20
5.416963
 30
0.0
 10
11.909126
 20
5.154962
 30
0.0
 10
11.656867
 20
4.891564
 30
0.0
 10
11.405148
 20
4.627915
 30
0.0
 10
11.176579
 20
4.387657
 30
0.0
 10
10.948817
 20
4.146602
 30
0.0
 10
10.721354
 20
3.905285
 30
0.0
 10
10.493685
 20
3.664242
 30
0.0
 10
10.476301
 20
3.645898
 30
0.0
 10
10.458013
 20
3.626650
 30
0.0
 10
10.438003
 20
3.605540
 30
0.0
 10
10.415397
 20
3.581607
 30
0.0
 10
10.382021
 20
3.622008
 30
0.0
 10
10.347771
 20
3.663362
 30
0.0
 10
10.310896
 20
3.707885
 30
0.0
 10
10.269652
 20
3.757804
 30
0.0
 10
10.242700
 20
3.715223
 30
0.0
 10
10.217046
 20
3.674727
 30
0.0
 10
10.190517
 20
3.632805
 30
0.0
 10
10.160895
 20
3.585951
 30
0.0
 10
10.127000
 20
3.635247
 30
0.0
 10
10.097601
 20
3.677978
 30
0.0
 10
10.069943
 20
3.718203
 30
0.0
 10
10.041255
 20
3.759978
 30
0.0
 10
10.000570
 20
3.710738
 30
0.0
 10
9.964155
 20
3.666765
 30
0.0
 10
9.929853
 20
3.625349
 30
0.0
 10
9.895510
 20
3.583781
 30
0.0
 10
9.796464
 20
3.687288
 30
0.0
 10
9.700192
 20
3.787644
 30
0.0
 10
9.605865
 20
3.886131
 30
0.0
 10
9.512653
 20
3.984039
 30
0.0
 10
9.359118
 20
4.146410
 30
0.0
 10
9.205680
 20
4.308945
 30
0.0
 10
9.051823
 20
4.471090
 30
0.0
 10
8.897036
 20
4.632287
 30
0.0
 10
8.613882
 20
4.924949
 30
0.0
 10
8.330328
 20
5.217415
 30
0.0
 10
8.045701
 20
5.508810
 30
0.0
 10
7.759339
 20
5.798260
 30
0.0
 10
7.496954
 20
6.058457
 30
0.0
 10
7.232658
 20
6.316795
 30
0.0
 10
6.967945
 20
6.574729
 30
0.0
 10
6.704307
 20
6.833716
 30
0.0
 10
6.683762
 20
6.852286
 30
0.0
 10
6.662934
 20
6.867696
 30
0.0
 10
6.641569
 20
6.880255
 30
0.0
 10
6.619471
 20
6.890302
 30
0.0
 10
6.596470
 20
6.898119
 30
0.0
 10
6.572369
 20
6.903679
 30
0.0
 10
6.546799
 20
6.906896
 30
0.0
 10
6.519395
 20
6.907743
 30
0.0
 10
6.473404
 20
6.906896
 30
0.0
 10
6.432722
 20
6.906332
 30
0.0
 10
6.396764
 20
6.906400
 30
0.0
 10
6.364949
 20
6.907811
 30
0.0
 10
6.350330
 20
6.908940
 30
0.0
 10
6.336417
 20
6.910351
 30
0.0
 10
6.323152
 20
6.912044
 30
0.0
 10
6.310537
 20
6.914302
 30
0.0
 10
6.253254
 20
6.933211
 30
0.0
 10
6.197417
 20
6.967490
 30
0.0
 10
6.132336
 20
7.021394
 30
0.0
 10
6.047322
 20
7.099191
 30
0.0
 10
6.137055
 20
7.099191
 30
0.0
 10
6.226785
 20
7.099191
 30
0.0
 10
6.316517
 20
7.099191
 30
0.0
 10
6.406250
 20
7.099191
 30
0.0
 10
6.333755
 20
7.179004
 30
0.0
 10
6.262774
 20
7.257780
 30
0.0
 10
6.192830
 20
7.335575
 30
0.0
 10
6.123457
 20
7.412438
 30
0.0
 10
6.054485
 20
7.488644
 30
0.0
 10
5.985739
 20
7.564251
 30
0.0
 10
5.916789
 20
7.639001
 30
0.0
 10
5.847193
 20
7.712632
 30
0.0
 10
5.316590
 20
8.286966
 30
0.0
 10
4.805533
 20
8.877697
 30
0.0
 10
4.308455
 20
9.480303
 30
0.0
 10
3.819790
 20
10.090267
 30
0.0
 10
3.797608
 20
10.118506
 30
0.0
 10
3.775538
 20
10.147279
 30
0.0
 10
3.753863
 20
10.176367
 30
0.0
 10
3.732809
 20
10.205555
 30
0.0
 10
3.672287
 20
10.293958
 30
0.0
 10
3.614163
 20
10.383900
 30
0.0
 10
3.557713
 20
10.474947
 30
0.0
 10
3.502225
 20
10.566661
 30
0.0
 10
3.483740
 20
10.604967
 30
0.0
 10
3.474963
 20
10.641306
 30
0.0
 10
3.475527
 20
10.675130
 30
0.0
 10
3.484869
 20
10.705881
 30
0.0
 10
3.488848
 20
10.713360
 30
0.0
 10
3.493561
 20
10.720557
 30
0.0
 10
3.498810
 20
10.727471
 30
0.0
 10
3.504455
 20
10.734160
 30
0.0
 10
3.522658
 20
10.751517
 30
0.0
 10
3.544700
 20
10.766474
 30
0.0
 10
3.570551
 20
10.778864
 30
0.0
 10
3.600171
 20
10.788544
 30
0.0
 10
3.883183
 20
10.864846
 30
0.0
 10
4.165927
 20
10.942581
 30
0.0
 10
4.449132
 20
11.018349
 30
0.0
 10
4.733513
 20
11.088738
 30
0.0
 10
5.525558
 20
11.272671
 30
0.0
 10
6.318256
 20
11.454591
 30
0.0
 10
7.111486
 20
11.634138
 30
0.0
 10
7.905138
 20
11.810945
 30
0.0
 10
8.373787
 20
11.910615
 30
0.0
 10
8.843320
 20
12.005498
 30
0.0
 10
9.313088
 20
12.099362
 30
0.0
 10
9.782443
 20
12.195981
 30
0.0
 10
9.809875
 20
12.200779
 30
0.0
 10
9.836686
 20
12.203629
 30
0.0
 10
9.863018
 20
12.204758
 30
0.0
 10
9.889010
 20
12.204600
 30
0.0
 10
9.889575
 20
12.204591
 30
0.0
 10
9.890139
 20
12.204594
 30
0.0
 10
9.890704
 20
12.204603
 30
0.0
 10
9.891268
 20
12.204600
 30
0.0
 10
9.916612
 20
12.203471
 30
0.0
 10
9.941899
 20
12.202342
 30
0.0
 10
9.966875
 20
12.201778
 30
0.0
 10
9.991316
 20
12.202624
 30
0.0
 10
10.041992
 20
12.203471
 30
0.0
 10
10.093085
 20
12.199887
 30
0.0
 10
10.144413
 20
12.194468
 30
0.0
 10
10.195797
 20
12.189698
 30
0.0
 10
10.208808
 20
12.188852
 30
0.0
 10
10.221959
 20
12.188005
 30
0.0
 10
10.235082
 20
12.187441
 30
0.0
 10
10.248008
 20
12.187365
 30
0.0
 10
10.285626
 20
12.190328
 30
0.0
 10
10.322981
 20
12.197835
 30
0.0
 10
10.359830
 20
12.210987
 30
0.0
 10
10.395929
 20
12.230883
 30
0.0
 10
10.400050
 20
12.232859
 30
0.0
 10
10.404904
 20
12.233988
 30
0.0
 10
10.410182
 20
12.234834
 30
0.0
 10
10.415516
 20
12.235117
 30
0.0
 10
10.415470
 20
12.235150
 30
0.0
 10
10.415425
 20
12.235184
 30
0.0
 10
10.415383
 20
12.235218
 30
0.0
 10
10.415332
 20
12.234710
 30
0.0
  0
LWPOLYLINE
  5
104
100
AcDbEntity
  8
bico
 62
7
100
AcDbPolyline
 90
153
 70
0
 10
6.990280
 20
7.425615
 30
0.0
 10
6.946561
 20
7.346299
 30
0.0
 10
6.934934
 20
7.284716
 30
0.0
 10
6.958161
 20
7.231314
 30
0.0
 10
7.019028
 20
7.176548
 30
0.0
 10
7.105777
 20
7.118097
 30
0.0
 10
7.195752
 20
7.064103
 30
0.0
 10
7.287266
 20
7.012261
 30
0.0
 10
7.378635
 20
6.960270
 30
0.0
 10
7.428111
 20
6.934870
 30
0.0
 10
7.478988
 20
6.911135
 30
0.0
 10
7.527321
 20
6.885002
 30
0.0
 10
7.569158
 20
6.852312
 30
0.0
 10
7.968149
 20
6.451898
 30
0.0
 10
8.366102
 20
6.050442
 30
0.0
 10
8.763127
 20
5.648064
 30
0.0
 10
9.159339
 20
5.244867
 30
0.0
 10
9.337317
 20
5.061471
 30
0.0
 10
9.513943
 20
4.876550
 30
0.0
 10
9.690165
 20
4.690783
 30
0.0
 10
9.866929
 20
4.504841
 30
0.0
 10
9.918491
 20
4.550318
 30
0.0
 10
9.962015
 20
4.588720
 30
0.0
 10
10.000214
 20
4.622426
 30
0.0
 10
10.035802
 20
4.653806
 30
0.0
 10
10.068374
 20
4.627475
 30
0.0
 10
10.098913
 20
4.602781
 30
0.0
 10
10.128004
 20
4.579243
 30
0.0
 10
10.156230
 20
4.556411
 30
0.0
 10
10.186803
 20
4.582094
 30
0.0
 10
10.215798
 20
4.606393
 30
0.0
 10
10.244193
 20
4.630156
 30
0.0
 10
10.272965
 20
4.654230
 30
0.0
 10
10.310010
 20
4.621252
 30
0.0
 10
10.346126
 20
4.589101
 30
0.0
 10
10.381722
 20
4.557408
 30
0.0
 10
10.417198
 20
4.525799
 30
0.0
 10
10.436050
 20
4.541406
 30
0.0
 10
10.453378
 20
4.555489
 30
0.0
 10
10.469296
 20
4.568979
 30
0.0
 10
10.483887
 20
4.582779
 30
0.0
 10
10.712933
 20
4.819011
 30
0.0
 10
10.941688
 20
5.055538
 30
0.0
 10
11.171081
 20
5.291442
 30
0.0
 10
11.402046
 20
5.525791
 30
0.0
 10
11.714520
 20
5.838767
 30
0.0
 10
12.028201
 20
6.150535
 30
0.0
 10
12.343147
 20
6.461039
 30
0.0
 10
12.659419
 20
6.770216
 30
0.0
 10
12.720760
 20
6.823037
 30
0.0
 10
12.787520
 20
6.870394
 30
0.0
 10
12.857175
 20
6.914477
 30
0.0
 10
12.927211
 20
6.957468
 30
0.0
 10
13.011503
 20
7.006634
 30
0.0
 10
13.097267
 20
7.053522
 30
0.0
 10
13.182095
 20
7.101650
 30
0.0
 10
13.263567
 20
7.154535
 30
0.0
 10
13.337701
 20
7.215797
 30
0.0
 10
13.369792
 20
7.271132
 30
0.0
 10
13.365390
 20
7.335866
 30
0.0
 10
13.330044
 20
7.425319
 30
0.0
 10
13.413579
 20
7.517416
 30
0.0
 10
13.497326
 20
7.610101
 30
0.0
 10
13.581767
 20
7.702681
 30
0.0
 10
13.667376
 20
7.794466
 30
0.0
 10
13.967051
 20
8.109332
 30
0.0
 10
14.267267
 20
8.423700
 30
0.0
 10
14.566482
 20
8.738990
 30
0.0
 10
14.863143
 20
9.056640
 30
0.0
 10
14.973004
 20
9.183411
 30
0.0
 10
15.077211
 20
9.315409
 30
0.0
 10
15.178992
 20
9.449637
 30
0.0
 10
15.281571
 20
9.583103
 30
0.0
 10
15.164153
 20
9.550238
 30
0.0
 10
15.049743
 20
9.514607
 30
0.0
 10
14.938790
 20
9.474173
 30
0.0
 10
14.831749
 20
9.426898
 30
0.0
 10
14.638867
 20
9.330169
 30
0.0
 10
14.447500
 20
9.230328
 30
0.0
 10
14.257333
 20
9.128149
 30
0.0
 10
14.068052
 20
9.024410
 30
0.0
 10
13.786386
 20
8.860069
 30
0.0
 10
13.511519
 20
8.685173
 30
0.0
 10
13.240670
 20
8.503766
 30
0.0
 10
12.971063
 20
8.319884
 30
0.0
 10
12.617077
 20
8.086472
 30
0.0
 10
12.256618
 20
7.862413
 30
0.0
 10
11.891145
 20
7.646355
 30
0.0
 10
11.522123
 20
7.436946
 30
0.0
 10
11.289315
 20
7.308222
 30
0.0
 10
11.060100
 20
7.175437
 30
0.0
 10
10.839732
 20
7.029313
 30
0.0
 10
10.633476
 20
6.860572
 30
0.0
 10
10.609515
 20
6.844486
 30
0.0
 10
10.579377
 20
6.832745
 30
0.0
 10
10.549117
 20
6.827806
 30
0.0
 10
10.524817
 20
6.832124
 30
0.0
 10
10.468348
 20
6.853263
 30
0.0
 10
10.414144
 20
6.858738
 30
0.0
 10
10.360527
 20
6.850017
 30
0.0
 10
10.305821
 20
6.828512
 30
0.0
 10
10.286546
 20
6.824025
 30
0.0
 10
10.264391
 20
6.825436
 30
0.0
 10
10.241023
 20
6.829359
 30
0.0
 10
10.218107
 20
6.832717
 30
0.0
 10
10.132289
 20
6.840591
 30
0.0
 10
10.046473
 20
6.848578
 30
0.0
 10
9.960647
 20
6.856452
 30
0.0
 10
9.874789
 20
6.864044
 30
0.0
 10
9.867677
 20
6.863762
 30
0.0
 10
9.860311
 20
6.861786
 30
0.0
 10
9.853114
 20
6.858625
 30
0.0
 10
9.846510
 20
6.854843
 30
0.0
 10
9.784139
 20
6.830431
 30
0.0
 10
9.728869
 20
6.836442
 30
0.0
 10
9.676886
 20
6.863084
 30
0.0
 10
9.624385
 20
6.900586
 30
0.0
 10
9.474254
 20
7.009236
 30
0.0
 10
9.322579
 20
7.115874
 30
0.0
 10
9.169169
 20
7.219982
 30
0.0
 10
9.013831
 20
7.321035
 30
0.0
 10
8.903578
 20
7.384916
 30
0.0
 10
8.790034
 20
7.443618
 30
0.0
 10
8.676699
 20
7.502580
 30
0.0
 10
8.567070
 20
7.567246
 30
0.0
 10
8.176836
 20
7.813504
 30
0.0
 10
7.783274
 20
8.054398
 30
0.0
 10
7.391044
 20
8.297874
 30
0.0
 10
7.004804
 20
8.551885
 30
0.0
 10
6.644674
 20
8.782602
 30
0.0
 10
6.272903
 20
8.996419
 30
0.0
 10
5.895207
 20
9.201304
 30
0.0
 10
5.517301
 20
9.405238
 30
0.0
 10
5.400870
 20
9.461603
 30
0.0
 10
5.279895
 20
9.509708
 30
0.0
 10
5.156987
 20
9.554285
 30
0.0
 10
5.034760
 20
9.600078
 30
0.0
 10
5.027930
 20
9.591470
 30
0.0
 10
5.021100
 20
9.582891
 30
0.0
 10
5.014270
 20
9.574311
 30
0.0
 10
5.007441
 20
9.565704
 30
0.0
 10
5.231892
 20
9.315674
 30
0.0
 10
5.456081
 20
9.065405
 30
0.0
 10
5.681156
 20
8.815958
 30
0.0
 10
5.908269
 20
8.568395
 30
0.0
 10
6.176174
 20
8.282179
 30
0.0
 10
6.446226
 20
7.997251
 30
0.0
 10
6.717806
 20
7.712282
 30
0.0
 10
6.990292
 20
7.425951
 30
0.0
 10
6.990289
 20
7.425957
 30
0.0
 10
6.990286
 20
7.425962
 30
0.0
 10
6.990286
 20
7.425968
 30
0.0
 10
6.990280
 20
7.425615
 30
0.0
  0
LWPOLYLINE
  5
105
100
AcDbEntity
  8
bico
 62
7
100
AcDbPolyline
 90
109
 70
0
 10
4.114605
 20
10.512627
 30
0.0
 10
4.184879
 20
10.472763
 30
0.0
 10
4.250190
 20
10.436368
 30
0.0
 10
4.311091
 20
10.400760
 30
0.0
 10
4.368128
 20
10.363244
 30
0.0
 10
4.497231
 20
10.269848
 30
0.0
 10
4.625346
 20
10.175007
 30
0.0
 10
4.752902
 20
10.079373
 30
0.0
 10
4.880322
 20
9.983587
 30
0.0
 10
4.953271
 20
9.926189
 30
0.0
 10
5.025370
 20
9.867461
 30
0.0
 10
5.098751
 20
9.810952
 30
0.0
 10
5.175538
 20
9.760208
 30
0.0
 10
5.528101
 20
9.553150
 30
0.0
 10
5.881508
 20
9.347540
 30
0.0
 10
6.236095
 20
9.143993
 30
0.0
 10
6.592181
 20
8.943121
 30
0.0
 10
6.794929
 20
8.833168
 30
0.0
 10
7.000026
 20
8.727320
 30
0.0
 10
7.206691
 20
8.624382
 30
0.0
 10
7.414139
 20
8.523161
 30
0.0
 10
7.710974
 20
8.381968
 30
0.0
 10
8.008945
 20
8.243083
 30
0.0
 10
8.306209
 20
8.102844
 30
0.0
 10
8.600928
 20
7.957579
 30
0.0
 10
8.905703
 20
7.798690
 30
0.0
 10
9.208095
 20
7.635134
 30
0.0
 10
9.509275
 20
7.469216
 30
0.0
 10
9.810409
 20
7.303241
 30
0.0
 10
9.850165
 20
7.285941
 30
0.0
 10
9.888101
 20
7.279591
 30
0.0
 10
9.926574
 20
7.284219
 30
0.0
 10
9.967936
 20
7.299826
 30
0.0
 10
9.998716
 20
7.308462
 30
0.0
 10
10.033172
 20
7.309591
 30
0.0
 10
10.069203
 20
7.307051
 30
0.0
 10
10.104721
 20
7.305075
 30
0.0
 10
10.188911
 20
7.308377
 30
0.0
 10
10.273247
 20
7.312498
 30
0.0
 10
10.356746
 20
7.305668
 30
0.0
 10
10.438432
 20
7.276046
 30
0.0
 10
10.445234
 20
7.276037
 30
0.0
 10
10.454406
 20
7.280243
 30
0.0
 10
10.464509
 20
7.286339
 30
0.0
 10
10.474077
 20
7.292011
 30
0.0
 10
10.564715
 20
7.340751
 30
0.0
 10
10.655289
 20
7.389612
 30
0.0
 10
10.745995
 20
7.438228
 30
0.0
 10
10.837026
 20
7.486222
 30
0.0
 10
11.148204
 20
7.648918
 30
0.0
 10
11.459343
 20
7.811704
 30
0.0
 10
11.771108
 20
7.973262
 30
0.0
 10
12.084166
 20
8.132277
 30
0.0
 10
12.361638
 20
8.267140
 30
0.0
 10
12.640917
 20
8.398452
 30
0.0
 10
12.919583
 20
8.530885
 30
0.0
 10
13.195215
 20
8.669115
 30
0.0
 10
13.598677
 20
8.882506
 30
0.0
 10
13.999320
 20
9.101064
 30
0.0
 10
14.396675
 20
9.325913
 30
0.0
 10
14.790270
 20
9.558177
 30
0.0
 10
15.082410
 20
9.742996
 30
0.0
 10
15.366357
 20
9.937650
 30
0.0
 10
15.644289
 20
10.140122
 30
0.0
 10
15.918375
 20
10.348393
 30
0.0
 10
15.938892
 20
10.362363
 30
0.0
 10
15.960623
 20
10.374753
 30
0.0
 10
15.982750
 20
10.386663
 30
0.0
 10
16.004396
 20
10.399221
 30
0.0
 10
16.046557
 20
10.426061
 30
0.0
 10
16.088538
 20
10.453154
 30
0.0
 10
16.130439
 20
10.480360
 30
0.0
 10
16.172366
 20
10.507538
 30
0.0
 10
16.075934
 20
10.537440
 30
0.0
 10
15.982233
 20
10.559622
 30
0.0
 10
15.890844
 20
10.578560
 30
0.0
 10
15.801343
 20
10.598710
 30
0.0
 10
15.281230
 20
10.732213
 30
0.0
 10
14.761625
 20
10.867739
 30
0.0
 10
14.241314
 20
10.999999
 30
0.0
 10
13.719088
 20
11.123711
 30
0.0
 10
12.902424
 20
11.311592
 30
0.0
 10
12.088351
 20
11.509187
 30
0.0
 10
11.277397
 20
11.718909
 30
0.0
 10
10.470092
 20
11.943166
 30
0.0
 10
10.446498
 20
11.947569
 30
0.0
 10
10.421860
 20
11.948415
 30
0.0
 10
10.396827
 20
11.947287
 30
0.0
 10
10.372048
 20
11.945311
 30
0.0
 10
10.284124
 20
11.933768
 30
0.0
 10
10.195481
 20
11.919347
 30
0.0
 10
10.109293
 20
11.912545
 30
0.0
 10
10.028730
 20
11.923862
 30
0.0
 10
9.929582
 20
11.940824
 30
0.0
 10
9.837510
 20
11.933853
 30
0.0
 10
9.748881
 20
11.913109
 30
0.0
 10
9.660072
 20
11.888782
 30
0.0
 10
9.031503
 20
11.725350
 30
0.0
 10
8.403737
 20
11.559011
 30
0.0
 10
7.774494
 20
11.397853
 30
0.0
 10
7.141498
 20
11.249966
 30
0.0
 10
6.390973
 20
11.078248
 30
0.0
 10
5.639497
 20
10.894473
 30
0.0
 10
4.882303
 20
10.704084
 30
0.0
 10
4.114628
 20
10.512514
 30
0.0
 10
4.114628
 20
10.512525
 30
0.0
 10
4.114628
 20
10.512536
 30
0.0
 10
4.114628
 20
10.512548
 30
0.0
 10
4.114605
 20
10.512627
 30
0.0
  0
LWPOLYLINE
  5
106
100
AcDbEntity
  8
bico
 62
7
100
AcDbPolyline
 90
13
 70
0
 10
3.213013
 20
13.892074
 30
0.0
 10
3.189137
 20
13.825783
 30
0.0
 10
3.165684
 20
13.760624
 30
0.0
 10
3.141413
 20
13.693229
 30
0.0
 10
3.115110
 20
13.620243
 30
0.0
 10
3.199917
 20
13.669615
 30
0.0
 10
3.278598
 20
13.715429
 30
0.0
 10
3.354733
 20
13.759768
 30
0.0
 10
3.431907
 20
13.804712
 30
0.0
 10
3.376947
 20
13.826641
 30
0.0
 10
3.323906
 20
13.847808
 30
0.0
 10
3.270134
 20
13.869257
 30
0.0
 10
3.213013
 20
13.892074
 30
0.0
  0
LWPOLYLINE
  5
107
100
AcDbEntity
  8
bico
 62
7
100
AcDbPolyline
 90
69
 70
0
 10
4.349194
 20
11.991082
 30
0.0
 10
4.313225
 20
12.017328
 30
0.0
 10
4.282028
 20
12.039822
 30
0.0
 10
4.254455
 20
12.060311
 30
0.0
 10
4.229337
 20
12.080603
 30
0.0
 10
4.199464
 20
12.116098
 30
0.0
 10
4.192295
 20
12.150306
 30
0.0
 10
4.206999
 20
12.181475
 30
0.0
 10
4.242703
 20
12.207834
 30
0.0
 10
4.271651
 20
12.219659
 30
0.0
 10
4.302777
 20
12.227590
 30
0.0
 10
4.334897
 20
12.232303
 30
0.0
 10
4.366819
 20
12.234278
 30
0.0
 10
4.437072
 20
12.235125
 30
0.0
 10
4.507380
 20
12.234278
 30
0.0
 10
4.577712
 20
12.233149
 30
0.0
 10
4.648045
 20
12.233432
 30
0.0
 10
4.831498
 20
12.262001
 30
0.0
 10
4.993617
 20
12.332325
 30
0.0
 10
5.138756
 20
12.434665
 30
0.0
 10
5.271268
 20
12.559277
 30
0.0
 10
5.310245
 20
12.621987
 30
0.0
 10
5.312221
 20
12.684897
 30
0.0
 10
5.280403
 20
12.742185
 30
0.0
 10
5.217812
 20
12.788018
 30
0.0
 10
5.202007
 20
12.795440
 30
0.0
 10
5.183973
 20
12.803343
 30
0.0
 10
5.161847
 20
12.812825
 30
0.0
 10
5.133710
 20
12.824989
 30
0.0
 10
5.183039
 20
12.905724
 30
0.0
 10
5.231852
 20
12.985667
 30
0.0
 10
5.281123
 20
13.066365
 30
0.0
 10
5.331821
 20
13.149373
 30
0.0
 10
5.301321
 20
13.161395
 30
0.0
 10
5.266944
 20
13.175309
 30
0.0
 10
5.229646
 20
13.189081
 30
0.0
 10
5.190374
 20
13.200681
 30
0.0
 10
5.090679
 20
13.222496
 30
0.0
 10
4.990346
 20
13.242111
 30
0.0
 10
4.890849
 20
13.263955
 30
0.0
 10
4.793663
 20
13.292496
 30
0.0
 10
4.550737
 20
13.379714
 30
0.0
 10
4.308845
 20
13.469881
 30
0.0
 10
4.067186
 20
13.560751
 30
0.0
 10
3.824966
 20
13.650083
 30
0.0
 10
3.796566
 20
13.655925
 30
0.0
 10
3.765206
 20
13.655360
 30
0.0
 10
3.733792
 20
13.649575
 30
0.0
 10
3.705236
 20
13.639499
 30
0.0
 10
3.567266
 20
13.562995
 30
0.0
 10
3.444641
 20
13.467891
 30
0.0
 10
3.336984
 20
13.356891
 30
0.0
 10
3.243927
 20
13.232696
 30
0.0
 10
3.199776
 20
13.155567
 30
0.0
 10
3.164501
 20
13.069399
 30
0.0
 10
3.145254
 20
12.982303
 30
0.0
 10
3.149177
 20
12.902394
 30
0.0
 10
3.193965
 20
12.752455
 30
0.0
 10
3.256568
 20
12.608073
 30
0.0
 10
3.339767
 20
12.473648
 30
0.0
 10
3.446343
 20
12.353585
 30
0.0
 10
3.642924
 20
12.205884
 30
0.0
 10
3.860351
 20
12.102938
 30
0.0
 10
4.096467
 20
12.034524
 30
0.0
 10
4.349121
 20
11.990430
 30
0.0
 10
4.349123
 20
11.990467
 30
0.0
 10
4.349129
 20
11.990500
 30
0.0
 10
4.349132
 20
11.990534
 30
0.0
 10
4.349194
 20
11.991082
 30
0.0
  0
LWPOLYLINE
  5
108
100
AcDbEntity
  8
bico
 62
7
100
AcDbPolyline
 90
21
 70
0
 10
17.168506
 20
13.635280
 30
0.0
 10
17.173163
 20
13.638723
 30
0.0
 10
17.177848
 20
13.642166
 30
0.0
 10
17.182505
 20
13.645638
 30
0.0
 10
17.187161
 20
13.649109
 30
0.0
 10
17.164075
 20
13.708057
 30
0.0
 10
17.140736
 20
13.767665
 30
0.0
 10
17.116860
 20
13.828591
 30
0.0
 10
17.092222
 20
13.891493
 30
0.0
 10
17.036813
 20
13.868830
 30
0.0
 10
16.983916
 20
13.847184
 30
0.0
 10
16.931397
 20
13.825679
 30
0.0
 10
16.877126
 20
13.803468
 30
0.0
 10
16.955468
 20
13.758247
 30
0.0
 10
17.029086
 20
13.715750
 30
0.0
 10
17.099568
 20
13.675065
 30
0.0
 10
17.168515
 20
13.635289
 30
0.0
 10
17.168515
 20
13.635286
 30
0.0
 10
17.168515
 20
13.635286
 30
0.0
 10
17.168515
 20
13.635283
 30
0.0
 10
17.168506
 20
13.635280
 30
0.0
  0
LWPOLYLINE
  5
109
100
AcDbEntity
  8
bico
 62
7
100
AcDbPolyline
 90
69
 70
0
 10
15.955335
 20
11.987602
 30
0.0
 10
16.001927
 20
11.995504
 30
0.0
 10
16.041297
 20
12.002193
 30
0.0
 10
16.075849
 20
12.008091
 30
0.0
 10
16.107991
 20
12.013623
 30
0.0
 10
16.441087
 20
12.100815
 30
0.0
 10
16.727627
 20
12.249132
 30
0.0
 10
16.958985
 20
12.471921
 30
0.0
 10
17.126531
 20
12.782537
 30
0.0
 10
17.157370
 20
12.910991
 30
0.0
 10
17.153673
 20
13.030543
 30
0.0
 10
17.118925
 20
13.142498
 30
0.0
 10
17.056653
 20
13.248162
 30
0.0
 10
16.964462
 20
13.364211
 30
0.0
 10
16.861319
 20
13.469706
 30
0.0
 10
16.745314
 20
13.560909
 30
0.0
 10
16.614558
 20
13.634084
 30
0.0
 10
16.581721
 20
13.645768
 30
0.0
 10
16.545662
 20
13.652626
 30
0.0
 10
16.509678
 20
13.653472
 30
0.0
 10
16.477076
 20
13.646868
 30
0.0
 10
16.234286
 20
13.558572
 30
0.0
 10
15.992074
 20
13.468631
 30
0.0
 10
15.750139
 20
13.377905
 30
0.0
 10
15.508170
 20
13.287261
 30
0.0
 10
15.487060
 20
13.279810
 30
0.0
 10
15.465639
 20
13.273121
 30
0.0
 10
15.443993
 20
13.267251
 30
0.0
 10
15.422177
 20
13.262256
 30
0.0
 10
15.331781
 20
13.243968
 30
0.0
 10
15.241295
 20
13.226075
 30
0.0
 10
15.150965
 20
13.207589
 30
0.0
 10
15.061040
 20
13.187495
 30
0.0
 10
15.035894
 20
13.178492
 30
0.0
 10
15.013599
 20
13.166131
 30
0.0
 10
14.995367
 20
13.153939
 30
0.0
 10
14.982385
 20
13.145444
 30
0.0
 10
15.031805
 20
13.062457
 30
0.0
 10
15.079596
 20
12.982215
 30
0.0
 10
15.126499
 20
12.903450
 30
0.0
 10
15.173257
 20
12.824888
 30
0.0
 10
15.060380
 20
12.762223
 30
0.0
 10
15.001353
 20
12.697058
 30
0.0
 10
14.995370
 20
12.628512
 30
0.0
 10
15.041620
 20
12.555704
 30
0.0
 10
15.176390
 20
12.429525
 30
0.0
 10
15.324542
 20
12.327355
 30
0.0
 10
15.490122
 20
12.258716
 30
0.0
 10
15.677165
 20
12.233118
 30
0.0
 10
15.745042
 20
12.233401
 30
0.0
 10
15.812914
 20
12.234529
 30
0.0
 10
15.880746
 20
12.235376
 30
0.0
 10
15.948505
 20
12.234529
 30
0.0
 10
15.978031
 20
12.232554
 30
0.0
 10
16.007735
 20
12.228067
 30
0.0
 10
16.036538
 20
12.220559
 30
0.0
 10
16.063378
 20
12.209581
 30
0.0
 10
16.102163
 20
12.181895
 30
0.0
 10
16.118335
 20
12.149885
 30
0.0
 10
16.110348
 20
12.114740
 30
0.0
 10
16.076727
 20
12.077662
 30
0.0
 10
16.051553
 20
12.058104
 30
0.0
 10
16.024008
 20
12.037671
 30
0.0
 10
15.992478
 20
12.014642
 30
0.0
 10
15.955320
 20
11.987294
 30
0.0
 10
15.955323
 20
11.987314
 30
0.0
 10
15.955326
 20
11.987331
 30
0.0
 10
15.955332
 20
11.987348
 30
0.0
 10
15.955335
 20
11.987602
 30
0.0
  0
ENDSEC
  0
SECTION
  2
OBJECTS
  0
DICTIONARY
  5
C
330
0
100
AcDbDictionary
  3
ACAD_GROUP
350
D
  3
ACAD_MLINESTYLE
350
17
  0
DICTIONARY
  5
D
330
C
100
AcDbDictionary
  0
DICTIONARY
  5
1A
330
C
100
AcDbDictionary
  0
DICTIONARY
  5
17
330
C
100
AcDbDictionary
  3
STANDARD
350
18
  0
DICTIONARY
  5
19
330
C
100
AcDbDictionary
  0
ENDSEC
  0
EOF
