<?xml version="1.0" encoding="UTF-8" standalone="no"?>
<!-- Created with Inkscape (http://www.inkscape.org/) -->

<svg
   xmlns:dc="http://purl.org/dc/elements/1.1/"
   xmlns:cc="http://creativecommons.org/ns#"
   xmlns:rdf="http://www.w3.org/1999/02/22-rdf-syntax-ns#"
   xmlns:svg="http://www.w3.org/2000/svg"
   xmlns="http://www.w3.org/2000/svg"
   xmlns:sodipodi="http://sodipodi.sourceforge.net/DTD/sodipodi-0.dtd"
   xmlns:inkscape="http://www.inkscape.org/namespaces/inkscape"
   width="31.712049mm"
   height="49.315952mm"
   id="svg4185"
   version="1.1"
   inkscape:version="0.48+devel r12693"
   viewBox="0 0 31.71205 49.315953"
   sodipodi:docname="itens.svg">
  <defs
     id="defs4187" />
  <sodipodi:namedview
     id="base"
     pagecolor="#ffffff"
     bordercolor="#666666"
     borderopacity="1.0"
     inkscape:pageopacity="0.0"
     inkscape:pageshadow="2"
     inkscape:zoom="5.155617"
     inkscape:cx="23.677029"
     inkscape:cy="19.009544"
     inkscape:document-units="px"
     inkscape:current-layer="layer2"
     showgrid="false"
     fit-margin-top="0"
     fit-margin-left="0"
     fit-margin-right="0"
     fit-margin-bottom="0"
     units="mm"
     inkscape:window-width="1358"
     inkscape:window-height="698"
     inkscape:window-x="0"
     inkscape:window-y="0"
     inkscape:window-maximized="1" />
  <metadata
     id="metadata4190">
    <rdf:RDF>
      <cc:Work
         rdf:about="">
        <dc:format>image/svg+xml</dc:format>
        <dc:type
           rdf:resource="http://purl.org/dc/dcmitype/StillImage" />
        <dc:title></dc:title>
      </cc:Work>
    </rdf:RDF>
  </metadata>
  <g
     inkscape:groupmode="layer"
     id="layer2"
     inkscape:label="base">
    <path
       transform="translate(-38.975721,-185.25631)"
       id="path3330"
       style="fill-rule:evenodd;clip-rule:evenodd"
       d="m 47.482821,234.55362 c 0.16802,-0.71768 0.31133,-1.36229 0.470218,-2.00315 0.430211,-1.73607 0.808311,-3.48807 1.321788,-5.19936 0.343122,-1.14336 0.48806,-2.28268 0.463702,-3.46074 -0.0088,-0.42731 -0.0015,-0.85483 -0.0015,-1.30041 1.246453,0 2.467203,0 3.720949,0 0,0.099 -0.0013,0.19387 7.1e-5,0.28875 0.01197,0.86446 0.0015,1.73005 0.04546,2.59295 0.02343,0.46016 0.110598,0.92316 0.222259,1.37171 0.45747,1.83732 0.931581,3.67054 1.409587,5.50276 0.09233,0.35381 0.218502,0.70012 0.348854,1.04246 0.08483,0.22283 0.139557,0.43276 0.0827,0.67711 -0.03016,0.12915 0.02506,0.2782 0.04454,0.44154 -0.207105,0.0285 -0.411591,0.0805 -0.616146,0.0809 -2.001519,0.004 -4.003109,10e-4 -6.004628,-0.004 -0.485582,-0.001 -0.971164,-0.0189 -1.507865,-0.0301 z m 18.544568,-5.46324 c 0,1.3167 -0.01628,2.63374 0.0079,3.9501 0.0099,0.53958 -0.348841,1.11964 -1.033121,1.44748 -0.452558,0.21688 -0.865067,0.0933 -1.297893,0.0965 -0.868694,0.006 -1.737807,0.0336 -2.605993,0.0143 -0.983033,-0.022 -1.965813,-0.0756 -2.946823,-0.14217 -0.144361,-0.01 -0.317896,-0.13609 -0.411073,-0.25904 -0.455427,-0.60071 -0.762446,-1.24688 -0.763795,-2.04035 -0.0038,-2.28481 -0.08938,-4.56995 -0.05869,-6.85392 0.01004,-0.75039 0.27447,-1.49799 0.432997,-2.24458 0.01189,-0.0563 0.100428,-0.10836 0.164597,-0.13897 0.07935,-0.0378 0.172272,-0.046 0.256173,-0.0761 0.184835,-0.0664 0.327256,-0.1915 0.577273,-0.0993 0.189726,0.0699 0.450282,-0.0535 0.679556,-0.0896 0.0882,-0.014 0.176993,-0.0353 0.265447,-0.0354 1.344441,-0.003 2.688797,-0.004 4.033321,-9e-4 0.08685,9e-5 0.17303,0.0399 0.260812,0.0493 0.247232,0.0264 0.513019,0.11493 0.739086,0.0556 0.526512,-0.13854 0.921396,0.0737 1.316447,0.35736 0.248667,0.17859 0.312919,0.41419 0.385353,0.71286 0.141156,0.58098 -0.108102,1.10809 -0.08854,1.66849 0.04242,1.20818 0.013,2.41888 0.013,3.62849 0.02453,0 0.04924,0 0.07395,0 z m -22.373307,0.66068 c 0,0.678 0,1.33005 0,1.98073 0.333544,0 0.621284,0 0.880593,0 0,0.31027 0.0096,0.61455 -0.0085,0.91713 -0.0034,0.057 -0.112898,0.14662 -0.180335,0.15341 -0.201143,0.0205 -0.405857,0.007 -0.626296,0.007 0,0.24455 0,0.49445 0,0.75451 0.197777,0.014 0.385941,0.0222 0.572937,0.0417 0.153553,0.0161 0.250381,0.078 0.235204,0.2661 -0.01799,0.22271 -0.0042,0.44802 -0.0042,0.70019 -0.985661,0 -1.946326,0 -2.935215,0 -0.01738,-0.24543 -0.05288,-0.51175 -0.05247,-0.77793 0.0019,-1.30629 0.01209,-2.61245 0.02321,-3.91868 0.0012,-0.14764 -0.04848,-0.24007 -0.199083,-0.26157 -0.158154,-0.0225 -0.320016,-0.0276 -0.474804,-0.0637 -0.95572,-0.22278 -1.461633,-0.91239 -1.706452,-1.78571 -0.229367,-0.81857 -0.287052,-1.66854 -0.05377,-2.5082 0.22978,-0.82702 0.656788,-1.56787 1.382248,-2.00731 0.518892,-0.31438 1.163937,-0.44191 1.768395,-0.58722 0.53345,-0.12821 1.096362,-0.12148 1.625418,0.0361 0.586466,0.17463 1.136261,0.44479 1.597124,0.86665 0.219479,0.20086 0.468212,0.37399 0.666265,0.59354 0.294057,0.32599 0.38443,0.7532 0.436484,1.17032 0.0629,0.50392 0.114753,1.01828 0.08055,1.522 -0.0217,0.31905 -0.162823,0.65527 -0.332995,0.93326 -0.275996,0.45098 -0.612561,0.8661 -0.940268,1.28322 -0.07389,0.0941 -0.215289,0.13639 -0.328394,0.19744 -0.05713,0.0309 -0.136521,0.0345 -0.178275,0.0775 -0.330247,0.33924 -0.76474,0.35751 -1.192229,0.4007 -0.02816,0.003 -0.05618,0.009 -0.05508,0.008 z m -2.969414,-3.46757 c 0,0.10178 -0.0036,0.18219 9.65e-4,0.26219 0.0045,0.0797 0.0043,0.16296 0.02802,0.23768 0.278263,0.87703 0.779506,1.55118 1.701095,1.82773 0.48593,0.14593 0.96039,0.10761 1.416653,-0.12265 0.309646,-0.1563 0.511544,-0.39418 0.676222,-0.70713 0.19867,-0.37742 0.308409,-0.76103 0.341166,-1.17924 0.05198,-0.66345 -0.280048,-1.22307 -0.485586,-1.81537 -0.04986,-0.14373 -0.161381,-0.27826 -0.27421,-0.38594 -0.564148,-0.53881 -1.2745,-0.57802 -1.997763,-0.55571 -0.04539,0.001 -0.09772,0.0352 -0.132676,0.0687 -0.130135,0.12471 -0.263085,0.24838 -0.378868,0.38587 -0.21989,0.26117 -0.486822,0.50433 -0.627257,0.80498 -0.171957,0.36809 -0.321527,0.76907 -0.267756,1.17891 z" />
  </g>
  <g
     inkscape:groupmode="layer"
     id="layer3"
     inkscape:label="detalhe"
     style="display:inline">
    <path
       transform="translate(-38.975721,-185.25631)"
       id="path4788"
       style="font-style:normal;font-variant:normal;font-weight:normal;font-stretch:normal;text-indent:0;text-align:start;text-decoration:none;line-height:normal;letter-spacing:normal;word-spacing:normal;text-transform:none;direction:ltr;block-progression:tb;writing-mode:lr-tb;text-anchor:start;baseline-shift:baseline;opacity:0.41800005;color:#000000;color-interpolation:sRGB;color-interpolation-filters:linearRGB;fill:#00ff00;fill-opacity:1;fill-rule:evenodd;stroke:none;stroke-width:2.04413581;marker:none;visibility:visible;display:inline;overflow:visible;enable-background:accumulate;clip-rule:evenodd;color-rendering:auto;image-rendering:auto;shape-rendering:auto;text-rendering:auto;font-family:sans-serif;-inkscape-font-specification:sans-serif"
       d="m 59.294922,223.64063 0.002,0 c 1.343427,-0.003 2.684897,-0.003 4.027344,0 l 0.002,0 c -0.224777,-2.3e-4 -0.168792,0.009 0.152344,0.043 l 0.002,0 c 0.08426,0.009 0.447686,0.20193 1.105469,0.0293 l 0.002,-0.002 c 0.156465,-0.0412 0.129844,-0.0371 0.458984,0.19922 -0.02951,-0.0212 -0.08054,-0.15878 -0.01172,0.125 0.0425,0.17492 -0.146136,0.57764 -0.115234,1.46289 0.041,1.16769 0.01172,2.36561 0.01172,3.59179 l 0,1.02344 0.07617,0 c -0.0035,0.97661 -0.01237,1.95287 0.0059,2.94531 0.0013,0.0734 -0.06697,0.32281 -0.453125,0.50782 -0.09783,0.0469 -0.231124,-0.009 -0.863281,-0.004 -0.885633,0.006 -1.744784,0.0322 -2.576172,0.0137 -0.867292,-0.0194 -1.740943,-0.068 -2.617188,-0.125 -0.309546,-0.43644 -0.505039,-0.81225 -0.505859,-1.29492 -0.0038,-2.3092 -0.08882,-4.59056 -0.05859,-6.83984 0.0053,-0.39887 0.173752,-0.9811 0.316406,-1.57032 0.01395,-0.007 0.08954,-0.0356 0.07422,-0.0312 0.209615,0.0116 0.455048,0.0476 0.570313,0.0215 0.182759,-0.0414 0.290461,-0.0728 0.287109,-0.0723 l 0.002,0 c 0.141829,-0.0225 0.180319,-0.0235 0.105469,-0.0234 z m -8.535156,-0.0293 1.689453,0 c 0.0038,0.6277 -3.36e-4,1.25376 0.0332,1.91211 0.02821,0.55396 0.130586,1.07886 0.251953,1.5664 0.45896,1.84331 0.933738,3.68006 1.412109,5.51368 0.09106,0.34894 0.207223,0.66023 0.320313,0.96289 -1.823578,0.003 -3.647673,6.5e-4 -5.472656,-0.004 l -0.002,0 c -0.0697,-1.4e-4 -0.15391,-0.003 -0.22461,-0.004 0.05787,-0.24757 0.118462,-0.52265 0.177734,-0.76171 0.435198,-1.7562 0.810611,-3.4927 1.308594,-5.15235 0.374075,-1.2465 0.532231,-2.49994 0.50586,-3.77539 -0.0017,-0.0809 6.09e-4,-0.17516 0,-0.25781 z m -7.67547,-0.76397 c -0.249619,-0.005 -0.500353,0.023 -0.744671,0.0817 -0.612128,0.14715 -1.229236,0.27598 -1.689995,0.55515 -0.649298,0.3933 -1.042378,1.06263 -1.259987,1.84585 -0.217356,0.78234 -0.166019,1.57796 0.05325,2.36049 0.228415,0.8148 0.650098,1.3929 1.504634,1.59209 0.119138,0.0277 0.272721,0.034 0.451068,0.0594 0.125638,0.0179 0.263707,0.0853 0.342693,0.1977 0.07899,0.11238 0.09302,0.23286 0.09215,0.338 l 0,4.9e-4 c -0.01112,1.30609 -0.02088,2.61149 -0.0228,3.91663 -2.67e-4,0.16017 0.01886,0.33276 0.0342,0.50284 l 2.405696,0 c -0.0024,-0.13813 -0.0068,-0.27573 0.0033,-0.41928 -0.17317,-0.0178 -0.354872,-0.0264 -0.553675,-0.0404 l -0.255244,-0.0176 0,-1.2856 0.274692,0 c 0.206214,0 0.376153,0.005 0.533288,-0.005 0.0068,-0.16782 0.006,-0.34548 0.0047,-0.52322 l -0.878261,0 0,-2.25508 c 0.09015,-0.22883 0.195951,-0.14166 0.189252,-0.26141 l 0.01891,-0.005 0.341352,-0.0854 0,0.0366 c 0.311386,-0.0356 0.578825,-0.0831 0.77552,-0.28515 0.07879,-0.081 0.155053,-0.1007 0.197702,-0.11414 0.04265,-0.0134 0.06126,-0.0215 0.04708,-0.0138 0.15064,-0.0813 0.249449,-0.13374 0.242903,-0.12541 0.329456,-0.41934 0.658715,-0.82644 0.921987,-1.25663 l 0,-4.8e-4 c 0.153985,-0.25155 0.276085,-0.55674 0.293201,-0.80839 0.03207,-0.47239 -0.01651,-0.96956 -0.07887,-1.46909 -0.05007,-0.40122 -0.135048,-0.76215 -0.367907,-1.0203 -0.16954,-0.18794 -0.409957,-0.35756 -0.647697,-0.57513 -0.423688,-0.38783 -0.93321,-0.64005 -1.490415,-0.80597 -0.240006,-0.0715 -0.48848,-0.10913 -0.7381,-0.11401 z m -0.721198,0.71866 c 0.659536,0.001 1.353169,0.0992 1.915463,0.63629 0.130094,0.12416 0.270139,0.28083 0.344169,0.49426 0.193068,0.55637 0.559931,1.16088 0.49989,1.92713 -0.03546,0.45279 -0.157083,0.87705 -0.372068,1.28547 -0.18105,0.34406 -0.428782,0.63944 -0.79564,0.82461 -0.5137,0.25924 -1.073386,0.30407 -1.619176,0.14016 -1.013039,-0.30398 -1.589062,-1.07849 -1.883809,-2.00747 -0.04159,-0.13119 -0.03648,-0.23657 -0.04037,-0.30501 -0.0056,-0.0985 -0.0015,-0.1827 -0.0015,-0.27804 l 0,-0.27469 0.02615,0 c 0.02314,-0.37199 0.128185,-0.72204 0.267583,-1.02043 0.172886,-0.37012 0.46235,-0.62375 0.665805,-0.86539 0.130236,-0.15465 0.270599,-0.28453 0.398759,-0.40735 l 4.14e-4,-4.8e-4 c 0.06697,-0.0641 0.138617,-0.13932 0.314125,-0.14459 l 0,1.4e-4 c 0.09234,-0.003 0.18597,-0.005 0.28019,-0.005 z"
       inkscape:connector-curvature="0" />
  </g>
</svg>
