  0
SECTION
  2
HEADER
  9
$ACADVER
  1
AC1014
  9
$HANDSEED
  5
FFFF
  9
$MEASUREMENT
 70
     1
  0
ENDSEC
  0
SECTION
  2
TABLES
  0
TABLE
  2
VPORT
  5
8
330
0
100
AcDbSymbolTable
 70
     4
  0
VPORT
  5
2E
330
8
100
AcDbSymbolTableRecord
100
AcDbViewportTableRecord
  2
*ACTIVE
 70
     0
 10
0.0
 20
0.0
 11
1.0
 21
1.0
 12
210.0
 22
148.5
 13
0.0
 23
0.0
 14
10.0
 24
10.0
 15
10.0
 25
10.0
 16
0.0
 26
0.0
 36
1.0
 17
0.0
 27
0.0
 37
0.0
 40
341.0
 41
1.24
 42
50.0
 43
0.0
 44
0.0
 50
0.0
 51
0.0
 71
     0
 72
   100
 73
     1
 74
     3
 75
     0
 76
     0
 77
     0
 78
     0
  0
ENDTAB
  0
TABLE
  2
LTYPE
  5
5
330
0
100
AcDbSymbolTable
 70
     1
  0
LTYPE
  5
14
330
5
100
AcDbSymbolTableRecord
100
AcDbLinetypeTableRecord
  2
BYBLOCK
 70
     0
  3

 72
    65
 73
     0
 40
0.0
  0
LTYPE
  5
15
330
5
100
AcDbSymbolTableRecord
100
AcDbLinetypeTableRecord
  2
BYLAYER
 70
     0
  3

 72
    65
 73
     0
 40
0.0
  0
LTYPE
  5
16
330
5
100
AcDbSymbolTableRecord
100
AcDbLinetypeTableRecord
  2
CONTINUOUS
 70
     0
  3
Solid line
 72
    65
 73
     0
 40
0.0
  0
ENDTAB
  0
TABLE
  2
LAYER
  5
2
100
AcDbSymbolTable
 70
3
  0
LAYER
  5
50
100
AcDbSymbolTableRecord
100
AcDbLayerTableRecord
  2
0
 70
0
  6
CONTINUOUS
  0
LAYER
  5
51
100
AcDbSymbolTableRecord
100
AcDbLayerTableRecord
  2
base
 70
0
  6
CONTINUOUS
  0
LAYER
  5
52
100
AcDbSymbolTableRecord
100
AcDbLayerTableRecord
  2
detalhe
 70
0
  6
CONTINUOUS
  0
ENDTAB
  0
TABLE
  2
STYLE
  5
3
330
0
100
AcDbSymbolTable
 70
     1
  0
STYLE
  5
11
330
3
100
AcDbSymbolTableRecord
100
AcDbTextStyleTableRecord
  2
STANDARD
 70
     0
 40
0.0
 41
1.0
 50
0.0
 71
     0
 42
2.5
  3
txt
  4

  0
ENDTAB
  0
TABLE
  2
VIEW
  5
6
330
0
100
AcDbSymbolTable
 70
     0
  0
ENDTAB
  0
TABLE
  2
UCS
  5
7
330
0
100
AcDbSymbolTable
 70
     0
  0
ENDTAB
  0
TABLE
  2
APPID
  5
9
330
0
100
AcDbSymbolTable
 70
     2
  0
APPID
  5
12
330
9
100
AcDbSymbolTableRecord
100
AcDbRegAppTableRecord
  2
ACAD
 70
     0
  0
ENDTAB
  0
TABLE
  2
DIMSTYLE
  5
A
330
0
100
AcDbSymbolTable
 70
     1
  0
DIMSTYLE
105
27
330
A
100
AcDbSymbolTableRecord
100
AcDbDimStyleTableRecord
  2
ISO-25
 70
     0
  3

  4

  5

  6

  7

 40
1.0
 41
2.5
 42
0.625
 43
3.75
 44
1.25
 45
0.0
 46
0.0
 47
0.0
 48
0.0
140
2.5
141
2.5
142
0.0
143
0.03937007874016
144
1.0
145
0.0
146
1.0
147
0.625
 71
     0
 72
     0
 73
     0
 74
     0
 75
     0
 76
     0
 77
     1
 78
     8
170
     0
171
     3
172
     1
173
     0
174
     0
175
     0
176
     0
177
     0
178
     0
270
     2
271
     2
272
     2
273
     2
274
     3
340
11
275
     0
280
     0
281
     0
282
     0
283
     0
284
     8
285
     0
286
     0
287
     3
288
     0
  0
ENDTAB
  0
TABLE
  2
BLOCK_RECORD
  5
1
330
0
100
AcDbSymbolTable
 70
     1
  0
BLOCK_RECORD
  5
1F
330
1
100
AcDbSymbolTableRecord
100
AcDbBlockTableRecord
  2
*MODEL_SPACE
  0
BLOCK_RECORD
  5
1B
330
1
100
AcDbSymbolTableRecord
100
AcDbBlockTableRecord
  2
*PAPER_SPACE
  0
ENDTAB
  0
ENDSEC
  0
SECTION
  2
BLOCKS
  0
BLOCK
  5
20
330
1F
100
AcDbEntity
  8
0
100
AcDbBlockBegin
  2
*MODEL_SPACE
 70
     0
 10
0.0
 20
0.0
 30
0.0
  3
*MODEL_SPACE
  1

  0
ENDBLK
  5
21
330
1F
100
AcDbEntity
  8
0
100
AcDbBlockEnd
  0
BLOCK
  5
1C
330
1B
100
AcDbEntity
 67
     1
  8
0
100
AcDbBlockBegin
  2
*PAPER_SPACE
  1

  0
ENDBLK
  5
1D
330
1B
100
AcDbEntity
 67
     1
  8
0
100
AcDbBlockEnd
  0
ENDSEC
  0
SECTION
  2
ENTITIES
  0
LINE
  5
100
100
AcDbEntity
  8
base
 62
7
100
AcDbLine
 10
2.400893
 20
35.403156
 30
0.0
 11
2.435327
 21
35.551503
 31
0.0
  0
LINE
  5
101
100
AcDbEntity
  8
base
 62
7
100
AcDbLine
 10
2.435327
 20
35.551503
 30
0.0
 11
2.468212
 21
35.693952
 31
0.0
  0
LINE
  5
102
100
AcDbEntity
  8
base
 62
7
100
AcDbLine
 10
2.468212
 20
35.693952
 30
0.0
 11
2.500614
 21
35.832337
 31
0.0
  0
LINE
  5
103
100
AcDbEntity
  8
base
 62
7
100
AcDbLine
 10
2.500614
 20
35.832337
 30
0.0
 11
2.533599
 21
35.968489
 31
0.0
  0
LINE
  5
104
100
AcDbEntity
  8
base
 62
7
100
AcDbLine
 10
2.533599
 20
35.968489
 30
0.0
 11
2.622729
 21
36.336549
 31
0.0
  0
LINE
  5
105
100
AcDbEntity
  8
base
 62
7
100
AcDbLine
 10
2.622729
 20
36.336549
 30
0.0
 11
2.711305
 21
36.704798
 31
0.0
  0
LINE
  5
106
100
AcDbEntity
  8
base
 62
7
100
AcDbLine
 10
2.711305
 20
36.704798
 30
0.0
 11
2.804288
 21
37.071735
 31
0.0
  0
LINE
  5
107
100
AcDbEntity
  8
base
 62
7
100
AcDbLine
 10
2.804288
 20
37.071735
 30
0.0
 11
2.906637
 21
37.435864
 31
0.0
  0
LINE
  5
108
100
AcDbEntity
  8
base
 62
7
100
AcDbLine
 10
2.906637
 20
37.435864
 30
0.0
 11
2.968904
 21
37.677850
 31
0.0
  0
LINE
  5
109
100
AcDbEntity
  8
base
 62
7
100
AcDbLine
 10
2.968904
 20
37.677850
 30
0.0
 11
3.010962
 21
37.920541
 31
0.0
  0
LINE
  5
10a
100
AcDbEntity
  8
base
 62
7
100
AcDbLine
 10
3.010962
 20
37.920541
 30
0.0
 11
3.033573
 21
38.165067
 31
0.0
  0
LINE
  5
10b
100
AcDbEntity
  8
base
 62
7
100
AcDbLine
 10
3.033573
 20
38.165067
 30
0.0
 11
3.037505
 21
38.412562
 31
0.0
  0
LINE
  5
10c
100
AcDbEntity
  8
base
 62
7
100
AcDbLine
 10
3.037505
 20
38.412562
 30
0.0
 11
3.036404
 21
38.503099
 31
0.0
  0
LINE
  5
10d
100
AcDbEntity
  8
base
 62
7
100
AcDbLine
 10
3.036404
 20
38.503099
 30
0.0
 11
3.036375
 21
38.594129
 31
0.0
  0
LINE
  5
10e
100
AcDbEntity
  8
base
 62
7
100
AcDbLine
 10
3.036375
 20
38.594129
 30
0.0
 11
3.036798
 21
38.686128
 31
0.0
  0
LINE
  5
10f
100
AcDbEntity
  8
base
 62
7
100
AcDbLine
 10
3.036798
 20
38.686128
 30
0.0
 11
3.037081
 21
38.779566
 31
0.0
  0
LINE
  5
110
100
AcDbEntity
  8
base
 62
7
100
AcDbLine
 10
3.037081
 20
38.779566
 30
0.0
 11
3.299614
 21
38.779566
 31
0.0
  0
LINE
  5
111
100
AcDbEntity
  8
base
 62
7
100
AcDbLine
 10
3.299614
 20
38.779566
 30
0.0
 11
3.562148
 21
38.779566
 31
0.0
  0
LINE
  5
112
100
AcDbEntity
  8
base
 62
7
100
AcDbLine
 10
3.562148
 20
38.779566
 30
0.0
 11
3.824681
 21
38.779566
 31
0.0
  0
LINE
  5
113
100
AcDbEntity
  8
base
 62
7
100
AcDbLine
 10
3.824681
 20
38.779566
 30
0.0
 11
4.087215
 21
38.779566
 31
0.0
  0
LINE
  5
114
100
AcDbEntity
  8
base
 62
7
100
AcDbLine
 10
4.087215
 20
38.779566
 30
0.0
 11
4.087164
 21
38.758823
 31
0.0
  0
LINE
  5
115
100
AcDbEntity
  8
base
 62
7
100
AcDbLine
 10
4.087164
 20
38.758823
 30
0.0
 11
4.087080
 21
38.738390
 31
0.0
  0
LINE
  5
116
100
AcDbEntity
  8
base
 62
7
100
AcDbLine
 10
4.087080
 20
38.738390
 30
0.0
 11
4.087069
 21
38.718183
 31
0.0
  0
LINE
  5
117
100
AcDbEntity
  8
base
 62
7
100
AcDbLine
 10
4.087069
 20
38.718183
 30
0.0
 11
4.087235
 21
38.698089
 31
0.0
  0
LINE
  5
118
100
AcDbEntity
  8
base
 62
7
100
AcDbLine
 10
4.087235
 20
38.698089
 30
0.0
 11
4.088928
 21
38.515068
 31
0.0
  0
LINE
  5
119
100
AcDbEntity
  8
base
 62
7
100
AcDbLine
 10
4.088928
 20
38.515068
 30
0.0
 11
4.090283
 21
38.332030
 31
0.0
  0
LINE
  5
11a
100
AcDbEntity
  8
base
 62
7
100
AcDbLine
 10
4.090283
 20
38.332030
 30
0.0
 11
4.093320
 21
38.149073
 31
0.0
  0
LINE
  5
11b
100
AcDbEntity
  8
base
 62
7
100
AcDbLine
 10
4.093320
 20
38.149073
 30
0.0
 11
4.100085
 21
37.966301
 31
0.0
  0
LINE
  5
11c
100
AcDbEntity
  8
base
 62
7
100
AcDbLine
 10
4.100085
 20
37.966301
 30
0.0
 11
4.108244
 21
37.868827
 31
0.0
  0
LINE
  5
11d
100
AcDbEntity
  8
base
 62
7
100
AcDbLine
 10
4.108244
 20
37.868827
 30
0.0
 11
4.122109
 21
37.771508
 31
0.0
  0
LINE
  5
11e
100
AcDbEntity
  8
base
 62
7
100
AcDbLine
 10
4.122109
 20
37.771508
 30
0.0
 11
4.140646
 21
37.674805
 31
0.0
  0
LINE
  5
11f
100
AcDbEntity
  8
base
 62
7
100
AcDbLine
 10
4.140646
 20
37.674805
 30
0.0
 11
4.162811
 21
37.579174
 31
0.0
  0
LINE
  5
120
100
AcDbEntity
  8
base
 62
7
100
AcDbLine
 10
4.162811
 20
37.579174
 30
0.0
 11
4.260467
 21
37.190477
 31
0.0
  0
LINE
  5
121
100
AcDbEntity
  8
base
 62
7
100
AcDbLine
 10
4.260467
 20
37.190477
 30
0.0
 11
4.359546
 21
36.802134
 31
0.0
  0
LINE
  5
122
100
AcDbEntity
  8
base
 62
7
100
AcDbLine
 10
4.359546
 20
36.802134
 30
0.0
 11
4.459713
 21
36.414059
 31
0.0
  0
LINE
  5
123
100
AcDbEntity
  8
base
 62
7
100
AcDbLine
 10
4.459713
 20
36.414059
 30
0.0
 11
4.560628
 21
36.026172
 31
0.0
  0
LINE
  5
124
100
AcDbEntity
  8
base
 62
7
100
AcDbLine
 10
4.560628
 20
36.026172
 30
0.0
 11
4.581831
 21
35.951663
 31
0.0
  0
LINE
  5
125
100
AcDbEntity
  8
base
 62
7
100
AcDbLine
 10
4.581831
 20
35.951663
 30
0.0
 11
4.605832
 21
35.877856
 31
0.0
  0
LINE
  5
126
100
AcDbEntity
  8
base
 62
7
100
AcDbLine
 10
4.605832
 20
35.877856
 30
0.0
 11
4.631844
 21
35.804653
 31
0.0
  0
LINE
  5
127
100
AcDbEntity
  8
base
 62
7
100
AcDbLine
 10
4.631844
 20
35.804653
 30
0.0
 11
4.659084
 21
35.731967
 31
0.0
  0
LINE
  5
128
100
AcDbEntity
  8
base
 62
7
100
AcDbLine
 10
4.659084
 20
35.731967
 30
0.0
 11
4.675089
 21
35.685276
 31
0.0
  0
LINE
  5
129
100
AcDbEntity
  8
base
 62
7
100
AcDbLine
 10
4.675089
 20
35.685276
 30
0.0
 11
4.685751
 21
35.638698
 31
0.0
  0
LINE
  5
12a
100
AcDbEntity
  8
base
 62
7
100
AcDbLine
 10
4.685751
 20
35.638698
 30
0.0
 11
4.688915
 21
35.590980
 31
0.0
  0
LINE
  5
12b
100
AcDbEntity
  8
base
 62
7
100
AcDbLine
 10
4.688915
 20
35.590980
 30
0.0
 11
4.682427
 21
35.540872
 31
0.0
  0
LINE
  5
12c
100
AcDbEntity
  8
base
 62
7
100
AcDbLine
 10
4.682427
 20
35.540872
 30
0.0
 11
4.680028
 21
35.512505
 31
0.0
  0
LINE
  5
12d
100
AcDbEntity
  8
base
 62
7
100
AcDbLine
 10
4.680028
 20
35.512505
 30
0.0
 11
4.683460
 21
35.482183
 31
0.0
  0
LINE
  5
12e
100
AcDbEntity
  8
base
 62
7
100
AcDbLine
 10
4.683460
 20
35.482183
 30
0.0
 11
4.689519
 21
35.450052
 31
0.0
  0
LINE
  5
12f
100
AcDbEntity
  8
base
 62
7
100
AcDbLine
 10
4.689519
 20
35.450052
 30
0.0
 11
4.695000
 21
35.416259
 31
0.0
  0
LINE
  5
130
100
AcDbEntity
  8
base
 62
7
100
AcDbLine
 10
4.695000
 20
35.416259
 30
0.0
 11
4.651289
 21
35.409317
 31
0.0
  0
LINE
  5
131
100
AcDbEntity
  8
base
 62
7
100
AcDbLine
 10
4.651289
 20
35.409317
 30
0.0
 11
4.607785
 21
35.401866
 31
0.0
  0
LINE
  5
132
100
AcDbEntity
  8
base
 62
7
100
AcDbLine
 10
4.607785
 20
35.401866
 30
0.0
 11
4.564415
 21
35.395911
 31
0.0
  0
LINE
  5
133
100
AcDbEntity
  8
base
 62
7
100
AcDbLine
 10
4.564415
 20
35.395911
 30
0.0
 11
4.521110
 21
35.393371
 31
0.0
  0
LINE
  5
134
100
AcDbEntity
  8
base
 62
7
100
AcDbLine
 10
4.521110
 20
35.393371
 30
0.0
 11
4.097452
 21
35.392807
 31
0.0
  0
LINE
  5
135
100
AcDbEntity
  8
base
 62
7
100
AcDbLine
 10
4.097452
 20
35.392807
 30
0.0
 11
3.673790
 21
35.392919
 31
0.0
  0
LINE
  5
136
100
AcDbEntity
  8
base
 62
7
100
AcDbLine
 10
3.673790
 20
35.392919
 30
0.0
 11
3.250128
 21
35.393484
 31
0.0
  0
LINE
  5
137
100
AcDbEntity
  8
base
 62
7
100
AcDbLine
 10
3.250128
 20
35.393484
 30
0.0
 11
2.826470
 21
35.394331
 31
0.0
  0
LINE
  5
138
100
AcDbEntity
  8
base
 62
7
100
AcDbLine
 10
2.826470
 20
35.394331
 30
0.0
 11
2.723463
 21
35.395459
 31
0.0
  0
LINE
  5
139
100
AcDbEntity
  8
base
 62
7
100
AcDbLine
 10
2.723463
 20
35.395459
 30
0.0
 11
2.619104
 21
35.397717
 31
0.0
  0
LINE
  5
13a
100
AcDbEntity
  8
base
 62
7
100
AcDbLine
 10
2.619104
 20
35.397717
 30
0.0
 11
2.512039
 21
35.400539
 31
0.0
  0
LINE
  5
13b
100
AcDbEntity
  8
base
 62
7
100
AcDbLine
 10
2.512039
 20
35.400539
 30
0.0
 11
2.400917
 21
35.403079
 31
0.0
  0
LINE
  5
13c
100
AcDbEntity
  8
base
 62
7
100
AcDbLine
 10
2.400917
 20
35.403079
 30
0.0
 11
2.400918
 21
35.403110
 31
0.0
  0
LINE
  5
13d
100
AcDbEntity
  8
base
 62
7
100
AcDbLine
 10
2.400918
 20
35.403110
 30
0.0
 11
2.400919
 21
35.403139
 31
0.0
  0
LINE
  5
13e
100
AcDbEntity
  8
base
 62
7
100
AcDbLine
 10
2.400919
 20
35.403139
 30
0.0
 11
2.400919
 21
35.403170
 31
0.0
  0
LINE
  5
13f
100
AcDbEntity
  8
base
 62
7
100
AcDbLine
 10
2.400919
 20
35.403170
 30
0.0
 11
2.400893
 21
35.403156
 31
0.0
  0
LINE
  5
140
100
AcDbEntity
  8
base
 62
7
100
AcDbLine
 10
7.634582
 20
36.945003
 30
0.0
 11
7.633961
 21
36.666289
 31
0.0
  0
LINE
  5
141
100
AcDbEntity
  8
base
 62
7
100
AcDbLine
 10
7.633961
 20
36.666289
 30
0.0
 11
7.633114
 21
36.387564
 31
0.0
  0
LINE
  5
142
100
AcDbEntity
  8
base
 62
7
100
AcDbLine
 10
7.633114
 20
36.387564
 30
0.0
 11
7.633566
 21
36.108858
 31
0.0
  0
LINE
  5
143
100
AcDbEntity
  8
base
 62
7
100
AcDbLine
 10
7.633566
 20
36.108858
 30
0.0
 11
7.636794
 21
35.830197
 31
0.0
  0
LINE
  5
144
100
AcDbEntity
  8
base
 62
7
100
AcDbLine
 10
7.636794
 20
35.830197
 30
0.0
 11
7.619573
 21
35.715135
 31
0.0
  0
LINE
  5
145
100
AcDbEntity
  8
base
 62
7
100
AcDbLine
 10
7.619573
 20
35.715135
 30
0.0
 11
7.564478
 21
35.603533
 31
0.0
  0
LINE
  5
146
100
AcDbEntity
  8
base
 62
7
100
AcDbLine
 10
7.564478
 20
35.603533
 30
0.0
 11
7.472648
 21
35.503136
 31
0.0
  0
LINE
  5
147
100
AcDbEntity
  8
base
 62
7
100
AcDbLine
 10
7.472648
 20
35.503136
 30
0.0
 11
7.345225
 21
35.421686
 31
0.0
  0
LINE
  5
148
100
AcDbEntity
  8
base
 62
7
100
AcDbLine
 10
7.345225
 20
35.421686
 30
0.0
 11
7.251287
 21
35.391737
 31
0.0
  0
LINE
  5
149
100
AcDbEntity
  8
base
 62
7
100
AcDbLine
 10
7.251287
 20
35.391737
 30
0.0
 11
7.159990
 21
35.385443
 31
0.0
  0
LINE
  5
14a
100
AcDbEntity
  8
base
 62
7
100
AcDbLine
 10
7.159990
 20
35.385443
 30
0.0
 11
7.069737
 21
35.390467
 31
0.0
  0
LINE
  5
14b
100
AcDbEntity
  8
base
 62
7
100
AcDbLine
 10
7.069737
 20
35.390467
 30
0.0
 11
6.978931
 21
35.394446
 31
0.0
  0
LINE
  5
14c
100
AcDbEntity
  8
base
 62
7
100
AcDbLine
 10
6.978931
 20
35.394446
 30
0.0
 11
6.795041
 21
35.392471
 31
0.0
  0
LINE
  5
14d
100
AcDbEntity
  8
base
 62
7
100
AcDbLine
 10
6.795041
 20
35.392471
 30
0.0
 11
6.611143
 21
35.389931
 31
0.0
  0
LINE
  5
14e
100
AcDbEntity
  8
base
 62
7
100
AcDbLine
 10
6.611143
 20
35.389931
 30
0.0
 11
6.427271
 21
35.388802
 31
0.0
  0
LINE
  5
14f
100
AcDbEntity
  8
base
 62
7
100
AcDbLine
 10
6.427271
 20
35.388802
 30
0.0
 11
6.243462
 21
35.390777
 31
0.0
  0
LINE
  5
150
100
AcDbEntity
  8
base
 62
7
100
AcDbLine
 10
6.243462
 20
35.390777
 30
0.0
 11
6.035407
 21
35.397014
 31
0.0
  0
LINE
  5
151
100
AcDbEntity
  8
base
 62
7
100
AcDbLine
 10
6.035407
 20
35.397014
 30
0.0
 11
5.827418
 21
35.406102
 31
0.0
  0
LINE
  5
152
100
AcDbEntity
  8
base
 62
7
100
AcDbLine
 10
5.827418
 20
35.406102
 30
0.0
 11
5.619537
 21
35.417560
 31
0.0
  0
LINE
  5
153
100
AcDbEntity
  8
base
 62
7
100
AcDbLine
 10
5.619537
 20
35.417560
 30
0.0
 11
5.411803
 21
35.430881
 31
0.0
  0
LINE
  5
154
100
AcDbEntity
  8
base
 62
7
100
AcDbLine
 10
5.411803
 20
35.430881
 30
0.0
 11
5.380186
 21
35.438614
 31
0.0
  0
LINE
  5
155
100
AcDbEntity
  8
base
 62
7
100
AcDbLine
 10
5.380186
 20
35.438614
 30
0.0
 11
5.348379
 21
35.455491
 31
0.0
  0
LINE
  5
156
100
AcDbEntity
  8
base
 62
7
100
AcDbLine
 10
5.348379
 20
35.455491
 30
0.0
 11
5.319281
 21
35.478323
 31
0.0
  0
LINE
  5
157
100
AcDbEntity
  8
base
 62
7
100
AcDbLine
 10
5.319281
 20
35.478323
 30
0.0
 11
5.295789
 21
35.503977
 31
0.0
  0
LINE
  5
158
100
AcDbEntity
  8
base
 62
7
100
AcDbLine
 10
5.295789
 20
35.503977
 30
0.0
 11
5.207936
 21
35.633982
 31
0.0
  0
LINE
  5
159
100
AcDbEntity
  8
base
 62
7
100
AcDbLine
 10
5.207936
 20
35.633982
 30
0.0
 11
5.139952
 21
35.771492
 31
0.0
  0
LINE
  5
15a
100
AcDbEntity
  8
base
 62
7
100
AcDbLine
 10
5.139952
 20
35.771492
 30
0.0
 11
5.095996
 21
35.919205
 31
0.0
  0
LINE
  5
15b
100
AcDbEntity
  8
base
 62
7
100
AcDbLine
 10
5.095996
 20
35.919205
 30
0.0
 11
5.080228
 21
36.079809
 31
0.0
  0
LINE
  5
15c
100
AcDbEntity
  8
base
 62
7
100
AcDbLine
 10
5.080228
 20
36.079809
 30
0.0
 11
5.075969
 21
36.563439
 31
0.0
  0
LINE
  5
15d
100
AcDbEntity
  8
base
 62
7
100
AcDbLine
 10
5.075969
 20
36.563439
 30
0.0
 11
5.068296
 21
37.047063
 31
0.0
  0
LINE
  5
15e
100
AcDbEntity
  8
base
 62
7
100
AcDbLine
 10
5.068296
 20
37.047063
 30
0.0
 11
5.062448
 21
37.530643
 31
0.0
  0
LINE
  5
15f
100
AcDbEntity
  8
base
 62
7
100
AcDbLine
 10
5.062448
 20
37.530643
 30
0.0
 11
5.063662
 21
38.014137
 31
0.0
  0
LINE
  5
160
100
AcDbEntity
  8
base
 62
7
100
AcDbLine
 10
5.063662
 20
38.014137
 30
0.0
 11
5.077660
 21
38.172831
 31
0.0
  0
LINE
  5
161
100
AcDbEntity
  8
base
 62
7
100
AcDbLine
 10
5.077660
 20
38.172831
 30
0.0
 11
5.109048
 21
38.331276
 31
0.0
  0
LINE
  5
162
100
AcDbEntity
  8
base
 62
7
100
AcDbLine
 10
5.109048
 20
38.331276
 30
0.0
 11
5.148293
 21
38.489518
 31
0.0
  0
LINE
  5
163
100
AcDbEntity
  8
base
 62
7
100
AcDbLine
 10
5.148293
 20
38.489518
 30
0.0
 11
5.185863
 21
38.647608
 31
0.0
  0
LINE
  5
164
100
AcDbEntity
  8
base
 62
7
100
AcDbLine
 10
5.185863
 20
38.647608
 30
0.0
 11
5.191990
 21
38.659235
 31
0.0
  0
LINE
  5
165
100
AcDbEntity
  8
base
 62
7
100
AcDbLine
 10
5.191990
 20
38.659235
 30
0.0
 11
5.203556
 21
38.669960
 31
0.0
  0
LINE
  5
166
100
AcDbEntity
  8
base
 62
7
100
AcDbLine
 10
5.203556
 20
38.669960
 30
0.0
 11
5.217887
 21
38.679301
 31
0.0
  0
LINE
  5
167
100
AcDbEntity
  8
base
 62
7
100
AcDbLine
 10
5.217887
 20
38.679301
 30
0.0
 11
5.232314
 21
38.686837
 31
0.0
  0
LINE
  5
168
100
AcDbEntity
  8
base
 62
7
100
AcDbLine
 10
5.232314
 20
38.686837
 30
0.0
 11
5.249727
 21
38.693497
 31
0.0
  0
LINE
  5
169
100
AcDbEntity
  8
base
 62
7
100
AcDbLine
 10
5.249727
 20
38.693497
 30
0.0
 11
5.267981
 21
38.698379
 31
0.0
  0
LINE
  5
16a
100
AcDbEntity
  8
base
 62
7
100
AcDbLine
 10
5.267981
 20
38.698379
 30
0.0
 11
5.286475
 21
38.702867
 31
0.0
  0
LINE
  5
16b
100
AcDbEntity
  8
base
 62
7
100
AcDbLine
 10
5.286475
 20
38.702867
 30
0.0
 11
5.304611
 21
38.708314
 31
0.0
  0
LINE
  5
16c
100
AcDbEntity
  8
base
 62
7
100
AcDbLine
 10
5.304611
 20
38.708314
 30
0.0
 11
5.342152
 21
38.724259
 31
0.0
  0
LINE
  5
16d
100
AcDbEntity
  8
base
 62
7
100
AcDbLine
 10
5.342152
 20
38.724259
 30
0.0
 11
5.379172
 21
38.739104
 31
0.0
  0
LINE
  5
16e
100
AcDbEntity
  8
base
 62
7
100
AcDbLine
 10
5.379172
 20
38.739104
 30
0.0
 11
5.419642
 21
38.745567
 31
0.0
  0
LINE
  5
16f
100
AcDbEntity
  8
base
 62
7
100
AcDbLine
 10
5.419642
 20
38.745567
 30
0.0
 11
5.467530
 21
38.736338
 31
0.0
  0
LINE
  5
170
100
AcDbEntity
  8
base
 62
7
100
AcDbLine
 10
5.467530
 20
38.736338
 30
0.0
 11
5.510987
 21
38.730525
 31
0.0
  0
LINE
  5
171
100
AcDbEntity
  8
base
 62
7
100
AcDbLine
 10
5.510987
 20
38.730525
 30
0.0
 11
5.559238
 21
38.737749
 31
0.0
  0
LINE
  5
172
100
AcDbEntity
  8
base
 62
7
100
AcDbLine
 10
5.559238
 20
38.737749
 30
0.0
 11
5.609582
 21
38.750591
 31
0.0
  0
LINE
  5
173
100
AcDbEntity
  8
base
 62
7
100
AcDbLine
 10
5.609582
 20
38.750591
 30
0.0
 11
5.659316
 21
38.761625
 31
0.0
  0
LINE
  5
174
100
AcDbEntity
  8
base
 62
7
100
AcDbLine
 10
5.659316
 20
38.761625
 30
0.0
 11
5.678013
 21
38.764843
 31
0.0
  0
LINE
  5
175
100
AcDbEntity
  8
base
 62
7
100
AcDbLine
 10
5.678013
 20
38.764843
 30
0.0
 11
5.696747
 21
38.768088
 31
0.0
  0
LINE
  5
176
100
AcDbEntity
  8
base
 62
7
100
AcDbLine
 10
5.696747
 20
38.768088
 30
0.0
 11
5.715495
 21
38.770628
 31
0.0
  0
LINE
  5
177
100
AcDbEntity
  8
base
 62
7
100
AcDbLine
 10
5.715495
 20
38.770628
 30
0.0
 11
5.734232
 21
38.771757
 31
0.0
  0
LINE
  5
178
100
AcDbEntity
  8
base
 62
7
100
AcDbLine
 10
5.734232
 20
38.771757
 30
0.0
 11
6.018802
 21
38.772322
 31
0.0
  0
LINE
  5
179
100
AcDbEntity
  8
base
 62
7
100
AcDbLine
 10
6.018802
 20
38.772322
 30
0.0
 11
6.303370
 21
38.772576
 31
0.0
  0
LINE
  5
17a
100
AcDbEntity
  8
base
 62
7
100
AcDbLine
 10
6.303370
 20
38.772576
 30
0.0
 11
6.587942
 21
38.772505
 31
0.0
  0
LINE
  5
17b
100
AcDbEntity
  8
base
 62
7
100
AcDbLine
 10
6.587942
 20
38.772505
 30
0.0
 11
6.872525
 21
38.771941
 31
0.0
  0
LINE
  5
17c
100
AcDbEntity
  8
base
 62
7
100
AcDbLine
 10
6.872525
 20
38.771941
 30
0.0
 11
6.890883
 21
38.770247
 31
0.0
  0
LINE
  5
17d
100
AcDbEntity
  8
base
 62
7
100
AcDbLine
 10
6.890883
 20
38.770247
 30
0.0
 11
6.909231
 21
38.766099
 31
0.0
  0
LINE
  5
17e
100
AcDbEntity
  8
base
 62
7
100
AcDbLine
 10
6.909231
 20
38.766099
 30
0.0
 11
6.927626
 21
38.761442
 31
0.0
  0
LINE
  5
17f
100
AcDbEntity
  8
base
 62
7
100
AcDbLine
 10
6.927626
 20
38.761442
 30
0.0
 11
6.946131
 21
38.758140
 31
0.0
  0
LINE
  5
180
100
AcDbEntity
  8
base
 62
7
100
AcDbLine
 10
6.946131
 20
38.758140
 30
0.0
 11
6.999187
 21
38.750181
 31
0.0
  0
LINE
  5
181
100
AcDbEntity
  8
base
 62
7
100
AcDbLine
 10
6.999187
 20
38.750181
 30
0.0
 11
7.052664
 21
38.741207
 31
0.0
  0
LINE
  5
182
100
AcDbEntity
  8
base
 62
7
100
AcDbLine
 10
7.052664
 20
38.741207
 30
0.0
 11
7.105022
 21
38.736776
 31
0.0
  0
LINE
  5
183
100
AcDbEntity
  8
base
 62
7
100
AcDbLine
 10
7.105022
 20
38.736776
 30
0.0
 11
7.154718
 21
38.742420
 31
0.0
  0
LINE
  5
184
100
AcDbEntity
  8
base
 62
7
100
AcDbLine
 10
7.154718
 20
38.742420
 30
0.0
 11
7.259779
 21
38.754415
 31
0.0
  0
LINE
  5
185
100
AcDbEntity
  8
base
 62
7
100
AcDbLine
 10
7.259779
 20
38.754415
 30
0.0
 11
7.354396
 21
38.736663
 31
0.0
  0
LINE
  5
186
100
AcDbEntity
  8
base
 62
7
100
AcDbLine
 10
7.354396
 20
38.736663
 30
0.0
 11
7.442057
 21
38.696582
 31
0.0
  0
LINE
  5
187
100
AcDbEntity
  8
base
 62
7
100
AcDbLine
 10
7.442057
 20
38.696582
 30
0.0
 11
7.526248
 21
38.641551
 31
0.0
  0
LINE
  5
188
100
AcDbEntity
  8
base
 62
7
100
AcDbLine
 10
7.526248
 20
38.641551
 30
0.0
 11
7.569974
 21
38.600705
 31
0.0
  0
LINE
  5
189
100
AcDbEntity
  8
base
 62
7
100
AcDbLine
 10
7.569974
 20
38.600705
 30
0.0
 11
7.599277
 21
38.553667
 31
0.0
  0
LINE
  5
18a
100
AcDbEntity
  8
base
 62
7
100
AcDbLine
 10
7.599277
 20
38.553667
 30
0.0
 11
7.619256
 21
38.500274
 31
0.0
  0
LINE
  5
18b
100
AcDbEntity
  8
base
 62
7
100
AcDbLine
 10
7.619256
 20
38.500274
 30
0.0
 11
7.635004
 21
38.440366
 31
0.0
  0
LINE
  5
18c
100
AcDbEntity
  8
base
 62
7
100
AcDbLine
 10
7.635004
 20
38.440366
 30
0.0
 11
7.647128
 21
38.319857
 31
0.0
  0
LINE
  5
18d
100
AcDbEntity
  8
base
 62
7
100
AcDbLine
 10
7.647128
 20
38.319857
 30
0.0
 11
7.635376
 21
38.202746
 31
0.0
  0
LINE
  5
18e
100
AcDbEntity
  8
base
 62
7
100
AcDbLine
 10
7.635376
 20
38.202746
 30
0.0
 11
7.617190
 21
38.086722
 31
0.0
  0
LINE
  5
18f
100
AcDbEntity
  8
base
 62
7
100
AcDbLine
 10
7.617190
 20
38.086722
 30
0.0
 11
7.610013
 21
37.969481
 31
0.0
  0
LINE
  5
190
100
AcDbEntity
  8
base
 62
7
100
AcDbLine
 10
7.610013
 20
37.969481
 30
0.0
 11
7.615638
 21
37.713633
 31
0.0
  0
LINE
  5
191
100
AcDbEntity
  8
base
 62
7
100
AcDbLine
 10
7.615638
 20
37.713633
 30
0.0
 11
7.616343
 21
37.457612
 31
0.0
  0
LINE
  5
192
100
AcDbEntity
  8
base
 62
7
100
AcDbLine
 10
7.616343
 20
37.457612
 30
0.0
 11
7.614791
 21
37.201518
 31
0.0
  0
LINE
  5
193
100
AcDbEntity
  8
base
 62
7
100
AcDbLine
 10
7.614791
 20
37.201518
 30
0.0
 11
7.613690
 21
36.945441
 31
0.0
  0
LINE
  5
194
100
AcDbEntity
  8
base
 62
7
100
AcDbLine
 10
7.613690
 20
36.945441
 30
0.0
 11
7.618909
 21
36.945441
 31
0.0
  0
LINE
  5
195
100
AcDbEntity
  8
base
 62
7
100
AcDbLine
 10
7.618909
 20
36.945441
 30
0.0
 11
7.624127
 21
36.945441
 31
0.0
  0
LINE
  5
196
100
AcDbEntity
  8
base
 62
7
100
AcDbLine
 10
7.624127
 20
36.945441
 30
0.0
 11
7.629345
 21
36.945441
 31
0.0
  0
LINE
  5
197
100
AcDbEntity
  8
base
 62
7
100
AcDbLine
 10
7.629345
 20
36.945441
 30
0.0
 11
7.634564
 21
36.945441
 31
0.0
  0
LINE
  5
198
100
AcDbEntity
  8
base
 62
7
100
AcDbLine
 10
7.634564
 20
36.945441
 30
0.0
 11
7.634565
 21
36.945452
 31
0.0
  0
LINE
  5
199
100
AcDbEntity
  8
base
 62
7
100
AcDbLine
 10
7.634565
 20
36.945452
 30
0.0
 11
7.634566
 21
36.945463
 31
0.0
  0
LINE
  5
19a
100
AcDbEntity
  8
base
 62
7
100
AcDbLine
 10
7.634566
 20
36.945463
 30
0.0
 11
7.634567
 21
36.945472
 31
0.0
  0
LINE
  5
19b
100
AcDbEntity
  8
base
 62
7
100
AcDbLine
 10
7.634567
 20
36.945472
 30
0.0
 11
7.634582
 21
36.945003
 31
0.0
  0
LINE
  5
19c
100
AcDbEntity
  8
base
 62
7
100
AcDbLine
 10
1.320337
 20
36.758545
 30
0.0
 11
1.320337
 21
36.618794
 31
0.0
  0
LINE
  5
19d
100
AcDbEntity
  8
base
 62
7
100
AcDbLine
 10
1.320337
 20
36.618794
 30
0.0
 11
1.320337
 21
36.479043
 31
0.0
  0
LINE
  5
19e
100
AcDbEntity
  8
base
 62
7
100
AcDbLine
 10
1.320337
 20
36.479043
 30
0.0
 11
1.320337
 21
36.339290
 31
0.0
  0
LINE
  5
19f
100
AcDbEntity
  8
base
 62
7
100
AcDbLine
 10
1.320337
 20
36.339290
 30
0.0
 11
1.320337
 21
36.199539
 31
0.0
  0
LINE
  5
1a0
100
AcDbEntity
  8
base
 62
7
100
AcDbLine
 10
1.320337
 20
36.199539
 30
0.0
 11
1.382468
 21
36.199539
 31
0.0
  0
LINE
  5
1a1
100
AcDbEntity
  8
base
 62
7
100
AcDbLine
 10
1.382468
 20
36.199539
 30
0.0
 11
1.444599
 21
36.199539
 31
0.0
  0
LINE
  5
1a2
100
AcDbEntity
  8
base
 62
7
100
AcDbLine
 10
1.444599
 20
36.199539
 30
0.0
 11
1.506730
 21
36.199539
 31
0.0
  0
LINE
  5
1a3
100
AcDbEntity
  8
base
 62
7
100
AcDbLine
 10
1.506730
 20
36.199539
 30
0.0
 11
1.568860
 21
36.199539
 31
0.0
  0
LINE
  5
1a4
100
AcDbEntity
  8
base
 62
7
100
AcDbLine
 10
1.568860
 20
36.199539
 30
0.0
 11
1.569199
 21
36.134162
 31
0.0
  0
LINE
  5
1a5
100
AcDbEntity
  8
base
 62
7
100
AcDbLine
 10
1.569199
 20
36.134162
 30
0.0
 11
1.569566
 21
36.069307
 31
0.0
  0
LINE
  5
1a6
100
AcDbEntity
  8
base
 62
7
100
AcDbLine
 10
1.569566
 20
36.069307
 30
0.0
 11
1.568973
 21
36.004859
 31
0.0
  0
LINE
  5
1a7
100
AcDbEntity
  8
base
 62
7
100
AcDbLine
 10
1.568973
 20
36.004859
 30
0.0
 11
1.566433
 21
35.940704
 31
0.0
  0
LINE
  5
1a8
100
AcDbEntity
  8
base
 62
7
100
AcDbLine
 10
1.566433
 20
35.940704
 30
0.0
 11
1.560752
 21
35.927412
 31
0.0
  0
LINE
  5
1a9
100
AcDbEntity
  8
base
 62
7
100
AcDbLine
 10
1.560752
 20
35.927412
 30
0.0
 11
1.547761
 21
35.913724
 31
0.0
  0
LINE
  5
1aa
100
AcDbEntity
  8
base
 62
7
100
AcDbLine
 10
1.547761
 20
35.913724
 30
0.0
 11
1.531384
 21
35.902689
 31
0.0
  0
LINE
  5
1ab
100
AcDbEntity
  8
base
 62
7
100
AcDbLine
 10
1.531384
 20
35.902689
 30
0.0
 11
1.515537
 21
35.897383
 31
0.0
  0
LINE
  5
1ac
100
AcDbEntity
  8
base
 62
7
100
AcDbLine
 10
1.515537
 20
35.897383
 30
0.0
 11
1.472719
 21
35.894561
 31
0.0
  0
LINE
  5
1ad
100
AcDbEntity
  8
base
 62
7
100
AcDbLine
 10
1.472719
 20
35.894561
 30
0.0
 11
1.429202
 21
35.894279
 31
0.0
  0
LINE
  5
1ae
100
AcDbEntity
  8
base
 62
7
100
AcDbLine
 10
1.429202
 20
35.894279
 30
0.0
 11
1.384664
 21
35.894843
 31
0.0
  0
LINE
  5
1af
100
AcDbEntity
  8
base
 62
7
100
AcDbLine
 10
1.384664
 20
35.894843
 30
0.0
 11
1.338783
 21
35.895408
 31
0.0
  0
LINE
  5
1b0
100
AcDbEntity
  8
base
 62
7
100
AcDbLine
 10
1.338783
 20
35.895408
 30
0.0
 11
1.338783
 21
35.842172
 31
0.0
  0
LINE
  5
1b1
100
AcDbEntity
  8
base
 62
7
100
AcDbLine
 10
1.338783
 20
35.842172
 30
0.0
 11
1.338783
 21
35.788939
 31
0.0
  0
LINE
  5
1b2
100
AcDbEntity
  8
base
 62
7
100
AcDbLine
 10
1.338783
 20
35.788939
 30
0.0
 11
1.338783
 21
35.735704
 31
0.0
  0
LINE
  5
1b3
100
AcDbEntity
  8
base
 62
7
100
AcDbLine
 10
1.338783
 20
35.735704
 30
0.0
 11
1.338783
 21
35.682468
 31
0.0
  0
LINE
  5
1b4
100
AcDbEntity
  8
base
 62
7
100
AcDbLine
 10
1.338783
 20
35.682468
 30
0.0
 11
1.380174
 21
35.679646
 31
0.0
  0
LINE
  5
1b5
100
AcDbEntity
  8
base
 62
7
100
AcDbLine
 10
1.380174
 20
35.679646
 30
0.0
 11
1.420771
 21
35.677106
 31
0.0
  0
LINE
  5
1b6
100
AcDbEntity
  8
base
 62
7
100
AcDbLine
 10
1.420771
 20
35.677106
 30
0.0
 11
1.460798
 21
35.674255
 31
0.0
  0
LINE
  5
1b7
100
AcDbEntity
  8
base
 62
7
100
AcDbLine
 10
1.460798
 20
35.674255
 30
0.0
 11
1.500478
 21
35.670643
 31
0.0
  0
LINE
  5
1b8
100
AcDbEntity
  8
base
 62
7
100
AcDbLine
 10
1.500478
 20
35.670643
 30
0.0
 11
1.529735
 21
35.664462
 31
0.0
  0
LINE
  5
1b9
100
AcDbEntity
  8
base
 62
7
100
AcDbLine
 10
1.529735
 20
35.664462
 30
0.0
 11
1.551525
 21
35.651311
 31
0.0
  0
LINE
  5
1ba
100
AcDbEntity
  8
base
 62
7
100
AcDbLine
 10
1.551525
 20
35.651311
 30
0.0
 11
1.564386
 21
35.629043
 31
0.0
  0
LINE
  5
1bb
100
AcDbEntity
  8
base
 62
7
100
AcDbLine
 10
1.564386
 20
35.629043
 30
0.0
 11
1.566870
 21
35.595552
 31
0.0
  0
LINE
  5
1bc
100
AcDbEntity
  8
base
 62
7
100
AcDbLine
 10
1.566870
 20
35.595552
 30
0.0
 11
1.564555
 21
35.548167
 31
0.0
  0
LINE
  5
1bd
100
AcDbEntity
  8
base
 62
7
100
AcDbLine
 10
1.564555
 20
35.548167
 30
0.0
 11
1.564386
 21
35.499865
 31
0.0
  0
LINE
  5
1be
100
AcDbEntity
  8
base
 62
7
100
AcDbLine
 10
1.564386
 20
35.499865
 30
0.0
 11
1.565176
 21
35.450005
 31
0.0
  0
LINE
  5
1bf
100
AcDbEntity
  8
base
 62
7
100
AcDbLine
 10
1.565176
 20
35.450005
 30
0.0
 11
1.565712
 21
35.397943
 31
0.0
  0
LINE
  5
1c0
100
AcDbEntity
  8
base
 62
7
100
AcDbLine
 10
1.565712
 20
35.397943
 30
0.0
 11
1.358617
 21
35.397943
 31
0.0
  0
LINE
  5
1c1
100
AcDbEntity
  8
base
 62
7
100
AcDbLine
 10
1.358617
 20
35.397943
 30
0.0
 11
1.151521
 21
35.397943
 31
0.0
  0
LINE
  5
1c2
100
AcDbEntity
  8
base
 62
7
100
AcDbLine
 10
1.151521
 20
35.397943
 30
0.0
 11
0.944425
 21
35.397943
 31
0.0
  0
LINE
  5
1c3
100
AcDbEntity
  8
base
 62
7
100
AcDbLine
 10
0.944425
 20
35.397943
 30
0.0
 11
0.737330
 21
35.397943
 31
0.0
  0
LINE
  5
1c4
100
AcDbEntity
  8
base
 62
7
100
AcDbLine
 10
0.737330
 20
35.397943
 30
0.0
 11
0.732930
 21
35.450905
 31
0.0
  0
LINE
  5
1c5
100
AcDbEntity
  8
base
 62
7
100
AcDbLine
 10
0.732930
 20
35.450905
 30
0.0
 11
0.728042
 21
35.505520
 31
0.0
  0
LINE
  5
1c6
100
AcDbEntity
  8
base
 62
7
100
AcDbLine
 10
0.728042
 20
35.505520
 30
0.0
 11
0.724096
 21
35.561237
 31
0.0
  0
LINE
  5
1c7
100
AcDbEntity
  8
base
 62
7
100
AcDbLine
 10
0.724096
 20
35.561237
 30
0.0
 11
0.722516
 21
35.617492
 31
0.0
  0
LINE
  5
1c8
100
AcDbEntity
  8
base
 62
7
100
AcDbLine
 10
0.722516
 20
35.617492
 30
0.0
 11
0.723334
 21
35.893985
 31
0.0
  0
LINE
  5
1c9
100
AcDbEntity
  8
base
 62
7
100
AcDbLine
 10
0.723334
 20
35.893985
 30
0.0
 11
0.724830
 21
36.170467
 31
0.0
  0
LINE
  5
1ca
100
AcDbEntity
  8
base
 62
7
100
AcDbLine
 10
0.724830
 20
36.170467
 30
0.0
 11
0.726805
 21
36.446949
 31
0.0
  0
LINE
  5
1cb
100
AcDbEntity
  8
base
 62
7
100
AcDbLine
 10
0.726805
 20
36.446949
 30
0.0
 11
0.729091
 21
36.723431
 31
0.0
  0
LINE
  5
1cc
100
AcDbEntity
  8
base
 62
7
100
AcDbLine
 10
0.729091
 20
36.723431
 30
0.0
 11
0.726439
 21
36.751690
 31
0.0
  0
LINE
  5
1cd
100
AcDbEntity
  8
base
 62
7
100
AcDbLine
 10
0.726439
 20
36.751690
 30
0.0
 11
0.717072
 21
36.773703
 31
0.0
  0
LINE
  5
1ce
100
AcDbEntity
  8
base
 62
7
100
AcDbLine
 10
0.717072
 20
36.773703
 30
0.0
 11
0.699670
 21
36.789028
 31
0.0
  0
LINE
  5
1cf
100
AcDbEntity
  8
base
 62
7
100
AcDbLine
 10
0.699670
 20
36.789028
 30
0.0
 11
0.672912
 21
36.797268
 31
0.0
  0
LINE
  5
1d0
100
AcDbEntity
  8
base
 62
7
100
AcDbLine
 10
0.672912
 20
36.797268
 30
0.0
 11
0.639288
 21
36.801332
 31
0.0
  0
LINE
  5
1d1
100
AcDbEntity
  8
base
 62
7
100
AcDbLine
 10
0.639288
 20
36.801332
 30
0.0
 11
0.605556
 21
36.804832
 31
0.0
  0
LINE
  5
1d2
100
AcDbEntity
  8
base
 62
7
100
AcDbLine
 10
0.605556
 20
36.804832
 30
0.0
 11
0.572002
 21
36.809037
 31
0.0
  0
LINE
  5
1d3
100
AcDbEntity
  8
base
 62
7
100
AcDbLine
 10
0.572002
 20
36.809037
 30
0.0
 11
0.538912
 21
36.815246
 31
0.0
  0
LINE
  5
1d4
100
AcDbEntity
  8
base
 62
7
100
AcDbLine
 10
0.538912
 20
36.815246
 30
0.0
 11
0.359588
 21
36.885855
 31
0.0
  0
LINE
  5
1d5
100
AcDbEntity
  8
base
 62
7
100
AcDbLine
 10
0.359588
 20
36.885855
 30
0.0
 11
0.222876
 21
36.998380
 31
0.0
  0
LINE
  5
1d6
100
AcDbEntity
  8
base
 62
7
100
AcDbLine
 10
0.222876
 20
36.998380
 30
0.0
 11
0.123782
 21
37.145330
 31
0.0
  0
LINE
  5
1d7
100
AcDbEntity
  8
base
 62
7
100
AcDbLine
 10
0.123782
 20
37.145330
 30
0.0
 11
0.057313
 21
37.319213
 31
0.0
  0
LINE
  5
1d8
100
AcDbEntity
  8
base
 62
7
100
AcDbLine
 10
0.057313
 20
37.319213
 30
0.0
 11
0.018375
 21
37.493954
 31
0.0
  0
LINE
  5
1d9
100
AcDbEntity
  8
base
 62
7
100
AcDbLine
 10
0.018375
 20
37.493954
 30
0.0
 11
0.000761
 21
37.670916
 31
0.0
  0
LINE
  5
1da
100
AcDbEntity
  8
base
 62
7
100
AcDbLine
 10
0.000761
 20
37.670916
 30
0.0
 11
0.007631
 21
37.848992
 31
0.0
  0
LINE
  5
1db
100
AcDbEntity
  8
base
 62
7
100
AcDbLine
 10
0.007631
 20
37.848992
 30
0.0
 11
0.042138
 21
38.027083
 31
0.0
  0
LINE
  5
1dc
100
AcDbEntity
  8
base
 62
7
100
AcDbLine
 10
0.042138
 20
38.027083
 30
0.0
 11
0.101658
 21
38.196628
 31
0.0
  0
LINE
  5
1dd
100
AcDbEntity
  8
base
 62
7
100
AcDbLine
 10
0.101658
 20
38.196628
 30
0.0
 11
0.184729
 21
38.351356
 31
0.0
  0
LINE
  5
1de
100
AcDbEntity
  8
base
 62
7
100
AcDbLine
 10
0.184729
 20
38.351356
 30
0.0
 11
0.294030
 21
38.485575
 31
0.0
  0
LINE
  5
1df
100
AcDbEntity
  8
base
 62
7
100
AcDbLine
 10
0.294030
 20
38.485575
 30
0.0
 11
0.432239
 21
38.593590
 31
0.0
  0
LINE
  5
1e0
100
AcDbEntity
  8
base
 62
7
100
AcDbLine
 10
0.432239
 20
38.593590
 30
0.0
 11
0.548011
 21
38.651150
 31
0.0
  0
LINE
  5
1e1
100
AcDbEntity
  8
base
 62
7
100
AcDbLine
 10
0.548011
 20
38.651150
 30
0.0
 11
0.672723
 21
38.694347
 31
0.0
  0
LINE
  5
1e2
100
AcDbEntity
  8
base
 62
7
100
AcDbLine
 10
0.672723
 20
38.694347
 30
0.0
 11
0.801963
 21
38.728597
 31
0.0
  0
LINE
  5
1e3
100
AcDbEntity
  8
base
 62
7
100
AcDbLine
 10
0.801963
 20
38.728597
 30
0.0
 11
0.931319
 21
38.759317
 31
0.0
  0
LINE
  5
1e4
100
AcDbEntity
  8
base
 62
7
100
AcDbLine
 10
0.931319
 20
38.759317
 30
0.0
 11
1.045513
 21
38.779242
 31
0.0
  0
LINE
  5
1e5
100
AcDbEntity
  8
base
 62
7
100
AcDbLine
 10
1.045513
 20
38.779242
 30
0.0
 11
1.161149
 21
38.784463
 31
0.0
  0
LINE
  5
1e6
100
AcDbEntity
  8
base
 62
7
100
AcDbLine
 10
1.161149
 20
38.784463
 30
0.0
 11
1.276552
 21
38.774557
 31
0.0
  0
LINE
  5
1e7
100
AcDbEntity
  8
base
 62
7
100
AcDbLine
 10
1.276552
 20
38.774557
 30
0.0
 11
1.390048
 21
38.749129
 31
0.0
  0
LINE
  5
1e8
100
AcDbEntity
  8
base
 62
7
100
AcDbLine
 10
1.390048
 20
38.749129
 30
0.0
 11
1.512013
 21
38.706863
 31
0.0
  0
LINE
  5
1e9
100
AcDbEntity
  8
base
 62
7
100
AcDbLine
 10
1.512013
 20
38.706863
 30
0.0
 11
1.628713
 21
38.653001
 31
0.0
  0
LINE
  5
1ea
100
AcDbEntity
  8
base
 62
7
100
AcDbLine
 10
1.628713
 20
38.653001
 30
0.0
 11
1.738767
 21
38.586055
 31
0.0
  0
LINE
  5
1eb
100
AcDbEntity
  8
base
 62
7
100
AcDbLine
 10
1.738767
 20
38.586055
 30
0.0
 11
1.840792
 21
38.504541
 31
0.0
  0
LINE
  5
1ec
100
AcDbEntity
  8
base
 62
7
100
AcDbLine
 10
1.840792
 20
38.504541
 30
0.0
 11
1.888444
 21
38.463167
 31
0.0
  0
LINE
  5
1ed
100
AcDbEntity
  8
base
 62
7
100
AcDbLine
 10
1.888444
 20
38.463167
 30
0.0
 11
1.937077
 21
38.422764
 31
0.0
  0
LINE
  5
1ee
100
AcDbEntity
  8
base
 62
7
100
AcDbLine
 10
1.937077
 20
38.422764
 30
0.0
 11
1.984577
 21
38.381373
 31
0.0
  0
LINE
  5
1ef
100
AcDbEntity
  8
base
 62
7
100
AcDbLine
 10
1.984577
 20
38.381373
 30
0.0
 11
2.028827
 21
38.337031
 31
0.0
  0
LINE
  5
1f0
100
AcDbEntity
  8
base
 62
7
100
AcDbLine
 10
2.028827
 20
38.337031
 30
0.0
 11
2.081020
 21
38.263165
 31
0.0
  0
LINE
  5
1f1
100
AcDbEntity
  8
base
 62
7
100
AcDbLine
 10
2.081020
 20
38.263165
 30
0.0
 11
2.116032
 21
38.181529
 31
0.0
  0
LINE
  5
1f2
100
AcDbEntity
  8
base
 62
7
100
AcDbLine
 10
2.116032
 20
38.181529
 30
0.0
 11
2.138237
 21
38.095073
 31
0.0
  0
LINE
  5
1f3
100
AcDbEntity
  8
base
 62
7
100
AcDbLine
 10
2.138237
 20
38.095073
 30
0.0
 11
2.152012
 21
38.006740
 31
0.0
  0
LINE
  5
1f4
100
AcDbEntity
  8
base
 62
7
100
AcDbLine
 10
2.152012
 20
38.006740
 30
0.0
 11
2.164410
 21
37.899617
 31
0.0
  0
LINE
  5
1f5
100
AcDbEntity
  8
base
 62
7
100
AcDbLine
 10
2.164410
 20
37.899617
 30
0.0
 11
2.173656
 21
37.791949
 31
0.0
  0
LINE
  5
1f6
100
AcDbEntity
  8
base
 62
7
100
AcDbLine
 10
2.173656
 20
37.791949
 30
0.0
 11
2.177762
 21
37.684290
 31
0.0
  0
LINE
  5
1f7
100
AcDbEntity
  8
base
 62
7
100
AcDbLine
 10
2.177762
 20
37.684290
 30
0.0
 11
2.174745
 21
37.577198
 31
0.0
  0
LINE
  5
1f8
100
AcDbEntity
  8
base
 62
7
100
AcDbLine
 10
2.174745
 20
37.577198
 30
0.0
 11
2.164230
 21
37.509089
 31
0.0
  0
LINE
  5
1f9
100
AcDbEntity
  8
base
 62
7
100
AcDbLine
 10
2.164230
 20
37.509089
 30
0.0
 11
2.143469
 21
37.441158
 31
0.0
  0
LINE
  5
1fa
100
AcDbEntity
  8
base
 62
7
100
AcDbLine
 10
2.143469
 20
37.441158
 30
0.0
 11
2.114851
 21
37.375401
 31
0.0
  0
LINE
  5
1fb
100
AcDbEntity
  8
base
 62
7
100
AcDbLine
 10
2.114851
 20
37.375401
 30
0.0
 11
2.080767
 21
37.313811
 31
0.0
  0
LINE
  5
1fc
100
AcDbEntity
  8
base
 62
7
100
AcDbLine
 10
2.080767
 20
37.313811
 30
0.0
 11
2.019448
 21
37.220085
 31
0.0
  0
LINE
  5
1fd
100
AcDbEntity
  8
base
 62
7
100
AcDbLine
 10
2.019448
 20
37.220085
 30
0.0
 11
1.953557
 21
37.129151
 31
0.0
  0
LINE
  5
1fe
100
AcDbEntity
  8
base
 62
7
100
AcDbLine
 10
1.953557
 20
37.129151
 30
0.0
 11
1.884929
 21
37.040011
 31
0.0
  0
LINE
  5
1ff
100
AcDbEntity
  8
base
 62
7
100
AcDbLine
 10
1.884929
 20
37.040011
 30
0.0
 11
1.815402
 21
36.951658
 31
0.0
  0
LINE
  5
200
100
AcDbEntity
  8
base
 62
7
100
AcDbLine
 10
1.815402
 20
36.951658
 30
0.0
 11
1.796612
 21
36.934160
 31
0.0
  0
LINE
  5
201
100
AcDbEntity
  8
base
 62
7
100
AcDbLine
 10
1.796612
 20
36.934160
 30
0.0
 11
1.773213
 21
36.920303
 31
0.0
  0
LINE
  5
202
100
AcDbEntity
  8
base
 62
7
100
AcDbLine
 10
1.773213
 20
36.920303
 30
0.0
 11
1.747736
 21
36.908168
 31
0.0
  0
LINE
  5
203
100
AcDbEntity
  8
base
 62
7
100
AcDbLine
 10
1.747736
 20
36.908168
 30
0.0
 11
1.722720
 21
36.895919
 31
0.0
  0
LINE
  5
204
100
AcDbEntity
  8
base
 62
7
100
AcDbLine
 10
1.722720
 20
36.895919
 30
0.0
 11
1.709713
 21
36.890529
 31
0.0
  0
LINE
  5
205
100
AcDbEntity
  8
base
 62
7
100
AcDbLine
 10
1.709713
 20
36.890529
 30
0.0
 11
1.695935
 21
36.886267
 31
0.0
  0
LINE
  5
206
100
AcDbEntity
  8
base
 62
7
100
AcDbLine
 10
1.695935
 20
36.886267
 30
0.0
 11
1.682969
 21
36.881357
 31
0.0
  0
LINE
  5
207
100
AcDbEntity
  8
base
 62
7
100
AcDbLine
 10
1.682969
 20
36.881357
 30
0.0
 11
1.672403
 21
36.874047
 31
0.0
  0
LINE
  5
208
100
AcDbEntity
  8
base
 62
7
100
AcDbLine
 10
1.672403
 20
36.874047
 30
0.0
 11
1.597475
 21
36.817701
 31
0.0
  0
LINE
  5
209
100
AcDbEntity
  8
base
 62
7
100
AcDbLine
 10
1.597475
 20
36.817701
 30
0.0
 11
1.514458
 21
36.786172
 31
0.0
  0
LINE
  5
20a
100
AcDbEntity
  8
base
 62
7
100
AcDbLine
 10
1.514458
 20
36.786172
 30
0.0
 11
1.426295
 21
36.770311
 31
0.0
  0
LINE
  5
20b
100
AcDbEntity
  8
base
 62
7
100
AcDbLine
 10
1.426295
 20
36.770311
 30
0.0
 11
1.335929
 21
36.760969
 31
0.0
  0
LINE
  5
20c
100
AcDbEntity
  8
base
 62
7
100
AcDbLine
 10
1.335929
 20
36.760969
 30
0.0
 11
1.330104
 21
36.760122
 31
0.0
  0
LINE
  5
20d
100
AcDbEntity
  8
base
 62
7
100
AcDbLine
 10
1.330104
 20
36.760122
 30
0.0
 11
1.325061
 21
36.759276
 31
0.0
  0
LINE
  5
20e
100
AcDbEntity
  8
base
 62
7
100
AcDbLine
 10
1.325061
 20
36.759276
 30
0.0
 11
1.321564
 21
36.758711
 31
0.0
  0
LINE
  5
20f
100
AcDbEntity
  8
base
 62
7
100
AcDbLine
 10
1.321564
 20
36.758711
 30
0.0
 11
1.320379
 21
36.758596
 31
0.0
  0
LINE
  5
210
100
AcDbEntity
  8
base
 62
7
100
AcDbLine
 10
1.320379
 20
36.758596
 30
0.0
 11
1.320375
 21
36.758539
 31
0.0
  0
LINE
  5
211
100
AcDbEntity
  8
base
 62
7
100
AcDbLine
 10
1.320375
 20
36.758539
 30
0.0
 11
1.320370
 21
36.758480
 31
0.0
  0
LINE
  5
212
100
AcDbEntity
  8
base
 62
7
100
AcDbLine
 10
1.320370
 20
36.758480
 30
0.0
 11
1.320366
 21
36.758423
 31
0.0
  0
LINE
  5
213
100
AcDbEntity
  8
base
 62
7
100
AcDbLine
 10
1.320366
 20
36.758423
 30
0.0
 11
1.320337
 21
36.758545
 31
0.0
  0
LINE
  5
214
100
AcDbEntity
  8
base
 62
7
100
AcDbLine
 10
0.482303
 20
37.737170
 30
0.0
 11
0.482164
 21
37.716653
 31
0.0
  0
LINE
  5
215
100
AcDbEntity
  8
base
 62
7
100
AcDbLine
 10
0.482164
 20
37.716653
 30
0.0
 11
0.481956
 21
37.697857
 31
0.0
  0
LINE
  5
216
100
AcDbEntity
  8
base
 62
7
100
AcDbLine
 10
0.481956
 20
37.697857
 30
0.0
 11
0.481989
 21
37.680218
 31
0.0
  0
LINE
  5
217
100
AcDbEntity
  8
base
 62
7
100
AcDbLine
 10
0.481989
 20
37.680218
 30
0.0
 11
0.482582
 21
37.663171
 31
0.0
  0
LINE
  5
218
100
AcDbEntity
  8
base
 62
7
100
AcDbLine
 10
0.482582
 20
37.663171
 30
0.0
 11
0.483400
 21
37.646182
 31
0.0
  0
LINE
  5
219
100
AcDbEntity
  8
base
 62
7
100
AcDbLine
 10
0.483400
 20
37.646182
 30
0.0
 11
0.484501
 21
37.629107
 31
0.0
  0
LINE
  5
21a
100
AcDbEntity
  8
base
 62
7
100
AcDbLine
 10
0.484501
 20
37.629107
 30
0.0
 11
0.486617
 21
37.612315
 31
0.0
  0
LINE
  5
21b
100
AcDbEntity
  8
base
 62
7
100
AcDbLine
 10
0.486617
 20
37.612315
 30
0.0
 11
0.490498
 21
37.596115
 31
0.0
  0
LINE
  5
21c
100
AcDbEntity
  8
base
 62
7
100
AcDbLine
 10
0.490498
 20
37.596115
 30
0.0
 11
0.562067
 21
37.422072
 31
0.0
  0
LINE
  5
21d
100
AcDbEntity
  8
base
 62
7
100
AcDbLine
 10
0.562067
 20
37.422072
 30
0.0
 11
0.662456
 21
37.274653
 31
0.0
  0
LINE
  5
21e
100
AcDbEntity
  8
base
 62
7
100
AcDbLine
 10
0.662456
 20
37.274653
 30
0.0
 11
0.796888
 21
37.159007
 31
0.0
  0
LINE
  5
21f
100
AcDbEntity
  8
base
 62
7
100
AcDbLine
 10
0.796888
 20
37.159007
 30
0.0
 11
0.970585
 21
37.080289
 31
0.0
  0
LINE
  5
220
100
AcDbEntity
  8
base
 62
7
100
AcDbLine
 10
0.970585
 20
37.080289
 30
0.0
 11
1.072803
 21
37.059179
 31
0.0
  0
LINE
  5
221
100
AcDbEntity
  8
base
 62
7
100
AcDbLine
 10
1.072803
 20
37.059179
 30
0.0
 11
1.173630
 21
37.057768
 31
0.0
  0
LINE
  5
222
100
AcDbEntity
  8
base
 62
7
100
AcDbLine
 10
1.173630
 20
37.057768
 30
0.0
 11
1.272887
 21
37.076282
 31
0.0
  0
LINE
  5
223
100
AcDbEntity
  8
base
 62
7
100
AcDbLine
 10
1.272887
 20
37.076282
 30
0.0
 11
1.370396
 21
37.114898
 31
0.0
  0
LINE
  5
224
100
AcDbEntity
  8
base
 62
7
100
AcDbLine
 10
1.370396
 20
37.114898
 30
0.0
 11
1.430547
 21
37.152270
 31
0.0
  0
LINE
  5
225
100
AcDbEntity
  8
base
 62
7
100
AcDbLine
 10
1.430547
 20
37.152270
 30
0.0
 11
1.481161
 21
37.198103
 31
0.0
  0
LINE
  5
226
100
AcDbEntity
  8
base
 62
7
100
AcDbLine
 10
1.481161
 20
37.198103
 30
0.0
 11
1.524103
 21
37.252225
 31
0.0
  0
LINE
  5
227
100
AcDbEntity
  8
base
 62
7
100
AcDbLine
 10
1.524103
 20
37.252225
 30
0.0
 11
1.561241
 21
37.314466
 31
0.0
  0
LINE
  5
228
100
AcDbEntity
  8
base
 62
7
100
AcDbLine
 10
1.561241
 20
37.314466
 30
0.0
 11
1.598639
 21
37.394806
 31
0.0
  0
LINE
  5
229
100
AcDbEntity
  8
base
 62
7
100
AcDbLine
 10
1.598639
 20
37.394806
 30
0.0
 11
1.626942
 21
37.476552
 31
0.0
  0
LINE
  5
22a
100
AcDbEntity
  8
base
 62
7
100
AcDbLine
 10
1.626942
 20
37.476552
 30
0.0
 11
1.646466
 21
37.560459
 31
0.0
  0
LINE
  5
22b
100
AcDbEntity
  8
base
 62
7
100
AcDbLine
 10
1.646466
 20
37.560459
 30
0.0
 11
1.657526
 21
37.647274
 31
0.0
  0
LINE
  5
22c
100
AcDbEntity
  8
base
 62
7
100
AcDbLine
 10
1.657526
 20
37.647274
 30
0.0
 11
1.650460
 21
37.782811
 31
0.0
  0
LINE
  5
22d
100
AcDbEntity
  8
base
 62
7
100
AcDbLine
 10
1.650460
 20
37.782811
 30
0.0
 11
1.616259
 21
37.910974
 31
0.0
  0
LINE
  5
22e
100
AcDbEntity
  8
base
 62
7
100
AcDbLine
 10
1.616259
 20
37.910974
 30
0.0
 11
1.568431
 21
38.035369
 31
0.0
  0
LINE
  5
22f
100
AcDbEntity
  8
base
 62
7
100
AcDbLine
 10
1.568431
 20
38.035369
 30
0.0
 11
1.520483
 21
38.159612
 31
0.0
  0
LINE
  5
230
100
AcDbEntity
  8
base
 62
7
100
AcDbLine
 10
1.520483
 20
38.159612
 30
0.0
 11
1.506934
 21
38.189471
 31
0.0
  0
LINE
  5
231
100
AcDbEntity
  8
base
 62
7
100
AcDbLine
 10
1.506934
 20
38.189471
 30
0.0
 11
1.488454
 21
38.217888
 31
0.0
  0
LINE
  5
232
100
AcDbEntity
  8
base
 62
7
100
AcDbLine
 10
1.488454
 20
38.217888
 30
0.0
 11
1.466644
 21
38.244388
 31
0.0
  0
LINE
  5
233
100
AcDbEntity
  8
base
 62
7
100
AcDbLine
 10
1.466644
 20
38.244388
 30
0.0
 11
1.443098
 21
38.268518
 31
0.0
  0
LINE
  5
234
100
AcDbEntity
  8
base
 62
7
100
AcDbLine
 10
1.443098
 20
38.268518
 30
0.0
 11
1.316538
 21
38.358062
 31
0.0
  0
LINE
  5
235
100
AcDbEntity
  8
base
 62
7
100
AcDbLine
 10
1.316538
 20
38.358062
 30
0.0
 11
1.178031
 21
38.406322
 31
0.0
  0
LINE
  5
236
100
AcDbEntity
  8
base
 62
7
100
AcDbLine
 10
1.178031
 20
38.406322
 30
0.0
 11
1.031105
 21
38.424892
 31
0.0
  0
LINE
  5
237
100
AcDbEntity
  8
base
 62
7
100
AcDbLine
 10
1.031105
 20
38.424892
 30
0.0
 11
0.879285
 21
38.425456
 31
0.0
  0
LINE
  5
238
100
AcDbEntity
  8
base
 62
7
100
AcDbLine
 10
0.879285
 20
38.425456
 30
0.0
 11
0.869418
 21
38.423763
 31
0.0
  0
LINE
  5
239
100
AcDbEntity
  8
base
 62
7
100
AcDbLine
 10
0.869418
 20
38.423763
 30
0.0
 11
0.859459
 21
38.419332
 31
0.0
  0
LINE
  5
23a
100
AcDbEntity
  8
base
 62
7
100
AcDbLine
 10
0.859459
 20
38.419332
 30
0.0
 11
0.850052
 21
38.413180
 31
0.0
  0
LINE
  5
23b
100
AcDbEntity
  8
base
 62
7
100
AcDbLine
 10
0.850052
 20
38.413180
 30
0.0
 11
0.841842
 21
38.406209
 31
0.0
  0
LINE
  5
23c
100
AcDbEntity
  8
base
 62
7
100
AcDbLine
 10
0.841842
 20
38.406209
 30
0.0
 11
0.814235
 21
38.379793
 31
0.0
  0
LINE
  5
23d
100
AcDbEntity
  8
base
 62
7
100
AcDbLine
 10
0.814235
 20
38.379793
 30
0.0
 11
0.786860
 21
38.353095
 31
0.0
  0
LINE
  5
23e
100
AcDbEntity
  8
base
 62
7
100
AcDbLine
 10
0.786860
 20
38.353095
 30
0.0
 11
0.760243
 21
38.325719
 31
0.0
  0
LINE
  5
23f
100
AcDbEntity
  8
base
 62
7
100
AcDbLine
 10
0.760243
 20
38.325719
 30
0.0
 11
0.734917
 21
38.297282
 31
0.0
  0
LINE
  5
240
100
AcDbEntity
  8
base
 62
7
100
AcDbLine
 10
0.734917
 20
38.297282
 30
0.0
 11
0.686649
 21
38.242622
 31
0.0
  0
LINE
  5
241
100
AcDbEntity
  8
base
 62
7
100
AcDbLine
 10
0.686649
 20
38.242622
 30
0.0
 11
0.637995
 21
38.187871
 31
0.0
  0
LINE
  5
242
100
AcDbEntity
  8
base
 62
7
100
AcDbLine
 10
0.637995
 20
38.187871
 30
0.0
 11
0.593545
 21
38.131028
 31
0.0
  0
LINE
  5
243
100
AcDbEntity
  8
base
 62
7
100
AcDbLine
 10
0.593545
 20
38.131028
 30
0.0
 11
0.557891
 21
38.070099
 31
0.0
  0
LINE
  5
244
100
AcDbEntity
  8
base
 62
7
100
AcDbLine
 10
0.557891
 20
38.070099
 30
0.0
 11
0.523476
 21
37.990552
 31
0.0
  0
LINE
  5
245
100
AcDbEntity
  8
base
 62
7
100
AcDbLine
 10
0.523476
 20
37.990552
 30
0.0
 11
0.496219
 21
37.908160
 31
0.0
  0
LINE
  5
246
100
AcDbEntity
  8
base
 62
7
100
AcDbLine
 10
0.496219
 20
37.908160
 30
0.0
 11
0.480906
 21
37.823558
 31
0.0
  0
LINE
  5
247
100
AcDbEntity
  8
base
 62
7
100
AcDbLine
 10
0.480906
 20
37.823558
 30
0.0
 11
0.482317
 21
37.737385
 31
0.0
  0
LINE
  5
248
100
AcDbEntity
  8
base
 62
7
100
AcDbLine
 10
0.482317
 20
37.737385
 30
0.0
 11
0.482316
 21
37.737385
 31
0.0
  0
LINE
  5
249
100
AcDbEntity
  8
base
 62
7
100
AcDbLine
 10
0.482316
 20
37.737385
 30
0.0
 11
0.482316
 21
37.737387
 31
0.0
  0
LINE
  5
24a
100
AcDbEntity
  8
base
 62
7
100
AcDbLine
 10
0.482316
 20
37.737387
 30
0.0
 11
0.482316
 21
37.737390
 31
0.0
  0
LINE
  5
24b
100
AcDbEntity
  8
base
 62
7
100
AcDbLine
 10
0.482316
 20
37.737390
 30
0.0
 11
0.482303
 21
37.737170
 31
0.0
  0
LINE
  5
24c
100
AcDbEntity
  8
detalhe
 62
7
100
AcDbLine
 10
5.734530
 20
38.483044
 30
0.0
 11
5.734671
 21
38.483044
 31
0.0
  0
LINE
  5
24d
100
AcDbEntity
  8
detalhe
 62
7
100
AcDbLine
 10
5.734671
 20
38.483044
 30
0.0
 11
5.734812
 21
38.483044
 31
0.0
  0
LINE
  5
24e
100
AcDbEntity
  8
detalhe
 62
7
100
AcDbLine
 10
5.734812
 20
38.483044
 30
0.0
 11
5.734953
 21
38.483044
 31
0.0
  0
LINE
  5
24f
100
AcDbEntity
  8
detalhe
 62
7
100
AcDbLine
 10
5.734953
 20
38.483044
 30
0.0
 11
5.735095
 21
38.483044
 31
0.0
  0
LINE
  5
250
100
AcDbEntity
  8
detalhe
 62
7
100
AcDbLine
 10
5.735095
 20
38.483044
 30
0.0
 11
6.019363
 21
38.483608
 31
0.0
  0
LINE
  5
251
100
AcDbEntity
  8
detalhe
 62
7
100
AcDbLine
 10
6.019363
 20
38.483608
 30
0.0
 11
6.303501
 21
38.483766
 31
0.0
  0
LINE
  5
252
100
AcDbEntity
  8
detalhe
 62
7
100
AcDbLine
 10
6.303501
 20
38.483766
 30
0.0
 11
6.587588
 21
38.483608
 31
0.0
  0
LINE
  5
253
100
AcDbEntity
  8
detalhe
 62
7
100
AcDbLine
 10
6.587588
 20
38.483608
 30
0.0
 11
6.871700
 21
38.483044
 31
0.0
  0
LINE
  5
254
100
AcDbEntity
  8
detalhe
 62
7
100
AcDbLine
 10
6.871700
 20
38.483044
 30
0.0
 11
6.871842
 21
38.483044
 31
0.0
  0
LINE
  5
255
100
AcDbEntity
  8
detalhe
 62
7
100
AcDbLine
 10
6.871842
 20
38.483044
 30
0.0
 11
6.871983
 21
38.483044
 31
0.0
  0
LINE
  5
256
100
AcDbEntity
  8
detalhe
 62
7
100
AcDbLine
 10
6.871983
 20
38.483044
 30
0.0
 11
6.872124
 21
38.483044
 31
0.0
  0
LINE
  5
257
100
AcDbEntity
  8
detalhe
 62
7
100
AcDbLine
 10
6.872124
 20
38.483044
 30
0.0
 11
6.872265
 21
38.483044
 31
0.0
  0
LINE
  5
258
100
AcDbEntity
  8
detalhe
 62
7
100
AcDbLine
 10
6.872265
 20
38.483044
 30
0.0
 11
6.839475
 21
38.482479
 31
0.0
  0
LINE
  5
259
100
AcDbEntity
  8
detalhe
 62
7
100
AcDbLine
 10
6.839475
 20
38.482479
 30
0.0
 11
6.835987
 21
38.480504
 31
0.0
  0
LINE
  5
25a
100
AcDbEntity
  8
detalhe
 62
7
100
AcDbLine
 10
6.835987
 20
38.480504
 30
0.0
 11
6.861387
 21
38.476779
 31
0.0
  0
LINE
  5
25b
100
AcDbEntity
  8
detalhe
 62
7
100
AcDbLine
 10
6.861387
 20
38.476779
 30
0.0
 11
6.915261
 21
38.470824
 31
0.0
  0
LINE
  5
25c
100
AcDbEntity
  8
detalhe
 62
7
100
AcDbLine
 10
6.915261
 20
38.470824
 30
0.0
 11
6.915402
 21
38.470824
 31
0.0
  0
LINE
  5
25d
100
AcDbEntity
  8
detalhe
 62
7
100
AcDbLine
 10
6.915402
 20
38.470824
 30
0.0
 11
6.915543
 21
38.470824
 31
0.0
  0
LINE
  5
25e
100
AcDbEntity
  8
detalhe
 62
7
100
AcDbLine
 10
6.915543
 20
38.470824
 30
0.0
 11
6.915684
 21
38.470824
 31
0.0
  0
LINE
  5
25f
100
AcDbEntity
  8
detalhe
 62
7
100
AcDbLine
 10
6.915684
 20
38.470824
 30
0.0
 11
6.915825
 21
38.470824
 31
0.0
  0
LINE
  5
260
100
AcDbEntity
  8
detalhe
 62
7
100
AcDbLine
 10
6.915825
 20
38.470824
 30
0.0
 11
6.948500
 21
38.461595
 31
0.0
  0
LINE
  5
261
100
AcDbEntity
  8
detalhe
 62
7
100
AcDbLine
 10
6.948500
 20
38.461595
 30
0.0
 11
7.011121
 21
38.447456
 31
0.0
  0
LINE
  5
262
100
AcDbEntity
  8
detalhe
 62
7
100
AcDbLine
 10
7.011121
 20
38.447456
 30
0.0
 11
7.104092
 21
38.442912
 31
0.0
  0
LINE
  5
263
100
AcDbEntity
  8
detalhe
 62
7
100
AcDbLine
 10
7.104092
 20
38.442912
 30
0.0
 11
7.227813
 21
38.462526
 31
0.0
  0
LINE
  5
264
100
AcDbEntity
  8
detalhe
 62
7
100
AcDbLine
 10
7.227813
 20
38.462526
 30
0.0
 11
7.227954
 21
38.462667
 31
0.0
  0
LINE
  5
265
100
AcDbEntity
  8
detalhe
 62
7
100
AcDbLine
 10
7.227954
 20
38.462667
 30
0.0
 11
7.228095
 21
38.462809
 31
0.0
  0
LINE
  5
266
100
AcDbEntity
  8
detalhe
 62
7
100
AcDbLine
 10
7.228095
 20
38.462809
 30
0.0
 11
7.228237
 21
38.462950
 31
0.0
  0
LINE
  5
267
100
AcDbEntity
  8
detalhe
 62
7
100
AcDbLine
 10
7.228237
 20
38.462950
 30
0.0
 11
7.228378
 21
38.463091
 31
0.0
  0
LINE
  5
268
100
AcDbEntity
  8
detalhe
 62
7
100
AcDbLine
 10
7.228378
 20
38.463091
 30
0.0
 11
7.254184
 21
38.468594
 31
0.0
  0
LINE
  5
269
100
AcDbEntity
  8
detalhe
 62
7
100
AcDbLine
 10
7.254184
 20
38.468594
 30
0.0
 11
7.274871
 21
38.464361
 31
0.0
  0
LINE
  5
26a
100
AcDbEntity
  8
detalhe
 62
7
100
AcDbLine
 10
7.274871
 20
38.464361
 30
0.0
 11
7.304695
 21
38.445424
 31
0.0
  0
LINE
  5
26b
100
AcDbEntity
  8
detalhe
 62
7
100
AcDbLine
 10
7.304695
 20
38.445424
 30
0.0
 11
7.357913
 21
38.406866
 31
0.0
  0
LINE
  5
26c
100
AcDbEntity
  8
detalhe
 62
7
100
AcDbLine
 10
7.357913
 20
38.406866
 30
0.0
 11
7.351151
 21
38.415136
 31
0.0
  0
LINE
  5
26d
100
AcDbEntity
  8
detalhe
 62
7
100
AcDbLine
 10
7.351151
 20
38.415136
 30
0.0
 11
7.345851
 21
38.421486
 31
0.0
  0
LINE
  5
26e
100
AcDbEntity
  8
detalhe
 62
7
100
AcDbLine
 10
7.345851
 20
38.421486
 30
0.0
 11
7.345756
 21
38.411721
 31
0.0
  0
LINE
  5
26f
100
AcDbEntity
  8
detalhe
 62
7
100
AcDbLine
 10
7.345756
 20
38.411721
 30
0.0
 11
7.354604
 21
38.371580
 31
0.0
  0
LINE
  5
270
100
AcDbEntity
  8
detalhe
 62
7
100
AcDbLine
 10
7.354604
 20
38.371580
 30
0.0
 11
7.353362
 21
38.321379
 31
0.0
  0
LINE
  5
271
100
AcDbEntity
  8
detalhe
 62
7
100
AcDbLine
 10
7.353362
 20
38.321379
 30
0.0
 11
7.339575
 21
38.240327
 31
0.0
  0
LINE
  5
272
100
AcDbEntity
  8
detalhe
 62
7
100
AcDbLine
 10
7.339575
 20
38.240327
 30
0.0
 11
7.325176
 21
38.121687
 31
0.0
  0
LINE
  5
273
100
AcDbEntity
  8
detalhe
 62
7
100
AcDbLine
 10
7.325176
 20
38.121687
 30
0.0
 11
7.322086
 21
37.958720
 31
0.0
  0
LINE
  5
274
100
AcDbEntity
  8
detalhe
 62
7
100
AcDbLine
 10
7.322086
 20
37.958720
 30
0.0
 11
7.327485
 21
37.709970
 31
0.0
  0
LINE
  5
275
100
AcDbEntity
  8
detalhe
 62
7
100
AcDbLine
 10
7.327485
 20
37.709970
 30
0.0
 11
7.328078
 21
37.458069
 31
0.0
  0
LINE
  5
276
100
AcDbEntity
  8
detalhe
 62
7
100
AcDbLine
 10
7.328078
 20
37.458069
 30
0.0
 11
7.326497
 21
37.203076
 31
0.0
  0
LINE
  5
277
100
AcDbEntity
  8
detalhe
 62
7
100
AcDbLine
 10
7.326497
 20
37.203076
 30
0.0
 11
7.325396
 21
36.945037
 31
0.0
  0
LINE
  5
278
100
AcDbEntity
  8
detalhe
 62
7
100
AcDbLine
 10
7.325396
 20
36.945037
 30
0.0
 11
7.325396
 21
36.872828
 31
0.0
  0
LINE
  5
279
100
AcDbEntity
  8
detalhe
 62
7
100
AcDbLine
 10
7.325396
 20
36.872828
 30
0.0
 11
7.325396
 21
36.800618
 31
0.0
  0
LINE
  5
27a
100
AcDbEntity
  8
detalhe
 62
7
100
AcDbLine
 10
7.325396
 20
36.800618
 30
0.0
 11
7.325396
 21
36.728409
 31
0.0
  0
LINE
  5
27b
100
AcDbEntity
  8
detalhe
 62
7
100
AcDbLine
 10
7.325396
 20
36.728409
 30
0.0
 11
7.325396
 21
36.656200
 31
0.0
  0
LINE
  5
27c
100
AcDbEntity
  8
detalhe
 62
7
100
AcDbLine
 10
7.325396
 20
36.656200
 30
0.0
 11
7.330770
 21
36.656200
 31
0.0
  0
LINE
  5
27d
100
AcDbEntity
  8
detalhe
 62
7
100
AcDbLine
 10
7.330770
 20
36.656200
 30
0.0
 11
7.336143
 21
36.656200
 31
0.0
  0
LINE
  5
27e
100
AcDbEntity
  8
detalhe
 62
7
100
AcDbLine
 10
7.336143
 20
36.656200
 30
0.0
 11
7.341517
 21
36.656200
 31
0.0
  0
LINE
  5
27f
100
AcDbEntity
  8
detalhe
 62
7
100
AcDbLine
 10
7.341517
 20
36.656200
 30
0.0
 11
7.346890
 21
36.656200
 31
0.0
  0
LINE
  5
280
100
AcDbEntity
  8
detalhe
 62
7
100
AcDbLine
 10
7.346890
 20
36.656200
 30
0.0
 11
7.346016
 21
36.449430
 31
0.0
  0
LINE
  5
281
100
AcDbEntity
  8
detalhe
 62
7
100
AcDbLine
 10
7.346016
 20
36.449430
 30
0.0
 11
7.345423
 21
36.242259
 31
0.0
  0
LINE
  5
282
100
AcDbEntity
  8
detalhe
 62
7
100
AcDbLine
 10
7.345423
 20
36.242259
 30
0.0
 11
7.345987
 21
36.034250
 31
0.0
  0
LINE
  5
283
100
AcDbEntity
  8
detalhe
 62
7
100
AcDbLine
 10
7.345987
 20
36.034250
 30
0.0
 11
7.348556
 21
35.824968
 31
0.0
  0
LINE
  5
284
100
AcDbEntity
  8
detalhe
 62
7
100
AcDbLine
 10
7.348556
 20
35.824968
 30
0.0
 11
7.344054
 21
35.801176
 31
0.0
  0
LINE
  5
285
100
AcDbEntity
  8
detalhe
 62
7
100
AcDbLine
 10
7.344054
 20
35.801176
 30
0.0
 11
7.325619
 21
35.765120
 31
0.0
  0
LINE
  5
286
100
AcDbEntity
  8
detalhe
 62
7
100
AcDbLine
 10
7.325619
 20
35.765120
 30
0.0
 11
7.286683
 21
35.723159
 31
0.0
  0
LINE
  5
287
100
AcDbEntity
  8
detalhe
 62
7
100
AcDbLine
 10
7.286683
 20
35.723159
 30
0.0
 11
7.220673
 21
35.681650
 31
0.0
  0
LINE
  5
288
100
AcDbEntity
  8
detalhe
 62
7
100
AcDbLine
 10
7.220673
 20
35.681650
 30
0.0
 11
7.196046
 21
35.676429
 31
0.0
  0
LINE
  5
289
100
AcDbEntity
  8
detalhe
 62
7
100
AcDbLine
 10
7.196046
 20
35.676429
 30
0.0
 11
7.155405
 21
35.677840
 31
0.0
  0
LINE
  5
28a
100
AcDbEntity
  8
detalhe
 62
7
100
AcDbLine
 10
7.155405
 20
35.677840
 30
0.0
 11
7.086489
 21
35.681396
 31
0.0
  0
LINE
  5
28b
100
AcDbEntity
  8
detalhe
 62
7
100
AcDbLine
 10
7.086489
 20
35.681396
 30
0.0
 11
6.977037
 21
35.682807
 31
0.0
  0
LINE
  5
28c
100
AcDbEntity
  8
detalhe
 62
7
100
AcDbLine
 10
6.977037
 20
35.682807
 30
0.0
 11
6.790985
 21
35.680831
 31
0.0
  0
LINE
  5
28d
100
AcDbEntity
  8
detalhe
 62
7
100
AcDbLine
 10
6.790985
 20
35.680831
 30
0.0
 11
6.607769
 21
35.678291
 31
0.0
  0
LINE
  5
28e
100
AcDbEntity
  8
detalhe
 62
7
100
AcDbLine
 10
6.607769
 20
35.678291
 30
0.0
 11
6.427424
 21
35.677162
 31
0.0
  0
LINE
  5
28f
100
AcDbEntity
  8
detalhe
 62
7
100
AcDbLine
 10
6.427424
 20
35.677162
 30
0.0
 11
6.249984
 21
35.679138
 31
0.0
  0
LINE
  5
290
100
AcDbEntity
  8
detalhe
 62
7
100
AcDbLine
 10
6.249984
 20
35.679138
 30
0.0
 11
6.066087
 21
35.684698
 31
0.0
  0
LINE
  5
291
100
AcDbEntity
  8
detalhe
 62
7
100
AcDbLine
 10
6.066087
 20
35.684698
 30
0.0
 11
5.881617
 21
35.692797
 31
0.0
  0
LINE
  5
292
100
AcDbEntity
  8
detalhe
 62
7
100
AcDbLine
 10
5.881617
 20
35.692797
 30
0.0
 11
5.696673
 21
35.702901
 31
0.0
  0
LINE
  5
293
100
AcDbEntity
  8
detalhe
 62
7
100
AcDbLine
 10
5.696673
 20
35.702901
 30
0.0
 11
5.511355
 21
35.714444
 31
0.0
  0
LINE
  5
294
100
AcDbEntity
  8
detalhe
 62
7
100
AcDbLine
 10
5.511355
 20
35.714444
 30
0.0
 11
5.452225
 21
35.804354
 31
0.0
  0
LINE
  5
295
100
AcDbEntity
  8
detalhe
 62
7
100
AcDbLine
 10
5.452225
 20
35.804354
 30
0.0
 11
5.407299
 21
35.892278
 31
0.0
  0
LINE
  5
296
100
AcDbEntity
  8
detalhe
 62
7
100
AcDbLine
 10
5.407299
 20
35.892278
 30
0.0
 11
5.378710
 21
35.982651
 31
0.0
  0
LINE
  5
297
100
AcDbEntity
  8
detalhe
 62
7
100
AcDbLine
 10
5.378710
 20
35.982651
 30
0.0
 11
5.368589
 21
36.079899
 31
0.0
  0
LINE
  5
298
100
AcDbEntity
  8
detalhe
 62
7
100
AcDbLine
 10
5.368589
 20
36.079899
 30
0.0
 11
5.364353
 21
36.567187
 31
0.0
  0
LINE
  5
299
100
AcDbEntity
  8
detalhe
 62
7
100
AcDbLine
 10
5.364353
 20
36.567187
 30
0.0
 11
5.356719
 21
37.051418
 31
0.0
  0
LINE
  5
29a
100
AcDbEntity
  8
detalhe
 62
7
100
AcDbLine
 10
5.356719
 20
37.051418
 30
0.0
 11
5.350886
 21
37.532477
 31
0.0
  0
LINE
  5
29b
100
AcDbEntity
  8
detalhe
 62
7
100
AcDbLine
 10
5.350886
 20
37.532477
 30
0.0
 11
5.352043
 21
38.010254
 31
0.0
  0
LINE
  5
29c
100
AcDbEntity
  8
detalhe
 62
7
100
AcDbLine
 10
5.352043
 20
38.010254
 30
0.0
 11
5.360964
 21
38.103607
 31
0.0
  0
LINE
  5
29d
100
AcDbEntity
  8
detalhe
 62
7
100
AcDbLine
 10
5.360964
 20
38.103607
 30
0.0
 11
5.382153
 21
38.211699
 31
0.0
  0
LINE
  5
29e
100
AcDbEntity
  8
detalhe
 62
7
100
AcDbLine
 10
5.382153
 20
38.211699
 30
0.0
 11
5.410611
 21
38.329862
 31
0.0
  0
LINE
  5
29f
100
AcDbEntity
  8
detalhe
 62
7
100
AcDbLine
 10
5.410611
 20
38.329862
 30
0.0
 11
5.441338
 21
38.453433
 31
0.0
  0
LINE
  5
2a0
100
AcDbEntity
  8
detalhe
 62
7
100
AcDbLine
 10
5.441338
 20
38.453433
 30
0.0
 11
5.446881
 21
38.455691
 31
0.0
  0
LINE
  5
2a1
100
AcDbEntity
  8
detalhe
 62
7
100
AcDbLine
 10
5.446881
 20
38.455691
 30
0.0
 11
5.454910
 21
38.458908
 31
0.0
  0
LINE
  5
2a2
100
AcDbEntity
  8
detalhe
 62
7
100
AcDbLine
 10
5.454910
 20
38.458908
 30
0.0
 11
5.461390
 21
38.461448
 31
0.0
  0
LINE
  5
2a3
100
AcDbEntity
  8
detalhe
 62
7
100
AcDbLine
 10
5.461390
 20
38.461448
 30
0.0
 11
5.462293
 21
38.462013
 31
0.0
  0
LINE
  5
2a4
100
AcDbEntity
  8
detalhe
 62
7
100
AcDbLine
 10
5.462293
 20
38.462013
 30
0.0
 11
5.507825
 21
38.458654
 31
0.0
  0
LINE
  5
2a5
100
AcDbEntity
  8
detalhe
 62
7
100
AcDbLine
 10
5.507825
 20
38.458654
 30
0.0
 11
5.552756
 21
38.454985
 31
0.0
  0
LINE
  5
2a6
100
AcDbEntity
  8
detalhe
 62
7
100
AcDbLine
 10
5.552756
 20
38.454985
 30
0.0
 11
5.592694
 21
38.453292
 31
0.0
  0
LINE
  5
2a7
100
AcDbEntity
  8
detalhe
 62
7
100
AcDbLine
 10
5.592694
 20
38.453292
 30
0.0
 11
5.623248
 21
38.455832
 31
0.0
  0
LINE
  5
2a8
100
AcDbEntity
  8
detalhe
 62
7
100
AcDbLine
 10
5.623248
 20
38.455832
 30
0.0
 11
5.657802
 21
38.463960
 31
0.0
  0
LINE
  5
2a9
100
AcDbEntity
  8
detalhe
 62
7
100
AcDbLine
 10
5.657802
 20
38.463960
 30
0.0
 11
5.683459
 21
38.470451
 31
0.0
  0
LINE
  5
2aa
100
AcDbEntity
  8
detalhe
 62
7
100
AcDbLine
 10
5.683459
 20
38.470451
 30
0.0
 11
5.699269
 21
38.474741
 31
0.0
  0
LINE
  5
2ab
100
AcDbEntity
  8
detalhe
 62
7
100
AcDbLine
 10
5.699269
 20
38.474741
 30
0.0
 11
5.704278
 21
38.476152
 31
0.0
  0
LINE
  5
2ac
100
AcDbEntity
  8
detalhe
 62
7
100
AcDbLine
 10
5.704278
 20
38.476152
 30
0.0
 11
5.704419
 21
38.476152
 31
0.0
  0
LINE
  5
2ad
100
AcDbEntity
  8
detalhe
 62
7
100
AcDbLine
 10
5.704419
 20
38.476152
 30
0.0
 11
5.704560
 21
38.476152
 31
0.0
  0
LINE
  5
2ae
100
AcDbEntity
  8
detalhe
 62
7
100
AcDbLine
 10
5.704560
 20
38.476152
 30
0.0
 11
5.704701
 21
38.476152
 31
0.0
  0
LINE
  5
2af
100
AcDbEntity
  8
detalhe
 62
7
100
AcDbLine
 10
5.704701
 20
38.476152
 30
0.0
 11
5.704843
 21
38.476152
 31
0.0
  0
LINE
  5
2b0
100
AcDbEntity
  8
detalhe
 62
7
100
AcDbLine
 10
5.704843
 20
38.476152
 30
0.0
 11
5.729351
 21
38.479877
 31
0.0
  0
LINE
  5
2b1
100
AcDbEntity
  8
detalhe
 62
7
100
AcDbLine
 10
5.729351
 20
38.479877
 30
0.0
 11
5.742657
 21
38.481853
 31
0.0
  0
LINE
  5
2b2
100
AcDbEntity
  8
detalhe
 62
7
100
AcDbLine
 10
5.742657
 20
38.481853
 30
0.0
 11
5.744492
 21
38.482700
 31
0.0
  0
LINE
  5
2b3
100
AcDbEntity
  8
detalhe
 62
7
100
AcDbLine
 10
5.744492
 20
38.482700
 30
0.0
 11
5.734603
 21
38.482827
 31
0.0
  0
LINE
  5
2b4
100
AcDbEntity
  8
detalhe
 62
7
100
AcDbLine
 10
5.734603
 20
38.482827
 30
0.0
 11
5.734583
 21
38.482827
 31
0.0
  0
LINE
  5
2b5
100
AcDbEntity
  8
detalhe
 62
7
100
AcDbLine
 10
5.734583
 20
38.482827
 30
0.0
 11
5.734564
 21
38.482827
 31
0.0
  0
LINE
  5
2b6
100
AcDbEntity
  8
detalhe
 62
7
100
AcDbLine
 10
5.734564
 20
38.482827
 30
0.0
 11
5.734544
 21
38.482824
 31
0.0
  0
LINE
  5
2b7
100
AcDbEntity
  8
detalhe
 62
7
100
AcDbLine
 10
5.734544
 20
38.482824
 30
0.0
 11
5.734530
 21
38.483044
 31
0.0
  0
LINE
  5
2b8
100
AcDbEntity
  8
detalhe
 62
7
100
AcDbLine
 10
3.325719
 20
38.491313
 30
0.0
 11
3.444920
 21
38.491313
 31
0.0
  0
LINE
  5
2b9
100
AcDbEntity
  8
detalhe
 62
7
100
AcDbLine
 10
3.444920
 20
38.491313
 30
0.0
 11
3.564120
 21
38.491313
 31
0.0
  0
LINE
  5
2ba
100
AcDbEntity
  8
detalhe
 62
7
100
AcDbLine
 10
3.564120
 20
38.491313
 30
0.0
 11
3.683320
 21
38.491313
 31
0.0
  0
LINE
  5
2bb
100
AcDbEntity
  8
detalhe
 62
7
100
AcDbLine
 10
3.683320
 20
38.491313
 30
0.0
 11
3.802521
 21
38.491313
 31
0.0
  0
LINE
  5
2bc
100
AcDbEntity
  8
detalhe
 62
7
100
AcDbLine
 10
3.802521
 20
38.491313
 30
0.0
 11
3.803113
 21
38.358386
 31
0.0
  0
LINE
  5
2bd
100
AcDbEntity
  8
detalhe
 62
7
100
AcDbLine
 10
3.803113
 20
38.358386
 30
0.0
 11
3.804073
 21
38.224737
 31
0.0
  0
LINE
  5
2be
100
AcDbEntity
  8
detalhe
 62
7
100
AcDbLine
 10
3.804073
 20
38.224737
 30
0.0
 11
3.806585
 21
38.089465
 31
0.0
  0
LINE
  5
2bf
100
AcDbEntity
  8
detalhe
 62
7
100
AcDbLine
 10
3.806585
 20
38.089465
 30
0.0
 11
3.811890
 21
37.951673
 31
0.0
  0
LINE
  5
2c0
100
AcDbEntity
  8
detalhe
 62
7
100
AcDbLine
 10
3.811890
 20
37.951673
 30
0.0
 11
3.821542
 21
37.835993
 31
0.0
  0
LINE
  5
2c1
100
AcDbEntity
  8
detalhe
 62
7
100
AcDbLine
 10
3.821542
 20
37.835993
 30
0.0
 11
3.837584
 21
37.723606
 31
0.0
  0
LINE
  5
2c2
100
AcDbEntity
  8
detalhe
 62
7
100
AcDbLine
 10
3.837584
 20
37.723606
 30
0.0
 11
3.858556
 21
37.614736
 31
0.0
  0
LINE
  5
2c3
100
AcDbEntity
  8
detalhe
 62
7
100
AcDbLine
 10
3.858556
 20
37.614736
 30
0.0
 11
3.882996
 21
37.509600
 31
0.0
  0
LINE
  5
2c4
100
AcDbEntity
  8
detalhe
 62
7
100
AcDbLine
 10
3.882996
 20
37.509600
 30
0.0
 11
3.980926
 21
37.119764
 31
0.0
  0
LINE
  5
2c5
100
AcDbEntity
  8
detalhe
 62
7
100
AcDbLine
 10
3.980926
 20
37.119764
 30
0.0
 11
4.080206
 21
36.730534
 31
0.0
  0
LINE
  5
2c6
100
AcDbEntity
  8
detalhe
 62
7
100
AcDbLine
 10
4.080206
 20
36.730534
 30
0.0
 11
4.180513
 21
36.341815
 31
0.0
  0
LINE
  5
2c7
100
AcDbEntity
  8
detalhe
 62
7
100
AcDbLine
 10
4.180513
 20
36.341815
 30
0.0
 11
4.281525
 21
35.953517
 31
0.0
  0
LINE
  5
2c8
100
AcDbEntity
  8
detalhe
 62
7
100
AcDbLine
 10
4.281525
 20
35.953517
 30
0.0
 11
4.302003
 21
35.881522
 31
0.0
  0
LINE
  5
2c9
100
AcDbEntity
  8
detalhe
 62
7
100
AcDbLine
 10
4.302003
 20
35.881522
 30
0.0
 11
4.324391
 21
35.812745
 31
0.0
  0
LINE
  5
2ca
100
AcDbEntity
  8
detalhe
 62
7
100
AcDbLine
 10
4.324391
 20
35.812745
 30
0.0
 11
4.347949
 21
35.746417
 31
0.0
  0
LINE
  5
2cb
100
AcDbEntity
  8
detalhe
 62
7
100
AcDbLine
 10
4.347949
 20
35.746417
 30
0.0
 11
4.371923
 21
35.681768
 31
0.0
  0
LINE
  5
2cc
100
AcDbEntity
  8
detalhe
 62
7
100
AcDbLine
 10
4.371923
 20
35.681768
 30
0.0
 11
3.985904
 21
35.681486
 31
0.0
  0
LINE
  5
2cd
100
AcDbEntity
  8
detalhe
 62
7
100
AcDbLine
 10
3.985904
 20
35.681486
 30
0.0
 11
3.599820
 21
35.681605
 31
0.0
  0
LINE
  5
2ce
100
AcDbEntity
  8
detalhe
 62
7
100
AcDbLine
 10
3.599820
 20
35.681605
 30
0.0
 11
3.213661
 21
35.682169
 31
0.0
  0
LINE
  5
2cf
100
AcDbEntity
  8
detalhe
 62
7
100
AcDbLine
 10
3.213661
 20
35.682169
 30
0.0
 11
2.827418
 21
35.683016
 31
0.0
  0
LINE
  5
2d0
100
AcDbEntity
  8
detalhe
 62
7
100
AcDbLine
 10
2.827418
 20
35.683016
 30
0.0
 11
2.827277
 21
35.683016
 31
0.0
  0
LINE
  5
2d1
100
AcDbEntity
  8
detalhe
 62
7
100
AcDbLine
 10
2.827277
 20
35.683016
 30
0.0
 11
2.827136
 21
35.683016
 31
0.0
  0
LINE
  5
2d2
100
AcDbEntity
  8
detalhe
 62
7
100
AcDbLine
 10
2.827136
 20
35.683016
 30
0.0
 11
2.826995
 21
35.683016
 31
0.0
  0
LINE
  5
2d3
100
AcDbEntity
  8
detalhe
 62
7
100
AcDbLine
 10
2.826995
 20
35.683016
 30
0.0
 11
2.826854
 21
35.683016
 31
0.0
  0
LINE
  5
2d4
100
AcDbEntity
  8
detalhe
 62
7
100
AcDbLine
 10
2.826854
 20
35.683016
 30
0.0
 11
2.811456
 21
35.683168
 31
0.0
  0
LINE
  5
2d5
100
AcDbEntity
  8
detalhe
 62
7
100
AcDbLine
 10
2.811456
 20
35.683168
 30
0.0
 11
2.795265
 21
35.683450
 31
0.0
  0
LINE
  5
2d6
100
AcDbEntity
  8
detalhe
 62
7
100
AcDbLine
 10
2.795265
 20
35.683450
 30
0.0
 11
2.779020
 21
35.683732
 31
0.0
  0
LINE
  5
2d7
100
AcDbEntity
  8
detalhe
 62
7
100
AcDbLine
 10
2.779020
 20
35.683732
 30
0.0
 11
2.763464
 21
35.684015
 31
0.0
  0
LINE
  5
2d8
100
AcDbEntity
  8
detalhe
 62
7
100
AcDbLine
 10
2.763464
 20
35.684015
 30
0.0
 11
2.775839
 21
35.737592
 31
0.0
  0
LINE
  5
2d9
100
AcDbEntity
  8
detalhe
 62
7
100
AcDbLine
 10
2.775839
 20
35.737592
 30
0.0
 11
2.788395
 21
35.792402
 31
0.0
  0
LINE
  5
2da
100
AcDbEntity
  8
detalhe
 62
7
100
AcDbLine
 10
2.788395
 20
35.792402
 30
0.0
 11
2.801028
 21
35.846758
 31
0.0
  0
LINE
  5
2db
100
AcDbEntity
  8
detalhe
 62
7
100
AcDbLine
 10
2.801028
 20
35.846758
 30
0.0
 11
2.813626
 21
35.898986
 31
0.0
  0
LINE
  5
2dc
100
AcDbEntity
  8
detalhe
 62
7
100
AcDbLine
 10
2.813626
 20
35.898986
 30
0.0
 11
2.903383
 21
36.269420
 31
0.0
  0
LINE
  5
2dd
100
AcDbEntity
  8
detalhe
 62
7
100
AcDbLine
 10
2.903383
 20
36.269420
 30
0.0
 11
2.991639
 21
36.636258
 31
0.0
  0
LINE
  5
2de
100
AcDbEntity
  8
detalhe
 62
7
100
AcDbLine
 10
2.991639
 20
36.636258
 30
0.0
 11
3.083216
 21
36.997988
 31
0.0
  0
LINE
  5
2df
100
AcDbEntity
  8
detalhe
 62
7
100
AcDbLine
 10
3.083216
 20
36.997988
 30
0.0
 11
3.182940
 21
37.353094
 31
0.0
  0
LINE
  5
2e0
100
AcDbEntity
  8
detalhe
 62
7
100
AcDbLine
 10
3.182940
 20
37.353094
 30
0.0
 11
3.250832
 21
37.617370
 31
0.0
  0
LINE
  5
2e1
100
AcDbEntity
  8
detalhe
 62
7
100
AcDbLine
 10
3.250832
 20
37.617370
 30
0.0
 11
3.296703
 21
37.882780
 31
0.0
  0
LINE
  5
2e2
100
AcDbEntity
  8
detalhe
 62
7
100
AcDbLine
 10
3.296703
 20
37.882780
 30
0.0
 11
3.321384
 21
38.149720
 31
0.0
  0
LINE
  5
2e3
100
AcDbEntity
  8
detalhe
 62
7
100
AcDbLine
 10
3.321384
 20
38.149720
 30
0.0
 11
3.325704
 21
38.418593
 31
0.0
  0
LINE
  5
2e4
100
AcDbEntity
  8
detalhe
 62
7
100
AcDbLine
 10
3.325704
 20
38.418593
 30
0.0
 11
3.325526
 21
38.436316
 31
0.0
  0
LINE
  5
2e5
100
AcDbEntity
  8
detalhe
 62
7
100
AcDbLine
 10
3.325526
 20
38.436316
 30
0.0
 11
3.325589
 21
38.454802
 31
0.0
  0
LINE
  5
2e6
100
AcDbEntity
  8
detalhe
 62
7
100
AcDbLine
 10
3.325589
 20
38.454802
 30
0.0
 11
3.325709
 21
38.473372
 31
0.0
  0
LINE
  5
2e7
100
AcDbEntity
  8
detalhe
 62
7
100
AcDbLine
 10
3.325709
 20
38.473372
 30
0.0
 11
3.325704
 21
38.491378
 31
0.0
  0
LINE
  5
2e8
100
AcDbEntity
  8
detalhe
 62
7
100
AcDbLine
 10
3.325704
 20
38.491378
 30
0.0
 11
3.325708
 21
38.491367
 31
0.0
  0
LINE
  5
2e9
100
AcDbEntity
  8
detalhe
 62
7
100
AcDbLine
 10
3.325708
 20
38.491367
 30
0.0
 11
3.325711
 21
38.491353
 31
0.0
  0
LINE
  5
2ea
100
AcDbEntity
  8
detalhe
 62
7
100
AcDbLine
 10
3.325711
 20
38.491353
 30
0.0
 11
3.325715
 21
38.491341
 31
0.0
  0
LINE
  5
2eb
100
AcDbEntity
  8
detalhe
 62
7
100
AcDbLine
 10
3.325715
 20
38.491341
 30
0.0
 11
3.325719
 21
38.491313
 31
0.0
  0
LINE
  5
2ec
100
AcDbEntity
  8
detalhe
 62
7
100
AcDbLine
 10
1.159531
 20
38.706922
 30
0.0
 11
1.106669
 21
38.706358
 31
0.0
  0
LINE
  5
2ed
100
AcDbEntity
  8
detalhe
 62
7
100
AcDbLine
 10
1.106669
 20
38.706358
 30
0.0
 11
1.053889
 21
38.702237
 31
0.0
  0
LINE
  5
2ee
100
AcDbEntity
  8
detalhe
 62
7
100
AcDbLine
 10
1.053889
 20
38.702237
 30
0.0
 11
1.001389
 21
38.694759
 31
0.0
  0
LINE
  5
2ef
100
AcDbEntity
  8
detalhe
 62
7
100
AcDbLine
 10
1.001389
 20
38.694759
 30
0.0
 11
0.949368
 21
38.683978
 31
0.0
  0
LINE
  5
2f0
100
AcDbEntity
  8
detalhe
 62
7
100
AcDbLine
 10
0.949368
 20
38.683978
 30
0.0
 11
0.820249
 21
38.653057
 31
0.0
  0
LINE
  5
2f1
100
AcDbEntity
  8
detalhe
 62
7
100
AcDbLine
 10
0.820249
 20
38.653057
 30
0.0
 11
0.694871
 21
38.619611
 31
0.0
  0
LINE
  5
2f2
100
AcDbEntity
  8
detalhe
 62
7
100
AcDbLine
 10
0.694871
 20
38.619611
 30
0.0
 11
0.577504
 21
38.579180
 31
0.0
  0
LINE
  5
2f3
100
AcDbEntity
  8
detalhe
 62
7
100
AcDbLine
 10
0.577504
 20
38.579180
 30
0.0
 11
0.472414
 21
38.527302
 31
0.0
  0
LINE
  5
2f4
100
AcDbEntity
  8
detalhe
 62
7
100
AcDbLine
 10
0.472414
 20
38.527302
 30
0.0
 11
0.348182
 21
38.430161
 31
0.0
  0
LINE
  5
2f5
100
AcDbEntity
  8
detalhe
 62
7
100
AcDbLine
 10
0.348182
 20
38.430161
 30
0.0
 11
0.248929
 21
38.308100
 31
0.0
  0
LINE
  5
2f6
100
AcDbEntity
  8
detalhe
 62
7
100
AcDbLine
 10
0.248929
 20
38.308100
 30
0.0
 11
0.172520
 21
38.165403
 31
0.0
  0
LINE
  5
2f7
100
AcDbEntity
  8
detalhe
 62
7
100
AcDbLine
 10
0.172520
 20
38.165403
 30
0.0
 11
0.116818
 21
38.006362
 31
0.0
  0
LINE
  5
2f8
100
AcDbEntity
  8
detalhe
 62
7
100
AcDbLine
 10
0.116818
 20
38.006362
 30
0.0
 11
0.084584
 21
37.840181
 31
0.0
  0
LINE
  5
2f9
100
AcDbEntity
  8
detalhe
 62
7
100
AcDbLine
 10
0.084584
 20
37.840181
 30
0.0
 11
0.078121
 21
37.673292
 31
0.0
  0
LINE
  5
2fa
100
AcDbEntity
  8
detalhe
 62
7
100
AcDbLine
 10
0.078121
 20
37.673292
 30
0.0
 11
0.094764
 21
37.506391
 31
0.0
  0
LINE
  5
2fb
100
AcDbEntity
  8
detalhe
 62
7
100
AcDbLine
 10
0.094764
 20
37.506391
 30
0.0
 11
0.131845
 21
37.340179
 31
0.0
  0
LINE
  5
2fc
100
AcDbEntity
  8
detalhe
 62
7
100
AcDbLine
 10
0.131845
 20
37.340179
 30
0.0
 11
0.191477
 21
37.180865
 31
0.0
  0
LINE
  5
2fd
100
AcDbEntity
  8
detalhe
 62
7
100
AcDbLine
 10
0.191477
 20
37.180865
 30
0.0
 11
0.277901
 21
37.050365
 31
0.0
  0
LINE
  5
2fe
100
AcDbEntity
  8
detalhe
 62
7
100
AcDbLine
 10
0.277901
 20
37.050365
 30
0.0
 11
0.397458
 21
36.952443
 31
0.0
  0
LINE
  5
2ff
100
AcDbEntity
  8
detalhe
 62
7
100
AcDbLine
 10
0.397458
 20
36.952443
 30
0.0
 11
0.556486
 21
36.890856
 31
0.0
  0
LINE
  5
300
100
AcDbEntity
  8
detalhe
 62
7
100
AcDbLine
 10
0.556486
 20
36.890856
 30
0.0
 11
0.583484
 21
36.885946
 31
0.0
  0
LINE
  5
301
100
AcDbEntity
  8
detalhe
 62
7
100
AcDbLine
 10
0.583484
 20
36.885946
 30
0.0
 11
0.613871
 21
36.882220
 31
0.0
  0
LINE
  5
302
100
AcDbEntity
  8
detalhe
 62
7
100
AcDbLine
 10
0.613871
 20
36.882220
 30
0.0
 11
0.647390
 21
36.878636
 31
0.0
  0
LINE
  5
303
100
AcDbEntity
  8
detalhe
 62
7
100
AcDbLine
 10
0.647390
 20
36.878636
 30
0.0
 11
0.683787
 21
36.874092
 31
0.0
  0
LINE
  5
304
100
AcDbEntity
  8
detalhe
 62
7
100
AcDbLine
 10
0.683787
 20
36.874092
 30
0.0
 11
0.710723
 21
36.867714
 31
0.0
  0
LINE
  5
305
100
AcDbEntity
  8
detalhe
 62
7
100
AcDbLine
 10
0.710723
 20
36.867714
 30
0.0
 11
0.737082
 21
36.856199
 31
0.0
  0
LINE
  5
306
100
AcDbEntity
  8
detalhe
 62
7
100
AcDbLine
 10
0.737082
 20
36.856199
 30
0.0
 11
0.760972
 21
36.839689
 31
0.0
  0
LINE
  5
307
100
AcDbEntity
  8
detalhe
 62
7
100
AcDbLine
 10
0.760972
 20
36.839689
 30
0.0
 11
0.780502
 21
36.818297
 31
0.0
  0
LINE
  5
308
100
AcDbEntity
  8
detalhe
 62
7
100
AcDbLine
 10
0.780502
 20
36.818297
 30
0.0
 11
0.794007
 21
36.794195
 31
0.0
  0
LINE
  5
309
100
AcDbEntity
  8
detalhe
 62
7
100
AcDbLine
 10
0.794007
 20
36.794195
 30
0.0
 11
0.801960
 21
36.769839
 31
0.0
  0
LINE
  5
30a
100
AcDbEntity
  8
detalhe
 62
7
100
AcDbLine
 10
0.801960
 20
36.769839
 30
0.0
 11
0.805685
 21
36.745879
 31
0.0
  0
LINE
  5
30b
100
AcDbEntity
  8
detalhe
 62
7
100
AcDbLine
 10
0.805685
 20
36.745879
 30
0.0
 11
0.806503
 21
36.722906
 31
0.0
  0
LINE
  5
30c
100
AcDbEntity
  8
detalhe
 62
7
100
AcDbLine
 10
0.806503
 20
36.722906
 30
0.0
 11
0.806503
 21
36.722872
 31
0.0
  0
LINE
  5
30d
100
AcDbEntity
  8
detalhe
 62
7
100
AcDbLine
 10
0.806503
 20
36.722872
 30
0.0
 11
0.806503
 21
36.722838
 31
0.0
  0
LINE
  5
30e
100
AcDbEntity
  8
detalhe
 62
7
100
AcDbLine
 10
0.806503
 20
36.722838
 30
0.0
 11
0.806503
 21
36.722801
 31
0.0
  0
LINE
  5
30f
100
AcDbEntity
  8
detalhe
 62
7
100
AcDbLine
 10
0.806503
 20
36.722801
 30
0.0
 11
0.806503
 21
36.722767
 31
0.0
  0
LINE
  5
310
100
AcDbEntity
  8
detalhe
 62
7
100
AcDbLine
 10
0.806503
 20
36.722767
 30
0.0
 11
0.804246
 21
36.446348
 31
0.0
  0
LINE
  5
311
100
AcDbEntity
  8
detalhe
 62
7
100
AcDbLine
 10
0.804246
 20
36.446348
 30
0.0
 11
0.802298
 21
36.169987
 31
0.0
  0
LINE
  5
312
100
AcDbEntity
  8
detalhe
 62
7
100
AcDbLine
 10
0.802298
 20
36.169987
 30
0.0
 11
0.800859
 21
35.893678
 31
0.0
  0
LINE
  5
313
100
AcDbEntity
  8
detalhe
 62
7
100
AcDbLine
 10
0.800859
 20
35.893678
 30
0.0
 11
0.800069
 21
35.617407
 31
0.0
  0
LINE
  5
314
100
AcDbEntity
  8
detalhe
 62
7
100
AcDbLine
 10
0.800069
 20
35.617407
 30
0.0
 11
0.800944
 21
35.582914
 31
0.0
  0
LINE
  5
315
100
AcDbEntity
  8
detalhe
 62
7
100
AcDbLine
 10
0.800944
 20
35.582914
 30
0.0
 11
0.803258
 21
35.547501
 31
0.0
  0
LINE
  5
316
100
AcDbEntity
  8
detalhe
 62
7
100
AcDbLine
 10
0.803258
 20
35.547501
 30
0.0
 11
0.806390
 21
35.511563
 31
0.0
  0
LINE
  5
317
100
AcDbEntity
  8
detalhe
 62
7
100
AcDbLine
 10
0.806390
 20
35.511563
 30
0.0
 11
0.809735
 21
35.475495
 31
0.0
  0
LINE
  5
318
100
AcDbEntity
  8
detalhe
 62
7
100
AcDbLine
 10
0.809735
 20
35.475495
 30
0.0
 11
0.979470
 21
35.475495
 31
0.0
  0
LINE
  5
319
100
AcDbEntity
  8
detalhe
 62
7
100
AcDbLine
 10
0.979470
 20
35.475495
 30
0.0
 11
1.149205
 21
35.475495
 31
0.0
  0
LINE
  5
31a
100
AcDbEntity
  8
detalhe
 62
7
100
AcDbLine
 10
1.149205
 20
35.475495
 30
0.0
 11
1.318940
 21
35.475495
 31
0.0
  0
LINE
  5
31b
100
AcDbEntity
  8
detalhe
 62
7
100
AcDbLine
 10
1.318940
 20
35.475495
 30
0.0
 11
1.488676
 21
35.475495
 31
0.0
  0
LINE
  5
31c
100
AcDbEntity
  8
detalhe
 62
7
100
AcDbLine
 10
1.488676
 20
35.475495
 30
0.0
 11
1.488139
 21
35.504733
 31
0.0
  0
LINE
  5
31d
100
AcDbEntity
  8
detalhe
 62
7
100
AcDbLine
 10
1.488139
 20
35.504733
 30
0.0
 11
1.487829
 21
35.534087
 31
0.0
  0
LINE
  5
31e
100
AcDbEntity
  8
detalhe
 62
7
100
AcDbLine
 10
1.487829
 20
35.534087
 30
0.0
 11
1.488168
 21
35.563726
 31
0.0
  0
LINE
  5
31f
100
AcDbEntity
  8
detalhe
 62
7
100
AcDbLine
 10
1.488168
 20
35.563726
 30
0.0
 11
1.489607
 21
35.593825
 31
0.0
  0
LINE
  5
320
100
AcDbEntity
  8
detalhe
 62
7
100
AcDbLine
 10
1.489607
 20
35.593825
 30
0.0
 11
1.452463
 21
35.597183
 31
0.0
  0
LINE
  5
321
100
AcDbEntity
  8
detalhe
 62
7
100
AcDbLine
 10
1.452463
 20
35.597183
 30
0.0
 11
1.414190
 21
35.600006
 31
0.0
  0
LINE
  5
322
100
AcDbEntity
  8
detalhe
 62
7
100
AcDbLine
 10
1.414190
 20
35.600006
 30
0.0
 11
1.374561
 21
35.602546
 31
0.0
  0
LINE
  5
323
100
AcDbEntity
  8
detalhe
 62
7
100
AcDbLine
 10
1.374561
 20
35.602546
 30
0.0
 11
1.333348
 21
35.605368
 31
0.0
  0
LINE
  5
324
100
AcDbEntity
  8
detalhe
 62
7
100
AcDbLine
 10
1.333348
 20
35.605368
 30
0.0
 11
1.315339
 21
35.606497
 31
0.0
  0
LINE
  5
325
100
AcDbEntity
  8
detalhe
 62
7
100
AcDbLine
 10
1.315339
 20
35.606497
 30
0.0
 11
1.297330
 21
35.607626
 31
0.0
  0
LINE
  5
326
100
AcDbEntity
  8
detalhe
 62
7
100
AcDbLine
 10
1.297330
 20
35.607626
 30
0.0
 11
1.279322
 21
35.608755
 31
0.0
  0
LINE
  5
327
100
AcDbEntity
  8
detalhe
 62
7
100
AcDbLine
 10
1.279322
 20
35.608755
 30
0.0
 11
1.261313
 21
35.609883
 31
0.0
  0
LINE
  5
328
100
AcDbEntity
  8
detalhe
 62
7
100
AcDbLine
 10
1.261313
 20
35.609883
 30
0.0
 11
1.261313
 21
35.700590
 31
0.0
  0
LINE
  5
329
100
AcDbEntity
  8
detalhe
 62
7
100
AcDbLine
 10
1.261313
 20
35.700590
 30
0.0
 11
1.261313
 21
35.791296
 31
0.0
  0
LINE
  5
32a
100
AcDbEntity
  8
detalhe
 62
7
100
AcDbLine
 10
1.261313
 20
35.791296
 30
0.0
 11
1.261313
 21
35.882002
 31
0.0
  0
LINE
  5
32b
100
AcDbEntity
  8
detalhe
 62
7
100
AcDbLine
 10
1.261313
 20
35.882002
 30
0.0
 11
1.261313
 21
35.972708
 31
0.0
  0
LINE
  5
32c
100
AcDbEntity
  8
detalhe
 62
7
100
AcDbLine
 10
1.261313
 20
35.972708
 30
0.0
 11
1.280693
 21
35.972708
 31
0.0
  0
LINE
  5
32d
100
AcDbEntity
  8
detalhe
 62
7
100
AcDbLine
 10
1.280693
 20
35.972708
 30
0.0
 11
1.300074
 21
35.972708
 31
0.0
  0
LINE
  5
32e
100
AcDbEntity
  8
detalhe
 62
7
100
AcDbLine
 10
1.300074
 20
35.972708
 30
0.0
 11
1.319454
 21
35.972708
 31
0.0
  0
LINE
  5
32f
100
AcDbEntity
  8
detalhe
 62
7
100
AcDbLine
 10
1.319454
 20
35.972708
 30
0.0
 11
1.338834
 21
35.972708
 31
0.0
  0
LINE
  5
330
100
AcDbEntity
  8
detalhe
 62
7
100
AcDbLine
 10
1.338834
 20
35.972708
 30
0.0
 11
1.380667
 21
35.972530
 31
0.0
  0
LINE
  5
331
100
AcDbEntity
  8
detalhe
 62
7
100
AcDbLine
 10
1.380667
 20
35.972530
 30
0.0
 11
1.419281
 21
35.972356
 31
0.0
  0
LINE
  5
332
100
AcDbEntity
  8
detalhe
 62
7
100
AcDbLine
 10
1.419281
 20
35.972356
 30
0.0
 11
1.455298
 21
35.972638
 31
0.0
  0
LINE
  5
333
100
AcDbEntity
  8
detalhe
 62
7
100
AcDbLine
 10
1.455298
 20
35.972638
 30
0.0
 11
1.489340
 21
35.974049
 31
0.0
  0
LINE
  5
334
100
AcDbEntity
  8
detalhe
 62
7
100
AcDbLine
 10
1.489340
 20
35.974049
 30
0.0
 11
1.490412
 21
36.010049
 31
0.0
  0
LINE
  5
335
100
AcDbEntity
  8
detalhe
 62
7
100
AcDbLine
 10
1.490412
 20
36.010049
 30
0.0
 11
1.490864
 21
36.046831
 31
0.0
  0
LINE
  5
336
100
AcDbEntity
  8
detalhe
 62
7
100
AcDbLine
 10
1.490864
 20
36.046831
 30
0.0
 11
1.490887
 21
36.084138
 31
0.0
  0
LINE
  5
337
100
AcDbEntity
  8
detalhe
 62
7
100
AcDbLine
 10
1.490887
 20
36.084138
 30
0.0
 11
1.490670
 21
36.121713
 31
0.0
  0
LINE
  5
338
100
AcDbEntity
  8
detalhe
 62
7
100
AcDbLine
 10
1.490670
 20
36.121713
 30
0.0
 11
1.428704
 21
36.121713
 31
0.0
  0
LINE
  5
339
100
AcDbEntity
  8
detalhe
 62
7
100
AcDbLine
 10
1.428704
 20
36.121713
 30
0.0
 11
1.366737
 21
36.121713
 31
0.0
  0
LINE
  5
33a
100
AcDbEntity
  8
detalhe
 62
7
100
AcDbLine
 10
1.366737
 20
36.121713
 30
0.0
 11
1.304771
 21
36.121713
 31
0.0
  0
LINE
  5
33b
100
AcDbEntity
  8
detalhe
 62
7
100
AcDbLine
 10
1.304771
 20
36.121713
 30
0.0
 11
1.242805
 21
36.121713
 31
0.0
  0
LINE
  5
33c
100
AcDbEntity
  8
detalhe
 62
7
100
AcDbLine
 10
1.242805
 20
36.121713
 30
0.0
 11
1.242805
 21
36.280822
 31
0.0
  0
LINE
  5
33d
100
AcDbEntity
  8
detalhe
 62
7
100
AcDbLine
 10
1.242805
 20
36.280822
 30
0.0
 11
1.242805
 21
36.439930
 31
0.0
  0
LINE
  5
33e
100
AcDbEntity
  8
detalhe
 62
7
100
AcDbLine
 10
1.242805
 20
36.439930
 30
0.0
 11
1.242805
 21
36.599038
 31
0.0
  0
LINE
  5
33f
100
AcDbEntity
  8
detalhe
 62
7
100
AcDbLine
 10
1.242805
 20
36.599038
 30
0.0
 11
1.242805
 21
36.758147
 31
0.0
  0
LINE
  5
340
100
AcDbEntity
  8
detalhe
 62
7
100
AcDbLine
 10
1.242805
 20
36.758147
 30
0.0
 11
1.262151
 21
36.792166
 31
0.0
  0
LINE
  5
341
100
AcDbEntity
  8
detalhe
 62
7
100
AcDbLine
 10
1.262151
 20
36.792166
 30
0.0
 11
1.279762
 21
36.806587
 31
0.0
  0
LINE
  5
342
100
AcDbEntity
  8
detalhe
 62
7
100
AcDbLine
 10
1.279762
 20
36.806587
 30
0.0
 11
1.292248
 21
36.815223
 31
0.0
  0
LINE
  5
343
100
AcDbEntity
  8
detalhe
 62
7
100
AcDbLine
 10
1.292248
 20
36.815223
 30
0.0
 11
1.296218
 21
36.831931
 31
0.0
  0
LINE
  5
344
100
AcDbEntity
  8
detalhe
 62
7
100
AcDbLine
 10
1.296218
 20
36.831931
 30
0.0
 11
1.297545
 21
36.832213
 31
0.0
  0
LINE
  5
345
100
AcDbEntity
  8
detalhe
 62
7
100
AcDbLine
 10
1.297545
 20
36.832213
 30
0.0
 11
1.298871
 21
36.832495
 31
0.0
  0
LINE
  5
346
100
AcDbEntity
  8
detalhe
 62
7
100
AcDbLine
 10
1.298871
 20
36.832495
 30
0.0
 11
1.300198
 21
36.832778
 31
0.0
  0
LINE
  5
347
100
AcDbEntity
  8
detalhe
 62
7
100
AcDbLine
 10
1.300198
 20
36.832778
 30
0.0
 11
1.301524
 21
36.833060
 31
0.0
  0
LINE
  5
348
100
AcDbEntity
  8
detalhe
 62
7
100
AcDbLine
 10
1.301524
 20
36.833060
 30
0.0
 11
1.325609
 21
36.839071
 31
0.0
  0
LINE
  5
349
100
AcDbEntity
  8
detalhe
 62
7
100
AcDbLine
 10
1.325609
 20
36.839071
 30
0.0
 11
1.349694
 21
36.845111
 31
0.0
  0
LINE
  5
34a
100
AcDbEntity
  8
detalhe
 62
7
100
AcDbLine
 10
1.349694
 20
36.845111
 30
0.0
 11
1.373779
 21
36.851122
 31
0.0
  0
LINE
  5
34b
100
AcDbEntity
  8
detalhe
 62
7
100
AcDbLine
 10
1.373779
 20
36.851122
 30
0.0
 11
1.397864
 21
36.857162
 31
0.0
  0
LINE
  5
34c
100
AcDbEntity
  8
detalhe
 62
7
100
AcDbLine
 10
1.397864
 20
36.857162
 30
0.0
 11
1.397864
 21
36.854622
 31
0.0
  0
LINE
  5
34d
100
AcDbEntity
  8
detalhe
 62
7
100
AcDbLine
 10
1.397864
 20
36.854622
 30
0.0
 11
1.397864
 21
36.852082
 31
0.0
  0
LINE
  5
34e
100
AcDbEntity
  8
detalhe
 62
7
100
AcDbLine
 10
1.397864
 20
36.852082
 30
0.0
 11
1.397864
 21
36.849542
 31
0.0
  0
LINE
  5
34f
100
AcDbEntity
  8
detalhe
 62
7
100
AcDbLine
 10
1.397864
 20
36.849542
 30
0.0
 11
1.397864
 21
36.847002
 31
0.0
  0
LINE
  5
350
100
AcDbEntity
  8
detalhe
 62
7
100
AcDbLine
 10
1.397864
 20
36.847002
 30
0.0
 11
1.461330
 21
36.855807
 31
0.0
  0
LINE
  5
351
100
AcDbEntity
  8
detalhe
 62
7
100
AcDbLine
 10
1.461330
 20
36.855807
 30
0.0
 11
1.519436
 21
36.869636
 31
0.0
  0
LINE
  5
352
100
AcDbEntity
  8
detalhe
 62
7
100
AcDbLine
 10
1.519436
 20
36.869636
 30
0.0
 11
1.571473
 21
36.892270
 31
0.0
  0
LINE
  5
353
100
AcDbEntity
  8
detalhe
 62
7
100
AcDbLine
 10
1.571473
 20
36.892270
 30
0.0
 11
1.616733
 21
36.927489
 31
0.0
  0
LINE
  5
354
100
AcDbEntity
  8
detalhe
 62
7
100
AcDbLine
 10
1.616733
 20
36.927489
 30
0.0
 11
1.633138
 21
36.941628
 31
0.0
  0
LINE
  5
355
100
AcDbEntity
  8
detalhe
 62
7
100
AcDbLine
 10
1.633138
 20
36.941628
 30
0.0
 11
1.648454
 21
36.950744
 31
0.0
  0
LINE
  5
356
100
AcDbEntity
  8
detalhe
 62
7
100
AcDbLine
 10
1.648454
 20
36.950744
 30
0.0
 11
1.661857
 21
36.956275
 31
0.0
  0
LINE
  5
357
100
AcDbEntity
  8
detalhe
 62
7
100
AcDbLine
 10
1.661857
 20
36.956275
 30
0.0
 11
1.672525
 21
36.959690
 31
0.0
  0
LINE
  5
358
100
AcDbEntity
  8
detalhe
 62
7
100
AcDbLine
 10
1.672525
 20
36.959690
 30
0.0
 11
1.680241
 21
36.962230
 31
0.0
  0
LINE
  5
359
100
AcDbEntity
  8
detalhe
 62
7
100
AcDbLine
 10
1.680241
 20
36.962230
 30
0.0
 11
1.685183
 21
36.963924
 31
0.0
  0
LINE
  5
35a
100
AcDbEntity
  8
detalhe
 62
7
100
AcDbLine
 10
1.685183
 20
36.963924
 30
0.0
 11
1.687130
 21
36.964488
 31
0.0
  0
LINE
  5
35b
100
AcDbEntity
  8
detalhe
 62
7
100
AcDbLine
 10
1.687130
 20
36.964488
 30
0.0
 11
1.685832
 21
36.963641
 31
0.0
  0
LINE
  5
35c
100
AcDbEntity
  8
detalhe
 62
7
100
AcDbLine
 10
1.685832
 20
36.963641
 30
0.0
 11
1.714738
 21
36.979192
 31
0.0
  0
LINE
  5
35d
100
AcDbEntity
  8
detalhe
 62
7
100
AcDbLine
 10
1.714738
 20
36.979192
 30
0.0
 11
1.736743
 21
36.990848
 31
0.0
  0
LINE
  5
35e
100
AcDbEntity
  8
detalhe
 62
7
100
AcDbLine
 10
1.736743
 20
36.990848
 30
0.0
 11
1.750431
 21
36.997734
 31
0.0
  0
LINE
  5
35f
100
AcDbEntity
  8
detalhe
 62
7
100
AcDbLine
 10
1.750431
 20
36.997734
 30
0.0
 11
1.754385
 21
36.999145
 31
0.0
  0
LINE
  5
360
100
AcDbEntity
  8
detalhe
 62
7
100
AcDbLine
 10
1.754385
 20
36.999145
 30
0.0
 11
1.823819
 21
37.087413
 31
0.0
  0
LINE
  5
361
100
AcDbEntity
  8
detalhe
 62
7
100
AcDbLine
 10
1.823819
 20
37.087413
 30
0.0
 11
1.891492
 21
37.175322
 31
0.0
  0
LINE
  5
362
100
AcDbEntity
  8
detalhe
 62
7
100
AcDbLine
 10
1.891492
 20
37.175322
 30
0.0
 11
1.955663
 21
37.263802
 31
0.0
  0
LINE
  5
363
100
AcDbEntity
  8
detalhe
 62
7
100
AcDbLine
 10
1.955663
 20
37.263802
 30
0.0
 11
2.014590
 21
37.353794
 31
0.0
  0
LINE
  5
364
100
AcDbEntity
  8
detalhe
 62
7
100
AcDbLine
 10
2.014590
 20
37.353794
 30
0.0
 11
2.014590
 21
37.353828
 31
0.0
  0
LINE
  5
365
100
AcDbEntity
  8
detalhe
 62
7
100
AcDbLine
 10
2.014590
 20
37.353828
 30
0.0
 11
2.014590
 21
37.353862
 31
0.0
  0
LINE
  5
366
100
AcDbEntity
  8
detalhe
 62
7
100
AcDbLine
 10
2.014590
 20
37.353862
 30
0.0
 11
2.014590
 21
37.353895
 31
0.0
  0
LINE
  5
367
100
AcDbEntity
  8
detalhe
 62
7
100
AcDbLine
 10
2.014590
 20
37.353895
 30
0.0
 11
2.014590
 21
37.353929
 31
0.0
  0
LINE
  5
368
100
AcDbEntity
  8
detalhe
 62
7
100
AcDbLine
 10
2.014590
 20
37.353929
 30
0.0
 11
2.045174
 21
37.409541
 31
0.0
  0
LINE
  5
369
100
AcDbEntity
  8
detalhe
 62
7
100
AcDbLine
 10
2.045174
 20
37.409541
 30
0.0
 11
2.070450
 21
37.467992
 31
0.0
  0
LINE
  5
36a
100
AcDbEntity
  8
detalhe
 62
7
100
AcDbLine
 10
2.070450
 20
37.467992
 30
0.0
 11
2.088484
 21
37.526449
 31
0.0
  0
LINE
  5
36b
100
AcDbEntity
  8
detalhe
 62
7
100
AcDbLine
 10
2.088484
 20
37.526449
 30
0.0
 11
2.097340
 21
37.582075
 31
0.0
  0
LINE
  5
36c
100
AcDbEntity
  8
detalhe
 62
7
100
AcDbLine
 10
2.097340
 20
37.582075
 30
0.0
 11
2.100162
 21
37.683277
 31
0.0
  0
LINE
  5
36d
100
AcDbEntity
  8
detalhe
 62
7
100
AcDbLine
 10
2.100162
 20
37.683277
 30
0.0
 11
2.096211
 21
37.786508
 31
0.0
  0
LINE
  5
36e
100
AcDbEntity
  8
detalhe
 62
7
100
AcDbLine
 10
2.096211
 20
37.786508
 30
0.0
 11
2.087265
 21
37.891176
 31
0.0
  0
LINE
  5
36f
100
AcDbEntity
  8
detalhe
 62
7
100
AcDbLine
 10
2.087265
 20
37.891176
 30
0.0
 11
2.075090
 21
37.996685
 31
0.0
  0
LINE
  5
370
100
AcDbEntity
  8
detalhe
 62
7
100
AcDbLine
 10
2.075090
 20
37.996685
 30
0.0
 11
2.062147
 21
38.079201
 31
0.0
  0
LINE
  5
371
100
AcDbEntity
  8
detalhe
 62
7
100
AcDbLine
 10
2.062147
 20
38.079201
 30
0.0
 11
2.042521
 21
38.155802
 31
0.0
  0
LINE
  5
372
100
AcDbEntity
  8
detalhe
 62
7
100
AcDbLine
 10
2.042521
 20
38.155802
 30
0.0
 11
2.013222
 21
38.224830
 31
0.0
  0
LINE
  5
373
100
AcDbEntity
  8
detalhe
 62
7
100
AcDbLine
 10
2.013222
 20
38.224830
 30
0.0
 11
1.971260
 21
38.284636
 31
0.0
  0
LINE
  5
374
100
AcDbEntity
  8
detalhe
 62
7
100
AcDbLine
 10
1.971260
 20
38.284636
 30
0.0
 11
1.931948
 21
38.323741
 31
0.0
  0
LINE
  5
375
100
AcDbEntity
  8
detalhe
 62
7
100
AcDbLine
 10
1.931948
 20
38.323741
 30
0.0
 11
1.887081
 21
38.362656
 31
0.0
  0
LINE
  5
376
100
AcDbEntity
  8
detalhe
 62
7
100
AcDbLine
 10
1.887081
 20
38.362656
 30
0.0
 11
1.838605
 21
38.403144
 31
0.0
  0
LINE
  5
377
100
AcDbEntity
  8
detalhe
 62
7
100
AcDbLine
 10
1.838605
 20
38.403144
 30
0.0
 11
1.788466
 21
38.446951
 31
0.0
  0
LINE
  5
378
100
AcDbEntity
  8
detalhe
 62
7
100
AcDbLine
 10
1.788466
 20
38.446951
 30
0.0
 11
1.694411
 21
38.522084
 31
0.0
  0
LINE
  5
379
100
AcDbEntity
  8
detalhe
 62
7
100
AcDbLine
 10
1.694411
 20
38.522084
 30
0.0
 11
1.592282
 21
38.584167
 31
0.0
  0
LINE
  5
37a
100
AcDbEntity
  8
detalhe
 62
7
100
AcDbLine
 10
1.592282
 20
38.584167
 30
0.0
 11
1.483088
 21
38.634510
 31
0.0
  0
LINE
  5
37b
100
AcDbEntity
  8
detalhe
 62
7
100
AcDbLine
 10
1.483088
 20
38.634510
 30
0.0
 11
1.367838
 21
38.674413
 31
0.0
  0
LINE
  5
37c
100
AcDbEntity
  8
detalhe
 62
7
100
AcDbLine
 10
1.367838
 20
38.674413
 30
0.0
 11
1.316621
 21
38.687762
 31
0.0
  0
LINE
  5
37d
100
AcDbEntity
  8
detalhe
 62
7
100
AcDbLine
 10
1.316621
 20
38.687762
 30
0.0
 11
1.264701
 21
38.697555
 31
0.0
  0
LINE
  5
37e
100
AcDbEntity
  8
detalhe
 62
7
100
AcDbLine
 10
1.264701
 20
38.697555
 30
0.0
 11
1.212273
 21
38.703821
 31
0.0
  0
LINE
  5
37f
100
AcDbEntity
  8
detalhe
 62
7
100
AcDbLine
 10
1.212273
 20
38.703821
 30
0.0
 11
1.159529
 21
38.706643
 31
0.0
  0
LINE
  5
380
100
AcDbEntity
  8
detalhe
 62
7
100
AcDbLine
 10
1.159529
 20
38.706643
 30
0.0
 11
1.159533
 21
38.706674
 31
0.0
  0
LINE
  5
381
100
AcDbEntity
  8
detalhe
 62
7
100
AcDbLine
 10
1.159533
 20
38.706674
 30
0.0
 11
1.159536
 21
38.706708
 31
0.0
  0
LINE
  5
382
100
AcDbEntity
  8
detalhe
 62
7
100
AcDbLine
 10
1.159536
 20
38.706708
 30
0.0
 11
1.159539
 21
38.706739
 31
0.0
  0
LINE
  5
383
100
AcDbEntity
  8
detalhe
 62
7
100
AcDbLine
 10
1.159539
 20
38.706739
 30
0.0
 11
1.159531
 21
38.706922
 31
0.0
  0
LINE
  5
384
100
AcDbEntity
  8
detalhe
 62
7
100
AcDbLine
 10
0.955993
 20
38.504101
 30
0.0
 11
1.096670
 21
38.497243
 31
0.0
  0
LINE
  5
385
100
AcDbEntity
  8
detalhe
 62
7
100
AcDbLine
 10
1.096670
 20
38.497243
 30
0.0
 11
1.236578
 21
38.471052
 31
0.0
  0
LINE
  5
386
100
AcDbEntity
  8
detalhe
 62
7
100
AcDbLine
 10
1.236578
 20
38.471052
 30
0.0
 11
1.371340
 21
38.416493
 31
0.0
  0
LINE
  5
387
100
AcDbEntity
  8
detalhe
 62
7
100
AcDbLine
 10
1.371340
 20
38.416493
 30
0.0
 11
1.496579
 21
38.324528
 31
0.0
  0
LINE
  5
388
100
AcDbEntity
  8
detalhe
 62
7
100
AcDbLine
 10
1.496579
 20
38.324528
 30
0.0
 11
1.524308
 21
38.296419
 31
0.0
  0
LINE
  5
389
100
AcDbEntity
  8
detalhe
 62
7
100
AcDbLine
 10
1.524308
 20
38.296419
 30
0.0
 11
1.551079
 21
38.264229
 31
0.0
  0
LINE
  5
38a
100
AcDbEntity
  8
detalhe
 62
7
100
AcDbLine
 10
1.551079
 20
38.264229
 30
0.0
 11
1.574885
 21
38.227314
 31
0.0
  0
LINE
  5
38b
100
AcDbEntity
  8
detalhe
 62
7
100
AcDbLine
 10
1.574885
 20
38.227314
 30
0.0
 11
1.593712
 21
38.185034
 31
0.0
  0
LINE
  5
38c
100
AcDbEntity
  8
detalhe
 62
7
100
AcDbLine
 10
1.593712
 20
38.185034
 30
0.0
 11
1.641126
 21
38.064220
 31
0.0
  0
LINE
  5
38d
100
AcDbEntity
  8
detalhe
 62
7
100
AcDbLine
 10
1.641126
 20
38.064220
 30
0.0
 11
1.691039
 21
37.935307
 31
0.0
  0
LINE
  5
38e
100
AcDbEntity
  8
detalhe
 62
7
100
AcDbLine
 10
1.691039
 20
37.935307
 30
0.0
 11
1.727559
 21
37.795288
 31
0.0
  0
LINE
  5
38f
100
AcDbEntity
  8
detalhe
 62
7
100
AcDbLine
 10
1.727559
 20
37.795288
 30
0.0
 11
1.734792
 21
37.641155
 31
0.0
  0
LINE
  5
390
100
AcDbEntity
  8
detalhe
 62
7
100
AcDbLine
 10
1.734792
 20
37.641155
 30
0.0
 11
1.722696
 21
37.546769
 31
0.0
  0
LINE
  5
391
100
AcDbEntity
  8
detalhe
 62
7
100
AcDbLine
 10
1.722696
 20
37.546769
 30
0.0
 11
1.701290
 21
37.455066
 31
0.0
  0
LINE
  5
392
100
AcDbEntity
  8
detalhe
 62
7
100
AcDbLine
 10
1.701290
 20
37.455066
 30
0.0
 11
1.670384
 21
37.365709
 31
0.0
  0
LINE
  5
393
100
AcDbEntity
  8
detalhe
 62
7
100
AcDbLine
 10
1.670384
 20
37.365709
 30
0.0
 11
1.629787
 21
37.278367
 31
0.0
  0
LINE
  5
394
100
AcDbEntity
  8
detalhe
 62
7
100
AcDbLine
 10
1.629787
 20
37.278367
 30
0.0
 11
1.587705
 21
37.208387
 31
0.0
  0
LINE
  5
395
100
AcDbEntity
  8
detalhe
 62
7
100
AcDbLine
 10
1.587705
 20
37.208387
 30
0.0
 11
1.537178
 21
37.145189
 31
0.0
  0
LINE
  5
396
100
AcDbEntity
  8
detalhe
 62
7
100
AcDbLine
 10
1.537178
 20
37.145189
 30
0.0
 11
1.476819
 21
37.090399
 31
0.0
  0
LINE
  5
397
100
AcDbEntity
  8
detalhe
 62
7
100
AcDbLine
 10
1.476819
 20
37.090399
 30
0.0
 11
1.405240
 21
37.045644
 31
0.0
  0
LINE
  5
398
100
AcDbEntity
  8
detalhe
 62
7
100
AcDbLine
 10
1.405240
 20
37.045644
 30
0.0
 11
1.294337
 21
37.002091
 31
0.0
  0
LINE
  5
399
100
AcDbEntity
  8
detalhe
 62
7
100
AcDbLine
 10
1.294337
 20
37.002091
 30
0.0
 11
1.180152
 21
36.981094
 31
0.0
  0
LINE
  5
39a
100
AcDbEntity
  8
detalhe
 62
7
100
AcDbLine
 10
1.180152
 20
36.981094
 30
0.0
 11
1.064269
 21
36.982505
 31
0.0
  0
LINE
  5
39b
100
AcDbEntity
  8
detalhe
 62
7
100
AcDbLine
 10
1.064269
 20
36.982505
 30
0.0
 11
0.948272
 21
37.006127
 31
0.0
  0
LINE
  5
39c
100
AcDbEntity
  8
detalhe
 62
7
100
AcDbLine
 10
0.948272
 20
37.006127
 30
0.0
 11
0.756284
 21
37.093974
 31
0.0
  0
LINE
  5
39d
100
AcDbEntity
  8
detalhe
 62
7
100
AcDbLine
 10
0.756284
 20
37.093974
 30
0.0
 11
0.606427
 21
37.223258
 31
0.0
  0
LINE
  5
39e
100
AcDbEntity
  8
detalhe
 62
7
100
AcDbLine
 10
0.606427
 20
37.223258
 30
0.0
 11
0.494579
 21
37.385614
 31
0.0
  0
LINE
  5
39f
100
AcDbEntity
  8
detalhe
 62
7
100
AcDbLine
 10
0.494579
 20
37.385614
 30
0.0
 11
0.416620
 21
37.572680
 31
0.0
  0
LINE
  5
3a0
100
AcDbEntity
  8
detalhe
 62
7
100
AcDbLine
 10
0.416620
 20
37.572680
 30
0.0
 11
0.410041
 21
37.599039
 31
0.0
  0
LINE
  5
3a1
100
AcDbEntity
  8
detalhe
 62
7
100
AcDbLine
 10
0.410041
 20
37.599039
 30
0.0
 11
0.406931
 21
37.622379
 31
0.0
  0
LINE
  5
3a2
100
AcDbEntity
  8
detalhe
 62
7
100
AcDbLine
 10
0.406931
 20
37.622379
 30
0.0
 11
0.405830
 21
37.642389
 31
0.0
  0
LINE
  5
3a3
100
AcDbEntity
  8
detalhe
 62
7
100
AcDbLine
 10
0.405830
 20
37.642389
 30
0.0
 11
0.405238
 21
37.658786
 31
0.0
  0
LINE
  5
3a4
100
AcDbEntity
  8
detalhe
 62
7
100
AcDbLine
 10
0.405238
 20
37.658786
 30
0.0
 11
0.404504
 21
37.678993
 31
0.0
  0
LINE
  5
3a5
100
AcDbEntity
  8
detalhe
 62
7
100
AcDbLine
 10
0.404504
 20
37.678993
 30
0.0
 11
0.404432
 21
37.698353
 31
0.0
  0
LINE
  5
3a6
100
AcDbEntity
  8
detalhe
 62
7
100
AcDbLine
 10
0.404432
 20
37.698353
 30
0.0
 11
0.404657
 21
37.717544
 31
0.0
  0
LINE
  5
3a7
100
AcDbEntity
  8
detalhe
 62
7
100
AcDbLine
 10
0.404657
 20
37.717544
 30
0.0
 11
0.404813
 21
37.737243
 31
0.0
  0
LINE
  5
3a8
100
AcDbEntity
  8
detalhe
 62
7
100
AcDbLine
 10
0.404813
 20
37.737243
 30
0.0
 11
0.404813
 21
37.756632
 31
0.0
  0
LINE
  5
3a9
100
AcDbEntity
  8
detalhe
 62
7
100
AcDbLine
 10
0.404813
 20
37.756632
 30
0.0
 11
0.404813
 21
37.776021
 31
0.0
  0
LINE
  5
3aa
100
AcDbEntity
  8
detalhe
 62
7
100
AcDbLine
 10
0.404813
 20
37.776021
 30
0.0
 11
0.404813
 21
37.795409
 31
0.0
  0
LINE
  5
3ab
100
AcDbEntity
  8
detalhe
 62
7
100
AcDbLine
 10
0.404813
 20
37.795409
 30
0.0
 11
0.404813
 21
37.814798
 31
0.0
  0
LINE
  5
3ac
100
AcDbEntity
  8
detalhe
 62
7
100
AcDbLine
 10
0.404813
 20
37.814798
 30
0.0
 11
0.406648
 21
37.814798
 31
0.0
  0
LINE
  5
3ad
100
AcDbEntity
  8
detalhe
 62
7
100
AcDbLine
 10
0.406648
 20
37.814798
 30
0.0
 11
0.408482
 21
37.814798
 31
0.0
  0
LINE
  5
3ae
100
AcDbEntity
  8
detalhe
 62
7
100
AcDbLine
 10
0.408482
 20
37.814798
 30
0.0
 11
0.410317
 21
37.814798
 31
0.0
  0
LINE
  5
3af
100
AcDbEntity
  8
detalhe
 62
7
100
AcDbLine
 10
0.410317
 20
37.814798
 30
0.0
 11
0.412151
 21
37.814798
 31
0.0
  0
LINE
  5
3b0
100
AcDbEntity
  8
detalhe
 62
7
100
AcDbLine
 10
0.412151
 20
37.814798
 30
0.0
 11
0.421174
 21
37.892243
 31
0.0
  0
LINE
  5
3b1
100
AcDbEntity
  8
detalhe
 62
7
100
AcDbLine
 10
0.421174
 20
37.892243
 30
0.0
 11
0.437608
 21
37.966583
 31
0.0
  0
LINE
  5
3b2
100
AcDbEntity
  8
detalhe
 62
7
100
AcDbLine
 10
0.437608
 20
37.966583
 30
0.0
 11
0.460191
 21
38.037026
 31
0.0
  0
LINE
  5
3b3
100
AcDbEntity
  8
detalhe
 62
7
100
AcDbLine
 10
0.460191
 20
38.037026
 30
0.0
 11
0.487668
 21
38.102786
 31
0.0
  0
LINE
  5
3b4
100
AcDbEntity
  8
detalhe
 62
7
100
AcDbLine
 10
0.487668
 20
38.102786
 30
0.0
 11
0.529538
 21
38.175425
 31
0.0
  0
LINE
  5
3b5
100
AcDbEntity
  8
detalhe
 62
7
100
AcDbLine
 10
0.529538
 20
38.175425
 30
0.0
 11
0.578385
 21
38.238501
 31
0.0
  0
LINE
  5
3b6
100
AcDbEntity
  8
detalhe
 62
7
100
AcDbLine
 10
0.578385
 20
38.238501
 30
0.0
 11
0.628850
 21
38.294776
 31
0.0
  0
LINE
  5
3b7
100
AcDbEntity
  8
detalhe
 62
7
100
AcDbLine
 10
0.628850
 20
38.294776
 30
0.0
 11
0.675573
 21
38.347018
 31
0.0
  0
LINE
  5
3b8
100
AcDbEntity
  8
detalhe
 62
7
100
AcDbLine
 10
0.675573
 20
38.347018
 30
0.0
 11
0.703578
 21
38.378520
 31
0.0
  0
LINE
  5
3b9
100
AcDbEntity
  8
detalhe
 62
7
100
AcDbLine
 10
0.703578
 20
38.378520
 30
0.0
 11
0.732063
 21
38.407868
 31
0.0
  0
LINE
  5
3ba
100
AcDbEntity
  8
detalhe
 62
7
100
AcDbLine
 10
0.732063
 20
38.407868
 30
0.0
 11
0.760438
 21
38.435526
 31
0.0
  0
LINE
  5
3bb
100
AcDbEntity
  8
detalhe
 62
7
100
AcDbLine
 10
0.760438
 20
38.435526
 30
0.0
 11
0.788113
 21
38.461970
 31
0.0
  0
LINE
  5
3bc
100
AcDbEntity
  8
detalhe
 62
7
100
AcDbLine
 10
0.788113
 20
38.461970
 30
0.0
 11
0.788142
 21
38.462004
 31
0.0
  0
LINE
  5
3bd
100
AcDbEntity
  8
detalhe
 62
7
100
AcDbLine
 10
0.788142
 20
38.462004
 30
0.0
 11
0.788171
 21
38.462038
 31
0.0
  0
LINE
  5
3be
100
AcDbEntity
  8
detalhe
 62
7
100
AcDbLine
 10
0.788171
 20
38.462038
 30
0.0
 11
0.788200
 21
38.462072
 31
0.0
  0
LINE
  5
3bf
100
AcDbEntity
  8
detalhe
 62
7
100
AcDbLine
 10
0.788200
 20
38.462072
 30
0.0
 11
0.788230
 21
38.462106
 31
0.0
  0
LINE
  5
3c0
100
AcDbEntity
  8
detalhe
 62
7
100
AcDbLine
 10
0.788230
 20
38.462106
 30
0.0
 11
0.803089
 21
38.475907
 31
0.0
  0
LINE
  5
3c1
100
AcDbEntity
  8
detalhe
 62
7
100
AcDbLine
 10
0.803089
 20
38.475907
 30
0.0
 11
0.821069
 21
38.488748
 31
0.0
  0
LINE
  5
3c2
100
AcDbEntity
  8
detalhe
 62
7
100
AcDbLine
 10
0.821069
 20
38.488748
 30
0.0
 11
0.844793
 21
38.498456
 31
0.0
  0
LINE
  5
3c3
100
AcDbEntity
  8
detalhe
 62
7
100
AcDbLine
 10
0.844793
 20
38.498456
 30
0.0
 11
0.876883
 21
38.502915
 31
0.0
  0
LINE
  5
3c4
100
AcDbEntity
  8
detalhe
 62
7
100
AcDbLine
 10
0.876883
 20
38.502915
 30
0.0
 11
0.876883
 21
38.502907
 31
0.0
  0
LINE
  5
3c5
100
AcDbEntity
  8
detalhe
 62
7
100
AcDbLine
 10
0.876883
 20
38.502907
 30
0.0
 11
0.876883
 21
38.502895
 31
0.0
  0
LINE
  5
3c6
100
AcDbEntity
  8
detalhe
 62
7
100
AcDbLine
 10
0.876883
 20
38.502895
 30
0.0
 11
0.876883
 21
38.502887
 31
0.0
  0
LINE
  5
3c7
100
AcDbEntity
  8
detalhe
 62
7
100
AcDbLine
 10
0.876883
 20
38.502887
 30
0.0
 11
0.876883
 21
38.502876
 31
0.0
  0
LINE
  5
3c8
100
AcDbEntity
  8
detalhe
 62
7
100
AcDbLine
 10
0.876883
 20
38.502876
 30
0.0
 11
0.896495
 21
38.503440
 31
0.0
  0
LINE
  5
3c9
100
AcDbEntity
  8
detalhe
 62
7
100
AcDbLine
 10
0.896495
 20
38.503440
 30
0.0
 11
0.916222
 21
38.504005
 31
0.0
  0
LINE
  5
3ca
100
AcDbEntity
  8
detalhe
 62
7
100
AcDbLine
 10
0.916222
 20
38.504005
 30
0.0
 11
0.936051
 21
38.504287
 31
0.0
  0
LINE
  5
3cb
100
AcDbEntity
  8
detalhe
 62
7
100
AcDbLine
 10
0.936051
 20
38.504287
 30
0.0
 11
0.955959
 21
38.504388
 31
0.0
  0
LINE
  5
3cc
100
AcDbEntity
  8
detalhe
 62
7
100
AcDbLine
 10
0.955959
 20
38.504388
 30
0.0
 11
0.955960
 21
38.504360
 31
0.0
  0
LINE
  5
3cd
100
AcDbEntity
  8
detalhe
 62
7
100
AcDbLine
 10
0.955960
 20
38.504360
 30
0.0
 11
0.955961
 21
38.504335
 31
0.0
  0
LINE
  5
3ce
100
AcDbEntity
  8
detalhe
 62
7
100
AcDbLine
 10
0.955961
 20
38.504335
 30
0.0
 11
0.955962
 21
38.504307
 31
0.0
  0
LINE
  5
3cf
100
AcDbEntity
  8
detalhe
 62
7
100
AcDbLine
 10
0.955962
 20
38.504307
 30
0.0
 11
0.955993
 21
38.504101
 31
0.0
  0
ENDSEC
  0
SECTION
  2
OBJECTS
  0
DICTIONARY
  5
C
330
0
100
AcDbDictionary
  3
ACAD_GROUP
350
D
  3
ACAD_MLINESTYLE
350
17
  0
DICTIONARY
  5
D
330
C
100
AcDbDictionary
  0
DICTIONARY
  5
1A
330
C
100
AcDbDictionary
  0
DICTIONARY
  5
17
330
C
100
AcDbDictionary
  3
STANDARD
350
18
  0
DICTIONARY
  5
19
330
C
100
AcDbDictionary
  0
ENDSEC
  0
EOF
