  0
SECTION
  2
HEADER
  9
$ACADVER
  1
AC1014
  9
$HANDSEED
  5
FFFF
  9
$MEASUREMENT
 70
     1
  0
ENDSEC
  0
SECTION
  2
TABLES
  0
TABLE
  2
VPORT
  5
8
330
0
100
AcDbSymbolTable
 70
     4
  0
VPORT
  5
2E
330
8
100
AcDbSymbolTableRecord
100
AcDbViewportTableRecord
  2
*ACTIVE
 70
     0
 10
0.0
 20
0.0
 11
1.0
 21
1.0
 12
210.0
 22
148.5
 13
0.0
 23
0.0
 14
10.0
 24
10.0
 15
10.0
 25
10.0
 16
0.0
 26
0.0
 36
1.0
 17
0.0
 27
0.0
 37
0.0
 40
341.0
 41
1.24
 42
50.0
 43
0.0
 44
0.0
 50
0.0
 51
0.0
 71
     0
 72
   100
 73
     1
 74
     3
 75
     0
 76
     0
 77
     0
 78
     0
  0
ENDTAB
  0
TABLE
  2
LTYPE
  5
5
330
0
100
AcDbSymbolTable
 70
     1
  0
LTYPE
  5
14
330
5
100
AcDbSymbolTableRecord
100
AcDbLinetypeTableRecord
  2
BYBLOCK
 70
     0
  3

 72
    65
 73
     0
 40
0.0
  0
LTYPE
  5
15
330
5
100
AcDbSymbolTableRecord
100
AcDbLinetypeTableRecord
  2
BYLAYER
 70
     0
  3

 72
    65
 73
     0
 40
0.0
  0
LTYPE
  5
16
330
5
100
AcDbSymbolTableRecord
100
AcDbLinetypeTableRecord
  2
CONTINUOUS
 70
     0
  3
Solid line
 72
    65
 73
     0
 40
0.0
  0
ENDTAB
  0
TABLE
  2
LAYER
  5
2
100
AcDbSymbolTable
 70
2
  0
LAYER
  5
50
100
AcDbSymbolTableRecord
100
AcDbLayerTableRecord
  2
0
 70
0
  6
CONTINUOUS
  0
LAYER
  5
51
100
AcDbSymbolTableRecord
100
AcDbLayerTableRecord
  2
cabeca
 70
0
  6
CONTINUOUS
  0
ENDTAB
  0
TABLE
  2
STYLE
  5
3
330
0
100
AcDbSymbolTable
 70
     1
  0
STYLE
  5
11
330
3
100
AcDbSymbolTableRecord
100
AcDbTextStyleTableRecord
  2
STANDARD
 70
     0
 40
0.0
 41
1.0
 50
0.0
 71
     0
 42
2.5
  3
txt
  4

  0
ENDTAB
  0
TABLE
  2
VIEW
  5
6
330
0
100
AcDbSymbolTable
 70
     0
  0
ENDTAB
  0
TABLE
  2
UCS
  5
7
330
0
100
AcDbSymbolTable
 70
     0
  0
ENDTAB
  0
TABLE
  2
APPID
  5
9
330
0
100
AcDbSymbolTable
 70
     2
  0
APPID
  5
12
330
9
100
AcDbSymbolTableRecord
100
AcDbRegAppTableRecord
  2
ACAD
 70
     0
  0
ENDTAB
  0
TABLE
  2
DIMSTYLE
  5
A
330
0
100
AcDbSymbolTable
 70
     1
  0
DIMSTYLE
105
27
330
A
100
AcDbSymbolTableRecord
100
AcDbDimStyleTableRecord
  2
ISO-25
 70
     0
  3

  4

  5

  6

  7

 40
1.0
 41
2.5
 42
0.625
 43
3.75
 44
1.25
 45
0.0
 46
0.0
 47
0.0
 48
0.0
140
2.5
141
2.5
142
0.0
143
0.03937007874016
144
1.0
145
0.0
146
1.0
147
0.625
 71
     0
 72
     0
 73
     0
 74
     0
 75
     0
 76
     0
 77
     1
 78
     8
170
     0
171
     3
172
     1
173
     0
174
     0
175
     0
176
     0
177
     0
178
     0
270
     2
271
     2
272
     2
273
     2
274
     3
340
11
275
     0
280
     0
281
     0
282
     0
283
     0
284
     8
285
     0
286
     0
287
     3
288
     0
  0
ENDTAB
  0
TABLE
  2
BLOCK_RECORD
  5
1
330
0
100
AcDbSymbolTable
 70
     1
  0
BLOCK_RECORD
  5
1F
330
1
100
AcDbSymbolTableRecord
100
AcDbBlockTableRecord
  2
*MODEL_SPACE
  0
BLOCK_RECORD
  5
1B
330
1
100
AcDbSymbolTableRecord
100
AcDbBlockTableRecord
  2
*PAPER_SPACE
  0
ENDTAB
  0
ENDSEC
  0
SECTION
  2
BLOCKS
  0
BLOCK
  5
20
330
1F
100
AcDbEntity
  8
0
100
AcDbBlockBegin
  2
*MODEL_SPACE
 70
     0
 10
0.0
 20
0.0
 30
0.0
  3
*MODEL_SPACE
  1

  0
ENDBLK
  5
21
330
1F
100
AcDbEntity
  8
0
100
AcDbBlockEnd
  0
BLOCK
  5
1C
330
1B
100
AcDbEntity
 67
     1
  8
0
100
AcDbBlockBegin
  2
*PAPER_SPACE
  1

  0
ENDBLK
  5
1D
330
1B
100
AcDbEntity
 67
     1
  8
0
100
AcDbBlockEnd
  0
ENDSEC
  0
SECTION
  2
ENTITIES
  0
LINE
  5
100
100
AcDbEntity
  8
cabeca
 62
7
100
AcDbLine
 10
0.791804
 20
19.999979
 30
0.0
 11
0.631842
 21
19.983948
 31
0.0
  0
LINE
  5
101
100
AcDbEntity
  8
cabeca
 62
7
100
AcDbLine
 10
0.631842
 20
19.983948
 30
0.0
 11
0.483030
 21
19.937949
 31
0.0
  0
LINE
  5
102
100
AcDbEntity
  8
cabeca
 62
7
100
AcDbLine
 10
0.483030
 20
19.937949
 30
0.0
 11
0.348507
 21
19.865113
 31
0.0
  0
LINE
  5
103
100
AcDbEntity
  8
cabeca
 62
7
100
AcDbLine
 10
0.348507
 20
19.865113
 30
0.0
 11
0.231409
 21
19.768582
 31
0.0
  0
LINE
  5
104
100
AcDbEntity
  8
cabeca
 62
7
100
AcDbLine
 10
0.231409
 20
19.768582
 30
0.0
 11
0.134873
 21
19.651488
 31
0.0
  0
LINE
  5
105
100
AcDbEntity
  8
cabeca
 62
7
100
AcDbLine
 10
0.134873
 20
19.651488
 30
0.0
 11
0.062034
 21
19.516967
 31
0.0
  0
LINE
  5
106
100
AcDbEntity
  8
cabeca
 62
7
100
AcDbLine
 10
0.062034
 20
19.516967
 30
0.0
 11
0.016031
 21
19.368159
 31
0.0
  0
LINE
  5
107
100
AcDbEntity
  8
cabeca
 62
7
100
AcDbLine
 10
0.016031
 20
19.368159
 30
0.0
 11
0.000001
 21
19.208196
 31
0.0
  0
LINE
  5
108
100
AcDbEntity
  8
cabeca
 62
7
100
AcDbLine
 10
0.000001
 20
19.208196
 30
0.0
 11
0.000001
 21
19.096724
 31
0.0
  0
LINE
  5
109
100
AcDbEntity
  8
cabeca
 62
7
100
AcDbLine
 10
0.000001
 20
19.096724
 30
0.0
 11
0.000001
 21
18.985251
 31
0.0
  0
LINE
  5
10a
100
AcDbEntity
  8
cabeca
 62
7
100
AcDbLine
 10
0.000001
 20
18.985251
 30
0.0
 11
0.000001
 21
18.873779
 31
0.0
  0
LINE
  5
10b
100
AcDbEntity
  8
cabeca
 62
7
100
AcDbLine
 10
0.000001
 20
18.873779
 30
0.0
 11
0.000001
 21
18.762307
 31
0.0
  0
LINE
  5
10c
100
AcDbEntity
  8
cabeca
 62
7
100
AcDbLine
 10
0.000001
 20
18.762307
 30
0.0
 11
0.000001
 21
18.650832
 31
0.0
  0
LINE
  5
10d
100
AcDbEntity
  8
cabeca
 62
7
100
AcDbLine
 10
0.000001
 20
18.650832
 30
0.0
 11
0.000001
 21
18.539360
 31
0.0
  0
LINE
  5
10e
100
AcDbEntity
  8
cabeca
 62
7
100
AcDbLine
 10
0.000001
 20
18.539360
 30
0.0
 11
0.000001
 21
18.427888
 31
0.0
  0
LINE
  5
10f
100
AcDbEntity
  8
cabeca
 62
7
100
AcDbLine
 10
0.000001
 20
18.427888
 30
0.0
 11
0.000001
 21
18.316416
 31
0.0
  0
LINE
  5
110
100
AcDbEntity
  8
cabeca
 62
7
100
AcDbLine
 10
0.000001
 20
18.316416
 30
0.0
 11
0.001976
 21
18.315287
 31
0.0
  0
LINE
  5
111
100
AcDbEntity
  8
cabeca
 62
7
100
AcDbLine
 10
0.001976
 20
18.315287
 30
0.0
 11
0.003952
 21
18.314158
 31
0.0
  0
LINE
  5
112
100
AcDbEntity
  8
cabeca
 62
7
100
AcDbLine
 10
0.003952
 20
18.314158
 30
0.0
 11
0.005928
 21
18.313029
 31
0.0
  0
LINE
  5
113
100
AcDbEntity
  8
cabeca
 62
7
100
AcDbLine
 10
0.005928
 20
18.313029
 30
0.0
 11
0.007903
 21
18.311900
 31
0.0
  0
LINE
  5
114
100
AcDbEntity
  8
cabeca
 62
7
100
AcDbLine
 10
0.007903
 20
18.311900
 30
0.0
 11
0.009879
 21
18.310771
 31
0.0
  0
LINE
  5
115
100
AcDbEntity
  8
cabeca
 62
7
100
AcDbLine
 10
0.009879
 20
18.310771
 30
0.0
 11
0.011854
 21
18.309642
 31
0.0
  0
LINE
  5
116
100
AcDbEntity
  8
cabeca
 62
7
100
AcDbLine
 10
0.011854
 20
18.309642
 30
0.0
 11
0.013830
 21
18.308514
 31
0.0
  0
LINE
  5
117
100
AcDbEntity
  8
cabeca
 62
7
100
AcDbLine
 10
0.013830
 20
18.308514
 30
0.0
 11
0.015805
 21
18.307385
 31
0.0
  0
LINE
  5
118
100
AcDbEntity
  8
cabeca
 62
7
100
AcDbLine
 10
0.015805
 20
18.307385
 30
0.0
 11
0.155777
 21
18.120760
 31
0.0
  0
LINE
  5
119
100
AcDbEntity
  8
cabeca
 62
7
100
AcDbLine
 10
0.155777
 20
18.120760
 30
0.0
 11
0.295748
 21
17.934132
 31
0.0
  0
LINE
  5
11a
100
AcDbEntity
  8
cabeca
 62
7
100
AcDbLine
 10
0.295748
 20
17.934132
 30
0.0
 11
0.435719
 21
17.747507
 31
0.0
  0
LINE
  5
11b
100
AcDbEntity
  8
cabeca
 62
7
100
AcDbLine
 10
0.435719
 20
17.747507
 30
0.0
 11
0.575690
 21
17.560879
 31
0.0
  0
LINE
  5
11c
100
AcDbEntity
  8
cabeca
 62
7
100
AcDbLine
 10
0.575690
 20
17.560879
 30
0.0
 11
0.715661
 21
17.374254
 31
0.0
  0
LINE
  5
11d
100
AcDbEntity
  8
cabeca
 62
7
100
AcDbLine
 10
0.715661
 20
17.374254
 30
0.0
 11
0.855633
 21
17.187626
 31
0.0
  0
LINE
  5
11e
100
AcDbEntity
  8
cabeca
 62
7
100
AcDbLine
 10
0.855633
 20
17.187626
 30
0.0
 11
0.995604
 21
17.001001
 31
0.0
  0
LINE
  5
11f
100
AcDbEntity
  8
cabeca
 62
7
100
AcDbLine
 10
0.995604
 20
17.001001
 30
0.0
 11
1.135575
 21
16.814373
 31
0.0
  0
LINE
  5
120
100
AcDbEntity
  8
cabeca
 62
7
100
AcDbLine
 10
1.135575
 20
16.814373
 30
0.0
 11
1.135575
 21
16.660680
 31
0.0
  0
LINE
  5
121
100
AcDbEntity
  8
cabeca
 62
7
100
AcDbLine
 10
1.135575
 20
16.660680
 30
0.0
 11
1.135575
 21
16.506988
 31
0.0
  0
LINE
  5
122
100
AcDbEntity
  8
cabeca
 62
7
100
AcDbLine
 10
1.135575
 20
16.506988
 30
0.0
 11
1.135575
 21
16.353292
 31
0.0
  0
LINE
  5
123
100
AcDbEntity
  8
cabeca
 62
7
100
AcDbLine
 10
1.135575
 20
16.353292
 30
0.0
 11
1.135575
 21
16.199600
 31
0.0
  0
LINE
  5
124
100
AcDbEntity
  8
cabeca
 62
7
100
AcDbLine
 10
1.135575
 20
16.199600
 30
0.0
 11
1.135575
 21
16.045907
 31
0.0
  0
LINE
  5
125
100
AcDbEntity
  8
cabeca
 62
7
100
AcDbLine
 10
1.135575
 20
16.045907
 30
0.0
 11
1.135575
 21
15.892214
 31
0.0
  0
LINE
  5
126
100
AcDbEntity
  8
cabeca
 62
7
100
AcDbLine
 10
1.135575
 20
15.892214
 30
0.0
 11
1.135575
 21
15.738519
 31
0.0
  0
LINE
  5
127
100
AcDbEntity
  8
cabeca
 62
7
100
AcDbLine
 10
1.135575
 20
15.738519
 30
0.0
 11
1.135575
 21
15.584826
 31
0.0
  0
LINE
  5
128
100
AcDbEntity
  8
cabeca
 62
7
100
AcDbLine
 10
1.135575
 20
15.584826
 30
0.0
 11
1.383954
 21
15.528565
 31
0.0
  0
LINE
  5
129
100
AcDbEntity
  8
cabeca
 62
7
100
AcDbLine
 10
1.383954
 20
15.528565
 30
0.0
 11
1.632332
 21
15.472304
 31
0.0
  0
LINE
  5
12a
100
AcDbEntity
  8
cabeca
 62
7
100
AcDbLine
 10
1.632332
 20
15.472304
 30
0.0
 11
1.880711
 21
15.416043
 31
0.0
  0
LINE
  5
12b
100
AcDbEntity
  8
cabeca
 62
7
100
AcDbLine
 10
1.880711
 20
15.416043
 30
0.0
 11
2.129090
 21
15.359785
 31
0.0
  0
LINE
  5
12c
100
AcDbEntity
  8
cabeca
 62
7
100
AcDbLine
 10
2.129090
 20
15.359785
 30
0.0
 11
2.377468
 21
15.303524
 31
0.0
  0
LINE
  5
12d
100
AcDbEntity
  8
cabeca
 62
7
100
AcDbLine
 10
2.377468
 20
15.303524
 30
0.0
 11
2.625847
 21
15.247263
 31
0.0
  0
LINE
  5
12e
100
AcDbEntity
  8
cabeca
 62
7
100
AcDbLine
 10
2.625847
 20
15.247263
 30
0.0
 11
2.874225
 21
15.191002
 31
0.0
  0
LINE
  5
12f
100
AcDbEntity
  8
cabeca
 62
7
100
AcDbLine
 10
2.874225
 20
15.191002
 30
0.0
 11
3.122604
 21
15.134741
 31
0.0
  0
LINE
  5
130
100
AcDbEntity
  8
cabeca
 62
7
100
AcDbLine
 10
3.122604
 20
15.134741
 30
0.0
 11
3.370980
 21
15.191002
 31
0.0
  0
LINE
  5
131
100
AcDbEntity
  8
cabeca
 62
7
100
AcDbLine
 10
3.370980
 20
15.191002
 30
0.0
 11
3.619356
 21
15.247263
 31
0.0
  0
LINE
  5
132
100
AcDbEntity
  8
cabeca
 62
7
100
AcDbLine
 10
3.619356
 20
15.247263
 30
0.0
 11
3.867733
 21
15.303524
 31
0.0
  0
LINE
  5
133
100
AcDbEntity
  8
cabeca
 62
7
100
AcDbLine
 10
3.867733
 20
15.303524
 30
0.0
 11
4.116109
 21
15.359785
 31
0.0
  0
LINE
  5
134
100
AcDbEntity
  8
cabeca
 62
7
100
AcDbLine
 10
4.116109
 20
15.359785
 30
0.0
 11
4.364485
 21
15.416043
 31
0.0
  0
LINE
  5
135
100
AcDbEntity
  8
cabeca
 62
7
100
AcDbLine
 10
4.364485
 20
15.416043
 30
0.0
 11
4.612861
 21
15.472304
 31
0.0
  0
LINE
  5
136
100
AcDbEntity
  8
cabeca
 62
7
100
AcDbLine
 10
4.612861
 20
15.472304
 30
0.0
 11
4.861237
 21
15.528565
 31
0.0
  0
LINE
  5
137
100
AcDbEntity
  8
cabeca
 62
7
100
AcDbLine
 10
4.861237
 20
15.528565
 30
0.0
 11
5.109613
 21
15.584826
 31
0.0
  0
LINE
  5
138
100
AcDbEntity
  8
cabeca
 62
7
100
AcDbLine
 10
5.109613
 20
15.584826
 30
0.0
 11
5.109613
 21
15.741265
 31
0.0
  0
LINE
  5
139
100
AcDbEntity
  8
cabeca
 62
7
100
AcDbLine
 10
5.109613
 20
15.741265
 30
0.0
 11
5.109613
 21
15.897704
 31
0.0
  0
LINE
  5
13a
100
AcDbEntity
  8
cabeca
 62
7
100
AcDbLine
 10
5.109613
 20
15.897704
 30
0.0
 11
5.109613
 21
16.054139
 31
0.0
  0
LINE
  5
13b
100
AcDbEntity
  8
cabeca
 62
7
100
AcDbLine
 10
5.109613
 20
16.054139
 30
0.0
 11
5.109613
 21
16.210578
 31
0.0
  0
LINE
  5
13c
100
AcDbEntity
  8
cabeca
 62
7
100
AcDbLine
 10
5.109613
 20
16.210578
 30
0.0
 11
5.109613
 21
16.367017
 31
0.0
  0
LINE
  5
13d
100
AcDbEntity
  8
cabeca
 62
7
100
AcDbLine
 10
5.109613
 20
16.367017
 30
0.0
 11
5.109613
 21
16.523455
 31
0.0
  0
LINE
  5
13e
100
AcDbEntity
  8
cabeca
 62
7
100
AcDbLine
 10
5.109613
 20
16.523455
 30
0.0
 11
5.109613
 21
16.679891
 31
0.0
  0
LINE
  5
13f
100
AcDbEntity
  8
cabeca
 62
7
100
AcDbLine
 10
5.109613
 20
16.679891
 30
0.0
 11
5.109613
 21
16.836330
 31
0.0
  0
LINE
  5
140
100
AcDbEntity
  8
cabeca
 62
7
100
AcDbLine
 10
5.109613
 20
16.836330
 30
0.0
 11
5.235521
 21
17.009953
 31
0.0
  0
LINE
  5
141
100
AcDbEntity
  8
cabeca
 62
7
100
AcDbLine
 10
5.235521
 20
17.009953
 30
0.0
 11
5.361428
 21
17.183576
 31
0.0
  0
LINE
  5
142
100
AcDbEntity
  8
cabeca
 62
7
100
AcDbLine
 10
5.361428
 20
17.183576
 30
0.0
 11
5.487335
 21
17.357196
 31
0.0
  0
LINE
  5
143
100
AcDbEntity
  8
cabeca
 62
7
100
AcDbLine
 10
5.487335
 20
17.357196
 30
0.0
 11
5.613243
 21
17.530819
 31
0.0
  0
LINE
  5
144
100
AcDbEntity
  8
cabeca
 62
7
100
AcDbLine
 10
5.613243
 20
17.530819
 30
0.0
 11
5.739150
 21
17.704442
 31
0.0
  0
LINE
  5
145
100
AcDbEntity
  8
cabeca
 62
7
100
AcDbLine
 10
5.739150
 20
17.704442
 30
0.0
 11
5.865057
 21
17.878065
 31
0.0
  0
LINE
  5
146
100
AcDbEntity
  8
cabeca
 62
7
100
AcDbLine
 10
5.865057
 20
17.878065
 30
0.0
 11
5.990965
 21
18.051686
 31
0.0
  0
LINE
  5
147
100
AcDbEntity
  8
cabeca
 62
7
100
AcDbLine
 10
5.990965
 20
18.051686
 30
0.0
 11
6.116872
 21
18.225309
 31
0.0
  0
LINE
  5
148
100
AcDbEntity
  8
cabeca
 62
7
100
AcDbLine
 10
6.116872
 20
18.225309
 30
0.0
 11
6.116872
 21
18.348140
 31
0.0
  0
LINE
  5
149
100
AcDbEntity
  8
cabeca
 62
7
100
AcDbLine
 10
6.116872
 20
18.348140
 30
0.0
 11
6.116872
 21
18.470972
 31
0.0
  0
LINE
  5
14a
100
AcDbEntity
  8
cabeca
 62
7
100
AcDbLine
 10
6.116872
 20
18.470972
 30
0.0
 11
6.116872
 21
18.593804
 31
0.0
  0
LINE
  5
14b
100
AcDbEntity
  8
cabeca
 62
7
100
AcDbLine
 10
6.116872
 20
18.593804
 30
0.0
 11
6.116872
 21
18.716638
 31
0.0
  0
LINE
  5
14c
100
AcDbEntity
  8
cabeca
 62
7
100
AcDbLine
 10
6.116872
 20
18.716638
 30
0.0
 11
6.116872
 21
18.839470
 31
0.0
  0
LINE
  5
14d
100
AcDbEntity
  8
cabeca
 62
7
100
AcDbLine
 10
6.116872
 20
18.839470
 30
0.0
 11
6.116872
 21
18.962301
 31
0.0
  0
LINE
  5
14e
100
AcDbEntity
  8
cabeca
 62
7
100
AcDbLine
 10
6.116872
 20
18.962301
 30
0.0
 11
6.116872
 21
19.085133
 31
0.0
  0
LINE
  5
14f
100
AcDbEntity
  8
cabeca
 62
7
100
AcDbLine
 10
6.116872
 20
19.085133
 30
0.0
 11
6.116872
 21
19.207964
 31
0.0
  0
LINE
  5
150
100
AcDbEntity
  8
cabeca
 62
7
100
AcDbLine
 10
6.116872
 20
19.207964
 30
0.0
 11
6.101804
 21
19.363116
 31
0.0
  0
LINE
  5
151
100
AcDbEntity
  8
cabeca
 62
7
100
AcDbLine
 10
6.101804
 20
19.363116
 30
0.0
 11
6.058506
 21
19.507885
 31
0.0
  0
LINE
  5
152
100
AcDbEntity
  8
cabeca
 62
7
100
AcDbLine
 10
6.058506
 20
19.507885
 30
0.0
 11
5.989830
 21
19.639420
 31
0.0
  0
LINE
  5
153
100
AcDbEntity
  8
cabeca
 62
7
100
AcDbLine
 10
5.989830
 20
19.639420
 30
0.0
 11
5.898629
 21
19.754869
 31
0.0
  0
LINE
  5
154
100
AcDbEntity
  8
cabeca
 62
7
100
AcDbLine
 10
5.898629
 20
19.754869
 30
0.0
 11
5.787757
 21
19.851375
 31
0.0
  0
LINE
  5
155
100
AcDbEntity
  8
cabeca
 62
7
100
AcDbLine
 10
5.787757
 20
19.851375
 30
0.0
 11
5.660067
 21
19.926087
 31
0.0
  0
LINE
  5
156
100
AcDbEntity
  8
cabeca
 62
7
100
AcDbLine
 10
5.660067
 20
19.926087
 30
0.0
 11
5.518411
 21
19.976153
 31
0.0
  0
LINE
  5
157
100
AcDbEntity
  8
cabeca
 62
7
100
AcDbLine
 10
5.518411
 20
19.976153
 30
0.0
 11
5.365644
 21
19.998731
 31
0.0
  0
LINE
  5
158
100
AcDbEntity
  8
cabeca
 62
7
100
AcDbLine
 10
5.365644
 20
19.998731
 30
0.0
 11
5.326779
 21
19.945120
 31
0.0
  0
LINE
  5
159
100
AcDbEntity
  8
cabeca
 62
7
100
AcDbLine
 10
5.326779
 20
19.945120
 30
0.0
 11
5.287914
 21
19.891512
 31
0.0
  0
LINE
  5
15a
100
AcDbEntity
  8
cabeca
 62
7
100
AcDbLine
 10
5.287914
 20
19.891512
 30
0.0
 11
5.249049
 21
19.837901
 31
0.0
  0
LINE
  5
15b
100
AcDbEntity
  8
cabeca
 62
7
100
AcDbLine
 10
5.249049
 20
19.837901
 30
0.0
 11
5.210184
 21
19.784293
 31
0.0
  0
LINE
  5
15c
100
AcDbEntity
  8
cabeca
 62
7
100
AcDbLine
 10
5.210184
 20
19.784293
 30
0.0
 11
5.171319
 21
19.730682
 31
0.0
  0
LINE
  5
15d
100
AcDbEntity
  8
cabeca
 62
7
100
AcDbLine
 10
5.171319
 20
19.730682
 30
0.0
 11
5.132454
 21
19.677071
 31
0.0
  0
LINE
  5
15e
100
AcDbEntity
  8
cabeca
 62
7
100
AcDbLine
 10
5.132454
 20
19.677071
 30
0.0
 11
5.093589
 21
19.623463
 31
0.0
  0
LINE
  5
15f
100
AcDbEntity
  8
cabeca
 62
7
100
AcDbLine
 10
5.093589
 20
19.623463
 30
0.0
 11
5.054724
 21
19.569852
 31
0.0
  0
LINE
  5
160
100
AcDbEntity
  8
cabeca
 62
7
100
AcDbLine
 10
5.054724
 20
19.569852
 30
0.0
 11
4.574436
 21
19.569852
 31
0.0
  0
LINE
  5
161
100
AcDbEntity
  8
cabeca
 62
7
100
AcDbLine
 10
4.574436
 20
19.569852
 30
0.0
 11
4.094148
 21
19.569852
 31
0.0
  0
LINE
  5
162
100
AcDbEntity
  8
cabeca
 62
7
100
AcDbLine
 10
4.094148
 20
19.569852
 30
0.0
 11
3.613859
 21
19.569852
 31
0.0
  0
LINE
  5
163
100
AcDbEntity
  8
cabeca
 62
7
100
AcDbLine
 10
3.613859
 20
19.569852
 30
0.0
 11
3.133571
 21
19.569852
 31
0.0
  0
LINE
  5
164
100
AcDbEntity
  8
cabeca
 62
7
100
AcDbLine
 10
3.133571
 20
19.569852
 30
0.0
 11
2.653282
 21
19.569852
 31
0.0
  0
LINE
  5
165
100
AcDbEntity
  8
cabeca
 62
7
100
AcDbLine
 10
2.653282
 20
19.569852
 30
0.0
 11
2.172994
 21
19.569852
 31
0.0
  0
LINE
  5
166
100
AcDbEntity
  8
cabeca
 62
7
100
AcDbLine
 10
2.172994
 20
19.569852
 30
0.0
 11
1.692706
 21
19.569852
 31
0.0
  0
LINE
  5
167
100
AcDbEntity
  8
cabeca
 62
7
100
AcDbLine
 10
1.692706
 20
19.569852
 30
0.0
 11
1.212417
 21
19.569852
 31
0.0
  0
LINE
  5
168
100
AcDbEntity
  8
cabeca
 62
7
100
AcDbLine
 10
1.212417
 20
19.569852
 30
0.0
 11
1.164390
 21
19.621998
 31
0.0
  0
LINE
  5
169
100
AcDbEntity
  8
cabeca
 62
7
100
AcDbLine
 10
1.164390
 20
19.621998
 30
0.0
 11
1.116362
 21
19.674145
 31
0.0
  0
LINE
  5
16a
100
AcDbEntity
  8
cabeca
 62
7
100
AcDbLine
 10
1.116362
 20
19.674145
 30
0.0
 11
1.068335
 21
19.726291
 31
0.0
  0
LINE
  5
16b
100
AcDbEntity
  8
cabeca
 62
7
100
AcDbLine
 10
1.068335
 20
19.726291
 30
0.0
 11
1.020308
 21
19.778440
 31
0.0
  0
LINE
  5
16c
100
AcDbEntity
  8
cabeca
 62
7
100
AcDbLine
 10
1.020308
 20
19.778440
 30
0.0
 11
0.972280
 21
19.830586
 31
0.0
  0
LINE
  5
16d
100
AcDbEntity
  8
cabeca
 62
7
100
AcDbLine
 10
0.972280
 20
19.830586
 30
0.0
 11
0.924252
 21
19.882732
 31
0.0
  0
LINE
  5
16e
100
AcDbEntity
  8
cabeca
 62
7
100
AcDbLine
 10
0.924252
 20
19.882732
 30
0.0
 11
0.876225
 21
19.934878
 31
0.0
  0
LINE
  5
16f
100
AcDbEntity
  8
cabeca
 62
7
100
AcDbLine
 10
0.876225
 20
19.934878
 30
0.0
 11
0.828197
 21
19.987025
 31
0.0
  0
LINE
  5
170
100
AcDbEntity
  8
cabeca
 62
7
100
AcDbLine
 10
0.828197
 20
19.987025
 30
0.0
 11
0.825940
 21
19.988718
 31
0.0
  0
LINE
  5
171
100
AcDbEntity
  8
cabeca
 62
7
100
AcDbLine
 10
0.825940
 20
19.988718
 30
0.0
 11
0.823682
 21
19.990411
 31
0.0
  0
LINE
  5
172
100
AcDbEntity
  8
cabeca
 62
7
100
AcDbLine
 10
0.823682
 20
19.990411
 30
0.0
 11
0.821424
 21
19.992105
 31
0.0
  0
LINE
  5
173
100
AcDbEntity
  8
cabeca
 62
7
100
AcDbLine
 10
0.821424
 20
19.992105
 30
0.0
 11
0.819166
 21
19.993798
 31
0.0
  0
LINE
  5
174
100
AcDbEntity
  8
cabeca
 62
7
100
AcDbLine
 10
0.819166
 20
19.993798
 30
0.0
 11
0.816909
 21
19.995491
 31
0.0
  0
LINE
  5
175
100
AcDbEntity
  8
cabeca
 62
7
100
AcDbLine
 10
0.816909
 20
19.995491
 30
0.0
 11
0.814651
 21
19.997185
 31
0.0
  0
LINE
  5
176
100
AcDbEntity
  8
cabeca
 62
7
100
AcDbLine
 10
0.814651
 20
19.997185
 30
0.0
 11
0.812393
 21
19.998878
 31
0.0
  0
LINE
  5
177
100
AcDbEntity
  8
cabeca
 62
7
100
AcDbLine
 10
0.812393
 20
19.998878
 30
0.0
 11
0.810135
 21
20.000571
 31
0.0
  0
LINE
  5
178
100
AcDbEntity
  8
cabeca
 62
7
100
AcDbLine
 10
0.810135
 20
20.000571
 30
0.0
 11
0.807821
 21
20.000571
 31
0.0
  0
LINE
  5
179
100
AcDbEntity
  8
cabeca
 62
7
100
AcDbLine
 10
0.807821
 20
20.000571
 30
0.0
 11
0.805507
 21
20.000571
 31
0.0
  0
LINE
  5
17a
100
AcDbEntity
  8
cabeca
 62
7
100
AcDbLine
 10
0.805507
 20
20.000571
 30
0.0
 11
0.803193
 21
20.000571
 31
0.0
  0
LINE
  5
17b
100
AcDbEntity
  8
cabeca
 62
7
100
AcDbLine
 10
0.803193
 20
20.000571
 30
0.0
 11
0.800878
 21
20.000571
 31
0.0
  0
LINE
  5
17c
100
AcDbEntity
  8
cabeca
 62
7
100
AcDbLine
 10
0.800878
 20
20.000571
 30
0.0
 11
0.798564
 21
20.000571
 31
0.0
  0
LINE
  5
17d
100
AcDbEntity
  8
cabeca
 62
7
100
AcDbLine
 10
0.798564
 20
20.000571
 30
0.0
 11
0.796250
 21
20.000571
 31
0.0
  0
LINE
  5
17e
100
AcDbEntity
  8
cabeca
 62
7
100
AcDbLine
 10
0.796250
 20
20.000571
 30
0.0
 11
0.793936
 21
20.000571
 31
0.0
  0
LINE
  5
17f
100
AcDbEntity
  8
cabeca
 62
7
100
AcDbLine
 10
0.793936
 20
20.000571
 30
0.0
 11
0.791621
 21
20.000571
 31
0.0
  0
LINE
  5
180
100
AcDbEntity
  8
cabeca
 62
7
100
AcDbLine
 10
0.791621
 20
20.000571
 30
0.0
 11
0.791622
 21
20.000571
 31
0.0
  0
LINE
  5
181
100
AcDbEntity
  8
cabeca
 62
7
100
AcDbLine
 10
0.791622
 20
20.000571
 30
0.0
 11
0.791622
 21
20.000574
 31
0.0
  0
LINE
  5
182
100
AcDbEntity
  8
cabeca
 62
7
100
AcDbLine
 10
0.791622
 20
20.000574
 30
0.0
 11
0.791622
 21
20.000574
 31
0.0
  0
LINE
  5
183
100
AcDbEntity
  8
cabeca
 62
7
100
AcDbLine
 10
0.791622
 20
20.000574
 30
0.0
 11
0.791623
 21
20.000577
 31
0.0
  0
LINE
  5
184
100
AcDbEntity
  8
cabeca
 62
7
100
AcDbLine
 10
0.791623
 20
20.000577
 30
0.0
 11
0.791623
 21
20.000577
 31
0.0
  0
LINE
  5
185
100
AcDbEntity
  8
cabeca
 62
7
100
AcDbLine
 10
0.791623
 20
20.000577
 30
0.0
 11
0.791623
 21
20.000577
 31
0.0
  0
LINE
  5
186
100
AcDbEntity
  8
cabeca
 62
7
100
AcDbLine
 10
0.791623
 20
20.000577
 30
0.0
 11
0.791623
 21
20.000580
 31
0.0
  0
LINE
  5
187
100
AcDbEntity
  8
cabeca
 62
7
100
AcDbLine
 10
0.791623
 20
20.000580
 30
0.0
 11
0.791804
 21
19.999979
 31
0.0
  0
LINE
  5
188
100
AcDbEntity
  8
cabeca
 62
7
100
AcDbLine
 10
0.578999
 20
19.285979
 30
0.0
 11
0.718567
 21
19.151334
 31
0.0
  0
LINE
  5
189
100
AcDbEntity
  8
cabeca
 62
7
100
AcDbLine
 10
0.718567
 20
19.151334
 30
0.0
 11
0.858136
 21
19.016688
 31
0.0
  0
LINE
  5
18a
100
AcDbEntity
  8
cabeca
 62
7
100
AcDbLine
 10
0.858136
 20
19.016688
 30
0.0
 11
0.997704
 21
18.882043
 31
0.0
  0
LINE
  5
18b
100
AcDbEntity
  8
cabeca
 62
7
100
AcDbLine
 10
0.997704
 20
18.882043
 30
0.0
 11
1.137271
 21
18.747397
 31
0.0
  0
LINE
  5
18c
100
AcDbEntity
  8
cabeca
 62
7
100
AcDbLine
 10
1.137271
 20
18.747397
 30
0.0
 11
1.276840
 21
18.612752
 31
0.0
  0
LINE
  5
18d
100
AcDbEntity
  8
cabeca
 62
7
100
AcDbLine
 10
1.276840
 20
18.612752
 30
0.0
 11
1.416408
 21
18.478107
 31
0.0
  0
LINE
  5
18e
100
AcDbEntity
  8
cabeca
 62
7
100
AcDbLine
 10
1.416408
 20
18.478107
 30
0.0
 11
1.555976
 21
18.343461
 31
0.0
  0
LINE
  5
18f
100
AcDbEntity
  8
cabeca
 62
7
100
AcDbLine
 10
1.555976
 20
18.343461
 30
0.0
 11
1.695544
 21
18.208816
 31
0.0
  0
LINE
  5
190
100
AcDbEntity
  8
cabeca
 62
7
100
AcDbLine
 10
1.695544
 20
18.208816
 30
0.0
 11
1.656895
 21
18.099237
 31
0.0
  0
LINE
  5
191
100
AcDbEntity
  8
cabeca
 62
7
100
AcDbLine
 10
1.656895
 20
18.099237
 30
0.0
 11
1.601390
 21
18.000660
 31
0.0
  0
LINE
  5
192
100
AcDbEntity
  8
cabeca
 62
7
100
AcDbLine
 10
1.601390
 20
18.000660
 30
0.0
 11
1.530362
 21
17.915480
 31
0.0
  0
LINE
  5
193
100
AcDbEntity
  8
cabeca
 62
7
100
AcDbLine
 10
1.530362
 20
17.915480
 30
0.0
 11
1.445145
 21
17.846087
 31
0.0
  0
LINE
  5
194
100
AcDbEntity
  8
cabeca
 62
7
100
AcDbLine
 10
1.445145
 20
17.846087
 30
0.0
 11
1.347073
 21
17.794875
 31
0.0
  0
LINE
  5
195
100
AcDbEntity
  8
cabeca
 62
7
100
AcDbLine
 10
1.347073
 20
17.794875
 30
0.0
 11
1.237479
 21
17.764234
 31
0.0
  0
LINE
  5
196
100
AcDbEntity
  8
cabeca
 62
7
100
AcDbLine
 10
1.237479
 20
17.764234
 30
0.0
 11
1.117697
 21
17.756557
 31
0.0
  0
LINE
  5
197
100
AcDbEntity
  8
cabeca
 62
7
100
AcDbLine
 10
1.117697
 20
17.756557
 30
0.0
 11
0.989062
 21
17.774225
 31
0.0
  0
LINE
  5
198
100
AcDbEntity
  8
cabeca
 62
7
100
AcDbLine
 10
0.989062
 20
17.774225
 30
0.0
 11
0.864661
 21
17.815962
 31
0.0
  0
LINE
  5
199
100
AcDbEntity
  8
cabeca
 62
7
100
AcDbLine
 10
0.864661
 20
17.815962
 30
0.0
 11
0.753678
 21
17.877840
 31
0.0
  0
LINE
  5
19a
100
AcDbEntity
  8
cabeca
 62
7
100
AcDbLine
 10
0.753678
 20
17.877840
 30
0.0
 11
0.656404
 21
17.957181
 31
0.0
  0
LINE
  5
19b
100
AcDbEntity
  8
cabeca
 62
7
100
AcDbLine
 10
0.656404
 20
17.957181
 30
0.0
 11
0.573133
 21
18.051310
 31
0.0
  0
LINE
  5
19c
100
AcDbEntity
  8
cabeca
 62
7
100
AcDbLine
 10
0.573133
 20
18.051310
 30
0.0
 11
0.504157
 21
18.157550
 31
0.0
  0
LINE
  5
19d
100
AcDbEntity
  8
cabeca
 62
7
100
AcDbLine
 10
0.504157
 20
18.157550
 30
0.0
 11
0.449769
 21
18.273225
 31
0.0
  0
LINE
  5
19e
100
AcDbEntity
  8
cabeca
 62
7
100
AcDbLine
 10
0.449769
 20
18.273225
 30
0.0
 11
0.410262
 21
18.395664
 31
0.0
  0
LINE
  5
19f
100
AcDbEntity
  8
cabeca
 62
7
100
AcDbLine
 10
0.410262
 20
18.395664
 30
0.0
 11
0.385929
 21
18.522184
 31
0.0
  0
LINE
  5
1a0
100
AcDbEntity
  8
cabeca
 62
7
100
AcDbLine
 10
0.385929
 20
18.522184
 30
0.0
 11
0.375478
 21
18.633047
 31
0.0
  0
LINE
  5
1a1
100
AcDbEntity
  8
cabeca
 62
7
100
AcDbLine
 10
0.375478
 20
18.633047
 30
0.0
 11
0.373418
 21
18.743565
 31
0.0
  0
LINE
  5
1a2
100
AcDbEntity
  8
cabeca
 62
7
100
AcDbLine
 10
0.373418
 20
18.743565
 30
0.0
 11
0.380476
 21
18.851710
 31
0.0
  0
LINE
  5
1a3
100
AcDbEntity
  8
cabeca
 62
7
100
AcDbLine
 10
0.380476
 20
18.851710
 30
0.0
 11
0.397418
 21
18.955460
 31
0.0
  0
LINE
  5
1a4
100
AcDbEntity
  8
cabeca
 62
7
100
AcDbLine
 10
0.397418
 20
18.955460
 30
0.0
 11
0.424991
 21
19.052784
 31
0.0
  0
LINE
  5
1a5
100
AcDbEntity
  8
cabeca
 62
7
100
AcDbLine
 10
0.424991
 20
19.052784
 30
0.0
 11
0.463948
 21
19.141662
 31
0.0
  0
LINE
  5
1a6
100
AcDbEntity
  8
cabeca
 62
7
100
AcDbLine
 10
0.463948
 20
19.141662
 30
0.0
 11
0.515038
 21
19.220066
 31
0.0
  0
LINE
  5
1a7
100
AcDbEntity
  8
cabeca
 62
7
100
AcDbLine
 10
0.515038
 20
19.220066
 30
0.0
 11
0.578999
 21
19.285979
 31
0.0
  0
LINE
  5
1a8
100
AcDbEntity
  8
cabeca
 62
7
100
AcDbLine
 10
5.644808
 20
19.271529
 30
0.0
 11
5.708783
 21
19.205627
 31
0.0
  0
LINE
  5
1a9
100
AcDbEntity
  8
cabeca
 62
7
100
AcDbLine
 10
5.708783
 20
19.205627
 30
0.0
 11
5.759871
 21
19.127221
 31
0.0
  0
LINE
  5
1aa
100
AcDbEntity
  8
cabeca
 62
7
100
AcDbLine
 10
5.759871
 20
19.127221
 30
0.0
 11
5.798825
 21
19.038340
 31
0.0
  0
LINE
  5
1ab
100
AcDbEntity
  8
cabeca
 62
7
100
AcDbLine
 10
5.798825
 20
19.038340
 30
0.0
 11
5.826395
 21
18.941010
 31
0.0
  0
LINE
  5
1ac
100
AcDbEntity
  8
cabeca
 62
7
100
AcDbLine
 10
5.826395
 20
18.941010
 30
0.0
 11
5.843331
 21
18.837257
 31
0.0
  0
LINE
  5
1ad
100
AcDbEntity
  8
cabeca
 62
7
100
AcDbLine
 10
5.843331
 20
18.837257
 30
0.0
 11
5.850387
 21
18.729107
 31
0.0
  0
LINE
  5
1ae
100
AcDbEntity
  8
cabeca
 62
7
100
AcDbLine
 10
5.850387
 20
18.729107
 30
0.0
 11
5.848298
 21
18.618588
 31
0.0
  0
LINE
  5
1af
100
AcDbEntity
  8
cabeca
 62
7
100
AcDbLine
 10
5.848298
 20
18.618588
 30
0.0
 11
5.837845
 21
18.507723
 31
0.0
  0
LINE
  5
1b0
100
AcDbEntity
  8
cabeca
 62
7
100
AcDbLine
 10
5.837845
 20
18.507723
 30
0.0
 11
5.813511
 21
18.381203
 31
0.0
  0
LINE
  5
1b1
100
AcDbEntity
  8
cabeca
 62
7
100
AcDbLine
 10
5.813511
 20
18.381203
 30
0.0
 11
5.774004
 21
18.258766
 31
0.0
  0
LINE
  5
1b2
100
AcDbEntity
  8
cabeca
 62
7
100
AcDbLine
 10
5.774004
 20
18.258766
 30
0.0
 11
5.719616
 21
18.143089
 31
0.0
  0
LINE
  5
1b3
100
AcDbEntity
  8
cabeca
 62
7
100
AcDbLine
 10
5.719616
 20
18.143089
 30
0.0
 11
5.650641
 21
18.036849
 31
0.0
  0
LINE
  5
1b4
100
AcDbEntity
  8
cabeca
 62
7
100
AcDbLine
 10
5.650641
 20
18.036849
 30
0.0
 11
5.567370
 21
17.942723
 31
0.0
  0
LINE
  5
1b5
100
AcDbEntity
  8
cabeca
 62
7
100
AcDbLine
 10
5.567370
 20
17.942723
 30
0.0
 11
5.470097
 21
17.863381
 31
0.0
  0
LINE
  5
1b6
100
AcDbEntity
  8
cabeca
 62
7
100
AcDbLine
 10
5.470097
 20
17.863381
 30
0.0
 11
5.359113
 21
17.801501
 31
0.0
  0
LINE
  5
1b7
100
AcDbEntity
  8
cabeca
 62
7
100
AcDbLine
 10
5.359113
 20
17.801501
 30
0.0
 11
5.234713
 21
17.759764
 31
0.0
  0
LINE
  5
1b8
100
AcDbEntity
  8
cabeca
 62
7
100
AcDbLine
 10
5.234713
 20
17.759764
 30
0.0
 11
5.106078
 21
17.742096
 31
0.0
  0
LINE
  5
1b9
100
AcDbEntity
  8
cabeca
 62
7
100
AcDbLine
 10
5.106078
 20
17.742096
 30
0.0
 11
4.986299
 21
17.749773
 31
0.0
  0
LINE
  5
1ba
100
AcDbEntity
  8
cabeca
 62
7
100
AcDbLine
 10
4.986299
 20
17.749773
 30
0.0
 11
4.876709
 21
17.780414
 31
0.0
  0
LINE
  5
1bb
100
AcDbEntity
  8
cabeca
 62
7
100
AcDbLine
 10
4.876709
 20
17.780414
 30
0.0
 11
4.778641
 21
17.831626
 31
0.0
  0
LINE
  5
1bc
100
AcDbEntity
  8
cabeca
 62
7
100
AcDbLine
 10
4.778641
 20
17.831626
 30
0.0
 11
4.693428
 21
17.901019
 31
0.0
  0
LINE
  5
1bd
100
AcDbEntity
  8
cabeca
 62
7
100
AcDbLine
 10
4.693428
 20
17.901019
 30
0.0
 11
4.622403
 21
17.986199
 31
0.0
  0
LINE
  5
1be
100
AcDbEntity
  8
cabeca
 62
7
100
AcDbLine
 10
4.622403
 20
17.986199
 30
0.0
 11
4.566900
 21
18.084776
 31
0.0
  0
LINE
  5
1bf
100
AcDbEntity
  8
cabeca
 62
7
100
AcDbLine
 10
4.566900
 20
18.084776
 30
0.0
 11
4.528252
 21
18.194358
 31
0.0
  0
LINE
  5
1c0
100
AcDbEntity
  8
cabeca
 62
7
100
AcDbLine
 10
4.528252
 20
18.194358
 30
0.0
 11
4.667820
 21
18.329006
 31
0.0
  0
LINE
  5
1c1
100
AcDbEntity
  8
cabeca
 62
7
100
AcDbLine
 10
4.667820
 20
18.329006
 30
0.0
 11
4.807388
 21
18.463654
 31
0.0
  0
LINE
  5
1c2
100
AcDbEntity
  8
cabeca
 62
7
100
AcDbLine
 10
4.807388
 20
18.463654
 30
0.0
 11
4.946956
 21
18.598302
 31
0.0
  0
LINE
  5
1c3
100
AcDbEntity
  8
cabeca
 62
7
100
AcDbLine
 10
4.946956
 20
18.598302
 30
0.0
 11
5.086524
 21
18.732950
 31
0.0
  0
LINE
  5
1c4
100
AcDbEntity
  8
cabeca
 62
7
100
AcDbLine
 10
5.086524
 20
18.732950
 30
0.0
 11
5.226092
 21
18.867596
 31
0.0
  0
LINE
  5
1c5
100
AcDbEntity
  8
cabeca
 62
7
100
AcDbLine
 10
5.226092
 20
18.867596
 30
0.0
 11
5.365660
 21
19.002244
 31
0.0
  0
LINE
  5
1c6
100
AcDbEntity
  8
cabeca
 62
7
100
AcDbLine
 10
5.365660
 20
19.002244
 30
0.0
 11
5.505228
 21
19.136892
 31
0.0
  0
LINE
  5
1c7
100
AcDbEntity
  8
cabeca
 62
7
100
AcDbLine
 10
5.505228
 20
19.136892
 30
0.0
 11
5.644808
 21
19.271529
 31
0.0
  0
LINE
  5
1c8
100
AcDbEntity
  8
cabeca
 62
7
100
AcDbLine
 10
3.978972
 20
16.660926
 30
0.0
 11
3.870565
 21
16.582708
 31
0.0
  0
LINE
  5
1c9
100
AcDbEntity
  8
cabeca
 62
7
100
AcDbLine
 10
3.870565
 20
16.582708
 30
0.0
 11
3.762157
 21
16.504487
 31
0.0
  0
LINE
  5
1ca
100
AcDbEntity
  8
cabeca
 62
7
100
AcDbLine
 10
3.762157
 20
16.504487
 30
0.0
 11
3.653749
 21
16.426269
 31
0.0
  0
LINE
  5
1cb
100
AcDbEntity
  8
cabeca
 62
7
100
AcDbLine
 10
3.653749
 20
16.426269
 30
0.0
 11
3.545342
 21
16.348051
 31
0.0
  0
LINE
  5
1cc
100
AcDbEntity
  8
cabeca
 62
7
100
AcDbLine
 10
3.545342
 20
16.348051
 30
0.0
 11
3.436934
 21
16.269831
 31
0.0
  0
LINE
  5
1cd
100
AcDbEntity
  8
cabeca
 62
7
100
AcDbLine
 10
3.436934
 20
16.269831
 30
0.0
 11
3.328526
 21
16.191613
 31
0.0
  0
LINE
  5
1ce
100
AcDbEntity
  8
cabeca
 62
7
100
AcDbLine
 10
3.328526
 20
16.191613
 30
0.0
 11
3.220119
 21
16.113392
 31
0.0
  0
LINE
  5
1cf
100
AcDbEntity
  8
cabeca
 62
7
100
AcDbLine
 10
3.220119
 20
16.113392
 30
0.0
 11
3.111711
 21
16.035174
 31
0.0
  0
LINE
  5
1d0
100
AcDbEntity
  8
cabeca
 62
7
100
AcDbLine
 10
3.111711
 20
16.035174
 30
0.0
 11
3.003301
 21
16.112020
 31
0.0
  0
LINE
  5
1d1
100
AcDbEntity
  8
cabeca
 62
7
100
AcDbLine
 10
3.003301
 20
16.112020
 30
0.0
 11
2.894890
 21
16.188867
 31
0.0
  0
LINE
  5
1d2
100
AcDbEntity
  8
cabeca
 62
7
100
AcDbLine
 10
2.894890
 20
16.188867
 30
0.0
 11
2.786480
 21
16.265713
 31
0.0
  0
LINE
  5
1d3
100
AcDbEntity
  8
cabeca
 62
7
100
AcDbLine
 10
2.786480
 20
16.265713
 30
0.0
 11
2.678070
 21
16.342562
 31
0.0
  0
LINE
  5
1d4
100
AcDbEntity
  8
cabeca
 62
7
100
AcDbLine
 10
2.678070
 20
16.342562
 30
0.0
 11
2.569659
 21
16.419408
 31
0.0
  0
LINE
  5
1d5
100
AcDbEntity
  8
cabeca
 62
7
100
AcDbLine
 10
2.569659
 20
16.419408
 30
0.0
 11
2.461249
 21
16.496255
 31
0.0
  0
LINE
  5
1d6
100
AcDbEntity
  8
cabeca
 62
7
100
AcDbLine
 10
2.461249
 20
16.496255
 30
0.0
 11
2.352839
 21
16.573101
 31
0.0
  0
LINE
  5
1d7
100
AcDbEntity
  8
cabeca
 62
7
100
AcDbLine
 10
2.352839
 20
16.573101
 30
0.0
 11
2.244428
 21
16.649947
 31
0.0
  0
LINE
  5
1d8
100
AcDbEntity
  8
cabeca
 62
7
100
AcDbLine
 10
2.244428
 20
16.649947
 30
0.0
 11
2.351464
 21
16.607405
 31
0.0
  0
LINE
  5
1d9
100
AcDbEntity
  8
cabeca
 62
7
100
AcDbLine
 10
2.351464
 20
16.607405
 30
0.0
 11
2.458499
 21
16.564866
 31
0.0
  0
LINE
  5
1da
100
AcDbEntity
  8
cabeca
 62
7
100
AcDbLine
 10
2.458499
 20
16.564866
 30
0.0
 11
2.565535
 21
16.522324
 31
0.0
  0
LINE
  5
1db
100
AcDbEntity
  8
cabeca
 62
7
100
AcDbLine
 10
2.565535
 20
16.522324
 30
0.0
 11
2.672571
 21
16.479784
 31
0.0
  0
LINE
  5
1dc
100
AcDbEntity
  8
cabeca
 62
7
100
AcDbLine
 10
2.672571
 20
16.479784
 30
0.0
 11
2.779606
 21
16.437242
 31
0.0
  0
LINE
  5
1dd
100
AcDbEntity
  8
cabeca
 62
7
100
AcDbLine
 10
2.779606
 20
16.437242
 30
0.0
 11
2.886641
 21
16.394700
 31
0.0
  0
LINE
  5
1de
100
AcDbEntity
  8
cabeca
 62
7
100
AcDbLine
 10
2.886641
 20
16.394700
 30
0.0
 11
2.993677
 21
16.352160
 31
0.0
  0
LINE
  5
1df
100
AcDbEntity
  8
cabeca
 62
7
100
AcDbLine
 10
2.993677
 20
16.352160
 30
0.0
 11
3.100712
 21
16.309618
 31
0.0
  0
LINE
  5
1e0
100
AcDbEntity
  8
cabeca
 62
7
100
AcDbLine
 10
3.100712
 20
16.309618
 30
0.0
 11
3.210495
 21
16.353532
 31
0.0
  0
LINE
  5
1e1
100
AcDbEntity
  8
cabeca
 62
7
100
AcDbLine
 10
3.210495
 20
16.353532
 30
0.0
 11
3.320277
 21
16.397446
 31
0.0
  0
LINE
  5
1e2
100
AcDbEntity
  8
cabeca
 62
7
100
AcDbLine
 10
3.320277
 20
16.397446
 30
0.0
 11
3.430060
 21
16.441360
 31
0.0
  0
LINE
  5
1e3
100
AcDbEntity
  8
cabeca
 62
7
100
AcDbLine
 10
3.430060
 20
16.441360
 30
0.0
 11
3.539842
 21
16.485273
 31
0.0
  0
LINE
  5
1e4
100
AcDbEntity
  8
cabeca
 62
7
100
AcDbLine
 10
3.539842
 20
16.485273
 30
0.0
 11
3.649625
 21
16.529184
 31
0.0
  0
LINE
  5
1e5
100
AcDbEntity
  8
cabeca
 62
7
100
AcDbLine
 10
3.649625
 20
16.529184
 30
0.0
 11
3.759407
 21
16.573098
 31
0.0
  0
LINE
  5
1e6
100
AcDbEntity
  8
cabeca
 62
7
100
AcDbLine
 10
3.759407
 20
16.573098
 30
0.0
 11
3.869190
 21
16.617012
 31
0.0
  0
LINE
  5
1e7
100
AcDbEntity
  8
cabeca
 62
7
100
AcDbLine
 10
3.869190
 20
16.617012
 30
0.0
 11
3.978972
 21
16.660926
 31
0.0
  0
LINE
  5
1e8
100
AcDbEntity
  8
cabeca
 62
7
100
AcDbLine
 10
1.464990
 20
15.420401
 30
0.0
 11
1.526742
 21
15.290037
 31
0.0
  0
LINE
  5
1e9
100
AcDbEntity
  8
cabeca
 62
7
100
AcDbLine
 10
1.526742
 20
15.290037
 30
0.0
 11
1.588495
 21
15.159676
 31
0.0
  0
LINE
  5
1ea
100
AcDbEntity
  8
cabeca
 62
7
100
AcDbLine
 10
1.588495
 20
15.159676
 30
0.0
 11
1.650247
 21
15.029312
 31
0.0
  0
LINE
  5
1eb
100
AcDbEntity
  8
cabeca
 62
7
100
AcDbLine
 10
1.650247
 20
15.029312
 30
0.0
 11
1.712000
 21
14.898950
 31
0.0
  0
LINE
  5
1ec
100
AcDbEntity
  8
cabeca
 62
7
100
AcDbLine
 10
1.712000
 20
14.898950
 30
0.0
 11
1.773752
 21
14.768586
 31
0.0
  0
LINE
  5
1ed
100
AcDbEntity
  8
cabeca
 62
7
100
AcDbLine
 10
1.773752
 20
14.768586
 30
0.0
 11
1.835504
 21
14.638222
 31
0.0
  0
LINE
  5
1ee
100
AcDbEntity
  8
cabeca
 62
7
100
AcDbLine
 10
1.835504
 20
14.638222
 30
0.0
 11
1.897257
 21
14.507861
 31
0.0
  0
LINE
  5
1ef
100
AcDbEntity
  8
cabeca
 62
7
100
AcDbLine
 10
1.897257
 20
14.507861
 30
0.0
 11
1.959009
 21
14.377497
 31
0.0
  0
LINE
  5
1f0
100
AcDbEntity
  8
cabeca
 62
7
100
AcDbLine
 10
1.959009
 20
14.377497
 30
0.0
 11
2.244438
 21
14.374674
 31
0.0
  0
LINE
  5
1f1
100
AcDbEntity
  8
cabeca
 62
7
100
AcDbLine
 10
2.244438
 20
14.374674
 30
0.0
 11
2.529866
 21
14.371852
 31
0.0
  0
LINE
  5
1f2
100
AcDbEntity
  8
cabeca
 62
7
100
AcDbLine
 10
2.529866
 20
14.371852
 30
0.0
 11
2.815295
 21
14.369030
 31
0.0
  0
LINE
  5
1f3
100
AcDbEntity
  8
cabeca
 62
7
100
AcDbLine
 10
2.815295
 20
14.369030
 30
0.0
 11
3.100723
 21
14.366208
 31
0.0
  0
LINE
  5
1f4
100
AcDbEntity
  8
cabeca
 62
7
100
AcDbLine
 10
3.100723
 20
14.366208
 30
0.0
 11
3.386152
 21
14.363386
 31
0.0
  0
LINE
  5
1f5
100
AcDbEntity
  8
cabeca
 62
7
100
AcDbLine
 10
3.386152
 20
14.363386
 30
0.0
 11
3.671580
 21
14.360563
 31
0.0
  0
LINE
  5
1f6
100
AcDbEntity
  8
cabeca
 62
7
100
AcDbLine
 10
3.671580
 20
14.360563
 30
0.0
 11
3.957008
 21
14.357741
 31
0.0
  0
LINE
  5
1f7
100
AcDbEntity
  8
cabeca
 62
7
100
AcDbLine
 10
3.957008
 20
14.357741
 30
0.0
 11
4.242437
 21
14.354919
 31
0.0
  0
LINE
  5
1f8
100
AcDbEntity
  8
cabeca
 62
7
100
AcDbLine
 10
4.242437
 20
14.354919
 30
0.0
 11
4.306934
 21
14.486655
 31
0.0
  0
LINE
  5
1f9
100
AcDbEntity
  8
cabeca
 62
7
100
AcDbLine
 10
4.306934
 20
14.486655
 30
0.0
 11
4.371431
 21
14.618390
 31
0.0
  0
LINE
  5
1fa
100
AcDbEntity
  8
cabeca
 62
7
100
AcDbLine
 10
4.371431
 20
14.618390
 30
0.0
 11
4.435927
 21
14.750123
 31
0.0
  0
LINE
  5
1fb
100
AcDbEntity
  8
cabeca
 62
7
100
AcDbLine
 10
4.435927
 20
14.750123
 30
0.0
 11
4.500424
 21
14.881859
 31
0.0
  0
LINE
  5
1fc
100
AcDbEntity
  8
cabeca
 62
7
100
AcDbLine
 10
4.500424
 20
14.881859
 30
0.0
 11
4.564921
 21
15.013595
 31
0.0
  0
LINE
  5
1fd
100
AcDbEntity
  8
cabeca
 62
7
100
AcDbLine
 10
4.564921
 20
15.013595
 30
0.0
 11
4.629418
 21
15.145330
 31
0.0
  0
LINE
  5
1fe
100
AcDbEntity
  8
cabeca
 62
7
100
AcDbLine
 10
4.629418
 20
15.145330
 30
0.0
 11
4.693914
 21
15.277063
 31
0.0
  0
LINE
  5
1ff
100
AcDbEntity
  8
cabeca
 62
7
100
AcDbLine
 10
4.693914
 20
15.277063
 30
0.0
 11
4.758411
 21
15.408799
 31
0.0
  0
LINE
  5
200
100
AcDbEntity
  8
cabeca
 62
7
100
AcDbLine
 10
4.758411
 20
15.408799
 30
0.0
 11
4.552574
 21
15.340185
 31
0.0
  0
LINE
  5
201
100
AcDbEntity
  8
cabeca
 62
7
100
AcDbLine
 10
4.552574
 20
15.340185
 30
0.0
 11
4.346736
 21
15.271574
 31
0.0
  0
LINE
  5
202
100
AcDbEntity
  8
cabeca
 62
7
100
AcDbLine
 10
4.346736
 20
15.271574
 30
0.0
 11
4.140899
 21
15.202960
 31
0.0
  0
LINE
  5
203
100
AcDbEntity
  8
cabeca
 62
7
100
AcDbLine
 10
4.140899
 20
15.202960
 30
0.0
 11
3.935061
 21
15.134346
 31
0.0
  0
LINE
  5
204
100
AcDbEntity
  8
cabeca
 62
7
100
AcDbLine
 10
3.935061
 20
15.134346
 30
0.0
 11
3.729223
 21
15.065732
 31
0.0
  0
LINE
  5
205
100
AcDbEntity
  8
cabeca
 62
7
100
AcDbLine
 10
3.729223
 20
15.065732
 30
0.0
 11
3.523386
 21
14.997121
 31
0.0
  0
LINE
  5
206
100
AcDbEntity
  8
cabeca
 62
7
100
AcDbLine
 10
3.523386
 20
14.997121
 30
0.0
 11
3.317548
 21
14.928507
 31
0.0
  0
LINE
  5
207
100
AcDbEntity
  8
cabeca
 62
7
100
AcDbLine
 10
3.317548
 20
14.928507
 30
0.0
 11
3.111711
 21
14.859894
 31
0.0
  0
LINE
  5
208
100
AcDbEntity
  8
cabeca
 62
7
100
AcDbLine
 10
3.111711
 20
14.859894
 30
0.0
 11
2.905871
 21
14.929879
 31
0.0
  0
LINE
  5
209
100
AcDbEntity
  8
cabeca
 62
7
100
AcDbLine
 10
2.905871
 20
14.929879
 30
0.0
 11
2.700031
 21
14.999864
 31
0.0
  0
LINE
  5
20a
100
AcDbEntity
  8
cabeca
 62
7
100
AcDbLine
 10
2.700031
 20
14.999864
 30
0.0
 11
2.494191
 21
15.069850
 31
0.0
  0
LINE
  5
20b
100
AcDbEntity
  8
cabeca
 62
7
100
AcDbLine
 10
2.494191
 20
15.069850
 30
0.0
 11
2.288350
 21
15.139835
 31
0.0
  0
LINE
  5
20c
100
AcDbEntity
  8
cabeca
 62
7
100
AcDbLine
 10
2.288350
 20
15.139835
 30
0.0
 11
2.082510
 21
15.209821
 31
0.0
  0
LINE
  5
20d
100
AcDbEntity
  8
cabeca
 62
7
100
AcDbLine
 10
2.082510
 20
15.209821
 30
0.0
 11
1.876670
 21
15.279806
 31
0.0
  0
LINE
  5
20e
100
AcDbEntity
  8
cabeca
 62
7
100
AcDbLine
 10
1.876670
 20
15.279806
 30
0.0
 11
1.670830
 21
15.349792
 31
0.0
  0
LINE
  5
20f
100
AcDbEntity
  8
cabeca
 62
7
100
AcDbLine
 10
1.670830
 20
15.349792
 30
0.0
 11
1.464990
 21
15.419777
 31
0.0
  0
LINE
  5
210
100
AcDbEntity
  8
cabeca
 62
7
100
AcDbLine
 10
1.464990
 20
15.419777
 30
0.0
 11
1.464990
 21
15.419777
 31
0.0
  0
LINE
  5
211
100
AcDbEntity
  8
cabeca
 62
7
100
AcDbLine
 10
1.464990
 20
15.419777
 30
0.0
 11
1.464990
 21
15.419777
 31
0.0
  0
LINE
  5
212
100
AcDbEntity
  8
cabeca
 62
7
100
AcDbLine
 10
1.464990
 20
15.419777
 30
0.0
 11
1.464990
 21
15.419777
 31
0.0
  0
LINE
  5
213
100
AcDbEntity
  8
cabeca
 62
7
100
AcDbLine
 10
1.464990
 20
15.419777
 30
0.0
 11
1.464990
 21
15.419780
 31
0.0
  0
LINE
  5
214
100
AcDbEntity
  8
cabeca
 62
7
100
AcDbLine
 10
1.464990
 20
15.419780
 30
0.0
 11
1.464990
 21
15.419780
 31
0.0
  0
LINE
  5
215
100
AcDbEntity
  8
cabeca
 62
7
100
AcDbLine
 10
1.464990
 20
15.419780
 30
0.0
 11
1.464990
 21
15.419780
 31
0.0
  0
LINE
  5
216
100
AcDbEntity
  8
cabeca
 62
7
100
AcDbLine
 10
1.464990
 20
15.419780
 30
0.0
 11
1.464990
 21
15.419780
 31
0.0
  0
LINE
  5
217
100
AcDbEntity
  8
cabeca
 62
7
100
AcDbLine
 10
1.464990
 20
15.419780
 30
0.0
 11
1.464990
 21
15.420401
 31
0.0
  0
ENDSEC
  0
SECTION
  2
OBJECTS
  0
DICTIONARY
  5
C
330
0
100
AcDbDictionary
  3
ACAD_GROUP
350
D
  3
ACAD_MLINESTYLE
350
17
  0
DICTIONARY
  5
D
330
C
100
AcDbDictionary
  0
DICTIONARY
  5
1A
330
C
100
AcDbDictionary
  0
DICTIONARY
  5
17
330
C
100
AcDbDictionary
  3
STANDARD
350
18
  0
DICTIONARY
  5
19
330
C
100
AcDbDictionary
  0
ENDSEC
  0
EOF
