<?xml version="1.0" encoding="utf-8"?>
<!-- Generator: Adobe Illustrator 16.0.0, SVG Export Plug-In . SVG Version: 6.00 Build 0)  -->
<!DOCTYPE svg PUBLIC "-//W3C//DTD SVG 1.1//EN" "http://www.w3.org/Graphics/SVG/1.1/DTD/svg11.dtd">
<svg version="1.1" id="Layer_1" xmlns="http://www.w3.org/2000/svg" xmlns:xlink="http://www.w3.org/1999/xlink" x="0px" y="0px"
	 width="612px" height="792px" viewBox="0 0 612 792" enable-background="new 0 0 612 792" xml:space="preserve">
<g>
	<g>
		<path fill-rule="evenodd" clip-rule="evenodd" d="M-575.529,619.492c0-1.471,0-2.941,0-4.413c1.422-1.67,2.926-3.279,4.231-5.037
			c0.616-0.829,1.443-2.194,1.151-2.884c-1.266-2.992,0.615-4.688,2.318-6.375c9.912-9.822,19.921-19.545,29.797-29.403
			c1.436-1.433,3.342-3.454,3.271-5.129c-0.173-4.085,1.979-6.479,4.7-8.604c11.755-9.182,23.435-18.473,35.436-27.326
			c13.98-10.313,28.563-19.824,42.352-30.38c21.197-16.228,41.902-33.097,62.904-49.58c4.412-3.463,9.061-6.688,13.889-9.532
			c2.729-1.609,3.55-3.532,3.75-6.465c0.819-11.99,1.717-23.967-1.386-35.79c-0.978-3.728-0.672-7.175,1.187-10.629
			c3.758-6.981,5.835-14.453,6.286-22.414c0.193-3.408,1.33-6.776,1.394-10.175c0.194-10.145,3.224-20.299,0-30.461
			c-0.25-0.789,0.003-2.358,0.545-2.677c4.66-2.748,7.082-7.43,10.37-11.375c0.83-0.996,2.579-1.567,3.966-1.697
			c4.834-0.453,9.699-0.577,14.544-0.926c3.076-0.222,6.391,0.029,9.167-1.046c25.083-9.718,50.001-19.862,75.12-29.482
			c9.557-3.661,19.488-6.363,29.301-9.33c3.213-0.971,6.591-1.396,9.929-2.077c-0.384-5.7,2.492-8.19,7.128-9.003
			c2.636-0.462,5.391-1.153,7.974-0.82c6.281,0.811,12.495,2.148,18.732,3.294c7.441,1.366,14.876,2.765,22.322,4.103
			c0.393,0.07,0.863-0.291,1.528-0.535c0-1.751,0-3.583,0-5.218c-1.744-0.449-3.08-0.794-4.186-1.078
			c0.59-3.833,1.333-7.173,1.577-10.549c0.514-7.081,1.111-14.186,1.003-21.271c-0.068-4.484,2.109-6.609,5.575-8.468
			c1.803-0.968,4.042-2.167,4.809-3.844c3.581-7.833,6.122-16.003,5.813-24.795c-0.292-8.321-0.531-16.645-0.846-24.965
			c-0.121-3.18-0.132-6.396-0.634-9.524c-2.598-16.179-10.732-29.789-20.23-42.711c-0.808-1.099-2.154-2.155-3.443-2.49
			c-8.575-2.233-15.017-7.82-21.814-13.044c-5.209-4.004-10.792-7.771-16.732-10.505c-6.371-2.932-12.785-6.783-20.665-2.654
			c-3.355,1.759-9.361,1.974-10.902-2.843c-1.961-6.136-4.884-11.862-6.666-18.017c-0.263-0.906-0.121-1.955-0.051-2.928
			c0.288-4.01,1.846-7.523,0.372-12.151c-1.772-5.565-0.584-12.086-0.605-18.194c-0.133-39.199-0.245-78.398-0.364-117.598
			c0.98,0,1.961,0,2.942,0c2.833,0.483,5.657,1.316,8.501,1.392c13.214,0.352,26.433,0.677,39.649,0.681
			c154.25,0.046,308.5,0.059,462.749-0.055c6.711-0.005,13.421-1.316,20.131-2.018c1.471,0,2.942,0,4.413,0
			c2.942,2.792,5.884,2.792,8.826,0c1.471,0,2.942,0,4.414,0c7.444,0.703,14.889,2.013,22.334,2.019
			c152.291,0.119,304.581,0.107,456.872,0.06c14.687-0.004,29.374-0.349,44.057-0.694c2.599-0.061,5.179-0.903,7.767-1.385
			c0.98,0,1.962,0,2.942,0c-0.188,45.308-0.374,90.616-0.592,135.924c-0.004,0.924-0.08,2.18-0.653,2.707
			c-1.896,1.745-0.928,3.094-0.262,5.076c1.592,4.737,1.745,9.514-1.815,13.826c-1.116,1.353-1.7,3.352-1.994,5.142
			c-1.437,8.723-5.182,11.308-13.75,9.15c-1.411-0.355-2.696-1.26-4.112-1.53c-1.557-0.297-3.332-0.587-4.778-0.134
			c-11.094,3.48-20.883,9.262-29.999,16.506c-5.1,4.053-10.834,7.53-16.752,10.245c-3.244,1.488-6.073,2.751-7.967,5.848
			c-2.426,3.967-5.115,7.773-7.521,11.751c-7.228,11.95-11.636,24.747-11.624,38.893c0.006,6.366,0.055,12.764-0.527,19.092
			c-0.9,9.786,0.915,18.974,4.625,27.954c1.168,2.826,2.349,5.011,5.705,6.003c3.74,1.106,5.544,3.836,5.649,8.286
			c0.246,10.467,1.231,20.917,1.952,31.915c-0.684,0.205-2.194,0.659-4.069,1.221c0.272,2.017,0.517,3.81,0.874,6.451
			c9.416-2.074,18.18-4.281,27.055-5.869c6.688-1.197,13.521-2.215,20.283-2.165c5.577,0.042,10.705,2.249,10.121,9.544
			c2.858,0.636,5.263,1.082,7.617,1.714c7.543,2.024,15.299,3.514,22.56,6.292c27.863,10.66,55.573,21.721,83.315,32.692
			c3.484,1.377,6.824,1.504,10.621,1.318c8.137-0.398,17.714-2.863,21.274,8.607c0.069,0.223,0.236,0.429,0.396,0.609
			c4.643,5.258,5.369,7.292,5.554,13.636c0.193,6.611,0.071,13.294,1.033,19.805c1.81,12.258,1.392,25.063,7.77,36.331
			c2.196,3.88,2.487,7.755,1.383,12.01c-2.558,9.852-1.886,19.874-1.715,29.931c0.116,6.876,1.855,11.766,8.757,14.056
			c1.327,0.439,2.425,1.629,3.58,2.534c16.001,12.543,32.11,24.951,47.958,37.685c20.434,16.418,41.026,32.545,63.013,46.931
			c12.444,8.142,23.754,18.025,35.509,27.209c2.725,2.129,5.097,4.53,4.584,8.622c-0.146,1.162,0.767,2.791,1.689,3.705
			c9.738,9.646,19.601,19.165,29.364,28.786c1.722,1.697,4.724,4.043,4.409,5.5c-1.03,4.768,2.839,7.179,3.926,10.799
			c0,1.472,0,2.942,0,4.413c-6.134,9.92-12.506,19.65-20.31,28.399c-2.423,2.718-5.049,4.32-8.589,5.044
			c-3.312,0.677-6.724,1.578-9.672,3.162c-4.928,2.646-5.31,6.426-2.063,10.92c1.504,2.082,3.272,4.504,3.489,6.901
			c1.382,15.317,3.685,30.49,3.606,46.028c-0.08,16.073,2.674,32.155,3.997,48.247c0.205,2.495,0.299,6.005-1.146,7.412
			c-2.772,2.7-5.166-0.717-7.567-2.145c-0.355-0.211-0.912-0.082-1.888-0.142c-5.662,4.849-11.492,10.078-17.568,15.004
			c-23.021,18.667-45.931,37.502-72.782,50.684c-1.95,0.958-3.792,2.277-5.421,3.726c-12.798,11.38-26.542,21.74-37.121,35.499
			c-4.473,5.814-9.899,6.105-17.039,1.766c0.58-1.774,1.188-3.636,1.808-5.531c-9.079-1.29-17.504-2.487-26.564-3.775
			c-7.668,12.061-15.463,23.889-22.806,35.99c-8.163,13.451-17.017,26.31-28.006,37.66c-3.292,3.4-6.334,5.27-10.789,2.031
			c-0.389-1.281-0.669-2.747-1.279-4.059c-0.592-1.271-1.524-2.382-2.47-3.807c-2.879,1.457-5.498,2.748-8.087,4.1
			c-18.232,9.523-36.838,18.1-56.303,24.951c-39.652,13.96-78.588,30.092-119.856,39.035c-8.176,1.771-14.07,6.398-19.153,12.615
			c-2.598,3.176-5.404,6.182-8.119,9.267c-3.416-3.181-5.521-2.993-10.653,0.06c1.307,1.729,3.8,3.541,3.767,5.304
			c-0.063,3.258-1.198,6.678-2.616,9.687c-3.012,6.388-7.041,12.336-9.646,18.867c-3.479,8.723-3.851,17.523,1.965,25.9
			c3.049,4.392,5.645,9.204,7.748,14.125c4.842,11.326,11.521,20.924,22.279,27.467c4.067,2.473,3.832,2.859,3.551,8.784
			c-1.661-1.32-3.26-2.59-6.098-4.844c1.125,2.782,1.442,4.246,2.223,5.396c7.478,11.014,15.879,21.414,27.409,28.203
			c9.633,5.673,20.219,9.721,30.346,14.566c2.417,1.156,6.298,1.357,4.546,5.897c-0.148,0.384,0.535,1.339,1.059,1.688
			c2.946,1.971,2.743,5.008,2.757,7.928c0.214,46.809,0.421,93.618,0.534,140.428c0.005,2.1-0.265,4.742-1.506,6.184
			c-2.227,2.583-2.11,5.334-2.112,8.242c-0.008,18.382-0.003,36.765-0.003,55.147c0,11.181,0,11.181-8.969,16.623
			c-300.084,0-600.167,0-900.25,0c-0.555-0.452-1.043-1.14-1.676-1.32c-5.952-1.699-7.558-5.587-7.431-11.632
			c0.383-18.134,0.175-36.28,0.114-54.42c-0.016-4.776,1.062-9.748-2.89-13.886c-0.947-0.991-0.74-3.269-0.741-4.955
			c-0.028-41.92-0.285-83.844,0.23-125.758c0.1-8.083-2.582-17.194,4.206-24.337c-1.815-4.518,2.097-4.811,4.543-5.825
			c10.616-4.4,21.443-8.38,31.034-14.862c10.692-7.226,18.971-16.863,26.323-27.335c0.933-1.328,1.366-3.009,2.656-5.955
			c-3.037,2.292-4.785,3.61-6.871,5.185c-0.261-5.047,1.761-7.959,5.407-10.161c9.12-5.507,15.314-13.413,19.506-23.222
			c2.583-6.045,5.729-11.962,9.415-17.398c5.554-8.191,5.365-16.758,2.17-25.259c-2.472-6.576-6.573-12.521-9.499-18.952
			c-1.569-3.447-2.732-7.291-2.967-11.026c-0.095-1.506,2.782-3.198,4.783-5.309c-4.372-0.165-8.044-3.956-12.166,0.493
			c-2.691-3.135-5.299-6.034-7.755-9.06c-5.068-6.24-11.052-10.686-19.174-12.617c-14.266-3.394-28.593-6.813-42.479-11.462
			c-24.575-8.225-48.781-17.546-73.252-26.089c-19.681-6.87-38.882-14.75-57.188-24.764c-3.617-1.979-7.359-3.73-11.689-5.912
			c-1.451,3.229-2.708,6.025-3.852,8.573c-4.052,2.071-6.836,1.029-9.844-2.079c-11.507-11.895-20.724-25.382-29.213-39.507
			c-7.033-11.704-14.682-23.037-22.093-34.59c-9.266,1.341-17.846,2.583-26.501,3.835c0.702,2.162,1.279,3.938,1.83,5.634
			c-7.704,4.314-12.425,3.564-17.698-2.545c-15.443-17.894-32.644-33.385-53.633-44.983c-22.11-12.219-41.874-28.105-61.175-44.417
			c-6.124-5.177-12.181-10.434-18.294-15.676c-1.602,1.292-2.455,2.204-3.496,2.78c-4.221,2.339-6.687,1.005-6.562-3.67
			c0.078-2.927,0.528-5.855,0.967-8.76c2.642-17.475,4.079-35.01,3.774-52.718c-0.126-7.285,0.946-14.597,1.577-21.887
			c0.338-3.897,1.064-7.765,1.309-11.664c0.235-3.757,0.9-6.959,3.811-9.904c3.594-3.636,2.826-7.764-1.627-10.363
			c-2.684-1.566-5.818-2.721-8.883-3.19c-4.683-0.719-8.165-2.804-10.894-6.589c-5.276-7.321-10.632-14.586-16.037-21.813
			C-572.266,622.887-573.967,621.241-575.529,619.492z M408.468,1005.372c9.622-21.187,25.85-37.996,36.671-58.469
			c9.235-17.475,19.387-34.652,32.416-49.824c3.22-3.747,6.12-7.829,8.578-13.168c-2.094,0.321-3.079,0.323-3.959,0.63
			c-16.857,5.868-33.689,11.809-50.559,17.645c-4.38,1.516-8.811,2.96-13.313,4.037c-15.693,3.758-31.517,7.006-47.12,11.1
			c-11.338,2.975-22.341,7.213-33.628,10.412c-4.62,1.31-9.587,1.757-14.412,1.854c-2.996,0.06-6.424-0.651-7.662-5.322
			c1.747-1.051,3.427-2.46,5.363-3.166c18.146-6.618,36.333-13.124,54.52-19.631c1.374-0.492,2.836-0.735,4.254-1.108
			c10.866-2.864,21.847-5.361,32.564-8.702c11.427-3.563,22.612-7.902,33.888-11.943c13.584-4.867,27.205-9.635,40.713-14.706
			c14.177-5.322,28.242-10.942,42.346-16.457c2.803-1.096,5.523-6.594,3.756-9.253c-2.749-4.139-2.021-8.442-2.069-12.751
			c-0.143-12.747,0.09-25.502-0.233-38.243c-0.851-33.557-1.857-67.11-2.995-100.658c-0.114-3.339,1.014-5.335,3.244-7.583
			c8.961-9.031,18.556-17.621,26.324-27.613c20.598-26.495,41.395-52.892,59.003-81.572c1.788-2.912,3.938-5.622,6.099-8.281
			c5.201-6.4,11.16-12.146,16.659-18.22c13.302-14.696,25.453-30.438,36.37-47.087c2.692-4.106,3.881-7.958,3.815-12.884
			c-0.688-51.718-1.132-103.439-1.617-155.16c-0.017-1.835,0.254-3.673,0.431-6.065c3.739,2.608,6.871,4.792,9.522,6.641
			c0,57.506,0,114.572,0,171.725c-1.369,1.164-2.974,2.303-4.308,3.698c-13.051,13.654-25.431,27.831-36.338,43.334
			c-14.665,20.843-29.915,41.273-44.909,61.885c-4.295,5.904-9.635,11.122-11.455,18.626c-0.426,1.758-2.098,3.271-3.356,4.762
			c-14.398,17.036-28.726,34.135-43.33,50.992c-3.084,3.56-4.491,6.982-4.484,11.759c0.043,28.666-0.018,57.338-0.536,85.999
			c-0.367,20.325-1.517,40.637-2.284,60.955c-0.054,1.416,0.166,2.842,0.247,4.088c6.396,2.271,6.396,2.271,8.611,7.033
			c-6.955,2.923-13.891,5.832-20.822,8.751c-4.72,1.988-9.627,3.639-14.091,6.094c-3.571,1.965-6.822,4.511-3.862,9.821
			c0.913,1.638-0.159,4.895-1.183,6.99c-2.029,4.157-4.487,8.136-7.074,11.984c-5.189,7.72-10.989,15.055-15.815,22.987
			c-12.729,20.921-25.083,42.068-37.557,63.144c-3.119,5.271-6.166,10.585-9.153,15.93c-0.751,1.342-1.146,2.883-1.852,4.711
			c2.381,0.122,4.081,0.275,5.78,0.286c35.543,0.223,71.087,0.435,106.63,0.637c29.419,0.167,58.837,0.307,88.255,0.485
			c6.863,0.042,13.756-0.162,20.577,0.421c4.412,0.377,8.132-0.588,11.949-2.524c16.808-8.529,31.501-19.712,44.036-33.838
			c2.491-2.809,3.53-5.428,3.55-9.103c0.282-54.877-0.72-109.745,0.86-164.637c1.269-44.012,0.26-88.09,0.26-132.138
			c0.001-77.227,0.001-154.452,0.003-231.679c0-1.961-0.2-3.956,0.102-5.871c0.209-1.315,0.789-2.984,1.777-3.698
			c8.539-6.159,6.081-15.479,6.128-23.538c0.037-6.416-2.668-12.853-4.203-19.269c-0.333-1.394-0.452-3.334-1.392-3.996
			c-3.04-2.138-2.362-5.126-2.46-7.973c-0.462-13.473-0.744-26.956-1.415-40.418c-0.252-5.046-1.384-10.048-2.171-15.458
			c0.385-0.236,2.178-0.79,2.213-1.438c0.558-10.458,0.892-20.928,1.277-31.44c-1.462-0.769-2.637-1.186-3.557-1.922
			c-1.076-0.862-1.93-2.001-2.908-3.05c0.937-1.581,1.528-2.963,2.449-4.073c5.727-6.907,5.955-8.756,1.415-16.56
			c-6.159-10.588-12.331-21.169-18.604-31.689c-9.051-15.175-18.814-29.869-30.469-43.2c-6.126-7.008-12.218-14.186-20.805-18.355
			c-2.499-1.212-5.503-2.017-8.257-1.97c-19.106,0.329-38.207,1.326-57.313,1.375c-63.729,0.164-127.448,0.072-191.175-1.763
			c-42.12-1.213-84.305-0.266-126.46-0.217c-33.088,0.038-66.157,0.727-99.242,1.537c-52.188,1.278-104.431,0.467-156.65,0.415
			c-10.04-0.01-20.208,0.281-30.083-1.167c-9.818-1.439-17.132,1.956-23.95,8.039c-2.008,1.792-3.883,3.742-5.746,5.69
			c-23.829,24.917-39.559,55.283-56.77,84.637c-2.594,4.424-1.479,7.864,2.351,12.215c1.377,1.564,2.28,3.547,3.571,5.614
			c-2.586,1.902-4.667,3.433-5.967,4.389c0,9.894-0.137,18.954,0.108,28.003c0.053,1.957,1.486,3.877,2.485,6.308
			c-0.601,3.899-1.755,8.658-1.992,13.462c-0.678,13.708-0.95,27.436-1.466,41.152c-0.08,2.138,0.158,5.153-1.078,6.208
			c-2.902,2.478-2.544,5.674-3.274,8.657c-1.22,4.983-2.589,9.946-3.475,14.993c-1.189,6.781-0.043,13.489,1.562,20.096
			c0.212,0.874,0.93,1.933,1.705,2.313c4.982,2.45,4.579,6.853,4.577,11.343c-0.047,85.726-0.208,171.452,0.038,257.178
			c0.122,42.863-1.216,85.743,1.153,128.597c0.581,10.508,0,21.079-0.006,31.62c-0.02,37.266-0.062,74.529,0.059,111.793
			c0.008,2.479,0.587,5.592,2.124,7.325c10.774,12.15,22.665,22.97,37.016,30.989c8.278,4.625,16.261,7.247,26.231,6.997
			c43.615-1.098,87.257-1.14,130.89-1.421c25.496-0.164,50.994-0.048,76.49-0.09c2.55-0.004,5.1-0.233,8.625-0.406
			c-3.686-6.49-6.713-12.034-9.94-17.458c-6.137-10.313-12.574-20.452-18.554-30.854c-10.74-18.686-21.114-37.576-34.076-54.892
			c-3.505-4.682-6.599-9.724-9.375-14.873c-1.206-2.235-1.446-5.154-1.514-7.779c-0.043-1.635,2.722-3.033,0.737-5.101
			c-1.507-1.568-2.783-3.627-4.622-4.553c-4.563-2.298-9.304-4.32-14.132-5.996c-7.312-2.538-14.414-5.366-22.003-10.749
			c3.893-2.134,6.692-3.668,10.346-5.671c-0.434-5.188-1.188-10.972-1.359-16.773c-0.921-31.112-1.877-62.226-2.438-93.346
			c-0.244-13.47,0.29-26.962,0.771-40.432c0.159-4.455-1.017-7.775-4.021-11.201c-12.93-14.739-25.58-29.727-38.2-44.734
			c-4.536-5.395-9.719-10.397-11.375-17.753c-0.399-1.774-2.071-3.281-3.226-4.862c-17.924-24.539-35.986-48.98-53.749-73.637
			c-11.333-15.729-24.237-30.026-37.576-43.117c0-57.329,0-114.171,0-171.383c2.738-1.893,5.867-4.057,9.579-6.625
			c0.157,2.713,0.375,4.817,0.384,6.922c0.066,14.464,0.269,28.931,0.09,43.393c-0.461,37.502-1.05,75.003-1.729,112.501
			c-0.069,3.872,0.824,6.981,3.082,10.172c13.536,19.136,26.64,38.528,44.041,54.632c6.035,5.587,11.054,12.57,15.419,19.61
			c15.145,24.427,32.882,46.96,49.947,69.995c10.68,14.417,21.918,28.315,35.861,39.751c2.855,2.342,3.411,4.915,3.081,8.346
			c-0.677,7.063-1.303,14.154-1.417,21.242c-0.647,40.444-1.113,80.892-1.746,121.336c-0.037,2.322-0.736,4.729-1.575,6.925
			c-2.007,5.253,0.066,9.431,5.565,11c2.572,0.734,5.083,1.717,7.567,2.72c14.068,5.677,27.984,11.756,42.206,17.013
			c22.931,8.476,46.057,16.43,69.113,24.564c1.835,0.647,3.785,0.963,5.668,1.484c12.241,3.381,24.574,6.474,36.688,10.265
			c9.554,2.99,18.823,6.887,28.248,10.301c5.289,1.916,10.653,3.622,15.95,5.517c2.47,0.884,5.257,1.549,5.717,5.467
			c-2.17,2.29-5.051,3.589-8.292,3.381c-4.354-0.279-8.937-0.352-12.967-1.788c-18.937-6.749-38.282-11.876-57.911-16.131
			c-11.698-2.535-23.424-5.22-34.811-8.857c-17.227-5.504-34.164-11.914-51.244-17.88c-1.394-0.486-2.949-0.516-5.923-1
			c4.16,5.793,7.179,10.54,10.73,14.848c13.175,15.978,22.762,34.239,33.409,51.83c4.559,7.532,9.244,14.992,14.008,22.396
			c5.167,8.027,10.526,15.93,15.733,23.932c1.716,2.637,3.22,5.412,4.93,8.308c6.625,0,12.984,0.018,19.343-0.02
			c0.964-0.006,2.43,0.07,2.805-0.479c1.828-2.675,4.309-1.653,6.667-1.556c16.84,0.697,33.693,2.174,50.516,1.885
			c25.178-0.431,50.344,1.088,75.566-0.958c13.021-1.056,26.375-2.499,39.65,0.872
			C394.854,1006.632,401.531,1005.372,408.468,1005.372z M717.762,1207.717c-3.995-1.542-7.095-3.439-10.391-3.886
			c-12.091-1.635-24.245-3.922-36.379-3.947c-136.02-0.275-272.039-0.175-408.06-0.175c-104.656,0-209.313,0.161-313.968-0.166
			c-16.231-0.051-32.181,1.911-48.207,3.508c-4.748,0.473-9.328,2.61-13.988,3.975c-0.665,0.194-1.346,0.335-2.199,0.545
			c-0.555-1.417-1.055-2.694-1.483-3.785c-4.455,0-8.699,0-13.813,0c0.622,27.085,1.106,53.52,1.889,79.946
			c0.377,12.727,1.763,25.432,1.912,38.155c0.317,26.957,0.113,53.921,0.149,80.881c0.003,2.582,0.203,5.164,0.304,7.568
			c285.591,0,570.282,0,855.633,0c0-3.324-0.025-6.213,0.003-9.101c0.41-42.128-0.763-84.249,2.6-126.372
			c1.846-23.136,0.51-46.525,0.574-69.8c0.001-0.407-0.439-0.815-0.873-1.569c-3.878,0-7.96,0-12.063,0
			C718.849,1204.917,718.353,1206.196,717.762,1207.717z M1154.313,607.959c-0.467-0.404-1.336-1.273-2.318-1.987
			c-6.327-4.601-12.916-8.876-18.964-13.814c-7.725-6.309-14.837-13.367-22.533-19.713c-33.278-27.437-66.671-54.734-100.035-82.067
			c-1.132-0.929-2.303-1.907-3.618-2.502c-9.976-4.513-17.921-11.873-26.386-18.525c-3.217-2.528-4.954-5.553-6.333-9.455
			c-6.762-19.131-12.632-38.759-26.605-54.403c-1.066-1.194-1.798-2.954-2.067-4.555c-3.65-21.722-8.521-43.313-7.337-65.579
			c0.022-0.425-0.358-0.873-0.714-1.683c-8.153-4.86-17.323-8.015-26.532-11.305c-21.889-7.819-43.634-16.061-65.289-24.511
			c-10.665-4.162-21.001-9.164-31.237-13.676c0.504-8.939-0.626-10.359-9.929-13.07c-0.856,0.642-2.029,1.208-2.763,2.126
			c-2.924,3.658-6.428,4.329-11.031,3.632c-11.801-1.786-23.063,2.513-35.035,3.227c0,3.76-0.012,6.922,0.001,10.085
			c0.829,204.884-1.71,409.777,1.39,614.657c0.076,5.087-0.943,9.369-3.926,13.674c-2.732,3.942-4.729,8.629-6.019,13.273
			c-1.631,5.869-2.287,12.017-3.24,18.063c-2.041,12.942-2.972,26.266-14.575,37.216c3.803-0.975,5.946-1.349,7.965-2.069
			c20.498-7.313,41.019-14.567,61.446-22.073c18.354-6.744,37.104-12.442,54.567-21.533c13.668-7.115,27.484-14.014,41.597-20.179
			c5.745-2.511,9.77-5.745,12.8-11.108c7.347-13.004,14.587-26.102,24.542-37.425c1.709-1.945,2.759-4.468,4.317-7.063
			c-9.049-2.385-17.443-4.596-25.881-6.818c0.59-1.761,0.904-2.7,1.213-3.622c-3.459-0.458-6.612-0.85-9.758-1.297
			c-15.507-2.206-30.776-5.536-46.095-8.799c-12.888-2.745-24.974-5.778-33.741-16.354c0.202-0.18,0.527-0.726,0.856-0.728
			c18.919-0.118,37.624,1.871,55.98,6.439c17.156,4.27,34.472,7.081,52.161,7.712c4.604,0.165,9.238,0.983,13.739,2.018
			c3.526,0.812,6.488,2.685,4.605,7.284c16.976,3.579,33.432,7.049,48.334,10.191c8.131-7.464,15.806-14.31,23.224-21.423
			c2.588-2.481,5.17-3.96,8.822-4.555c4.253-0.691,8.673-1.994,12.375-4.142c13.551-7.859,26.875-16.098,38.908-26.255
			c13.476-11.374,27.105-22.565,40.61-33.906c1.67-1.403,3.075-3.163,4.432-4.891c2.494-3.177,3.474-6.4,0.281-9.884
			c-0.876-0.957-1.399-2.507-1.528-3.84c-2.021-20.729-3.893-41.472-5.941-62.197c-0.496-5.018-1.504-9.984-2.226-14.638
			c-14.157-2.168-61.64-27.097-68.234-36.208c5.221,1.997,9.369,3.293,13.261,5.129c10.239,4.831,20.679,9.06,32.075,9.89
			c4.731,0.345,9.29,0.789,13.337,3.352c2.703,1.712,4.939,1.24,7.402-0.5c2.78-1.965,5.604-4.042,8.719-5.313
			c4.489-1.832,8.324-3.924,10.04-8.879c0.521-1.508,2.039-2.714,3.226-3.938c3.911-4.033,6.406-8.209,0.619-13.66
			C1143.195,619.585,1148.715,613.813,1154.313,607.959z M-211.737,284.067c-11.001,4.86-21.575,9.968-32.473,14.251
			c-20.49,8.054-41.106,15.801-61.797,23.325c-8.479,3.083-17.186,5.468-25.213,9.773c-3.102,1.664-4.929,3.29-4.73,7.21
			c0.619,12.278-0.399,24.469-2.727,36.56c-1.527,7.931-2.632,15.944-4.269,23.85c-0.565,2.729-1.879,5.422-3.351,7.823
			c-3.955,6.452-8.984,12.366-12.115,19.171c-5.206,11.316-9.466,23.088-13.665,34.833c-1.136,3.177-2.519,5.659-5.112,7.707
			c-8.636,6.818-16.662,14.462-26.884,19.079c-1.965,0.887-3.647,2.458-5.363,3.835c-13.945,11.188-28.027,22.212-41.762,33.653
			c-25.361,21.129-50.459,42.574-75.793,63.736c-6.366,5.317-13.218,10.054-19.836,15.07c-1.894,1.435-3.751,2.917-5.105,3.973
			c5.733,6.037,11.23,11.824,16.473,17.344c-3.536,6.779-4.085,7.957-1.399,10.845c5.629,6.055,8.245,15.433,18.089,17.001
			c6.091,6.223,12.475,6.854,20.212,2.434c3.09-1.767,7.697-0.72,11.552-1.339c10.496-1.687,20.181-5.764,29.658-10.419
			c5.41-2.657,5.444-2.596,12.372-1.924c-24.003,11.979-43.378,29.332-69.24,34.117c-0.421,1.943-0.94,3.585-1.116,5.262
			c-2.417,23.14-4.747,46.288-7.234,69.421c-0.242,2.246-1.013,4.635-2.211,6.532c-1.848,2.927-1.865,5.642,0.167,8.139
			c2.459,3.021,5.11,5.947,8.013,8.541c14.981,13.391,30.038,26.714,46.686,38.046c10.302,7.014,20.75,13.819,31.285,20.476
			c2.418,1.528,5.46,2.868,8.226,2.889c6.622,0.05,10.753,3.693,14.797,8.169c4.762,5.271,9.819,10.275,14.797,15.349
			c1.329,1.354,2.835,2.536,3.576,3.192c17.123-3.604,33.358-7.021,49.545-10.427c0.432-5.36,0.522-5.659,4.485-7.184
			c1.796-0.691,3.753-1.146,5.671-1.308c8.531-0.716,17.184-0.636,25.592-2.042c19.274-3.225,38.5-6.83,57.611-10.908
			c11.565-2.467,23.096-0.797,34.731-1.652c-1.938,2.206-4.538,3.333-6.02,5.302c-3.518,4.673-8.396,6.614-13.682,7.899
			c-8.784,2.137-17.554,4.405-26.436,6.052c-14.169,2.626-28.426,4.782-42.642,7.164c-0.401,0.067-0.752,0.432-1.125,0.654
			c0.398,0.967,0.797,1.934,1.343,3.258c-8.802,2.334-17.125,4.542-25.976,6.89c1.755,2.857,2.774,5.146,4.341,6.964
			c9.344,10.836,16.633,23.015,23.379,35.534c3.484,6.466,7.637,11.788,15.378,13.416c2.304,0.483,4.319,2.248,6.522,3.309
			c16.971,8.17,33.567,17.289,51.024,24.245c29.52,11.761,59.567,22.202,89.443,33.063c5.005,1.82,10.261,2.951,15.402,4.4
			c-7.022-7.893-9.68-16.95-11.225-26.479c-1.137-7.009-2.177-14.034-3.212-21.059c-1.195-8.112-3.623-15.78-8.649-22.358
			c-2.227-2.915-3.019-5.959-2.852-9.541c0.535-11.441,1.302-22.89,1.308-34.336c0.083-171.563,0.058-343.124,0.058-514.687
			c0-23.528,0.008-47.057-0.012-70.585c-0.002-2.578-0.165-5.156-0.243-7.425c-5.062-0.709-9.172-1.342-13.297-1.851
			c-5.332-0.658-10.728-1.994-16.001-1.635c-7.497,0.509-14.628,1.271-19.15-5.84C-211.685,274.277-212.534,275.39-211.737,284.067z
			 M-210.562,44.944c8.061,1.294,8.437,1.008,14.204-1.14c3.375-1.256,7.076-2.124,10.66-2.238
			c11.757-0.375,23.527-0.423,35.293-0.425c156.406-0.022,312.813-0.015,469.219-0.015c92.669,0,185.339-0.041,278.01,0.014
			c63.003,0.038,126.006,0.175,189.009,0.403c4.084,0.015,8.639,0.261,12.132,2.047c5.015,2.565,9.746,2.179,14.733,1.859
			c0-41.708,0-82.954,0-124.195c-341.44,0-682.054,0-1023.259,0C-210.562-37.159-210.562,3.904-210.562,44.944z M658.917,1030.447
			c-9.159-0.724-17.847-1.424-26.538-2.092c-5.354-0.411-10.717-1.136-16.071-1.098c-30.148,0.213-60.295,0.674-90.443,0.927
			c-16.424,0.138-32.851,0.092-49.275,0.017c-16.562-0.076-33.121,0.176-49.684,0.05c-18.631-0.142-37.264-0.044-55.896-0.029
			c-18.631,0.014-37.262,0.074-55.894,0.074c-18.386,0.001-36.772-0.061-55.158-0.074c-18.632-0.015-37.264,0.079-55.895-0.026
			c-18.523-0.105-37.044,0.235-55.568,0.061c-46.082-0.435-92.165-0.792-138.248-0.926c-13.934-0.041-27.876,0.618-41.804,1.214
			c-8.192,0.351-16.362,1.209-24.629,1.846c2.254,5.339,5.408,10.303,6.418,15.669c3.276,17.396,5.122,34.977,0.084,52.404
			c-2.854,9.872-6.71,19.471-9.262,29.412c-5.116,19.929-19.251,32.844-34.846,43.947c-10.471,7.455-22.671,12.552-35.49,15.463
			c-1.191,0.271-2.247,1.132-3.366,1.719c6.905-0.189,14.345,4.573,19.973-2.441c7.971-0.804,15.941-1.607,23.913-2.41
			c2.685,3.847,6.712,2.177,10.126,2.183c61.288,0.104,122.576,0.09,183.865,0.071c72.074-0.022,144.148-0.111,216.223-0.105
			c120.86,0.009,241.72,0.08,362.58,0.031c2.197-0.001,4.437-1.808,6.585-1.668c8.381,0.544,16.733,1.533,25.096,2.357
			c2.003,3.796,5.577,3.356,8.969,3.25c3.399-0.107,6.901,0.346,11.087-0.967c-1.563-1.028-2.11-1.65-2.752-1.771
			c-12.228-2.293-23.187-7.858-33.863-13.786c-12.862-7.143-22.228-18.292-31.178-29.688c-1.475-1.877-2.411-4.288-3.181-6.591
			c-4.419-13.232-8.771-26.49-13.005-39.784c-0.96-3.015-1.755-6.182-1.951-9.321
			C648.597,1068.479,648.247,1048.688,658.917,1030.447z M790.851,54.185c-3.197-0.216-5.597-0.552-7.99-0.509
			c-9.307,0.163-18.611,0.652-27.917,0.655c-156.153,0.043-312.308,0.031-468.461,0.031c-146.594,0-293.188,0.006-439.783-0.024
			c-5.139-0.001-10.278-0.523-15.417-0.516c-6.484,0.008-13.071-1.118-19.577,0.852c3.169,8.481,0.783,12.589-7.489,13.533
			c-1.765,0.202-3.573,0.029-5.832,0.029c4.841,3.429,9.601,4.346,14.927,3.906c8.191-0.677,16,0.41,23.081,5.395
			c19.658,13.837,34.897,31.344,45.157,53.116c4.754,10.089,7.642,20.643,7.675,31.882c0.014,4.902,0.054,9.805,0.189,14.705
			c0.042,1.525,0.432,3.041,0.732,5.021c1.871-1.22,3.108-1.996,4.315-2.816c22.686-15.42,45.386-30.819,68.03-46.3
			c3.164-2.164,6.397-3.318,10.285-3.08c7.82,0.48,15.652,0.854,23.484,1.017c27.439,0.571,54.878,1.308,82.321,1.479
			c54.418,0.34,108.839,0.334,163.258,0.517c3.912,0.013,7.822,0.382,11.731,0.619c15.871,0.958,31.742,2.704,47.611,2.679
			c16.114-0.025,32.225-1.792,48.337-2.798c2.688-0.167,5.375-0.479,8.063-0.5c69.114-0.518,138.23-0.927,207.344-1.545
			c21.313-0.19,42.619-0.914,63.927-1.443c3.751-0.093,7.144,0.407,10.41,2.642c22.438,15.349,44.972,30.558,67.481,45.802
			c1.735,1.175,3.523,2.272,6.353,4.089c0-6.508,0.102-11.825-0.02-17.138c-0.334-14.616,3.755-28.058,10.722-40.725
			c8.948-16.271,20.304-30.273,35.175-41.851c9.678-7.534,19.308-11.974,31.56-10.906c6.646,0.579,6.677,0.232,12.746-3.795
			C790.414,68.442,786.867,64.831,790.851,54.185z M0.476,140.097c-9.951-3.885-10.35-3.845-12.471,0.666
			C-7.589,140.527-3.557,140.312,0.476,140.097z M601.027,139.208c8.089,1.951,8.201,1.949,13.271,0.092
			C610.887,136.411,610.887,136.411,601.027,139.208z M-123.715,395.856c0.301,0.102,0.602,0.204,0.903,0.306
			c0-4.383,0-8.767,0-13.15c-0.301,0.003-0.602,0.006-0.903,0.008C-123.715,387.298-123.715,391.577-123.715,395.856z
			 M726.019,383.147c-0.301,0.034-0.603,0.068-0.904,0.102c0,4.419,0,8.838,0,13.257c0.302-0.001,0.604-0.003,0.904-0.004
			C726.019,392.051,726.019,387.599,726.019,383.147z"/>
		<path fill-rule="evenodd" clip-rule="evenodd" fill="none" d="M-575.529,619.492c1.563,1.749,3.264,3.395,4.663,5.266
			c5.405,7.227,10.761,14.491,16.037,21.813c2.729,3.785,6.211,5.87,10.894,6.589c3.065,0.47,6.199,1.624,8.883,3.19
			c4.453,2.6,5.222,6.728,1.627,10.363c-2.911,2.945-3.576,6.147-3.811,9.904c-0.244,3.899-0.971,7.767-1.309,11.664
			c-0.631,7.29-1.703,14.602-1.577,21.887c0.305,17.708-1.132,35.243-3.774,52.718c-0.438,2.904-0.889,5.833-0.967,8.76
			c-0.125,4.675,2.341,6.009,6.562,3.67c1.041-0.576,1.894-1.488,3.496-2.78c6.114,5.242,12.17,10.499,18.294,15.676
			c19.302,16.312,39.065,32.198,61.175,44.417c20.99,11.599,38.19,27.09,53.633,44.983c5.272,6.109,9.994,6.859,17.698,2.545
			c-0.551-1.695-1.128-3.472-1.83-5.634c8.655-1.252,17.236-2.494,26.501-3.835c7.412,11.553,15.06,22.886,22.093,34.59
			c8.489,14.125,17.707,27.612,29.213,39.507c3.007,3.108,5.792,4.15,9.844,2.079c1.144-2.548,2.401-5.345,3.852-8.573
			c4.33,2.182,8.072,3.934,11.689,5.912c18.305,10.014,37.507,17.894,57.188,24.764c24.472,8.543,48.677,17.864,73.252,26.089
			c13.887,4.648,28.213,8.068,42.479,11.462c8.122,1.932,14.106,6.377,19.174,12.617c2.456,3.025,5.064,5.925,7.755,9.06
			c4.122-4.449,7.794-0.658,12.166-0.493c-2.001,2.11-4.878,3.803-4.783,5.309c0.235,3.735,1.398,7.579,2.967,11.026
			c2.926,6.431,7.027,12.376,9.499,18.952c3.195,8.501,3.384,17.067-2.17,25.259c-3.686,5.437-6.832,11.354-9.415,17.398
			c-4.192,9.809-10.386,17.715-19.506,23.222c-3.646,2.202-5.668,5.114-5.407,10.161c2.085-1.574,3.833-2.893,6.871-5.185
			c-1.29,2.946-1.723,4.627-2.656,5.955c-7.352,10.472-15.631,20.109-26.323,27.335c-9.591,6.482-20.418,10.462-31.034,14.862
			c-2.447,1.015-6.358,1.308-4.543,5.825c-6.787,7.143-4.105,16.254-4.206,24.337c-0.516,41.914-0.258,83.838-0.23,125.758
			c0.001,1.687-0.206,3.964,0.741,4.955c3.952,4.138,2.874,9.109,2.89,13.886c0.062,18.14,0.269,36.286-0.114,54.42
			c-0.127,6.045,1.479,9.933,7.431,11.632c0.633,0.181,1.121,0.868,1.676,1.32c-142.112,0-284.224,0-426.589,0
			C-575.529,1155.916-575.529,887.705-575.529,619.492z"/>
		<path fill-rule="evenodd" clip-rule="evenodd" fill="none" d="M751.311,1424.128c8.969-5.442,8.969-5.442,8.969-16.623
			c0-18.383-0.005-36.766,0.003-55.147c0.002-2.908-0.114-5.659,2.112-8.242c1.241-1.441,1.511-4.084,1.506-6.184
			c-0.113-46.81-0.32-93.619-0.534-140.428c-0.014-2.92,0.189-5.957-2.757-7.928c-0.523-0.35-1.207-1.305-1.059-1.688
			c1.752-4.54-2.129-4.741-4.546-5.897c-10.127-4.846-20.713-8.894-30.346-14.566c-11.53-6.789-19.932-17.189-27.409-28.203
			c-0.78-1.149-1.098-2.613-2.223-5.396c2.838,2.254,4.437,3.523,6.098,4.844c0.281-5.925,0.517-6.312-3.551-8.784
			c-10.758-6.543-17.438-16.141-22.279-27.467c-2.104-4.921-4.699-9.733-7.748-14.125c-5.815-8.377-5.443-17.178-1.965-25.9
			c2.604-6.531,6.634-12.479,9.646-18.867c1.418-3.009,2.554-6.429,2.616-9.687c0.033-1.763-2.46-3.575-3.767-5.304
			c5.132-3.053,7.237-3.24,10.653-0.06c2.715-3.085,5.521-6.091,8.119-9.267c5.083-6.217,10.978-10.845,19.153-12.615
			c41.269-8.943,80.204-25.075,119.856-39.035c19.465-6.852,38.07-15.428,56.303-24.951c2.589-1.352,5.208-2.643,8.087-4.1
			c0.945,1.425,1.878,2.536,2.47,3.807c0.61,1.312,0.891,2.777,1.279,4.059c4.455,3.238,7.497,1.369,10.789-2.031
			c10.989-11.351,19.843-24.209,28.006-37.66c7.343-12.102,15.138-23.93,22.806-35.99c9.061,1.288,17.485,2.485,26.564,3.775
			c-0.619,1.896-1.228,3.757-1.808,5.531c7.14,4.34,12.566,4.049,17.039-1.766c10.579-13.759,24.323-24.119,37.121-35.499
			c1.629-1.448,3.471-2.768,5.421-3.726c26.852-13.182,49.762-32.017,72.782-50.684c6.076-4.926,11.906-10.155,17.568-15.004
			c0.976,0.06,1.532-0.069,1.888,0.142c2.401,1.428,4.795,4.845,7.567,2.145c1.445-1.407,1.352-4.917,1.146-7.412
			c-1.323-16.092-4.077-32.174-3.997-48.247c0.078-15.538-2.225-30.711-3.606-46.028c-0.217-2.397-1.985-4.819-3.489-6.901
			c-3.247-4.494-2.865-8.273,2.063-10.92c2.948-1.584,6.36-2.485,9.672-3.162c3.54-0.724,6.166-2.326,8.589-5.044
			c7.804-8.749,14.176-18.479,20.31-28.399c0,268.213,0,536.424,0,804.636C1034.723,1424.128,893.017,1424.128,751.311,1424.128z"/>
		<path fill-rule="evenodd" clip-rule="evenodd" fill="none" d="M-241.613-89.528c0.119,39.199,0.231,78.398,0.364,117.598
			c0.021,6.108-1.167,12.629,0.605,18.194c1.474,4.628-0.084,8.141-0.372,12.151c-0.069,0.974-0.211,2.022,0.051,2.928
			c1.782,6.155,4.705,11.881,6.666,18.017c1.541,4.817,7.546,4.602,10.902,2.843c7.88-4.129,14.294-0.277,20.665,2.654
			c5.94,2.734,11.523,6.501,16.732,10.505c6.797,5.224,13.239,10.811,21.814,13.044c1.289,0.335,2.635,1.392,3.443,2.49
			c9.498,12.923,17.632,26.533,20.23,42.711c0.502,3.128,0.514,6.344,0.634,9.524c0.315,8.32,0.554,16.644,0.846,24.965
			c0.309,8.792-2.232,16.962-5.813,24.795c-0.767,1.677-3.006,2.876-4.809,3.844c-3.465,1.859-5.643,3.984-5.575,8.468
			c0.108,7.085-0.489,14.19-1.003,21.271c-0.245,3.376-0.987,6.716-1.577,10.549c1.106,0.284,2.442,0.629,4.186,1.078
			c0,1.635,0,3.467,0,5.218c-0.665,0.245-1.135,0.605-1.528,0.535c-7.446-1.338-14.881-2.737-22.322-4.103
			c-6.237-1.146-12.451-2.483-18.732-3.294c-2.583-0.333-5.337,0.358-7.974,0.82c-4.636,0.813-7.512,3.303-7.128,9.003
			c-3.338,0.682-6.716,1.106-9.929,2.077c-9.813,2.966-19.744,5.669-29.301,9.33c-25.119,9.62-50.037,19.764-75.12,29.482
			c-2.775,1.075-6.091,0.824-9.167,1.046c-4.846,0.35-9.71,0.473-14.544,0.926c-1.387,0.13-3.136,0.701-3.966,1.697
			c-3.288,3.946-5.709,8.628-10.37,11.375c-0.542,0.319-0.795,1.889-0.545,2.677c3.224,10.162,0.193,20.316,0,30.461
			c-0.064,3.399-1.201,6.767-1.394,10.175c-0.451,7.961-2.528,15.433-6.286,22.414c-1.859,3.454-2.165,6.902-1.187,10.629
			c3.104,11.823,2.205,23.8,1.386,35.79c-0.2,2.933-1.021,4.855-3.75,6.465c-4.828,2.845-9.477,6.069-13.889,9.532
			c-21.002,16.483-41.707,33.353-62.904,49.58c-13.789,10.556-28.372,20.066-42.352,30.38c-12.001,8.854-23.68,18.145-35.436,27.326
			c-2.721,2.126-4.873,4.52-4.7,8.604c0.071,1.675-1.835,3.696-3.271,5.129c-9.875,9.858-19.885,19.581-29.797,29.403
			c-1.703,1.688-3.583,3.383-2.318,6.375c0.292,0.689-0.536,2.055-1.151,2.884c-1.305,1.758-2.809,3.367-4.231,5.037
			c0-234.869,0-469.738,0-704.607C-464.224-89.528-352.918-89.528-241.613-89.528z M-398.689,334.343
			c8.544-4.911,16.626-9.556,25.688-14.763c-7.805-0.056-19.758,3.189-24.164,6.247c-0.998,0.692-1.992,1.465-2.766,2.387
			C-401.884,330.542-401.62,332.593-398.689,334.343z"/>
		<path fill-rule="evenodd" clip-rule="evenodd" fill="none" d="M1176.429,615.079c-1.087-3.62-4.956-6.031-3.926-10.799
			c0.314-1.457-2.688-3.803-4.409-5.5c-9.764-9.621-19.626-19.141-29.364-28.786c-0.923-0.914-1.835-2.543-1.689-3.705
			c0.513-4.092-1.859-6.493-4.584-8.622c-11.755-9.184-23.064-19.067-35.509-27.209c-21.986-14.386-42.579-30.513-63.013-46.931
			c-15.848-12.733-31.957-25.142-47.958-37.685c-1.155-0.905-2.253-2.095-3.58-2.534c-6.901-2.29-8.641-7.18-8.757-14.056
			c-0.171-10.057-0.843-20.079,1.715-29.931c1.104-4.255,0.813-8.13-1.383-12.01c-6.378-11.268-5.96-24.073-7.77-36.331
			c-0.962-6.511-0.84-13.194-1.033-19.805c-0.185-6.344-0.911-8.378-5.554-13.636c-0.159-0.18-0.326-0.386-0.396-0.609
			c-3.561-11.47-13.138-9.005-21.274-8.607c-3.797,0.186-7.137,0.059-10.621-1.318c-27.742-10.972-55.452-22.032-83.315-32.692
			c-7.261-2.778-15.017-4.268-22.56-6.292c-2.354-0.632-4.759-1.078-7.617-1.714c0.584-7.296-4.544-9.502-10.121-9.544
			c-6.762-0.05-13.596,0.968-20.283,2.165c-8.875,1.588-17.639,3.795-27.055,5.869c-0.357-2.641-0.602-4.435-0.874-6.451
			c1.875-0.563,3.386-1.017,4.069-1.221c-0.721-10.998-1.706-21.447-1.952-31.915c-0.105-4.45-1.909-7.18-5.649-8.286
			c-3.356-0.993-4.537-3.177-5.705-6.003c-3.71-8.98-5.525-18.168-4.625-27.954c0.582-6.328,0.533-12.726,0.527-19.092
			c-0.012-14.146,4.396-26.943,11.624-38.893c2.405-3.979,5.095-7.784,7.521-11.751c1.894-3.097,4.723-4.36,7.967-5.848
			c5.918-2.714,11.652-6.192,16.752-10.245c9.116-7.244,18.905-13.026,29.999-16.506c1.446-0.453,3.222-0.163,4.778,0.134
			c1.416,0.271,2.701,1.175,4.112,1.53c8.568,2.158,12.313-0.427,13.75-9.15c0.294-1.791,0.878-3.789,1.994-5.142
			c3.561-4.313,3.407-9.089,1.815-13.826c-0.666-1.981-1.634-3.331,0.262-5.076c0.573-0.526,0.649-1.783,0.653-2.707
			c0.218-45.308,0.403-90.616,0.592-135.924c110.736,0,221.474,0,332.445,0C1176.429,145.341,1176.429,380.21,1176.429,615.079z
			 M976.5,320.284c8.302,4.723,16.603,9.445,24.907,14.17c2.507-4.614,2.39-5.934-1.62-8.409
			C992.814,321.742,984.907,320.329,976.5,320.284z"/>
		<path fill-rule="evenodd" clip-rule="evenodd" fill="none" d="M292.359-89.528c-6.71,0.702-13.42,2.013-20.131,2.018
			C117.979-87.396-36.27-87.409-190.52-87.456c-13.217-0.004-26.436-0.33-39.649-0.681c-2.845-0.076-5.668-0.908-8.501-1.392
			C-61.661-89.528,115.349-89.528,292.359-89.528z"/>
		<path fill-rule="evenodd" clip-rule="evenodd" fill="none" d="M841.041-89.528c-2.588,0.481-5.168,1.324-7.767,1.385
			c-14.683,0.345-29.37,0.69-44.057,0.694c-152.291,0.047-304.581,0.06-456.872-0.06c-7.445-0.006-14.89-1.316-22.334-2.019
			C487.021-89.528,664.031-89.528,841.041-89.528z"/>
		<path fill-rule="evenodd" clip-rule="evenodd" fill="none" d="M305.598-89.528c-2.942,2.792-5.884,2.792-8.826,0
			C299.714-89.528,302.656-89.528,305.598-89.528z"/>
		<path fill-rule="evenodd" clip-rule="evenodd" fill="none" d="M408.468,1005.372c-6.937,0-13.613,1.26-19.585-0.257
			c-13.275-3.371-26.629-1.928-39.65-0.872c-25.223,2.046-50.389,0.527-75.566,0.958c-16.823,0.289-33.676-1.188-50.516-1.885
			c-2.358-0.098-4.839-1.119-6.667,1.556c-0.375,0.549-1.841,0.473-2.805,0.479c-6.359,0.037-12.718,0.02-19.343,0.02
			c-1.709-2.896-3.213-5.671-4.93-8.308c-5.207-8.002-10.567-15.904-15.733-23.932c-4.765-7.403-9.449-14.863-14.008-22.396
			c-10.647-17.591-20.234-35.853-33.409-51.83c-3.552-4.308-6.57-9.055-10.73-14.848c2.975,0.484,4.529,0.514,5.923,1
			c17.08,5.966,34.018,12.376,51.244,17.88c11.387,3.638,23.112,6.322,34.811,8.857c19.629,4.255,38.974,9.382,57.911,16.131
			c4.03,1.437,8.612,1.509,12.967,1.788c3.242,0.208,6.122-1.091,8.292-3.381c-0.46-3.918-3.247-4.583-5.717-5.467
			c-5.297-1.895-10.661-3.601-15.95-5.517c-9.425-3.414-18.693-7.311-28.248-10.301c-12.114-3.791-24.447-6.884-36.688-10.265
			c-1.883-0.521-3.833-0.837-5.668-1.484c-23.057-8.135-46.182-16.089-69.113-24.564c-14.221-5.257-28.138-11.336-42.206-17.013
			c-2.484-1.003-4.996-1.985-7.567-2.72c-5.499-1.569-7.573-5.747-5.565-11c0.839-2.196,1.539-4.603,1.575-6.925
			c0.633-40.444,1.099-80.892,1.746-121.336c0.114-7.088,0.74-14.18,1.417-21.242c0.33-3.431-0.226-6.004-3.081-8.346
			c-13.942-11.436-25.181-25.334-35.861-39.751c-17.064-23.035-34.802-45.568-49.947-69.995c-4.365-7.04-9.384-14.023-15.419-19.61
			c-17.401-16.104-30.505-35.496-44.041-54.632c-2.257-3.19-3.151-6.3-3.082-10.172c0.679-37.498,1.268-74.999,1.729-112.501
			c0.178-14.461-0.024-28.928-0.09-43.393c-0.009-2.105-0.227-4.209-0.384-6.922c-3.712,2.568-6.841,4.732-9.579,6.625
			c0,57.212,0,114.054,0,171.383c13.339,13.091,26.244,27.388,37.576,43.117c17.763,24.656,35.824,49.098,53.749,73.637
			c1.155,1.581,2.826,3.088,3.226,4.862c1.656,7.355,6.84,12.358,11.375,17.753c12.621,15.008,25.27,29.995,38.2,44.734
			c3.004,3.426,4.18,6.746,4.021,11.201c-0.481,13.47-1.014,26.962-0.771,40.432c0.561,31.12,1.518,62.233,2.438,93.346
			c0.171,5.802,0.926,11.586,1.359,16.773c-3.654,2.003-6.454,3.537-10.346,5.671c7.589,5.383,14.691,8.211,22.003,10.749
			c4.828,1.676,9.569,3.698,14.132,5.996c1.839,0.926,3.115,2.984,4.622,4.553c1.985,2.067-0.78,3.466-0.737,5.101
			c0.068,2.625,0.309,5.544,1.514,7.779c2.775,5.149,5.869,10.191,9.375,14.873c12.962,17.315,23.335,36.206,34.076,54.892
			c5.979,10.402,12.417,20.541,18.554,30.854c3.228,5.424,6.254,10.968,9.94,17.458c-3.525,0.173-6.075,0.402-8.625,0.406
			c-25.497,0.042-50.994-0.074-76.49,0.09c-43.633,0.281-87.275,0.323-130.89,1.421c-9.971,0.25-17.953-2.372-26.231-6.997
			c-14.351-8.02-26.241-18.839-37.016-30.989c-1.537-1.733-2.115-4.847-2.124-7.325c-0.121-37.264-0.079-74.527-0.059-111.793
			c0.006-10.541,0.587-21.112,0.006-31.62c-2.37-42.854-1.031-85.733-1.153-128.597c-0.245-85.726-0.085-171.452-0.038-257.178
			c0.002-4.49,0.406-8.893-4.577-11.343c-0.775-0.381-1.493-1.439-1.705-2.313c-1.605-6.606-2.751-13.314-1.562-20.096
			c0.886-5.046,2.255-10.009,3.475-14.993c0.73-2.983,0.372-6.179,3.274-8.657c1.236-1.055,0.998-4.07,1.078-6.208
			c0.517-13.716,0.789-27.444,1.466-41.152c0.237-4.804,1.392-9.563,1.992-13.462c-1-2.431-2.432-4.351-2.485-6.308
			c-0.246-9.049-0.108-18.109-0.108-28.003c1.3-0.956,3.381-2.486,5.967-4.389c-1.292-2.067-2.194-4.049-3.571-5.614
			c-3.829-4.351-4.944-7.791-2.351-12.215c17.211-29.354,32.94-59.72,56.77-84.637c1.863-1.948,3.738-3.897,5.746-5.69
			c6.818-6.083,14.131-9.478,23.95-8.039c9.875,1.448,20.044,1.156,30.083,1.167c52.219,0.052,104.461,0.863,156.65-0.415
			c33.084-0.81,66.153-1.499,99.242-1.537c42.155-0.049,84.34-0.996,126.46,0.217c63.727,1.835,127.445,1.927,191.175,1.763
			c19.105-0.049,38.206-1.046,57.313-1.375c2.754-0.047,5.758,0.757,8.257,1.97c8.587,4.169,14.679,11.347,20.805,18.355
			c11.654,13.331,21.418,28.025,30.469,43.2c6.273,10.52,12.445,21.101,18.604,31.689c4.54,7.803,4.312,9.652-1.415,16.56
			c-0.921,1.11-1.513,2.492-2.449,4.073c0.979,1.048,1.832,2.188,2.908,3.05c0.92,0.736,2.095,1.153,3.557,1.922
			c-0.386,10.513-0.72,20.982-1.277,31.44c-0.035,0.648-1.828,1.202-2.213,1.438c0.787,5.41,1.919,10.412,2.171,15.458
			c0.671,13.462,0.953,26.945,1.415,40.418c0.098,2.846-0.58,5.834,2.46,7.973c0.939,0.662,1.059,2.602,1.392,3.996
			c1.535,6.416,4.24,12.853,4.203,19.269c-0.047,8.059,2.411,17.379-6.128,23.538c-0.988,0.714-1.568,2.383-1.777,3.698
			c-0.302,1.915-0.102,3.91-0.102,5.871c-0.002,77.227-0.002,154.452-0.003,231.679c0,44.048,1.009,88.126-0.26,132.138
			c-1.58,54.892-0.578,109.76-0.86,164.637c-0.02,3.675-1.059,6.294-3.55,9.103c-12.535,14.126-27.229,25.309-44.036,33.838
			c-3.817,1.937-7.537,2.901-11.949,2.524c-6.821-0.583-13.714-0.379-20.577-0.421c-29.418-0.179-58.836-0.318-88.255-0.485
			c-35.543-0.202-71.087-0.414-106.63-0.637c-1.699-0.011-3.399-0.164-5.78-0.286c0.705-1.828,1.101-3.369,1.852-4.711
			c2.987-5.345,6.034-10.659,9.153-15.93c12.474-21.075,24.828-42.223,37.557-63.144c4.826-7.933,10.626-15.268,15.815-22.987
			c2.587-3.849,5.045-7.827,7.074-11.984c1.023-2.096,2.096-5.353,1.183-6.99c-2.96-5.311,0.291-7.856,3.862-9.821
			c4.464-2.455,9.371-4.105,14.091-6.094c6.932-2.919,13.867-5.828,20.822-8.751c-2.216-4.762-2.216-4.762-8.611-7.033
			c-0.081-1.246-0.301-2.672-0.247-4.088c0.768-20.318,1.917-40.63,2.284-60.955c0.519-28.661,0.579-57.333,0.536-85.999
			c-0.007-4.776,1.4-8.199,4.484-11.759c14.604-16.857,28.932-33.956,43.33-50.992c1.259-1.49,2.931-3.004,3.356-4.762
			c1.82-7.504,7.16-12.722,11.455-18.626c14.994-20.611,30.244-41.042,44.909-61.885c10.907-15.503,23.287-29.68,36.338-43.334
			c1.334-1.396,2.938-2.534,4.308-3.698c0-57.153,0-114.219,0-171.725c-2.651-1.85-5.783-4.033-9.522-6.641
			c-0.177,2.392-0.447,4.23-0.431,6.065c0.485,51.721,0.93,103.442,1.617,155.16c0.065,4.926-1.123,8.777-3.815,12.884
			c-10.917,16.648-23.068,32.391-36.37,47.087c-5.499,6.073-11.458,11.819-16.659,18.22c-2.16,2.659-4.311,5.369-6.099,8.281
			c-17.608,28.681-38.405,55.077-59.003,81.572c-7.769,9.992-17.363,18.582-26.324,27.613c-2.23,2.248-3.358,4.244-3.244,7.583
			c1.138,33.548,2.145,67.102,2.995,100.658c0.323,12.741,0.091,25.496,0.233,38.243c0.048,4.309-0.68,8.612,2.069,12.751
			c1.768,2.659-0.953,8.157-3.756,9.253c-14.104,5.515-28.169,11.135-42.346,16.457c-13.508,5.071-27.129,9.839-40.713,14.706
			c-11.275,4.041-22.461,8.381-33.888,11.943c-10.718,3.341-21.698,5.838-32.564,8.702c-1.418,0.373-2.88,0.616-4.254,1.108
			c-18.187,6.507-36.374,13.013-54.52,19.631c-1.937,0.706-3.616,2.115-5.363,3.166c1.238,4.671,4.666,5.382,7.662,5.322
			c4.825-0.098,9.792-0.545,14.412-1.854c11.287-3.199,22.29-7.438,33.628-10.412c15.604-4.094,31.427-7.342,47.12-11.1
			c4.503-1.077,8.934-2.521,13.313-4.037c16.869-5.836,33.701-11.776,50.559-17.645c0.88-0.307,1.865-0.309,3.959-0.63
			c-2.458,5.339-5.358,9.421-8.578,13.168c-13.029,15.172-23.181,32.35-32.416,49.824
			C434.317,967.376,418.09,984.186,408.468,1005.372z M-75.211,305.38c4.169-1.944,7.247-3.379,10.324-4.814
			c5.735-2.677,11.31-5.801,17.24-7.94c13.337-4.811,26.998-8.748,40.224-13.829c5.998-2.304,10.077-0.698,14.652,2.721
			c3.642,2.721,7.879,4.634,11.77,7.036c1.628,1.005,3.237,2.173,4.529,3.568c10.62,11.469,22.829,21.515,30.592,35.536
			c3.148,5.685,8.512,8.484,15.479,7.546c4.844-0.652,9.765-0.96,14.656-1.012c21.813-0.233,43.628-0.54,65.441-0.423
			c128.426,0.685,256.864-1.689,385.28,1.484c3.994,0.099,7.303-0.897,9.882-3.783c2.268-2.536,4.22-5.356,6.284-8.072
			c3.401-4.471,6.492-9.218,10.237-13.378c5.57-6.189,11.581-11.983,17.44-17.909c1.192-1.206,2.401-2.948,3.851-3.25
			c5.579-1.161,9.586-4.641,13.683-8.167c3.758-3.233,7.836-4.414,12.735-2.114c3.744,1.757,7.818,2.805,11.717,4.245
			c18.938,6.997,39.102,10.939,56.772,23.47c0,3.125,0,7.205,0,11.809c4.163-2.852,7.68-5.261,11.473-7.859
			c-1.292-1.781-2.499-3.446-3.723-5.133c2.76-1.632,5.132-3.035,8.607-5.089c-2.671-1.829-4.042-3.358-5.703-3.804
			c-6.593-1.766-13.119-3.951-20.173-3.277c-2.298,0.22-4.907-0.158-7.014-1.082c-7.391-3.244-14.621-6.853-21.919-10.309
			c-3.619-1.714-6.741-3.815-8.348-7.819c-0.528-1.315-2.125-2.77-3.483-3.086c-6.17-1.436-12.475-3.638-18.646-3.396
			c-8.354,0.329-16.577,0.788-24.873-0.611c-1.613-0.272-4.031,0.38-5.129,1.521c-6.449,6.701-12.945,13.408-18.797,20.623
			c-7.264,8.955-14.362,17.941-24.297,24.189c-1.623,1.021-2.721,2.852-4.304,3.966c-2.717,1.913-5.459,3.939-8.483,5.24
			c-8.303,3.571-17.291,2.647-25.982,3.003c-15.177,0.622-30.387,0.634-45.581,0.541c-118.371-0.724-236.751,1.595-355.118-1.198
			c-10.921-0.258-20.825-1.541-28.128-10.637c-0.59-0.735-1.585-1.132-2.337-1.752c-3.186-2.632-6.69-4.978-9.464-7.991
			c-10.44-11.337-20.754-22.796-30.845-34.444c-2.413-2.785-4.699-3.47-8.201-3.108c-6.3,0.65-12.72,1.34-18.988,0.811
			c-8.042-0.678-15.538,1.053-23.038,3.228c-1.377,0.4-2.963,1.782-3.49,3.096c-1.604,4.004-4.724,6.108-8.344,7.823
			c-7.298,3.457-14.528,7.065-21.918,10.309c-2.107,0.925-4.715,1.305-7.013,1.085c-7.053-0.676-13.581,1.51-20.173,3.274
			c-1.663,0.445-3.036,1.972-5.633,3.748c3.536,2.161,6.021,3.68,8.405,5.137c-1.311,2.104-2.393,3.84-3.366,5.402
			c3.878,2.602,7.253,4.865,11.239,7.538C-75.211,313.511-75.211,309.432-75.211,305.38z M480.766,495.563
			c0,5.186,0.233,8.88-0.045,12.534c-0.758,9.913,2.223,18.964,7.027,27.246c14.747,25.421,32.712,32.766,59.246,30.504
			c24.369-2.076,44.832-12.825,62.423-29.632c13.103-12.519,22.406-27.744,32.067-42.807c15.631-24.369,21.205-50.779,17.074-79.335
			c-3.185-22.009-11.749-41.216-28.389-56.597c-8.783-8.119-18.923-12.243-30.595-12.069c-6.024,0.09-12.125,1.431-18.019,2.9
			c-15.916,3.969-29.245,13.659-42.978,21.761c-12.678,7.48-23.101,18.803-34.402,28.564c-1.354,1.171-2.297,3.063-2.913,4.804
			c-2.1,5.935-3.794,12.017-5.975,17.921c-2.449,6.631-6.099,12.926-7.746,19.725C483.095,459.436,479.955,478.04,480.766,495.563z
			 M121.608,497.511c0.169-0.012,0.339-0.023,0.508-0.036c-0.635-9.276-0.728-18.631-2.021-27.814
			c-2.454-17.431-4.71-34.963-14.102-50.571c-2.348-3.899-4.173-8.587-4.558-13.057c-0.363-4.215-2.188-6.819-4.975-9.208
			c-10.042-8.608-20.113-17.185-30.272-25.653c-2.045-1.705-4.457-3.015-6.819-4.284c-5.143-2.763-10.559-5.067-15.51-8.129
			c-9.047-5.595-18.601-9.928-28.981-12.098c-13.987-2.922-27.362-1.607-38.948,7.716c-9.271,7.46-17.087,16.317-22.095,27.151
			c-13.925,30.123-15.726,60.92-3.166,91.89c7.316,18.04,18.083,34.281,30.146,49.416c18.817,23.607,42.453,39.733,73.397,42.888
			c15.773,1.607,31.171,0.228,43.767-10.439c14.736-12.479,24.291-27.955,23.642-48.214
			C121.521,503.885,121.608,500.696,121.608,497.511z M400.454,707.668c-7.312-4.117-12.915-4.003-18.403-1.452
			c-4.42,2.055-8.505,4.82-12.793,7.171c-20.575,11.281-41.196,22.481-61.736,33.827c-4.221,2.332-8.013,2.566-12.367,0.171
			c-14.132-7.771-28.472-15.164-42.61-22.926c-10.29-5.649-20.411-11.608-30.559-17.513c-4.741-2.758-9.785-3.045-14.917-1.922
			c-3.564,0.78-4.258,3.27-1.652,5.797c2.271,2.202,4.819,4.176,7.457,5.931c23.056,15.335,46.938,29.185,72.715,39.486
			c3.955,1.58,7.347,3.208,7.651,6.977c5.648,0,10.624,0,16.069,0c-0.22-3.7,2.984-5.004,6.456-6.585
			c13.12-5.973,26.391-11.717,39.045-18.581c12.235-6.637,23.843-14.45,35.587-21.965
			C393.575,714.05,396.25,711.228,400.454,707.668z"/>
		<path fill-rule="evenodd" clip-rule="evenodd" fill="none" d="M717.762,1207.717c0.591-1.521,1.087-2.8,1.64-4.223
			c4.104,0,8.186,0,12.063,0c0.434,0.754,0.874,1.162,0.873,1.569c-0.064,23.274,1.271,46.664-0.574,69.8
			c-3.362,42.123-2.189,84.244-2.6,126.372c-0.028,2.888-0.003,5.776-0.003,9.101c-285.351,0-570.042,0-855.633,0
			c-0.101-2.404-0.301-4.986-0.304-7.568c-0.037-26.96,0.167-53.924-0.149-80.881c-0.149-12.724-1.535-25.429-1.912-38.155
			c-0.783-26.427-1.267-52.861-1.889-79.946c5.114,0,9.359,0,13.813,0c0.428,1.091,0.929,2.368,1.483,3.785
			c0.854-0.21,1.534-0.351,2.199-0.545c4.66-1.364,9.241-3.502,13.988-3.975c16.026-1.597,31.976-3.559,48.207-3.508
			c104.655,0.327,209.312,0.166,313.968,0.166c136.021,0,272.04-0.101,408.06,0.175c12.134,0.025,24.288,2.313,36.379,3.947
			C710.667,1204.277,713.767,1206.175,717.762,1207.717z"/>
		<path fill-rule="evenodd" clip-rule="evenodd" fill="none" d="M1154.313,607.959c-5.599,5.854-11.118,11.626-17.046,17.824
			c5.787,5.451,3.292,9.627-0.619,13.66c-1.187,1.224-2.704,2.43-3.226,3.938c-1.716,4.955-5.551,7.047-10.04,8.879
			c-3.114,1.271-5.938,3.349-8.719,5.313c-2.463,1.74-4.699,2.212-7.402,0.5c-4.047-2.563-8.605-3.007-13.337-3.352
			c-11.396-0.83-21.836-5.059-32.075-9.89c-3.892-1.836-8.04-3.132-13.261-5.129c6.595,9.111,54.077,34.04,68.234,36.208
			c0.722,4.653,1.729,9.62,2.226,14.638c2.049,20.726,3.921,41.469,5.941,62.197c0.129,1.333,0.652,2.883,1.528,3.84
			c3.192,3.483,2.213,6.707-0.281,9.884c-1.356,1.728-2.762,3.487-4.432,4.891c-13.505,11.341-27.135,22.532-40.61,33.906
			c-12.033,10.157-25.357,18.396-38.908,26.255c-3.702,2.147-8.122,3.45-12.375,4.142c-3.652,0.595-6.234,2.073-8.822,4.555
			c-7.418,7.113-15.093,13.959-23.224,21.423c-14.902-3.143-31.358-6.612-48.334-10.191c1.883-4.6-1.079-6.473-4.605-7.284
			c-4.501-1.034-9.135-1.853-13.739-2.018c-17.689-0.631-35.005-3.442-52.161-7.712c-18.356-4.568-37.062-6.558-55.98-6.439
			c-0.329,0.002-0.654,0.548-0.856,0.728c8.768,10.576,20.854,13.609,33.741,16.354c15.318,3.263,30.588,6.593,46.095,8.799
			c3.146,0.447,6.299,0.839,9.758,1.297c-0.309,0.922-0.623,1.861-1.213,3.622c8.438,2.223,16.832,4.434,25.881,6.818
			c-1.559,2.596-2.608,5.118-4.317,7.063c-9.955,11.323-17.195,24.421-24.542,37.425c-3.03,5.363-7.055,8.598-12.8,11.108
			c-14.112,6.165-27.929,13.063-41.597,20.179c-17.463,9.091-36.214,14.789-54.567,21.533c-20.428,7.506-40.948,14.76-61.446,22.073
			c-2.019,0.721-4.162,1.095-7.965,2.069c11.604-10.95,12.534-24.273,14.575-37.216c0.953-6.047,1.609-12.194,3.24-18.063
			c1.29-4.645,3.286-9.331,6.019-13.273c2.982-4.305,4.002-8.587,3.926-13.674c-3.1-204.88-0.561-409.772-1.39-614.657
			c-0.013-3.163-0.001-6.325-0.001-10.085c11.973-0.714,23.234-5.012,35.035-3.227c4.604,0.697,8.107,0.026,11.031-3.632
			c0.733-0.918,1.906-1.484,2.763-2.126c9.303,2.711,10.433,4.131,9.929,13.07c10.236,4.512,20.572,9.515,31.237,13.676
			c21.655,8.45,43.4,16.692,65.289,24.511c9.209,3.29,18.379,6.445,26.532,11.305c0.355,0.81,0.736,1.258,0.714,1.683
			c-1.185,22.266,3.687,43.857,7.337,65.579c0.27,1.601,1.001,3.36,2.067,4.555c13.974,15.645,19.844,35.272,26.605,54.403
			c1.379,3.902,3.116,6.927,6.333,9.455c8.465,6.652,16.41,14.013,26.386,18.525c1.315,0.595,2.486,1.573,3.618,2.502
			c33.364,27.333,66.757,54.631,100.035,82.067c7.696,6.346,14.809,13.404,22.533,19.713c6.048,4.938,12.637,9.214,18.964,13.814
			C1152.978,606.686,1153.847,607.555,1154.313,607.959z M915.984,502.654c1.787-24.244-6.893-59.89-16.869-76.145
			c-8.564-13.957-15.831-28.928-28.571-39.757c-9.494-8.072-19.475-15.606-29.554-22.947c-11.421-8.316-23.477-7.742-35.695-1.452
			c-21.945,11.297-33.837,29.943-38.079,53.548c-3.185,17.718-2.767,35.697,1.274,53.272c7.489,32.575,24.556,59.244,50.365,80.607
			c15.602,12.913,33.029,18.534,53.064,16.576c11.559-1.13,21.946-4.48,29.564-14.064c9.117-11.467,15.017-24.013,14.521-39.021
			C915.876,509.358,915.984,505.438,915.984,502.654z M847.118,570.583c-0.03-0.226-0.061-0.453-0.091-0.68c-3.767,0-7.533,0-11.3,0
			c0.002,0.227,0.003,0.454,0.005,0.68C839.527,570.583,843.322,570.583,847.118,570.583z"/>
		<path fill-rule="evenodd" clip-rule="evenodd" fill="none" d="M-211.737,284.067c-0.797-8.677,0.052-9.791,9.82-13.243
			c4.521,7.111,11.653,6.35,19.15,5.84c5.273-0.358,10.669,0.978,16.001,1.635c4.125,0.509,8.235,1.142,13.297,1.851
			c0.078,2.269,0.24,4.847,0.243,7.425c0.02,23.529,0.012,47.058,0.012,70.585c0,171.563,0.025,343.124-0.058,514.687
			c-0.006,11.446-0.773,22.895-1.308,34.336c-0.167,3.582,0.625,6.626,2.852,9.541c5.026,6.578,7.454,14.246,8.649,22.358
			c1.035,7.024,2.075,14.05,3.212,21.059c1.545,9.528,4.203,18.586,11.225,26.479c-5.141-1.449-10.396-2.58-15.402-4.4
			c-29.875-10.86-59.923-21.302-89.443-33.063c-17.457-6.956-34.053-16.075-51.024-24.245c-2.204-1.061-4.219-2.825-6.522-3.309
			c-7.741-1.628-11.895-6.95-15.378-13.416c-6.747-12.52-14.036-24.698-23.379-35.534c-1.567-1.817-2.586-4.106-4.341-6.964
			c8.852-2.348,17.174-4.556,25.976-6.89c-0.546-1.324-0.945-2.291-1.344-3.257c0.375-0.224,0.726-0.588,1.126-0.655
			c14.216-2.382,28.473-4.538,42.642-7.164c8.881-1.646,17.651-3.915,26.436-6.052c5.286-1.285,10.164-3.227,13.682-7.899
			c1.482-1.969,4.082-3.096,6.02-5.302c-11.635,0.855-23.166-0.814-34.731,1.652c-19.111,4.078-38.336,7.684-57.611,10.908
			c-8.408,1.406-17.061,1.326-25.592,2.042c-1.918,0.161-3.875,0.616-5.671,1.308c-3.963,1.524-4.054,1.823-4.485,7.184
			c-16.187,3.406-32.422,6.823-49.545,10.427c-0.741-0.656-2.247-1.838-3.576-3.192c-4.978-5.073-10.035-10.078-14.797-15.349
			c-4.044-4.476-8.175-8.119-14.797-8.169c-2.766-0.021-5.808-1.36-8.226-2.889c-10.535-6.656-20.983-13.462-31.285-20.476
			c-16.647-11.332-31.705-24.655-46.686-38.046c-2.902-2.594-5.553-5.52-8.013-8.541c-2.032-2.497-2.015-5.212-0.167-8.139
			c1.198-1.897,1.969-4.286,2.211-6.532c2.487-23.133,4.816-46.281,7.234-69.421c0.175-1.677,0.694-3.318,1.116-5.262
			c25.862-4.785,45.237-22.139,69.24-34.117c-6.928-0.672-6.962-0.733-12.372,1.924c-9.477,4.655-19.162,8.732-29.658,10.419
			c-3.854,0.619-8.461-0.428-11.552,1.339c-7.737,4.421-14.121,3.789-20.212-2.434c-9.845-1.568-12.46-10.946-18.089-17.001
			c-2.686-2.888-2.137-4.065,1.399-10.845c-5.243-5.52-10.74-11.307-16.473-17.344c1.354-1.056,3.211-2.538,5.105-3.973
			c6.618-5.017,13.47-9.753,19.836-15.07c25.334-21.162,50.432-42.607,75.793-63.736c13.734-11.441,27.817-22.466,41.762-33.653
			c1.716-1.377,3.398-2.948,5.363-3.835c10.222-4.617,18.248-12.261,26.884-19.079c2.593-2.048,3.976-4.53,5.112-7.707
			c4.199-11.745,8.459-23.517,13.665-34.833c3.13-6.805,8.16-12.719,12.115-19.171c1.472-2.401,2.786-5.094,3.351-7.823
			c1.637-7.906,2.742-15.919,4.269-23.85c2.328-12.091,3.346-24.282,2.727-36.56c-0.198-3.92,1.629-5.546,4.73-7.21
			c8.027-4.306,16.733-6.691,25.213-9.773c20.691-7.524,41.307-15.271,61.797-23.325
			C-233.312,294.036-222.738,288.927-211.737,284.067z M-313.617,499.52c0,5.789,0.114,9.711-0.02,13.624
			c-0.515,15.003,5.26,27.625,14.46,39.035c5.62,6.969,12.749,11.228,21.539,12.89c21.826,4.129,41.504,0.308,59.356-13.793
			c18.296-14.452,31.76-32.31,42.083-52.987c14.187-28.416,16.538-58.37,9.91-88.688c-4.546-20.793-16.746-37.262-36.503-47.22
			c-12.279-6.189-24.275-6.914-35.71,1.365c-10.1,7.311-19.988,14.952-29.556,22.943c-4.455,3.721-8.528,8.22-11.725,13.059
			c-6.869,10.396-13.192,21.163-19.454,31.944c-2.315,3.986-4.357,8.287-5.618,12.703
			C-310.167,463.006-315.418,481.671-313.617,499.52z M-233.84,570.546c0.067-0.227,0.133-0.453,0.2-0.681
			c-3.772,0-7.542,0-11.313,0c0,0.228-0.001,0.454-0.002,0.681C-241.251,570.546-237.545,570.546-233.84,570.546z"/>
		<path fill-rule="evenodd" clip-rule="evenodd" fill="none" d="M-210.562,44.944c0-41.04,0-82.103,0-123.689
			c341.206,0,681.819,0,1023.259,0c0,41.241,0,82.487,0,124.195c-4.987,0.32-9.719,0.706-14.733-1.859
			c-3.493-1.786-8.048-2.032-12.132-2.047c-63.003-0.228-126.006-0.365-189.009-0.403c-92.671-0.055-185.341-0.014-278.01-0.014
			c-156.406,0-312.813-0.007-469.219,0.015c-11.766,0.002-23.536,0.05-35.293,0.425c-3.584,0.114-7.285,0.981-10.66,2.238
			C-202.125,45.953-202.501,46.238-210.562,44.944z"/>
		<path fill-rule="evenodd" clip-rule="evenodd" fill="none" d="M658.917,1030.447c-10.67,18.24-10.32,38.031-9.078,57.916
			c0.196,3.14,0.991,6.307,1.951,9.321c4.233,13.294,8.586,26.552,13.005,39.784c0.77,2.303,1.706,4.714,3.181,6.591
			c8.95,11.396,18.315,22.546,31.178,29.688c10.677,5.928,21.636,11.493,33.863,13.786c0.642,0.12,1.188,0.742,2.752,1.771
			c-4.186,1.313-7.688,0.859-11.087,0.967c-3.392,0.106-6.966,0.546-8.969-3.25c-8.362-0.824-16.715-1.813-25.096-2.357
			c-2.148-0.14-4.388,1.667-6.585,1.668c-120.86,0.049-241.72-0.022-362.58-0.031c-72.074-0.006-144.148,0.083-216.223,0.105
			c-61.289,0.019-122.577,0.032-183.865-0.071c-3.414-0.006-7.441,1.664-10.126-2.183c-7.971,0.803-15.942,1.606-23.913,2.41
			c-5.627,7.015-13.068,2.252-19.973,2.441c1.119-0.587,2.175-1.447,3.366-1.719c12.819-2.911,25.02-8.008,35.49-15.463
			c15.595-11.104,29.73-24.019,34.846-43.947c2.552-9.941,6.408-19.54,9.262-29.412c5.038-17.428,3.191-35.009-0.084-52.404
			c-1.011-5.366-4.165-10.33-6.418-15.669c8.267-0.637,16.438-1.495,24.629-1.846c13.928-0.596,27.87-1.255,41.804-1.214
			c46.083,0.134,92.166,0.491,138.248,0.926c18.524,0.175,37.045-0.166,55.568-0.061c18.631,0.105,37.263,0.012,55.895,0.026
			c18.386,0.014,36.772,0.075,55.158,0.074c18.632,0,37.263-0.061,55.894-0.074c18.632-0.015,37.265-0.112,55.896,0.029
			c16.563,0.126,33.122-0.126,49.684-0.05c16.425,0.075,32.852,0.121,49.275-0.017c30.148-0.253,60.295-0.714,90.443-0.927
			c5.354-0.038,10.717,0.687,16.071,1.098C641.07,1029.023,649.758,1029.724,658.917,1030.447z"/>
		<path fill-rule="evenodd" clip-rule="evenodd" fill="none" d="M790.851,54.185c-3.983,10.646-0.437,14.257,12.429,14.021
			c-6.069,4.028-6.1,4.375-12.746,3.795c-12.252-1.068-21.882,3.372-31.56,10.906c-14.871,11.577-26.227,25.579-35.175,41.851
			c-6.967,12.667-11.056,26.109-10.722,40.725c0.121,5.313,0.02,10.63,0.02,17.138c-2.829-1.817-4.617-2.914-6.353-4.089
			c-22.51-15.244-45.043-30.454-67.481-45.802c-3.267-2.235-6.659-2.735-10.41-2.642c-21.308,0.529-42.614,1.252-63.927,1.443
			c-69.113,0.618-138.229,1.027-207.344,1.545c-2.688,0.02-5.376,0.332-8.063,0.5c-16.112,1.006-32.224,2.773-48.337,2.798
			c-15.87,0.025-31.741-1.72-47.611-2.679c-3.909-0.236-7.82-0.605-11.731-0.619c-54.419-0.183-108.839-0.177-163.258-0.517
			c-27.443-0.172-54.882-0.909-82.321-1.479c-7.833-0.163-15.665-0.537-23.484-1.017c-3.888-0.238-7.121,0.916-10.285,3.08
			c-22.644,15.481-45.344,30.88-68.03,46.3c-1.207,0.82-2.444,1.597-4.315,2.816c-0.301-1.98-0.691-3.496-0.732-5.021
			c-0.135-4.9-0.176-9.803-0.189-14.705c-0.033-11.24-2.92-21.793-7.675-31.882c-10.26-21.772-25.5-39.279-45.157-53.116
			c-7.081-4.984-14.889-6.072-23.081-5.395c-5.326,0.44-10.086-0.478-14.927-3.906c2.259,0,4.066,0.172,5.832-0.029
			c8.272-0.944,10.659-5.052,7.489-13.533c6.506-1.97,13.092-0.843,19.577-0.852c5.139-0.007,10.278,0.515,15.417,0.516
			c146.594,0.03,293.188,0.024,439.783,0.024c156.154,0,312.308,0.012,468.461-0.031c9.306-0.002,18.61-0.492,27.917-0.655
			C785.254,53.633,787.653,53.968,790.851,54.185z"/>
		<path fill-rule="evenodd" clip-rule="evenodd" fill="none" d="M0.476,140.097c-4.033,0.215-8.065,0.431-12.471,0.666
			C-9.874,136.252-9.476,136.212,0.476,140.097z"/>
		<path fill-rule="evenodd" clip-rule="evenodd" fill="none" d="M601.027,139.208c9.859-2.797,9.859-2.797,13.271,0.092
			C609.229,141.158,609.116,141.159,601.027,139.208z"/>
		<path fill-rule="evenodd" clip-rule="evenodd" fill="none" d="M-123.715,395.856c0-4.28,0-8.558,0-12.837
			c0.301-0.002,0.602-0.005,0.903-0.008c0,4.383,0,8.767,0,13.15C-123.113,396.06-123.414,395.958-123.715,395.856z"/>
		<path fill-rule="evenodd" clip-rule="evenodd" fill="none" d="M726.019,383.147c0,4.452,0,8.903,0,13.355
			c-0.301,0.001-0.603,0.002-0.904,0.004c0-4.419,0-8.838,0-13.257C725.416,383.216,725.718,383.182,726.019,383.147z"/>
		<path fill-rule="evenodd" clip-rule="evenodd" d="M-398.689,334.343c-2.931-1.75-3.195-3.8-1.242-6.129
			c0.773-0.922,1.768-1.695,2.766-2.387c4.406-3.058,16.359-6.303,24.164-6.247C-382.063,324.787-390.145,329.432-398.689,334.343z"
			/>
		<path fill-rule="evenodd" clip-rule="evenodd" d="M976.5,320.284c8.407,0.045,16.314,1.458,23.287,5.761
			c4.01,2.475,4.127,3.794,1.62,8.409C993.103,329.729,984.802,325.006,976.5,320.284z"/>
		<path fill-rule="evenodd" clip-rule="evenodd" d="M-75.211,305.38c0,4.052,0,8.131,0,12.664
			c-3.985-2.673-7.361-4.937-11.239-7.538c0.974-1.562,2.055-3.297,3.366-5.402c-2.384-1.457-4.869-2.976-8.405-5.137
			c2.598-1.776,3.971-3.303,5.633-3.748c6.592-1.765,13.12-3.95,20.173-3.274c2.298,0.22,4.906-0.16,7.013-1.085
			c7.391-3.244,14.621-6.853,21.918-10.309c3.62-1.714,6.739-3.818,8.344-7.823c0.527-1.314,2.113-2.696,3.49-3.096
			c7.5-2.175,14.995-3.906,23.038-3.228c6.268,0.529,12.688-0.161,18.988-0.811c3.502-0.361,5.788,0.324,8.201,3.108
			c10.091,11.648,20.405,23.107,30.845,34.444c2.774,3.014,6.278,5.359,9.464,7.991c0.752,0.621,1.747,1.018,2.337,1.752
			c7.304,9.096,17.208,10.379,28.128,10.637c118.367,2.793,236.747,0.474,355.118,1.198c15.194,0.093,30.404,0.081,45.581-0.541
			c8.691-0.356,17.68,0.568,25.982-3.003c3.024-1.301,5.767-3.327,8.483-5.24c1.583-1.114,2.681-2.945,4.304-3.966
			c9.935-6.248,17.033-15.235,24.297-24.189c5.852-7.215,12.348-13.921,18.797-20.623c1.098-1.14,3.516-1.793,5.129-1.521
			c8.296,1.398,16.52,0.939,24.873,0.611c6.171-0.242,12.476,1.96,18.646,3.396c1.358,0.316,2.955,1.771,3.483,3.086
			c1.606,4.003,4.729,6.105,8.348,7.819c7.298,3.457,14.528,7.065,21.919,10.309c2.106,0.924,4.716,1.302,7.014,1.082
			c7.054-0.674,13.58,1.511,20.173,3.277c1.661,0.445,3.032,1.975,5.703,3.804c-3.476,2.054-5.848,3.457-8.607,5.089
			c1.224,1.688,2.431,3.352,3.723,5.133c-3.793,2.598-7.31,5.007-11.473,7.859c0-4.604,0-8.683,0-11.809
			c-17.671-12.531-37.835-16.474-56.772-23.47c-3.898-1.44-7.973-2.488-11.717-4.245c-4.899-2.3-8.978-1.12-12.735,2.114
			c-4.097,3.526-8.104,7.006-13.683,8.167c-1.449,0.301-2.658,2.043-3.851,3.25c-5.859,5.926-11.87,11.72-17.44,17.909
			c-3.745,4.16-6.836,8.907-10.237,13.378c-2.064,2.715-4.017,5.536-6.284,8.072c-2.579,2.885-5.888,3.882-9.882,3.783
			c-128.416-3.173-256.854-0.799-385.28-1.484c-21.813-0.117-43.628,0.189-65.441,0.423c-4.891,0.052-9.812,0.36-14.656,1.012
			c-6.967,0.938-12.332-1.861-15.479-7.546c-7.764-14.021-19.972-24.066-30.592-35.536c-1.292-1.395-2.901-2.563-4.529-3.568
			c-3.891-2.402-8.128-4.315-11.77-7.036c-4.576-3.419-8.655-5.025-14.652-2.721c-13.226,5.081-26.887,9.018-40.224,13.829
			c-5.93,2.139-11.504,5.263-17.24,7.94C-67.965,302.001-71.042,303.436-75.211,305.38z"/>
		<path fill-rule="evenodd" clip-rule="evenodd" d="M480.766,495.563c-0.811-17.522,2.329-36.127,6.777-54.48
			c1.647-6.799,5.297-13.094,7.746-19.725c2.181-5.904,3.875-11.986,5.975-17.921c0.616-1.741,1.559-3.633,2.913-4.804
			c11.302-9.762,21.725-21.084,34.402-28.564c13.732-8.102,27.062-17.792,42.978-21.761c5.894-1.47,11.994-2.811,18.019-2.9
			c11.672-0.173,21.812,3.95,30.595,12.069c16.64,15.381,25.204,34.587,28.389,56.597c4.131,28.556-1.443,54.966-17.074,79.335
			c-9.661,15.063-18.965,30.288-32.067,42.807c-17.591,16.807-38.054,27.556-62.423,29.632
			c-26.534,2.262-44.499-5.083-59.246-30.504c-4.805-8.282-7.785-17.333-7.027-27.246
			C480.999,504.442,480.766,500.748,480.766,495.563z M492.686,483.031c1.146,7.96,1.85,14.038,2.937,20.047
			c1.087,6.015,2.81,11.919,3.787,17.947c0.923,5.688,3.573,10.035,8.192,13.343c6.716,4.811,13.57,9.373,19.556,15.216
			c4.362,4.26,9.965,5.401,16.333,4.126c12.093-2.422,22.846-7.711,31.965-15.579c7.36-6.351,15.935-10.994,22.597-18.465
			c7.932-8.893,17.555-16.27,22.033-27.876c0.421-1.088,1.356-2.032,2.21-2.891c10.25-10.307,14.166-23.567,17.423-37.15
			c1.519-6.336,3.239-12.626,4.636-18.987c1.8-8.202,2.082-16.439-0.375-24.595c-2.168-7.195-4.725-14.293-6.479-21.585
			c-1.6-6.646-4.996-11.366-10.961-14.752c-8.026-4.554-15.761-9.62-23.622-14.465c-2.78-1.713-5.634-2.942-8.994-1.694
			c-6.158,2.287-12.447,4.265-18.462,6.876c-4.239,1.839-8.378,4.155-12.101,6.885c-8.626,6.328-17.153,12.824-25.311,19.736
			c-2.089,1.771-3.646,3.4-6.531,3.924c-5.47,0.993-10.193,3.549-12.814,8.831c-6.453,13-16.422,24.611-16.017,40.347
			c0.019,0.695-0.402,1.4-0.608,2.104c-2.538,8.679-5.297,17.302-7.521,26.061C493.372,475.095,493.114,479.992,492.686,483.031z"/>
		<path fill-rule="evenodd" clip-rule="evenodd" d="M121.608,497.511c0,3.186-0.087,6.374,0.014,9.557
			c0.649,20.259-8.905,35.735-23.642,48.214c-12.596,10.667-27.994,12.047-43.767,10.439c-30.944-3.154-54.58-19.28-73.397-42.888
			c-12.063-15.135-22.83-31.376-30.146-49.416c-12.56-30.97-10.759-61.768,3.166-91.89c5.008-10.833,12.824-19.691,22.095-27.151
			c11.586-9.323,24.961-10.639,38.948-7.716c10.381,2.169,19.935,6.502,28.981,12.098c4.951,3.062,10.367,5.366,15.51,8.129
			c2.362,1.269,4.774,2.579,6.819,4.284c10.159,8.468,20.23,17.044,30.272,25.653c2.787,2.389,4.612,4.994,4.975,9.208
			c0.385,4.47,2.21,9.157,4.558,13.057c9.392,15.608,11.648,33.141,14.102,50.571c1.293,9.184,1.386,18.538,2.021,27.814
			C121.947,497.487,121.777,497.499,121.608,497.511z M109.701,486.41c-0.417-4.992-0.229-9.23-1.207-13.182
			c-2.347-9.487-5.251-18.836-7.904-28.246c-0.46-1.633-1.078-3.292-1.142-4.957c-0.346-9.072-3.611-17.111-8.284-24.728
			c-2.043-3.328-4.113-6.683-5.717-10.229c-3.065-6.776-7.972-10.948-15.355-12.219c-1.378-0.237-2.929-0.657-3.96-1.519
			c-4.651-3.886-9.409-7.703-13.641-12.021c-8.959-9.143-20.593-13.908-31.561-19.71c-3.809-2.015-8.271-3.097-12.565-3.776
			c-2.656-0.42-5.97-0.009-8.278,1.292c-8.678,4.888-17.027,10.357-25.573,15.485c-5.15,3.091-7.988,7.552-9.481,13.325
			c-1.941,7.504-4.489,14.849-6.626,22.306c-0.73,2.55-1.17,5.211-1.466,7.853c-0.914,8.138,0.662,15.996,2.811,23.799
			c2.37,8.606,2.61,17.778,7.029,25.852c1.284,2.348,2.399,4.853,3.146,7.416c1.69,5.805,4.786,10.579,9.088,14.819
			c2.004,1.976,3.213,4.777,4.692,7.26c1.123,1.887,1.76,4.173,3.201,5.741c7.919,8.619,15.676,17.436,24.178,25.453
			c5.64,5.319,12.391,9.474,18.723,14.041c7.183,5.18,15.002,9.02,23.421,11.935c10.524,3.643,19.017,1.273,26.581-6.587
			c2.646-2.752,5.983-4.866,9.113-7.122c5.552-4.001,11.848-7.464,13.415-14.852C105.023,511.174,107.354,498.435,109.701,486.41z"
			/>
		<path fill-rule="evenodd" clip-rule="evenodd" d="M400.454,707.668c-4.204,3.56-6.879,6.382-10.058,8.416
			c-11.744,7.515-23.352,15.328-35.587,21.965c-12.654,6.864-25.925,12.608-39.045,18.581c-3.472,1.581-6.676,2.885-6.456,6.585
			c-5.445,0-10.42,0-16.069,0c-0.304-3.769-3.696-5.396-7.651-6.977c-25.777-10.302-49.66-24.151-72.715-39.486
			c-2.638-1.755-5.187-3.729-7.457-5.931c-2.605-2.527-1.912-5.017,1.652-5.797c5.131-1.123,10.175-0.836,14.917,1.922
			c10.148,5.904,20.269,11.863,30.559,17.513c14.138,7.762,28.479,15.154,42.61,22.926c4.354,2.396,8.146,2.161,12.367-0.171
			c20.54-11.346,41.161-22.546,61.736-33.827c4.288-2.351,8.373-5.116,12.793-7.171
			C387.539,703.665,393.143,703.551,400.454,707.668z"/>
		<path fill-rule="evenodd" clip-rule="evenodd" d="M915.984,502.654c0,2.783-0.108,6.704,0.021,10.618
			c0.496,15.008-5.403,27.554-14.521,39.021c-7.618,9.584-18.006,12.935-29.564,14.064c-20.035,1.958-37.463-3.663-53.064-16.576
			c-25.81-21.363-42.876-48.032-50.365-80.607c-4.041-17.575-4.459-35.555-1.274-53.272c4.242-23.605,16.134-42.251,38.079-53.548
			c12.219-6.29,24.274-6.864,35.695,1.452c10.079,7.341,20.06,14.875,29.554,22.947c12.74,10.83,20.007,25.8,28.571,39.757
			C909.092,442.765,917.771,478.41,915.984,502.654z M831.607,537.914c-3.958,3.824-1.637,7.123,1.1,10.575
			c3.783,4.773,8.331,8.412,14.355,9.55c5.748,1.086,11.625,2.392,17.4,2.207c7.767-0.249,15.619-1.287,23.172-3.092
			c3.436-0.821,7.581-3.67,8.999-6.718c1.977-4.246,3.462-8.656,5.82-12.891c2.902-5.212,4.358-11.304,5.945-17.149
			c0.948-3.492,1.261-7.235,1.322-10.875c0.3-17.585-2.074-34.653-10.22-50.563c-1.445-2.821-2.616-5.816-3.586-8.838
			c-2.666-8.305-6.816-15.868-12.736-22.119c-6.287-6.64-9.236-14.955-12.547-22.954c-5.219-12.609-13.545-20.722-27.229-22.686
			c-4.084-0.586-7.294-2.324-10.208-5.191c-3.112-3.062-6.596-5.747-10.683-9.252c-4.429,4.341-8.604,8.346-12.672,12.455
			c-2.227,2.248-4.01,5.006-6.454,6.956c-8.476,6.758-12.269,15.463-12.37,26.213c-0.111,11.752-1.022,23.5-0.949,35.246
			c0.036,5.757,1.404,11.522,2.362,17.251c1.122,6.713,1.604,13.696,3.877,20.019c4.465,12.42,9.942,24.569,18.347,34.891
			C819.55,526.96,825.629,532.007,831.607,537.914z"/>
		<path fill-rule="evenodd" clip-rule="evenodd" d="M847.118,570.583c-3.796,0-7.591,0-11.386,0
			c-0.002-0.226-0.003-0.453-0.005-0.68c3.767,0,7.533,0,11.3,0C847.058,570.13,847.088,570.357,847.118,570.583z"/>
		<path fill-rule="evenodd" clip-rule="evenodd" d="M-313.617,499.52c-1.801-17.849,3.451-36.514,8.761-55.125
			c1.261-4.416,3.303-8.717,5.618-12.703c6.261-10.781,12.585-21.548,19.454-31.944c3.197-4.839,7.27-9.337,11.725-13.059
			c9.568-7.991,19.457-15.632,29.556-22.943c11.435-8.279,23.431-7.554,35.71-1.365c19.758,9.958,31.958,26.426,36.503,47.22
			c6.627,30.317,4.276,60.271-9.91,88.688c-10.323,20.678-23.787,38.535-42.083,52.987c-17.853,14.101-37.53,17.922-59.356,13.793
			c-8.79-1.662-15.919-5.921-21.539-12.89c-9.2-11.41-14.975-24.032-14.46-39.035C-313.503,509.23-313.617,505.309-313.617,499.52z
			 M-220.625,368.472c-2.987,2.493-6.177,4.762-8.881,7.509c-3.762,3.821-8.04,5.807-13.397,6.711
			c-12.092,2.039-19.96,9.6-24.671,20.729c-3.79,8.955-7.426,17.89-13.893,25.537c-4.198,4.965-7.459,10.905-10.259,16.825
			c-3.759,7.95-6.464,16.391-9.981,24.463c-6.292,14.439-5.301,29.713-5.411,44.843c-0.021,2.824,0.853,5.986,2.282,8.424
			c3.666,6.248,2.555,14.585,8.75,19.665c0.298,0.245,0.353,0.917,0.344,1.387c-0.17,8.824,6.013,11.706,12.977,13.459
			c12.048,3.031,24.231,3.287,36.392,0.609c6.138-1.353,11.504-4.193,15.33-9.372c1.439-1.947,3.241-3.948,3.727-6.175
			c0.384-1.758-0.993-3.899-1.568-5.805c1.132-1.057,1.957-1.982,2.929-2.71c11.673-8.731,19.329-20.518,25.711-33.354
			c4.709-9.472,7.616-19.517,9.859-29.757c1.348-6.153,2.789-12.457,2.806-18.696c0.04-13.951-0.691-27.907-1.305-41.854
			c-0.249-5.654-0.914-11.504-4.884-15.865c-7.393-8.122-15.165-15.898-22.842-23.756
			C-217.608,370.267-218.979,369.608-220.625,368.472z"/>
		<path fill-rule="evenodd" clip-rule="evenodd" d="M-233.84,570.546c-3.706,0-7.411,0-11.116,0c0-0.227,0.001-0.453,0.002-0.681
			c3.771,0,7.542,0,11.313,0C-233.707,570.093-233.773,570.319-233.84,570.546z"/>
		<path fill-rule="evenodd" clip-rule="evenodd" fill="none" d="M492.686,483.031c0.429-3.039,0.687-7.937,1.871-12.598
			c2.225-8.759,4.983-17.382,7.521-26.061c0.206-0.703,0.627-1.408,0.608-2.104c-0.405-15.735,9.563-27.347,16.017-40.347
			c2.621-5.282,7.345-7.838,12.814-8.831c2.886-0.524,4.442-2.153,6.531-3.924c8.157-6.912,16.685-13.409,25.311-19.736
			c3.723-2.73,7.861-5.046,12.101-6.885c6.015-2.611,12.304-4.589,18.462-6.876c3.36-1.248,6.214-0.019,8.994,1.694
			c7.861,4.845,15.596,9.911,23.622,14.465c5.965,3.386,9.361,8.106,10.961,14.752c1.755,7.292,4.312,14.39,6.479,21.585
			c2.457,8.155,2.175,16.393,0.375,24.595c-1.396,6.361-3.117,12.651-4.636,18.987c-3.257,13.583-7.173,26.844-17.423,37.15
			c-0.854,0.858-1.789,1.803-2.21,2.891c-4.479,11.606-14.102,18.983-22.033,27.876c-6.662,7.471-15.236,12.114-22.597,18.465
			c-9.119,7.868-19.872,13.157-31.965,15.579c-6.368,1.275-11.971,0.134-16.333-4.126c-5.985-5.843-12.84-10.405-19.556-15.216
			c-4.619-3.308-7.27-7.655-8.192-13.343c-0.978-6.028-2.7-11.933-3.787-17.947C494.535,497.069,493.832,490.991,492.686,483.031z"
			/>
		<path fill-rule="evenodd" clip-rule="evenodd" fill="none" d="M109.701,486.41c-2.347,12.024-4.678,24.764-7.363,37.428
			c-1.567,7.388-7.863,10.851-13.415,14.852c-3.13,2.256-6.467,4.37-9.113,7.122c-7.564,7.86-16.057,10.229-26.581,6.587
			c-8.418-2.915-16.238-6.755-23.421-11.935c-6.332-4.567-13.083-8.722-18.723-14.041c-8.502-8.018-16.259-16.834-24.178-25.453
			c-1.441-1.568-2.078-3.854-3.201-5.741c-1.479-2.482-2.688-5.284-4.692-7.26c-4.302-4.24-7.397-9.015-9.088-14.819
			c-0.747-2.563-1.861-5.068-3.146-7.416c-4.419-8.073-4.659-17.245-7.029-25.852c-2.148-7.803-3.725-15.661-2.811-23.799
			c0.296-2.642,0.735-5.303,1.466-7.853c2.137-7.457,4.685-14.802,6.626-22.306c1.493-5.773,4.331-10.234,9.481-13.325
			c8.546-5.128,16.895-10.597,25.573-15.485c2.308-1.3,5.622-1.712,8.278-1.292c4.294,0.679,8.757,1.762,12.565,3.776
			c10.968,5.802,22.602,10.567,31.561,19.71c4.232,4.319,8.99,8.136,13.641,12.021c1.031,0.862,2.582,1.282,3.96,1.519
			c7.383,1.271,12.291,5.442,15.355,12.219c1.604,3.547,3.674,6.901,5.717,10.229c4.673,7.616,7.938,15.655,8.284,24.728
			c0.064,1.665,0.681,3.324,1.142,4.957c2.653,9.41,5.557,18.759,7.904,28.246C109.472,477.18,109.285,481.418,109.701,486.41z"/>
		<path fill-rule="evenodd" clip-rule="evenodd" fill="none" d="M831.607,537.914c-5.979-5.907-12.058-10.954-16.953-16.967
			c-8.404-10.321-13.882-22.471-18.347-34.891c-2.273-6.322-2.755-13.306-3.877-20.019c-0.958-5.729-2.326-11.494-2.362-17.251
			c-0.073-11.746,0.838-23.494,0.949-35.246c0.102-10.75,3.895-19.455,12.37-26.213c2.444-1.949,4.228-4.708,6.454-6.956
			c4.068-4.108,8.243-8.113,12.672-12.455c4.087,3.505,7.57,6.19,10.683,9.252c2.914,2.868,6.124,4.605,10.208,5.191
			c13.684,1.964,22.01,10.077,27.229,22.686c3.311,7.999,6.26,16.314,12.547,22.954c5.92,6.251,10.07,13.814,12.736,22.119
			c0.97,3.021,2.141,6.017,3.586,8.838c8.146,15.91,10.52,32.979,10.22,50.563c-0.062,3.64-0.374,7.383-1.322,10.875
			c-1.587,5.846-3.043,11.938-5.945,17.149c-2.358,4.234-3.844,8.645-5.82,12.891c-1.418,3.048-5.563,5.896-8.999,6.718
			c-7.553,1.805-15.405,2.843-23.172,3.092c-5.775,0.185-11.652-1.121-17.4-2.207c-6.024-1.138-10.572-4.776-14.355-9.55
			C829.971,545.037,827.649,541.738,831.607,537.914z"/>
		<path fill-rule="evenodd" clip-rule="evenodd" fill="none" d="M-220.625,368.472c1.647,1.137,3.018,1.795,4.016,2.817
			c7.677,7.858,15.449,15.635,22.842,23.756c3.97,4.361,4.635,10.21,4.884,15.865c0.613,13.946,1.344,27.902,1.305,41.854
			c-0.017,6.239-1.458,12.543-2.806,18.696c-2.243,10.24-5.15,20.285-9.859,29.757c-6.382,12.836-14.039,24.622-25.711,33.354
			c-0.973,0.728-1.797,1.653-2.929,2.71c0.575,1.905,1.953,4.047,1.568,5.805c-0.486,2.227-2.288,4.228-3.727,6.175
			c-3.825,5.179-9.191,8.02-15.33,9.372c-12.161,2.678-24.344,2.422-36.392-0.609c-6.964-1.753-13.147-4.635-12.977-13.459
			c0.009-0.47-0.046-1.142-0.344-1.387c-6.195-5.08-5.084-13.417-8.75-19.665c-1.429-2.438-2.303-5.6-2.282-8.424
			c0.11-15.13-0.881-30.403,5.411-44.843c3.517-8.072,6.223-16.513,9.981-24.463c2.799-5.92,6.061-11.86,10.259-16.825
			c6.467-7.647,10.103-16.582,13.893-25.537c4.71-11.129,12.579-18.689,24.671-20.729c5.357-0.904,9.635-2.89,13.397-6.711
			C-226.802,373.234-223.613,370.965-220.625,368.472z"/>
	</g>
</g>
</svg>
